<svg width="31" height="30" viewBox="0 0 31 30" fill="none" xmlns="http://www.w3.org/2000/svg">
<g clip-path="url(#clip0_196_1818)">
<path fill-rule="evenodd" clip-rule="evenodd" d="M0.5 0H30.5V30H0.5V0ZM6.3233 20.905V16.195H11.31L11.845 16.8917L12.3983 16.195H30.5V20.58C30.5 20.58 30.0266 20.9 29.4783 20.905H19.455L18.8516 20.1633V20.905H16.8766V19.6383C16.8766 19.6383 16.6066 19.815 16.0233 19.815H15.35V20.905H12.3566L11.8216 20.1933L11.2783 20.905H6.3233ZM0.5 12.645L1.625 10.0233H3.57L4.20833 11.4916V10.0233H6.62667L7.00667 11.085L7.375 10.0233H18.2283V10.5566C18.2283 10.5566 18.7983 10.0233 19.7367 10.0233L23.2583 10.035L23.885 11.485V10.0233H25.9083L26.465 10.8566V10.0233H28.5067V14.7333H26.465L25.9317 13.8983V14.7333H22.9583L22.66 13.9916H21.8617L21.5683 14.7333H19.5517C18.745 14.7333 18.2283 14.21 18.2283 14.21V14.7333H15.1867L14.5833 13.9916V14.7333H3.28167L2.98333 13.9916H2.18667L1.89 14.7333H0.5V12.645Z" fill="#BFDFFF"/>
<path fill-rule="evenodd" clip-rule="evenodd" d="M2.02326 10.6033L0.506592 14.13H1.49326L1.77326 13.4233H3.39992L3.67826 14.13H4.68826L3.17326 10.6033H2.02326ZM2.58326 11.425L3.07993 12.6583H2.08659L2.58326 11.425ZM4.79163 14.13V10.6033L6.19496 10.6083L7.01163 12.8817L7.8083 10.6033H9.19996V14.13H8.3183V11.5317L7.38496 14.13H6.61163L5.67329 11.5317V14.13H4.79163ZM9.80328 14.13V10.6033H12.6816V11.3917H10.6949V11.995H12.6349V12.7383H10.6949V13.365H12.6816V14.13H9.80328ZM13.1916 10.6033V14.13H14.0732V12.8767H14.4449L15.5016 14.13H16.5782L15.4182 12.83C15.8949 12.79 16.3849 12.3817 16.3849 11.7467C16.3849 11.005 15.8016 10.6033 15.1516 10.6033H13.1916ZM14.0732 11.3933H15.0815C15.3232 11.3933 15.4999 11.5817 15.4999 11.765C15.4999 12 15.2715 12.1367 15.0949 12.1367H14.0732V11.3933ZM17.6466 14.13H16.7466V10.6033H17.6466V14.13ZM19.7799 14.13H19.5849C18.6449 14.13 18.0732 13.39 18.0732 12.3817C18.0732 11.3483 18.6382 10.6033 19.8249 10.6033H20.7999V11.4383H19.7899C19.3082 11.4383 18.9665 11.815 18.9665 12.39C18.9665 13.0733 19.3565 13.36 19.9182 13.36H20.1499L19.7799 14.13ZM21.6999 10.6033L20.1832 14.13H21.1699L21.4499 13.4233H23.0766L23.3549 14.13H24.3649L22.8499 10.6033H21.6999ZM22.2599 11.425L22.7566 12.6583H21.7633L22.2599 11.425ZM24.4682 14.13V10.6033H25.5882L27.0199 12.8183V10.6033H27.9016V14.13H26.8166L25.3499 11.8567V14.13H24.4682ZM6.92664 20.3016V16.775H9.80331V17.5633H7.8183V18.1666H9.75831V18.91H7.8183V19.5366H9.80331V20.3016H6.92664ZM21.0249 20.3016V16.775H23.9015V17.5633H21.9149V18.1666H23.8449V18.91H21.9149V19.5366H23.9015V20.3016H21.0249ZM9.91499 20.3016L11.3166 18.56L9.88165 16.775H10.9933L11.8466 17.8783L12.7049 16.775H13.7716L12.3566 18.5383L13.7599 20.3016H12.6483L11.8199 19.215L11.0099 20.3016H9.91499ZM13.8649 16.775V20.3016H14.7699V19.1883H15.6982C16.4832 19.1883 17.0782 18.7716 17.0782 17.9616C17.0782 17.29 16.6116 16.775 15.8116 16.775H13.8649ZM14.7699 17.5733H15.7466C15.9999 17.5733 16.1816 17.7283 16.1816 17.98C16.1816 18.215 16.0016 18.3866 15.7432 18.3866H14.7682V17.5733H14.7699ZM17.4599 16.775V20.3016H18.3416V19.0483H18.7133L19.7699 20.3016H20.8466L19.6866 19.0016C20.1632 18.9616 20.6532 18.5533 20.6532 17.9183C20.6532 17.1766 20.0699 16.775 19.4199 16.775H17.4599ZM18.3416 17.5633H19.3499C19.5916 17.5633 19.7683 17.7516 19.7683 17.935C19.7683 18.17 19.5399 18.3066 19.3633 18.3066H18.3416V17.5633ZM24.3099 20.3016V19.5366H26.0749C26.3366 19.5366 26.4499 19.3949 26.4499 19.2416C26.4499 19.0933 26.3366 18.9433 26.0749 18.9433H25.2782C24.5849 18.9433 24.1999 18.5216 24.1999 17.8866C24.1999 17.3216 24.5532 16.7766 25.5832 16.7766H27.2999L26.9282 17.5699H25.4432C25.1599 17.5699 25.0716 17.7183 25.0716 17.8616C25.0716 18.0083 25.1799 18.1683 25.3966 18.1683H26.2316C27.0049 18.1683 27.3399 18.6066 27.3399 19.1799C27.3399 19.7966 26.9666 20.3016 26.1899 20.3016H24.3099ZM27.5449 20.3016V19.5366H29.2349C29.4966 19.5366 29.6099 19.3949 29.6099 19.2416C29.6099 19.0933 29.4966 18.9433 29.2349 18.9433H28.5116C27.8182 18.9433 27.4332 18.5216 27.4332 17.8866C27.4332 17.3216 27.7866 16.7766 28.8166 16.7766H30.4999L30.1282 17.5699H28.6782C28.3949 17.5699 28.3066 17.7183 28.3066 17.8616C28.3066 18.0083 28.4149 18.1683 28.6316 18.1683H29.3916C30.1649 18.1683 30.4999 18.6066 30.4999 19.1799C30.4999 19.7966 30.1266 20.3016 29.3499 20.3016H27.5449Z" fill="#BFDFFF"/>
</g>
<defs>
<clipPath id="clip0_196_1818">
<rect width="30" height="30" fill="white" transform="translate(0.5)"/>
</clipPath>
</defs>
</svg>
