<svg width="41" height="30" viewBox="0 0 41 30" fill="none" xmlns="http://www.w3.org/2000/svg">
<g clip-path="url(#clip0_196_1860)">
<path d="M9.8833 0H31.1118V30H9.88336L9.8833 0Z" fill="white"/>
<path d="M-0.728027 0H9.88328V30H-0.728027V0ZM31.1118 0H41.7231V30H31.1177L31.1118 0ZM13.065 14.4961L12.2329 14.7774L16.0708 18.1465C16.3638 19.0078 15.9712 19.2598 15.7192 19.7168L19.8794 19.1894L19.7798 23.3789L20.647 23.3554L20.4536 19.1953L24.6255 19.6934C24.3677 19.1484 24.1392 18.8613 24.3735 17.9941L28.2056 14.8007L27.5376 14.5547C26.9868 14.1328 27.772 12.5215 27.8892 11.5019C27.8892 11.5019 25.6567 12.2695 25.5102 11.8652L24.936 10.7696L22.9028 13.0078C22.6802 13.0606 22.5864 12.9726 22.5337 12.7851L23.4712 8.10938L21.9829 8.94725C21.8598 9.00588 21.7368 8.959 21.6548 8.8125L20.2192 5.94137L18.7427 8.92387C18.6313 9.02931 18.52 9.041 18.4263 8.97075L17.0083 8.17387L17.8638 12.8086C17.7935 12.9961 17.6294 13.0429 17.4419 12.9434L15.4907 10.7344C15.2388 11.1446 15.0688 11.8066 14.729 11.959C14.395 12.0996 13.2642 11.6777 12.5083 11.5137C12.7661 12.4453 13.5747 13.9922 13.065 14.5019V14.4961Z" fill="#D52B1E"/>
</g>
<defs>
<clipPath id="clip0_196_1860">
<rect width="40" height="30" fill="white" transform="translate(0.5)"/>
</clipPath>
</defs>
</svg>
