<svg width="150" height="150" viewBox="0 0 150 150" fill="none" xmlns="http://www.w3.org/2000/svg">
<g id="4 Work done">
<circle id="Oval Copy 6" cx="75" cy="75" r="74.5" fill="#1B99E5" fill-opacity="0.1" stroke="#1B99E5"/>
<g id="Picture">
<path id="Path" d="M3.04306 120.541C3.04306 120.541 2.14984 122.428 8.49942 124H141.384C141.384 124 145.83 123.677 147 121.301V120L3.04306 120.541Z" fill="#CFD2D3"/>
<path id="Path_2" d="M3.09493 116H146.991V120.456C146.991 120.456 147.207 121.053 145.513 120.904H4.44813C4.44813 120.904 3.1232 121.353 3 120.308L3.09493 116Z" fill="#F3F4F4"/>
<path id="Path_3" d="M144.259 118.506C144.279 118.756 144.096 118.975 143.847 119H134.415C134.165 118.975 133.982 118.756 134.002 118.506C133.977 118.253 134.162 118.027 134.415 118H143.847C144.1 118.027 144.284 118.253 144.259 118.506Z" fill="#CFD2D3"/>
<path id="Path_4" d="M64.0838 116C64.0838 116 63.4895 117.813 65.4668 117.993H83.3301C83.3301 117.993 85.2297 118.219 84.9768 116.061L64.0838 116Z" fill="#CFD2D3"/>
<path id="Path_5" d="M85.594 120.718V120.672C85.5926 120.687 85.5926 120.703 85.594 120.718Z" fill="url(#paint0_linear_1_5256)"/>
<path id="Path_6" d="M133 116V51.3366C132.992 48.3933 130.568 46.0088 127.574 46.0001H22.4276C19.4337 46.0088 17.0089 48.3929 17 51.3366V116H133Z" fill="#1974AB"/>
<rect id="Rectangle" x="20" y="50.0001" width="110" height="62" fill="#A5CFE9"/>
</g>
<g id="Paper">
<path id="Rectangle_2" fill-rule="evenodd" clip-rule="evenodd" d="M41 20C41 18.8954 41.8954 18 43 18H96L109 31V112H41V20Z" fill="white"/>
<path id="A+" fill-rule="evenodd" clip-rule="evenodd" d="M51.9912 37.1577C51.9759 37.1644 51.9497 37.1849 51.9127 37.2192C51.8704 37.2583 51.8422 37.2794 51.8283 37.2826L51.7255 37.2184L51.6644 37.1445C51.6237 37.0952 51.6017 37.0636 51.5985 37.0497C51.5846 37.0529 51.575 37.0588 51.5696 37.0674C51.5642 37.0759 51.5546 37.0818 51.5407 37.085C51.53 37.1022 51.5107 37.114 51.4828 37.1204C51.4893 37.1482 51.5027 37.1745 51.523 37.1991C51.5434 37.2238 51.5412 37.2463 51.5166 37.2666C51.5198 37.2805 51.5161 37.2961 51.5053 37.3132C51.4839 37.3475 51.4663 37.3662 51.4523 37.3695C51.4309 37.4037 51.3768 37.4712 51.2901 37.5719C51.2033 37.6726 51.1422 37.7417 51.1069 37.7792L51.1262 37.8628L51.1969 37.9785C51.2205 38.017 51.2424 38.0486 51.2628 38.0733L51.2821 38.1568C51.2853 38.1707 51.2674 38.2042 51.2283 38.2573C51.1892 38.3103 51.1712 38.3438 51.1744 38.3577C51.1809 38.3855 51.179 38.441 51.1688 38.524C51.1587 38.607 51.1568 38.6625 51.1632 38.6903C51.1354 38.6967 51.1198 38.693 51.1166 38.6791C51.0545 38.6641 51.0202 38.6427 51.0138 38.6148L50.9655 38.4059L50.4561 38.1055L50.3308 38.1344L50.2826 38.2116C50.2612 38.2458 50.2564 38.3203 50.2682 38.4349C50.28 38.5495 50.2821 38.6224 50.2746 38.6534C50.2639 38.6706 50.257 38.7199 50.2538 38.8013C50.2505 38.8827 50.2522 38.9373 50.2586 38.9652L50.3052 38.9764C50.3191 38.9732 50.3314 38.963 50.3421 38.9459C50.3561 38.9427 50.3676 38.929 50.3767 38.9049C50.3858 38.8808 50.4027 38.8586 50.4273 38.8382C50.4209 38.8104 50.4375 38.7552 50.4771 38.6727C50.5167 38.5902 50.5403 38.5334 50.5478 38.5024C50.5649 38.5131 50.5869 38.5447 50.6137 38.5972C50.6405 38.6497 50.6555 38.6829 50.6587 38.6968C50.6512 38.7279 50.6327 38.7908 50.6032 38.8856C50.5738 38.9804 50.5553 39.0433 50.5478 39.0744L50.6925 39.7011C50.6989 39.7289 50.7383 39.8042 50.8106 39.9268C50.883 40.0495 50.9223 40.1247 50.9288 40.1526L50.9673 40.3197C50.9256 40.3293 50.8618 40.355 50.7761 40.3968C50.6904 40.4386 50.6337 40.4627 50.6058 40.4691C50.5812 40.4895 50.5423 40.5278 50.4893 40.584C50.4363 40.6403 50.3975 40.6786 50.3728 40.6989L50.3198 40.4692L50.2877 40.5206C50.2769 40.5377 50.2646 40.5479 50.2507 40.5511L50.2298 40.556L50.1559 40.617C50.1313 40.6374 50.112 40.6492 50.0981 40.6524C50.0938 40.6974 50.0908 40.7641 50.0892 40.8524C50.0876 40.9408 50.0901 40.9989 50.0965 41.0268C50.1072 41.0096 50.1439 40.9938 50.2066 40.9794C50.2692 40.9649 50.3091 40.963 50.3263 40.9737C50.3541 40.9673 50.3999 40.9751 50.4637 40.997C50.5274 41.019 50.5625 41.0439 50.5689 41.0717C50.5753 41.0996 50.5545 41.1521 50.5063 41.2292C50.4581 41.3063 50.427 41.3465 50.4131 41.3497C50.4195 41.3776 50.4115 41.4381 50.389 41.5313C50.3665 41.6245 50.3499 41.6797 50.3392 41.6968C50.3317 41.7279 50.3076 41.7664 50.2669 41.8125C50.2262 41.8586 50.2074 41.8886 50.2107 41.9025L50.0227 41.9459C50.0055 41.9352 49.9292 41.9381 49.7937 41.9548C49.6582 41.9714 49.5749 41.9759 49.5438 41.9684C49.5299 41.9717 49.4889 41.9848 49.4209 42.0078C49.3529 42.0309 49.3103 42.037 49.2932 42.0263C49.2899 42.0124 49.2677 41.9955 49.2265 41.9757C49.1852 41.9559 49.1614 41.9321 49.155 41.9042L49.044 41.4238C49.0376 41.3959 49.0004 41.3458 48.9323 41.2735C48.8643 41.2012 48.8201 41.1528 48.7998 41.1281L48.7323 40.8357C48.7258 40.8078 48.7293 40.7594 48.7427 40.6903C48.7561 40.6212 48.7595 40.5727 48.7531 40.5448C48.7638 40.5277 48.7716 40.4819 48.7764 40.4075C48.7812 40.333 48.7804 40.2819 48.774 40.254L48.8736 40.209L48.9202 40.2202L48.962 40.2106C48.9898 40.2042 49.0236 40.2074 49.0632 40.2202C49.1028 40.2331 49.1296 40.2379 49.1436 40.2347C49.151 40.2036 49.1575 40.1361 49.1628 40.0322C49.1682 39.9283 49.1676 39.8624 49.1612 39.8346C49.158 39.8206 49.1333 39.7933 49.0873 39.7526C49.0412 39.7119 49.0166 39.6846 49.0133 39.6707C49.0101 39.6568 49.0294 39.5973 49.0712 39.4923C49.1129 39.3873 49.1392 39.3263 49.1499 39.3091C49.1467 39.2952 49.1274 39.2593 49.092 39.2015C49.0567 39.1436 49.0219 39.104 48.9876 39.0826C48.9565 39.0751 48.9324 39.066 48.9153 39.0553L48.8638 39.0231L48.8349 38.8978C48.8317 38.8839 48.8424 38.8667 48.867 38.8464C48.8917 38.826 48.911 38.8142 48.9249 38.811C48.9495 38.7907 48.9908 38.7628 49.0486 38.7275C49.1065 38.6921 49.1407 38.6659 49.1514 38.6487L49.1129 38.4816C49.0957 38.4709 49.0622 38.453 49.0124 38.4278C48.9626 38.4026 48.9361 38.3831 48.9329 38.3691C48.9157 38.3584 48.9056 38.3461 48.9023 38.3322L48.8927 38.2904L48.8991 38.2229C48.8927 38.1951 48.8868 38.1378 48.8814 38.051C48.8761 37.9642 48.8771 37.9053 48.8846 37.8742C48.8814 37.8603 48.8854 37.8301 48.8967 37.7835L48.9248 37.667C48.9451 37.6916 49.0008 37.7264 49.0919 37.7714C49.183 37.8164 49.2456 37.8496 49.2799 37.871L49.447 37.8324C49.4374 37.7906 49.4342 37.729 49.4374 37.6476C49.4406 37.5662 49.4459 37.51 49.4534 37.4789L49.4968 37.3809C49.5503 37.2952 49.5755 37.2454 49.5723 37.2314C49.5734 37.1725 49.5578 37.0734 49.5257 36.9342C49.4935 36.7949 49.4657 36.706 49.4421 36.6674C49.5053 36.6235 49.5321 36.5807 49.5224 36.5389C49.5331 36.5217 49.543 36.5011 49.5521 36.477C49.5612 36.4529 49.5765 36.4237 49.5979 36.3894C49.6194 36.3552 49.6338 36.3225 49.6413 36.2914C49.6381 36.2775 49.6204 36.2486 49.5883 36.2047C49.5561 36.1607 49.5385 36.1318 49.5352 36.1179C49.5181 36.1072 49.4868 36.0667 49.4412 35.9966C49.3957 35.9264 49.3697 35.8774 49.3633 35.8496L49.3295 35.7033C49.3327 35.7173 49.3499 35.728 49.3809 35.7355C49.412 35.743 49.4345 35.7451 49.4484 35.7419C49.4827 35.7633 49.5481 35.7922 49.6445 35.8287C49.7409 35.8651 49.7977 35.8886 49.8148 35.8993L49.9401 35.8704C49.9476 35.8393 49.9691 35.8051 50.0044 35.7676C50.0398 35.7301 50.0697 35.7011 50.0944 35.6808C50.088 35.6529 50.0657 35.5884 50.0277 35.4872C49.9896 35.3859 49.9813 35.3182 50.0028 35.2839C49.9995 35.27 50.0009 35.244 50.0068 35.206C50.0127 35.1679 50.014 35.142 50.0108 35.128C50.0076 35.1141 50.007 35.0959 50.0092 35.0734C50.0113 35.0509 50.0108 35.0327 50.0075 35.0188L49.9722 34.9609L49.9159 34.9079C49.8849 34.9004 49.8661 34.8827 49.8597 34.8549L50.0477 34.8115C50.0723 34.7911 50.0964 34.7526 50.12 34.6958C50.1436 34.639 50.1607 34.602 50.1714 34.5849C50.1682 34.571 50.1722 34.493 50.1834 34.3511C50.1947 34.2092 50.1971 34.1243 50.1906 34.0964C50.1842 34.0686 50.1896 34.0123 50.2067 33.9277C50.2238 33.8431 50.2431 33.7836 50.2645 33.7493L50.2967 33.6979C50.3074 33.6808 50.3111 33.6652 50.3079 33.6513L50.5747 33.8537L50.6823 33.6529L50.4798 32.7756L50.5858 32.6631C50.6415 32.6502 50.6758 32.6716 50.6886 32.7273C50.709 32.752 50.7409 32.8106 50.7843 32.9033C50.8277 32.9959 50.8542 33.0631 50.8638 33.1049L50.9362 33.4183C50.949 33.474 50.9833 33.4954 51.039 33.4825L51.1434 33.4584C51.1542 33.4413 51.1617 33.4102 51.1659 33.3652C51.1702 33.3202 51.1707 33.2908 51.1675 33.2768C51.175 33.2458 51.1667 33.178 51.1426 33.0736C51.1185 32.9691 51.0963 32.9046 51.0759 32.8799C51.1038 32.8735 51.1354 32.8516 51.1707 32.8141C51.206 32.7766 51.2307 32.7562 51.2446 32.753C51.2767 32.7016 51.3067 32.6726 51.3346 32.6662L51.3153 32.5827L51.1988 32.5545C51.1522 32.5433 51.115 32.5409 51.0871 32.5473C51.0839 32.5334 51.0702 32.5219 51.0461 32.5128C51.022 32.5037 51.0014 32.4938 50.9843 32.4831C50.9639 32.4584 50.9066 32.4167 50.8123 32.3577C50.7181 32.2988 50.6693 32.2624 50.6661 32.2485L50.5633 32.1842L50.5054 31.9336C50.5022 31.9196 50.5102 31.9068 50.5295 31.895C50.5488 31.8832 50.5638 31.8687 50.5745 31.8516C50.582 31.8205 50.6237 31.7632 50.6998 31.6797C50.7758 31.5961 50.8246 31.5372 50.846 31.5029C50.8738 31.4965 50.8934 31.47 50.9046 31.4234C50.9159 31.3768 50.9199 31.3465 50.9167 31.3326C50.9306 31.3293 50.9429 31.3192 50.9536 31.302C50.9751 31.2677 50.9927 31.249 51.0067 31.2458C51.0002 31.2179 51.0037 31.1695 51.0171 31.1004C51.0305 31.0313 51.0356 30.9898 51.0323 30.9758C51.0259 30.948 51.0214 30.9124 51.0187 30.869C51.016 30.8256 51.013 30.7969 51.0098 30.783C51.0655 30.7702 51.1041 30.7466 51.1255 30.7123C51.1609 30.6748 51.2128 30.6298 51.2814 30.5773C51.3499 30.5248 51.3826 30.4916 51.3794 30.4777L51.2347 29.851C51.2218 29.7953 51.2363 29.7626 51.2781 29.753C51.3027 29.7326 51.3514 29.7214 51.4243 29.7192C51.4971 29.7171 51.5405 29.7144 51.5544 29.7112L51.4676 29.3352C51.5373 29.3191 51.5882 29.2854 51.6203 29.2339C51.6621 29.2243 51.6939 29.1876 51.7159 29.1239C51.7378 29.0601 51.7526 29.0127 51.7601 28.9817L51.6845 28.8451C51.6674 28.8344 51.654 28.8081 51.6443 28.7664C51.6583 28.7631 51.6942 28.7439 51.752 28.7085C51.8098 28.6731 51.8441 28.6469 51.8548 28.6298C51.8516 28.6158 51.8567 28.5743 51.8701 28.5052C51.8835 28.4361 51.9009 28.3844 51.9223 28.3502L51.903 28.2666C51.8998 28.2527 51.8813 28.2203 51.8476 28.1694C51.8138 28.1185 51.7827 28.0633 51.7543 28.0039C51.7259 27.9444 51.7018 27.8877 51.682 27.8336C51.6622 27.7795 51.6507 27.7455 51.6475 27.7315C51.641 27.7037 51.6576 27.6485 51.6973 27.566C51.7369 27.4835 51.7604 27.4268 51.7679 27.3957L51.9559 27.3523C51.9495 27.3244 51.95 27.295 51.9575 27.2639C51.965 27.2329 51.9795 27.2002 52.0009 27.1659C52.0255 27.1455 52.0652 27.1107 52.1198 27.0614C52.1744 27.0122 52.2055 26.972 52.213 26.9409C52.2408 26.9345 52.2682 26.9098 52.2949 26.867L52.3672 26.7513C52.3769 26.7931 52.4149 26.8466 52.4813 26.912C52.5478 26.9773 52.5965 27.0137 52.6276 27.0212C52.6619 27.0426 52.7208 27.0437 52.8043 27.0244C52.8879 27.0051 52.9404 26.9783 52.9618 26.9441L54.2168 27.1384C54.2232 27.1662 54.2478 27.1935 54.2907 27.2203C54.3335 27.2471 54.3651 27.2728 54.3855 27.2974C54.3887 27.3114 54.3989 27.3237 54.416 27.3344C54.4332 27.3451 54.4487 27.3488 54.4626 27.3456C54.4937 27.3531 54.5572 27.3421 54.653 27.3127C54.7489 27.2832 54.8038 27.2669 54.8177 27.2637C54.8209 27.2776 54.8311 27.2899 54.8483 27.3006C54.8825 27.322 54.9066 27.3311 54.9206 27.3279C54.9345 27.3247 54.9431 27.3301 54.9463 27.344C54.9184 27.3504 54.8844 27.3619 54.8443 27.3785C54.8041 27.3951 54.7803 27.419 54.7728 27.45C54.7449 27.4565 54.7254 27.483 54.7141 27.5296C54.7029 27.5762 54.6989 27.6065 54.7021 27.6204C54.6946 27.6514 54.6737 27.7039 54.6394 27.7779C54.6051 27.8518 54.5896 27.8957 54.5928 27.9096C54.596 27.9236 54.6014 27.9627 54.6089 28.0269C54.6164 28.0912 54.6234 28.1373 54.6298 28.1651C54.6395 28.2069 54.6566 28.2653 54.6812 28.3403C54.7059 28.4152 54.7198 28.4597 54.723 28.4736C54.7295 28.5015 54.7512 28.5478 54.7881 28.6126C54.8251 28.6774 54.8538 28.7221 54.8741 28.7468C54.8913 28.7575 54.9092 28.7717 54.9279 28.7893C54.9467 28.807 54.9646 28.8212 54.9818 28.8319L55.1698 28.7885C55.1762 28.8164 55.2124 28.8777 55.2783 28.9725L55.443 29.2095C55.4601 29.2202 55.4805 29.2448 55.504 29.2834C55.5276 29.322 55.548 29.3466 55.5651 29.3573C55.5683 29.3712 55.5946 29.4055 55.6439 29.4601C55.6931 29.5148 55.728 29.5544 55.7483 29.579L55.8046 29.6321C55.811 29.6599 55.8437 29.722 55.9026 29.8184C55.9615 29.9148 56.006 29.9963 56.036 30.0627L56.0697 30.2089C56.0762 30.2367 56.1019 30.3005 56.1469 30.4001C56.1919 30.4997 56.2176 30.5635 56.224 30.5913L56.2497 30.6074C56.2669 30.6181 56.2763 30.6269 56.2779 30.6339C56.2795 30.6408 56.2889 30.6497 56.306 30.6604C56.3263 30.685 56.3537 30.7081 56.3879 30.7295C56.4083 30.7541 56.4399 30.8275 56.4828 30.9496C56.5256 31.0717 56.5572 31.1451 56.5776 31.1697C56.584 31.1976 56.6223 31.2364 56.6925 31.2862C56.7627 31.336 56.7994 31.3679 56.8026 31.3818L56.9135 31.8623C56.9167 31.8762 56.9371 31.9008 56.9746 31.9362C57.0121 31.9715 57.0378 31.9876 57.0517 31.9844C57.0721 32.009 57.1441 32.051 57.2678 32.1105C57.3916 32.1699 57.4636 32.212 57.484 32.2366L57.4984 32.2993C57.4877 32.3164 57.4561 32.3384 57.4036 32.3652C57.3511 32.3919 57.3195 32.4139 57.3088 32.431L57.3426 32.5773C57.3597 32.588 57.3836 32.6118 57.4141 32.6488C57.4446 32.6857 57.4754 32.7079 57.5065 32.7154L57.6093 32.7797C57.6297 32.8043 57.6669 32.8544 57.721 32.9299C57.7751 33.0055 57.8124 33.0555 57.8327 33.0802C57.8467 33.077 57.8622 33.0807 57.8793 33.0914C57.9136 33.1128 57.9377 33.1219 57.9516 33.1187C57.9859 33.1401 58.0186 33.1546 58.0497 33.1621C58.07 33.1867 58.1032 33.2671 58.1493 33.4031C58.1954 33.5392 58.2356 33.6179 58.2698 33.6393C58.2731 33.6532 58.3274 33.6664 58.4329 33.6787C58.5385 33.691 58.6068 33.7009 58.6378 33.7084C58.655 33.7191 58.67 33.7523 58.6828 33.808C58.6893 33.8358 58.6903 33.8723 58.686 33.9173C58.6989 33.973 58.7402 33.9928 58.8098 33.9767L58.8724 33.9622L58.9367 34.0024C58.9624 34.0185 58.9769 34.0335 58.9801 34.0474L58.9166 34.106C58.8743 34.1451 58.8277 34.1816 58.7769 34.2153C58.726 34.2491 58.6794 34.2855 58.6371 34.3246L58.5736 34.3833C58.5768 34.3972 58.5766 34.4119 58.5728 34.4274C58.5691 34.443 58.5688 34.4577 58.572 34.4716L58.5817 34.5134C58.5849 34.5273 58.595 34.5397 58.6122 34.5504L58.715 34.6146C58.7461 34.6221 58.789 34.6489 58.8436 34.695C58.8982 34.741 58.9427 34.7748 58.977 34.7962C58.9845 34.7651 58.9992 34.7177 59.0211 34.654C59.0431 34.5902 59.0664 34.5482 59.091 34.5278C59.0878 34.5139 59.0977 34.4933 59.1208 34.466C59.1438 34.4386 59.1623 34.4234 59.1762 34.4202C59.1976 34.3859 59.2222 34.3655 59.2501 34.3591C59.2565 34.3869 59.2643 34.4365 59.2734 34.5077C59.2825 34.579 59.2903 34.6285 59.2967 34.6563C59.286 34.6735 59.2769 34.6976 59.2694 34.7287C59.2587 34.7458 59.2566 34.7683 59.263 34.7961L59.2871 34.9006C59.2935 34.9284 59.3069 34.9547 59.3273 34.9793C59.3476 35.004 59.3664 35.0216 59.3835 35.0323L59.4559 35.3457C59.4623 35.3735 59.5185 35.4265 59.6246 35.5047C59.7307 35.5829 59.7762 35.6531 59.7612 35.7152C59.7473 35.7184 59.7687 35.7318 59.8255 35.7554C59.8823 35.7789 59.9122 35.7977 59.9155 35.8116L59.9492 35.9578C59.9696 35.9825 60.0159 36.0561 60.0882 36.1788C60.1606 36.3014 60.2187 36.3943 60.2626 36.4575C60.269 36.4854 60.2433 36.5647 60.1855 36.6954C60.1277 36.8261 60.102 36.9053 60.1084 36.9332C60.1362 36.9268 60.1791 36.9059 60.2369 36.8705C60.2948 36.8351 60.3376 36.8143 60.3655 36.8078C60.3826 36.8185 60.4099 36.8416 60.4474 36.8769C60.4849 36.9123 60.5122 36.9353 60.5294 36.946C60.5422 37.0017 60.5765 37.0231 60.6322 37.0103C60.6387 37.0381 60.6644 37.0542 60.7094 37.0585L60.8026 37.0809C60.8058 37.0949 60.8144 37.1002 60.8283 37.097L60.8701 37.0874C60.8872 37.0981 60.9027 37.1018 60.9167 37.0986C60.9231 37.1265 60.9574 37.1956 61.0195 37.3059C61.0817 37.4162 61.1315 37.4891 61.169 37.5244C61.1925 37.563 61.2239 37.6034 61.263 37.6457C61.3021 37.688 61.3232 37.7161 61.3265 37.7301C61.3361 37.7718 61.361 37.8321 61.4012 37.9108C61.4414 37.9896 61.4832 38.0753 61.5266 38.1679C61.5699 38.2606 61.6074 38.3436 61.6391 38.417C61.6707 38.4903 61.6897 38.541 61.6961 38.5688C61.7165 38.5934 61.7328 38.6483 61.7451 38.7335C61.7575 38.8187 61.7652 38.8682 61.7685 38.8821C61.7717 38.8961 61.7885 38.9215 61.8191 38.9585C61.8496 38.9954 61.8718 39.0123 61.8858 39.0091L61.9243 39.1762C61.9136 39.1933 61.8362 39.2552 61.6922 39.3618C61.5481 39.4684 61.4723 39.5372 61.4648 39.5683C61.468 39.5822 61.464 39.6125 61.4528 39.6591C61.4415 39.7057 61.429 39.7306 61.415 39.7338C61.3904 39.7542 61.3457 39.7828 61.2809 39.8198C61.2161 39.8567 61.1767 39.8768 61.1628 39.88L61.0889 39.9411C61.0289 39.999 60.9957 40.014 60.9892 39.9861C60.9582 39.9786 60.9341 39.9695 60.9169 39.9588C60.8859 39.9513 60.85 39.9229 60.8093 39.8737C60.7921 39.8629 60.7656 39.8434 60.7297 39.815C60.6938 39.7866 60.6673 39.7671 60.6502 39.7564L60.6212 39.631C60.6352 39.6278 60.6544 39.616 60.6791 39.5957C60.7037 39.5753 60.723 39.5635 60.7369 39.5603L60.7176 39.4768C60.7005 39.4661 60.6764 39.457 60.6453 39.4495C60.6143 39.442 60.5901 39.4329 60.573 39.4221C60.5559 39.4114 60.5245 39.4187 60.479 39.4439C60.4335 39.469 60.4091 39.4747 60.4059 39.4607C60.4027 39.4468 60.3909 39.4275 60.3705 39.4029L60.3095 39.329C60.2923 39.3183 60.2594 39.2709 60.2106 39.1868C60.1619 39.1027 60.1359 39.0537 60.1327 39.0398C60.0984 39.0183 60.0339 38.9452 59.939 38.8204C59.8442 38.6957 59.7797 38.6225 59.7454 38.6011C59.7422 38.5872 59.7159 38.5529 59.6667 38.4983C59.6174 38.4437 59.5911 38.4094 59.5879 38.3955C59.5847 38.3815 59.5619 38.3465 59.5196 38.2902L59.3927 38.1215C59.3503 38.0653 59.3115 38.0082 59.2761 37.9504C59.2408 37.8926 59.2145 37.8583 59.1974 37.8476C59.177 37.8229 59.1417 37.7651 59.0913 37.674C59.041 37.583 58.9855 37.4858 58.925 37.3824C58.8645 37.279 58.8047 37.1792 58.7458 37.0827C58.6869 36.9863 58.644 36.9119 58.6172 36.8594C58.6033 36.8626 58.5712 36.8187 58.5208 36.7277L58.4501 36.612C58.4437 36.5841 58.4228 36.5413 58.3874 36.4834C58.3521 36.4256 58.3242 36.3843 58.3038 36.3597L58.2894 36.297C58.2755 36.3003 58.2556 36.2938 58.2299 36.2778L58.1656 36.2376C58.1453 36.213 58.1193 36.164 58.0877 36.0906C58.0561 36.0172 58.0371 35.9666 58.0306 35.9387L57.9921 35.7716C57.9717 35.747 57.9168 35.7157 57.8274 35.6776C57.7379 35.6396 57.676 35.6099 57.6417 35.5885C57.6075 35.5671 57.5411 35.5494 57.4425 35.5355C57.3439 35.5216 57.2877 35.5162 57.2738 35.5194C57.2459 35.5258 57.1645 35.5703 57.0295 35.6528C56.8946 35.7353 56.8201 35.7782 56.8062 35.7814L56.6809 35.8103C56.6669 35.8135 56.6378 35.7983 56.5933 35.7645C56.5488 35.7308 56.5111 35.7102 56.48 35.7027L56.3129 35.7413C56.2883 35.7616 56.2494 35.7999 56.1964 35.8562C56.1434 35.9124 56.103 35.9437 56.0751 35.9502C56.0612 35.9534 56.0063 35.9697 55.9104 35.9992C55.8145 36.0287 55.7457 36.0482 55.7039 36.0579L55.4533 36.1157C55.3976 36.1286 55.3472 36.1329 55.3022 36.1286C55.2744 36.135 55.2189 36.1332 55.1359 36.123C55.0529 36.1128 55.0044 36.1093 54.9905 36.1126C54.9766 36.1158 54.9485 36.1369 54.9061 36.176C54.8638 36.2151 54.8357 36.2363 54.8218 36.2395C54.8111 36.2567 54.7423 36.2762 54.6153 36.2982C54.4884 36.3202 54.411 36.3344 54.3831 36.3408C54.3692 36.344 54.3333 36.3633 54.2755 36.3986C54.2176 36.434 54.1748 36.4549 54.1469 36.4613C54.1223 36.4817 54.0639 36.4988 53.9718 36.5128C53.8797 36.5267 53.8266 36.5353 53.8127 36.5385C53.7602 36.5653 53.6536 36.6119 53.493 36.6783C53.3323 36.7447 53.2311 36.7828 53.1893 36.7924C53.1754 36.7956 53.1304 36.7914 53.0543 36.7796C52.9782 36.7678 52.9247 36.7582 52.8936 36.7507L52.8309 36.7651L52.7506 36.8937C52.726 36.9141 52.6772 36.9253 52.6044 36.9275C52.5316 36.9296 52.4898 36.9393 52.4791 36.9564C52.4544 36.9767 52.4148 37.0116 52.3602 37.0609C52.3055 37.1101 52.2745 37.1503 52.267 37.1814C52.2563 37.1985 52.252 37.2435 52.2541 37.3163C52.2563 37.3892 52.2606 37.4395 52.267 37.4674C52.2392 37.4738 52.2314 37.4719 52.2437 37.4618C52.256 37.4516 52.2483 37.4497 52.2204 37.4561L52.1047 37.3839C52.0619 37.3571 52.0388 37.3367 52.0356 37.3228C52.0185 37.3121 52.0043 37.2824 51.993 37.2336C51.9835 37.1924 51.983 37.1674 51.9915 37.1588L51.9912 37.1577ZM49.8652 41.7402L49.9696 41.7161L49.9503 41.6325L49.8459 41.6566L49.8652 41.7402ZM49.8587 41.2357L49.7591 41.2807L49.6626 40.8629C49.6798 40.8736 49.7202 40.8899 49.7839 40.9119C49.8477 40.9338 49.8828 40.9587 49.8892 40.9866L49.894 41.0075C49.8972 41.0214 49.9031 41.031 49.9117 41.0364C49.9203 41.0418 49.9262 41.0514 49.9294 41.0653L49.923 41.1328C49.9358 41.1885 49.9144 41.2228 49.8587 41.2357ZM49.9856 40.5464C49.9438 40.556 49.9277 40.5817 49.9374 40.6235C49.947 40.6653 49.9727 40.6813 50.0145 40.6717C50.0563 40.662 50.0723 40.6363 50.0627 40.5946C50.053 40.5528 50.0273 40.5367 49.9856 40.5464ZM50.9078 39.2993C50.9003 39.3304 50.8981 39.3529 50.9013 39.3668C50.9078 39.3947 50.9196 39.4139 50.9367 39.4247C50.9399 39.4386 50.9501 39.4509 50.9672 39.4616C50.9737 39.4895 50.9879 39.5192 51.0098 39.5508C51.0318 39.5824 51.0444 39.6052 51.0476 39.6191L51.152 39.595C51.1349 39.5843 51.1095 39.5535 51.0757 39.5026C51.042 39.4517 51.0165 39.4209 50.9994 39.4102L50.9753 39.3057C50.986 39.2886 51.0002 39.2707 51.0178 39.2519C51.0355 39.2332 51.0497 39.2152 51.0604 39.1981C51.0925 39.1467 51.1434 39.1129 51.2131 39.0968C51.2098 39.0829 51.2476 39.0559 51.3263 39.0157C51.4051 38.9755 51.4498 38.9468 51.4605 38.9297C51.5023 38.9201 51.5183 38.8943 51.5087 38.8526C51.5301 38.8183 51.536 38.7803 51.5264 38.7385C51.5124 38.7417 51.4958 38.7492 51.4765 38.761C51.4573 38.7728 51.4407 38.7803 51.4267 38.7835C51.3989 38.7899 51.3491 38.8124 51.2773 38.851C51.2055 38.8896 51.1713 38.9158 51.1745 38.9297C51.1498 38.9501 51.1102 38.9849 51.0556 39.0342C51.0009 39.0835 50.9629 39.1252 50.9415 39.1595C50.9447 39.1735 50.9428 39.1812 50.9359 39.1828C50.9289 39.1844 50.927 39.1922 50.9303 39.2061L50.9142 39.2318C50.9174 39.2458 50.9153 39.2683 50.9078 39.2993ZM50.6473 37.8854C50.7105 37.8415 50.7309 37.7707 50.7084 37.6733C50.6944 37.6765 50.6789 37.6727 50.6618 37.662C50.6478 37.6652 50.6366 37.6642 50.628 37.6588C50.6195 37.6535 50.6082 37.6524 50.5943 37.6556L50.6473 37.8854ZM50.1404 37.8813C50.1313 37.9054 50.1214 37.9261 50.1106 37.9432L50.0721 37.7761L50.1765 37.752L50.1862 37.7937C50.1647 37.828 50.1495 37.8572 50.1404 37.8813ZM51.3511 37.2168C51.3093 37.2264 51.2948 37.2591 51.3077 37.3148C51.3206 37.3705 51.3479 37.3935 51.3897 37.3839C51.4175 37.3774 51.425 37.3464 51.4121 37.2907C51.3993 37.235 51.3789 37.2103 51.3511 37.2168ZM50.1572 37.3824C50.1154 37.3921 50.0897 37.376 50.0801 37.3342L50.2681 37.2908L50.2874 37.3744L50.2456 37.384C50.2038 37.3937 50.1743 37.3931 50.1572 37.3824ZM53.0671 36.6446L53.1507 36.6253L53.1314 36.5418L53.0478 36.5611L53.0671 36.6446ZM49.9322 36.5983C49.9215 36.6154 49.9177 36.6309 49.9209 36.6449L49.8631 36.3942C49.8663 36.4081 49.8764 36.4204 49.8936 36.4312C49.9107 36.4419 49.9263 36.4456 49.9402 36.4424L49.9755 36.5002L49.9643 36.5468L49.9322 36.5983ZM49.7249 36.2721C49.6831 36.2818 49.6678 36.311 49.6791 36.3597C49.6903 36.4084 49.7168 36.428 49.7586 36.4183C49.8143 36.4055 49.8365 36.3747 49.8253 36.3259C49.814 36.2772 49.7806 36.2593 49.7249 36.2721ZM55.7038 34.9138C55.7456 34.9041 55.7713 34.9202 55.7809 34.962C55.7488 35.0134 55.707 35.0231 55.6556 34.9909C55.646 34.9491 55.662 34.9234 55.7038 34.9138ZM57.076 34.663C57.0803 34.618 57.065 34.5995 57.0302 34.6076C56.9954 34.6156 56.9828 34.6405 56.9925 34.6823C57.0268 34.7037 57.0546 34.6973 57.076 34.663ZM56.9724 34.4999C56.9579 34.4373 56.9716 34.4011 57.0133 34.3915C57.0551 34.3818 57.0832 34.4083 57.0977 34.471C57.1122 34.5337 57.0985 34.5698 57.0568 34.5795C57.015 34.5891 56.9869 34.5626 56.9724 34.4999ZM54.4745 34.7355C54.4467 34.742 54.4384 34.7695 54.4496 34.8183C54.4609 34.867 54.4804 34.8882 54.5083 34.8817C54.5779 34.8657 54.6071 34.8333 54.5959 34.7845C54.5846 34.7358 54.5442 34.7194 54.4745 34.7355ZM54.6577 34.6713C54.6267 34.6638 54.6026 34.6547 54.5854 34.644C54.5715 34.6472 54.5399 34.6691 54.4906 34.7099C54.466 34.7302 54.4397 34.7436 54.4119 34.75C54.398 34.7533 54.3755 34.7511 54.3444 34.7436C54.3133 34.7361 54.2962 34.7254 54.293 34.7115L53.4992 34.8947C53.4682 34.8872 53.4355 34.8728 53.4012 34.8514C53.3701 34.8439 53.3289 34.8241 53.2775 34.7919L53.2534 34.6875C53.2501 34.6736 53.2571 34.6243 53.2742 34.5396C53.2914 34.455 53.3037 34.3972 53.3112 34.3661C53.3047 34.3383 53.2905 34.3085 53.2686 34.2769C53.2466 34.2453 53.234 34.2226 53.2308 34.2086L53.1473 34.2279L53.0525 34.5798C53.0321 34.5552 53.0072 34.4949 52.9777 34.3991C52.9483 34.3032 52.9303 34.2413 52.9239 34.2135C52.9207 34.1996 52.9076 34.1586 52.8845 34.0906C52.8615 34.0225 52.8468 33.9746 52.8403 33.9468L52.7969 33.7588C52.7873 33.717 52.7862 33.6806 52.7937 33.6495C52.7905 33.6356 52.7883 33.6104 52.7873 33.574C52.7862 33.5376 52.791 33.5108 52.8017 33.4936C52.8264 33.4733 52.8521 33.4417 52.8788 33.3988L52.9351 33.3088C52.949 33.3056 52.9774 33.3174 53.0202 33.3442C53.0631 33.371 53.0877 33.3983 53.0942 33.4261C53.1006 33.454 53.1116 33.5174 53.1271 33.6165C53.1427 33.7156 53.1606 33.7775 53.181 33.8021C53.1938 33.8578 53.2211 33.8808 53.2629 33.8712C53.2597 33.8573 53.2621 33.82 53.2701 33.7595C53.2782 33.699 53.2859 33.6532 53.2934 33.6221C53.2902 33.6082 53.2948 33.5962 53.3071 33.586C53.3194 33.5758 53.3293 33.5552 53.3368 33.5241C53.3475 33.507 53.3566 33.4829 53.3641 33.4518L53.4284 33.349C53.4498 33.3147 53.4661 33.2266 53.4774 33.0846C53.4886 32.9427 53.491 32.8578 53.4846 32.8299L53.5488 32.7271C53.5178 32.7196 53.4784 32.692 53.4307 32.6444C53.383 32.5967 53.356 32.5589 53.3496 32.5311L53.2917 32.2804C53.2745 32.2697 53.2063 32.2598 53.0868 32.2507C52.9674 32.2416 52.8991 32.2317 52.8819 32.221L52.7405 31.9896L53.0121 31.9269C53.0153 31.9409 53.0287 31.9671 53.0522 32.0057C53.0758 32.0442 53.1031 32.0673 53.1342 32.0748L53.2386 32.0506C53.2354 32.0367 53.2392 32.0212 53.2499 32.004L53.282 31.9526L53.3656 31.9333C53.3966 31.9408 53.4657 31.9542 53.5729 31.9735C53.68 31.9928 53.7491 32.0061 53.7801 32.0136L53.8428 31.9992C53.8225 31.9745 53.7884 31.9384 53.7408 31.8907C53.6931 31.843 53.6521 31.8085 53.6178 31.7871C53.6007 31.7764 53.5889 31.7571 53.5825 31.7292L53.5632 31.6457L53.6885 31.6167C53.7196 31.6242 53.7689 31.6312 53.8364 31.6376C53.9038 31.644 53.9462 31.6526 53.9633 31.6633L53.8331 31.0993L53.772 31.0254C53.7517 31.0008 53.7383 30.9745 53.7318 30.9467C53.7147 30.936 53.7024 30.8985 53.6949 30.8342C53.6874 30.7699 53.6804 30.7239 53.674 30.696C53.6708 30.6821 53.6442 30.6625 53.5944 30.6374C53.5446 30.6122 53.5181 30.5927 53.5149 30.5787L53.4908 30.4743C53.4843 30.4464 53.4881 30.3832 53.502 30.2847C53.5159 30.1861 53.5266 30.1213 53.5341 30.0903C53.5309 30.0763 53.5363 30.0678 53.5502 30.0645L53.5968 30.0758C53.6279 30.0833 53.664 30.0969 53.7053 30.1167C53.7465 30.1366 53.7773 30.1588 53.7977 30.1834L53.8314 30.3296C53.8625 30.3371 53.8882 30.3532 53.9085 30.3778C53.9493 30.4271 53.9782 30.4571 53.9953 30.4678C53.9985 30.4817 54.0269 30.5412 54.0805 30.6462C54.1341 30.7511 54.1641 30.8176 54.1705 30.8454C54.1769 30.8733 54.1903 30.8995 54.2107 30.9241L54.2717 30.9981L54.3425 31.1137C54.366 31.1523 54.388 31.1839 54.4084 31.2085C54.4384 31.275 54.5101 31.3794 54.6237 31.5219C54.7373 31.6643 54.7973 31.7495 54.8037 31.7773C54.8444 31.8266 54.9012 31.8978 54.974 31.991C55.0469 32.0842 55.1189 32.1739 55.1902 32.2601C55.2614 32.3464 55.3241 32.4272 55.3782 32.5028C55.4323 32.5783 55.4679 32.6214 55.4851 32.6321C55.4883 32.646 55.525 32.6779 55.5952 32.7277C55.6653 32.7775 55.709 32.8078 55.7261 32.8185C55.7293 32.8324 55.7451 32.8691 55.7735 32.9285C55.8019 32.988 55.8317 33.0215 55.8627 33.029C55.897 33.0504 55.9404 33.0954 55.9929 33.1639C56.0454 33.2325 56.0818 33.2791 56.1022 33.3037C56.1332 33.3112 56.1745 33.331 56.2259 33.3632C56.2773 33.3953 56.3046 33.4183 56.3079 33.4322C56.3593 33.4644 56.4369 33.5308 56.5409 33.6315C56.6448 33.7322 56.7016 33.8034 56.7112 33.8452C56.7455 33.8666 56.7798 33.9357 56.8141 34.0524C56.8484 34.1692 56.8687 34.2415 56.8752 34.2694L56.6872 34.3128C56.6732 34.316 56.5899 34.3205 56.4373 34.3264C56.2846 34.3323 56.1944 34.3385 56.1665 34.3449C56.1248 34.3546 56.0375 34.3894 55.9046 34.4494C55.7718 34.5094 55.6984 34.541 55.6845 34.5442L55.0578 34.6889C55.0161 34.6986 54.9727 34.7012 54.9277 34.697C54.8966 34.6895 54.8629 34.6863 54.8265 34.6873C54.79 34.6884 54.7633 34.6836 54.7461 34.6729C54.7183 34.6793 54.6888 34.6788 54.6577 34.6713ZM52.7488 34.694C52.7274 34.7283 52.7183 34.7524 52.7215 34.7663L52.8035 35.1214C52.8592 35.1085 52.8822 35.0812 52.8725 35.0394C52.8661 35.0116 52.868 34.9561 52.8782 34.8731C52.8883 34.7901 52.8918 34.7416 52.8886 34.7277C52.8854 34.7138 52.8666 34.6961 52.8323 34.6747L52.7809 34.6426L52.7488 34.694ZM51.7943 34.9913C51.759 34.9335 51.7397 34.8976 51.7365 34.8837L51.6641 34.5704C51.7134 34.5296 51.7897 34.4313 51.8931 34.2755C51.9965 34.1196 52.0572 34.0176 52.0754 33.9693C52.1033 33.9629 52.1228 33.9364 52.1341 33.8898C52.1453 33.8432 52.1493 33.8129 52.1461 33.799C52.1879 33.7894 52.2152 33.8124 52.2281 33.8681C52.2484 33.8927 52.2755 33.9305 52.3092 33.9814C52.343 34.0323 52.3684 34.0631 52.3856 34.0738L52.4434 34.3244L52.3679 34.4739C52.3744 34.5017 52.38 34.5738 52.3848 34.69C52.3897 34.8062 52.3937 34.8713 52.3969 34.8852C52.4033 34.9131 52.4004 34.9321 52.3881 34.9423C52.3758 34.9524 52.3658 34.9731 52.3583 35.0041C52.3509 35.0352 52.3417 35.0593 52.331 35.0764L51.9968 35.1536C51.9829 35.1568 51.9674 35.1531 51.9502 35.1424L51.8988 35.1102C51.8645 35.0888 51.8297 35.0492 51.7943 34.9913ZM50.4414 35.1826C50.4446 35.1965 50.4277 35.2187 50.3908 35.2493C50.3538 35.2798 50.337 35.302 50.3402 35.316C50.3263 35.3192 50.3209 35.3277 50.3241 35.3417C50.3273 35.3556 50.322 35.3642 50.3081 35.3674L50.4752 35.3288L50.4414 35.1826ZM51.7621 34.0417L51.6577 34.0658L51.6239 33.9196L51.7268 33.9838L51.7364 34.0256C51.7396 34.0395 51.7482 34.0449 51.7621 34.0417ZM52.9702 31.3645L53.0602 31.2778L52.9558 31.3019L52.9702 31.3645ZM51.823 31.5414C51.8101 31.4857 51.8245 31.453 51.8663 31.4434C51.9081 31.4338 51.9354 31.4568 51.9483 31.5125C51.9611 31.5682 51.9467 31.6009 51.9049 31.6105C51.8631 31.6202 51.8358 31.5971 51.823 31.5414ZM51.1384 31.4354C51.0966 31.445 51.0822 31.4777 51.095 31.5334C51.1079 31.5891 51.1352 31.6121 51.177 31.6025C51.2048 31.5961 51.2123 31.565 51.1995 31.5093C51.1866 31.4536 51.1663 31.4289 51.1384 31.4354ZM52.0187 28.768L52.0332 28.8306L51.8934 28.7969L52.0187 28.768ZM66.4023 35.4141C66.3798 35.3166 66.3846 35.2421 66.4167 35.1907C66.4488 35.1393 66.4569 35.0788 66.4408 35.0091C66.4215 34.9256 66.3891 34.8487 66.3436 34.7786C66.298 34.7084 66.2672 34.6385 66.2511 34.5689L66.2126 34.4018C66.2094 34.3879 66.216 34.3533 66.2326 34.2981C66.2492 34.243 66.2559 34.2084 66.2527 34.1945C66.2324 34.1699 66.1957 34.138 66.1426 34.0989C66.0896 34.0598 66.0492 34.0435 66.0213 34.0499C66.0085 33.9942 65.9825 33.8975 65.9434 33.7599C65.9042 33.6222 65.8799 33.5325 65.8702 33.4907L65.7593 33.0103C65.7207 32.8432 65.7116 32.6766 65.7319 32.5106C65.7373 32.4067 65.7598 32.3135 65.7994 32.231C65.839 32.1485 65.846 32.0515 65.8203 31.9401C65.801 31.8566 65.7356 31.8276 65.6242 31.8534L65.5503 31.9144C65.5396 31.9316 65.5203 31.9434 65.4925 31.9498L65.4507 31.9594C65.29 32.0259 65.1971 32.084 65.1719 32.1338C65.1467 32.1836 65.1459 32.2278 65.1695 32.2664C65.1931 32.3049 65.2124 32.3408 65.2274 32.374C65.2424 32.4072 65.2081 32.4335 65.1245 32.4528C65.1106 32.456 65.0662 32.4222 64.9912 32.3516C64.9162 32.2809 64.8631 32.2418 64.8321 32.2343L64.7694 32.2487C64.7716 32.3216 64.7702 32.3952 64.7654 32.4697C64.7606 32.5441 64.7507 32.6124 64.7357 32.6746C64.7325 32.6606 64.7119 32.6507 64.6738 32.6448C64.6358 32.6389 64.6045 32.6462 64.5798 32.6665C64.5659 32.6698 64.541 32.7048 64.5051 32.7718C64.4693 32.8387 64.4444 32.8738 64.4304 32.877L64.3935 32.9076L64.3517 32.9172C64.3378 32.9204 64.3222 32.9167 64.3051 32.906C64.2772 32.9124 64.2092 32.8878 64.101 32.8321C63.9928 32.7764 63.9371 32.7416 63.9339 32.7277L63.8873 32.7164C63.8177 32.7325 63.7906 32.7901 63.8062 32.8892C63.8217 32.9882 63.7807 33.049 63.6833 33.0715L63.6206 33.086C63.6067 33.0892 63.5981 33.0839 63.5949 33.0699C63.581 33.0732 63.5518 33.0579 63.5073 33.0242C63.4628 32.9904 63.4337 32.9752 63.4197 32.9784C63.3919 32.9848 63.3619 33.0137 63.3297 33.0652C63.2976 33.1166 63.2676 33.1455 63.2398 33.1519L63.2237 33.1776C63.1959 33.1841 63.1035 33.1651 62.9465 33.1206C62.7896 33.0762 62.68 33.0465 62.6179 33.0315L62.5151 32.9672C62.5708 32.9543 62.589 32.9061 62.5697 32.8226C62.5536 32.753 62.4647 32.6855 62.3029 32.6201L62.2772 32.6041C62.2215 32.6169 62.1886 32.6649 62.1784 32.7479C62.1682 32.8309 62.1664 32.8864 62.1728 32.9142C62.176 32.9281 62.1897 32.9397 62.2138 32.9488C62.2379 32.9579 62.2515 32.9694 62.2548 32.9833L62.2644 33.0251C62.2676 33.039 62.2604 33.0553 62.2427 33.0741C62.225 33.0928 62.2178 33.1092 62.221 33.1231L62.1793 33.1327C62.1235 33.1456 62.0611 33.1453 61.9921 33.132C61.923 33.1186 61.8573 33.1044 61.7952 33.0894C61.807 33.0133 61.8589 32.9683 61.9511 32.9544C62.0432 32.9405 62.078 32.8848 62.0555 32.7873C62.0201 32.6341 61.958 32.5238 61.8691 32.4563C61.7801 32.3888 61.7228 32.2994 61.6971 32.188C61.6907 32.1601 61.6821 32.1071 61.6714 32.0289C61.6607 31.9507 61.6917 31.9105 61.7646 31.9084L61.8273 32.1799C61.838 32.1628 61.8506 32.1379 61.865 32.1052C61.8795 32.0725 61.8851 32.0492 61.8819 32.0353L61.8674 31.9726C61.861 31.9448 61.8471 31.9003 61.8256 31.8393C61.8042 31.7782 61.7833 31.7354 61.7629 31.7107C61.6858 31.7579 61.6154 31.8181 61.5517 31.8915C61.4879 31.9649 61.4518 32.0466 61.4432 32.1366C61.395 32.1184 61.3366 32.0402 61.2681 31.902C61.1995 31.7638 61.1689 31.6792 61.1764 31.6481C61.17 31.6203 61.181 31.5884 61.2094 31.5525C61.2378 31.5166 61.2659 31.4955 61.2937 31.489L61.448 31.5854C61.4866 31.5618 61.5018 31.5327 61.4938 31.4978L61.4673 31.383C61.4576 31.3412 61.4565 31.3048 61.464 31.2737C61.4715 31.2426 61.517 31.2174 61.6006 31.1982L61.6424 31.1885L61.6986 31.2415C61.7329 31.263 61.764 31.2704 61.7918 31.264C61.809 31.2747 61.8315 31.2769 61.8593 31.2704C61.9011 31.2608 61.938 31.2303 61.9702 31.1788L62.012 31.1692C62.0677 31.1563 62.1507 31.1665 62.261 31.1997C62.3714 31.2329 62.4646 31.2554 62.5406 31.2672C62.6863 31.2629 62.7755 31.2679 62.8082 31.2824C62.8408 31.2969 62.8561 31.3153 62.854 31.3378C62.8518 31.3603 62.8462 31.3836 62.8371 31.4077C62.828 31.4318 62.8599 31.4428 62.9327 31.4407C62.8941 31.2736 62.9654 31.1691 63.1464 31.1273C63.2021 31.1144 63.2532 31.1136 63.2998 31.1249C63.3464 31.1361 63.3906 31.1369 63.4324 31.1273L63.4742 31.1176C63.4849 31.1005 63.4964 31.0868 63.5087 31.0767C63.521 31.0665 63.5326 31.0528 63.5433 31.0357L63.5288 30.973C63.5084 30.9484 63.4833 30.9029 63.4533 30.8364C63.4233 30.77 63.3997 30.7315 63.3826 30.7208L63.3681 30.6581C63.382 30.6549 63.3935 30.6412 63.4026 30.6171C63.4117 30.593 63.4232 30.5793 63.4372 30.5761C63.4747 30.6115 63.5065 30.6701 63.5328 30.7521C63.5591 30.834 63.607 30.867 63.6766 30.8509C63.7602 30.8316 63.8191 30.785 63.8534 30.7111C63.8876 30.6371 63.9605 30.5873 64.0719 30.5616C64.1554 30.5423 64.216 30.5503 64.2535 30.5857C64.291 30.621 64.3445 30.6307 64.4141 30.6146C64.4045 30.5728 64.3879 30.5327 64.3643 30.4941C64.3407 30.4555 64.3638 30.4282 64.4334 30.4121L64.4752 30.4025L64.5652 30.4587C64.608 30.4855 64.6364 30.4973 64.6503 30.4941L64.6921 30.4844C64.7457 30.3987 64.7738 30.3299 64.7765 30.2779C64.7791 30.226 64.7724 30.1652 64.7564 30.0956C64.7435 30.0399 64.7261 29.9962 64.7041 29.9646C64.6822 29.933 64.6331 29.9113 64.5571 29.8995C64.5614 29.8545 64.5809 29.828 64.6157 29.82L64.7306 29.7935C64.7724 29.7838 64.8099 29.7715 64.8431 29.7565C64.8763 29.7415 64.8881 29.7131 64.8784 29.6713C64.872 29.6435 64.8468 29.598 64.8029 29.5348C64.759 29.4716 64.7108 29.4057 64.6583 29.3371C64.6058 29.2686 64.5522 29.2113 64.4976 29.1652C64.4429 29.1192 64.4017 29.0993 64.3738 29.1058L64.2243 28.4582C64.3143 28.4668 64.3636 28.5214 64.3722 28.6221C64.3808 28.7228 64.4231 28.779 64.4991 28.7908C64.5966 28.7683 64.6373 28.7222 64.6212 28.6526C64.6255 28.6076 64.6017 28.5361 64.5497 28.4381C64.4978 28.3401 64.4375 28.2697 64.3689 28.2268L64.4525 28.2075C64.5082 28.1947 64.5628 28.1931 64.6164 28.2027C64.6699 28.2123 64.7176 28.2123 64.7594 28.2027C64.8708 28.177 64.9281 28.0757 64.9313 27.899C64.9345 27.7222 64.9714 27.5963 65.0421 27.5214L64.936 27.0618C64.9875 27.0939 65.041 27.1036 65.0967 27.0907C65.1107 27.0875 65.1283 27.0688 65.1497 27.0345C65.1712 27.0002 65.1904 26.9884 65.2076 26.9991C65.2526 27.0034 65.3136 27.0296 65.3908 27.0778C65.4679 27.126 65.5145 27.1849 65.5306 27.2546C65.4192 27.2803 65.352 27.3068 65.3289 27.3341C65.3059 27.3614 65.3056 27.4238 65.3282 27.5213L65.3571 27.6467L65.5161 27.4779C65.5269 27.4608 65.5416 27.4611 65.5603 27.4787C65.5791 27.4964 65.5901 27.5122 65.5933 27.5261C65.6104 27.5368 65.6219 27.5708 65.6278 27.6282C65.6337 27.6855 65.6399 27.728 65.6463 27.7559C65.6603 27.7527 65.69 27.7385 65.7355 27.7133C65.781 27.6881 65.8177 27.6723 65.8456 27.6659C65.9634 27.668 66.0663 27.78 66.1541 28.0017C66.242 28.2234 66.3234 28.465 66.3984 28.7264C66.4734 28.9877 66.5533 29.2223 66.6379 29.4301C66.7226 29.638 66.8206 29.729 66.932 29.7033C67.0016 29.6872 67.0386 29.6567 67.0429 29.6117L67.5024 29.5056C67.4992 29.4917 67.5045 29.4831 67.5185 29.4799C67.5324 29.4767 67.5447 29.4665 67.5554 29.4493C67.5661 29.4322 67.5838 29.4135 67.6084 29.3931L67.692 29.3738L67.8591 29.4782C67.93 29.5225 67.9768 29.5568 67.9998 29.5812C67.9067 29.4742 67.9062 29.3705 67.9981 29.2701C68.0918 29.1678 68.1874 29.1054 68.2849 29.0829C68.3128 29.0765 68.3449 29.0727 68.3813 29.0717C68.4177 29.0706 68.4376 29.077 68.4408 29.0909C68.4686 29.0845 68.4967 29.111 68.5251 29.1705C68.5535 29.2299 68.5709 29.2736 68.5774 29.3014C68.6577 29.2682 68.6949 29.2229 68.689 29.1656C68.6831 29.1083 68.7048 29.0593 68.7541 29.0186C68.8666 29.1246 68.9855 29.1632 69.1108 29.1343C69.2362 29.1053 69.336 29.0456 69.4105 28.9551C69.4849 28.8645 69.5848 28.8048 69.7102 28.7759C69.7241 28.7727 69.7527 28.7697 69.7961 28.767C69.8395 28.7643 69.8682 28.7614 69.8821 28.7582L69.948 28.853C69.9823 28.8744 70.0101 28.868 70.0315 28.8337C70.0455 28.8305 70.0578 28.8203 70.0685 28.8032L70.0154 28.5734C70.0669 28.6055 70.1274 28.6135 70.197 28.5975C70.2559 28.5985 70.3655 28.5806 70.5256 28.5436C70.6858 28.5066 70.7921 28.4747 70.8446 28.448C70.8338 28.4651 70.8247 28.4892 70.8172 28.5203C70.8098 28.5513 70.8006 28.5754 70.7899 28.5926L70.8205 28.6295C70.8901 28.6135 70.9281 28.5717 70.9345 28.5042C70.941 28.4367 70.9999 28.3901 71.1113 28.3644C71.1274 28.434 71.1282 28.4852 71.1137 28.5178C71.0993 28.5505 71.1001 28.6017 71.1161 28.6713C71.1858 28.6552 71.2508 28.6512 71.3114 28.6592C71.3719 28.6672 71.437 28.6632 71.5066 28.6472C71.5762 28.6311 71.6148 28.6075 71.6223 28.5764C71.6298 28.5454 71.6614 28.5234 71.7171 28.5105C71.731 28.5073 71.7465 28.5111 71.7637 28.5218C71.7701 28.5496 71.7819 28.5689 71.799 28.5796L71.8087 28.6214C71.8119 28.6353 71.8205 28.6407 71.8344 28.6375C71.8515 28.6482 71.8842 28.6626 71.9324 28.6809C71.9806 28.6991 72.0063 28.7151 72.0096 28.7291L71.9758 28.8689C71.9683 28.8999 71.9624 28.9379 71.9582 28.9829C71.9539 29.0279 71.948 29.066 71.9405 29.097L72.2956 29.015C72.3085 29.0707 72.3058 29.1227 72.2876 29.1709C72.2694 29.2191 72.2667 29.2711 72.2796 29.3268L72.2844 29.3477C72.3326 29.3659 72.3853 29.372 72.4427 29.3661C72.5 29.3602 72.5474 29.375 72.5849 29.4103C72.5709 29.4135 72.549 29.4296 72.519 29.4585C72.489 29.4874 72.4686 29.5105 72.4579 29.5276L72.4724 29.5903C72.4788 29.6181 72.5045 29.6819 72.5496 29.7815C72.5946 29.8811 72.6272 29.9432 72.6476 29.9679L72.6572 30.0097C72.6637 30.0375 72.6197 30.0696 72.5255 30.1061C72.4312 30.1425 72.3222 30.1787 72.1985 30.2146L71.8273 30.3223C71.7036 30.3582 71.6155 30.3895 71.563 30.4163L71.5212 30.4259C71.4902 30.4184 71.4489 30.3986 71.3975 30.3665C71.3461 30.3344 71.3064 30.3215 71.2786 30.3279C71.2647 30.3312 71.2392 30.348 71.2023 30.3786C71.1653 30.4091 71.1329 30.4276 71.1051 30.434C71.0943 30.4511 71.074 30.4742 71.044 30.5031C71.014 30.532 70.992 30.5481 70.9781 30.5513L70.9363 30.561C70.7971 30.5931 70.6758 30.5918 70.5724 30.557C70.469 30.5222 70.3756 30.5144 70.292 30.5337L70.3113 30.6173C70.1163 30.6623 70.0414 30.7823 70.0864 30.9772L70.0446 30.9869C70.0274 30.9762 69.9897 30.9555 69.9313 30.925C69.8729 30.8945 69.8368 30.8808 69.8228 30.884C69.795 30.8905 69.7754 30.917 69.7642 30.9636C69.7529 31.0102 69.742 31.0421 69.7313 31.0592C69.637 31.0956 69.5652 31.0865 69.5159 31.0319C69.4667 30.9773 69.4227 30.9141 69.3842 30.8423C69.3456 30.7705 69.3043 30.7031 69.2604 30.6399C69.2165 30.5767 69.1597 30.5531 69.0901 30.5692L69.0692 30.574C69.0585 30.5911 69.0435 30.6056 69.0242 30.6174C69.0049 30.6292 68.9969 30.642 69.0001 30.6559C69.0033 30.6699 69.0218 30.7023 69.0555 30.7532C69.0893 30.804 69.1131 30.8279 69.1271 30.8247L69.0435 30.8439C69.0157 30.8504 68.9699 30.8426 68.9061 30.8207C68.8424 30.7987 68.7966 30.7909 68.7687 30.7974L68.7157 31.1396C68.6718 31.0764 68.6308 31.0419 68.5928 31.036C68.5548 31.0301 68.5079 31.0336 68.4522 31.0465C68.3408 31.0722 68.2463 31.1233 68.1686 31.1999C68.0909 31.2765 68.065 31.3705 68.0907 31.482L68.0393 31.4498L68.0296 31.408C68.0007 31.2827 68.035 31.1611 68.1324 31.0433C68.2299 30.9254 68.2936 30.8044 68.3236 30.6801C68.3204 30.6662 68.2931 30.6432 68.2417 30.611L68.179 30.6255C68.1715 30.6566 68.149 30.7021 68.1115 30.7621L68.0392 30.8778L67.9139 30.9067C67.8646 30.9474 67.8464 30.9956 67.8593 31.0513C67.8721 31.107 67.8893 31.1654 67.9107 31.2265C67.9321 31.2875 67.9415 31.344 67.9388 31.396C67.9362 31.448 67.8931 31.4836 67.8095 31.5029C67.7538 31.5157 67.7195 31.4943 67.7067 31.4386C67.6938 31.3829 67.6595 31.3615 67.6038 31.3743C67.5203 31.3936 67.4715 31.4526 67.4576 31.5511C67.4437 31.6497 67.4408 31.764 67.4488 31.8942C67.4568 32.0243 67.4676 32.1502 67.481 32.2718C67.4944 32.3934 67.485 32.4799 67.4529 32.5313C67.4315 32.5656 67.4138 32.5843 67.3999 32.5875C67.3891 32.6047 67.3768 32.6149 67.3629 32.6181L67.2906 32.3047L67.2279 32.3192C67.2 32.3256 67.1784 32.327 67.1628 32.3232C67.1473 32.3195 67.1326 32.3192 67.1186 32.3224C66.9858 32.3824 66.9135 32.4505 66.9017 32.5265C66.89 32.6026 66.8969 32.6963 66.9226 32.8077C66.9923 32.7916 67.0592 32.7799 67.1235 32.7723C67.1878 32.7648 67.2119 32.8216 67.1958 32.9427C67.259 32.8987 67.311 32.8537 67.3517 32.8077C67.3924 32.7616 67.4358 32.7113 67.4818 32.6566C67.6179 32.8012 67.7178 32.9798 67.7815 33.1925C67.8453 33.4051 67.8997 33.6089 67.9447 33.8039L68.0219 34.1381C67.9822 34.2206 67.9536 34.3189 67.9359 34.433C67.9183 34.547 67.9076 34.6595 67.9038 34.7704C67.9001 34.8813 67.8931 34.9782 67.8829 35.0612C67.8728 35.1443 67.8607 35.1874 67.8468 35.1906C67.8361 35.2077 67.7742 35.2257 67.6612 35.2444C67.5482 35.2632 67.4778 35.2758 67.4499 35.2822C67.3835 35.3122 67.3554 35.381 67.3656 35.4887C67.3758 35.5964 67.3578 35.6775 67.3118 35.7321C67.2261 35.6786 67.124 35.6178 67.0057 35.5498C66.8873 35.4818 66.7933 35.4558 66.7236 35.4719C66.759 35.6251 66.7866 35.7287 66.8064 35.7828C66.8263 35.8369 66.7489 35.8988 66.5743 35.9684C66.5207 35.8634 66.4851 35.7727 66.4674 35.6961L66.4023 35.4141ZM66.4737 34.7706C66.4175 34.7176 66.3743 34.6579 66.3443 34.5915C66.3936 34.5508 66.4113 34.4843 66.3974 34.3922C66.3834 34.3001 66.3802 34.2385 66.3877 34.2074C66.5013 34.2546 66.5776 34.3469 66.6167 34.4846C66.6558 34.6222 66.685 34.7328 66.7043 34.8164C66.6068 34.8389 66.53 34.8237 66.4737 34.7706ZM64.3018 32.5108C64.2451 32.5826 64.2263 32.6602 64.2456 32.7438L64.2762 32.7808C64.319 32.7122 64.3308 32.6361 64.3115 32.5526L64.3018 32.5108ZM67.0326 31.9023C67.0353 31.9457 67.019 31.9862 66.9836 32.0236L66.9354 31.8148L67.019 31.7955C67.0254 31.8233 67.0299 31.8589 67.0326 31.9023ZM69.7119 30.6897C69.6841 30.6961 69.6758 30.7237 69.687 30.7724C69.6983 30.8212 69.7178 30.8423 69.7457 30.8359C69.7735 30.8295 69.7818 30.8019 69.7706 30.7531C69.7593 30.7044 69.7398 30.6832 69.7119 30.6897ZM62.5455 32.1461C62.5777 32.2854 62.552 32.3646 62.4684 32.3839L62.4202 32.175L62.5455 32.1461ZM70.5041 30.3088C70.4762 30.3152 70.4679 30.3428 70.4792 30.3915C70.4904 30.4403 70.51 30.4614 70.5378 30.455C70.5796 30.4454 70.5949 30.4162 70.5836 30.3674C70.5724 30.3187 70.5459 30.2991 70.5041 30.3088ZM62.139 31.91L62.0554 31.9293L62.0265 31.8039L62.11 31.7847L62.139 31.91ZM68.804 30.2833C68.7729 30.2758 68.7614 30.2894 68.7695 30.3242C68.7775 30.3591 68.7954 30.3733 68.8233 30.3668C68.8447 30.3325 68.8383 30.3047 68.804 30.2833ZM63.2042 31.3781L63.1271 31.3299L63.1753 31.2528L63.246 31.3684L63.2042 31.3781ZM62.0184 31.3877C62.0259 31.3567 62.0122 31.3451 61.9774 31.3532C61.9426 31.3612 61.9284 31.3792 61.9348 31.407C61.9691 31.4284 61.997 31.422 62.0184 31.3877ZM69.0828 29.6798C69.0715 29.6311 69.0798 29.6035 69.1077 29.5971C69.1355 29.5906 69.1551 29.6118 69.1663 29.6605C69.1776 29.7093 69.1693 29.7369 69.1414 29.7433C69.1136 29.7497 69.094 29.7286 69.0828 29.6798ZM69.5142 29.2612C69.5174 29.2751 69.5235 29.3177 69.5327 29.389C69.5418 29.4602 69.5742 29.4894 69.6299 29.4765C69.7134 29.4572 69.7699 29.4002 69.7994 29.3054C69.8288 29.2106 69.8355 29.1284 69.8194 29.0587C69.8034 28.9891 69.7466 28.9655 69.6491 28.988C69.6073 28.9977 69.5768 29.0084 69.5575 29.0202C69.5382 29.032 69.5109 29.0566 69.4756 29.0941L69.5142 29.2612ZM66.5367 29.7065C66.527 29.6647 66.5362 29.6406 66.564 29.6342C66.5919 29.6278 66.6106 29.6455 66.6202 29.6872C66.6299 29.729 66.6208 29.7531 66.5929 29.7595C66.5651 29.766 66.5463 29.7483 66.5367 29.7065ZM64.9828 29.0753C64.9989 29.1449 65.0313 29.1741 65.08 29.1628L65.3412 29.1026C65.3829 29.0929 65.3958 29.0533 65.3797 28.9836C65.3701 28.9419 65.3334 28.91 65.2696 28.8881C65.2059 28.8661 65.1601 28.8583 65.1322 28.8648L65.0905 28.8744L64.978 29.0544L64.9828 29.0753ZM66.0256 28.3505C66.0192 28.3227 66.0315 28.3125 66.0626 28.32C66.0904 28.3136 66.1067 28.3208 66.1116 28.3417C66.1164 28.3626 66.1049 28.3762 66.077 28.3827C66.0492 28.3891 66.032 28.3784 66.0256 28.3505ZM65.6994 27.9857C65.7155 28.0553 65.746 28.0923 65.791 28.0966L65.9083 27.9375L65.6994 27.9857ZM65.1081 27.9022C65.0952 27.8465 65.0973 27.824 65.1145 27.8347C65.1488 27.8562 65.1691 27.8808 65.1756 27.9087C65.182 27.9365 65.1713 27.9536 65.1434 27.9601C65.1327 27.9772 65.1209 27.9579 65.1081 27.9022Z" fill="#D0021B"/>
<g id="Group 2">
<rect id="Rectangle_3" x="50" y="57" width="45" height="2" rx="1" fill="#C9DFED"/>
<rect id="Rectangle_4" x="50" y="64" width="50" height="2" rx="1" fill="#C9DFED"/>
<rect id="Rectangle_5" x="50" y="71" width="50" height="2" rx="1" fill="#C9DFED"/>
<rect id="Rectangle_6" x="50" y="78" width="50" height="2" rx="1" fill="#C9DFED"/>
<rect id="Rectangle_7" x="50" y="85" width="50" height="2" rx="1" fill="#C9DFED"/>
<rect id="Rectangle_8" x="50" y="92" width="50" height="2" rx="1" fill="#C9DFED"/>
<rect id="Rectangle_9" x="50" y="99" width="50" height="2" rx="1" fill="#C9DFED"/>
<rect id="Rectangle_10" x="64" y="47" width="22" height="2" rx="1" fill="#C9DFED"/>
</g>
<path id="Rectangle_11" d="M96 18L109 31H97.8571C96.8315 31 96 30.1685 96 29.1429V18Z" fill="#A5CFE9"/>
<g id="Group 6">
<circle id="Oval" cx="109" cy="102" r="19" fill="#1799E5"/>
<g id="25528 [Converted]-01">
<g id="Object">
<path id="Path_7" d="M118.92 110.815H99.2285V103.736H102.194V107.823H115.955V103.736H118.92V110.815Z" fill="white"/>
<path id="_Path_" d="M112.389 100.213V92.7834H105.76V100.213H102.916L109.074 106.425L115.233 100.213H112.389Z" fill="white"/>
</g>
</g>
</g>
</g>
</g>
<defs>
<linearGradient id="paint0_linear_1_5256" x1="85.615" y1="120.718" x2="85.615" y2="120.672" gradientUnits="userSpaceOnUse">
<stop offset="0.02" stop-color="#5F6767"/>
<stop offset="0.48" stop-color="#676B6C"/>
<stop offset="0.51" stop-color="#717576"/>
<stop offset="0.62" stop-color="#878A8B"/>
<stop offset="0.72" stop-color="#949899"/>
<stop offset="0.81" stop-color="#999C9D"/>
</linearGradient>
</defs>
</svg>
