<svg width="154" height="150" viewBox="0 0 154 150" fill="none" xmlns="http://www.w3.org/2000/svg">
<g id="2 Hiring">
<circle id="Oval Copy 4" cx="78" cy="75" r="74.5" fill="#1B99E5" fill-opacity="0.1" stroke="#1B99E5"/>
<g id="Resume 2">
<rect id="Rectangle" y="40" width="52" height="72" rx="3" fill="#F3F4F4"/>
<g id="Group 31">
<rect id="Rectangle_2" x="14" y="83.0001" width="24" height="2.66667" rx="1.33333" fill="#C9DFED"/>
<rect id="Rectangle_3" x="6" y="90.6667" width="40" height="1" rx="0.5" fill="#C9DFED"/>
<rect id="Rectangle_4" x="6" y="96" width="40" height="1" rx="0.5" fill="#C9DFED"/>
<rect id="Rectangle_5" x="6" y="101.333" width="40" height="1" rx="0.5" fill="#C9DFED"/>
<g id="Group 29">
<path id="Vector" d="M14.0656 73.5606L13.4271 74.921L12 75.1379L13.0328 76.1972L12.7886 77.6918L14.0656 76.9865L15.3425 77.6918L15.0984 76.1972L16.1311 75.1393L14.704 74.921L14.0656 73.5606Z" fill="#C9DFED"/>
<path id="Vector_2" d="M20.0329 73.5606L19.3944 74.9209L17.9673 75.1378L19.0001 76.1972L18.7559 77.6918L20.0329 76.9865L21.3098 77.6918L21.0656 76.1972L22.0984 75.1393L20.6713 74.9209L20.0329 73.5606Z" fill="#C9DFED"/>
<path id="Vector_3" d="M25.9999 73.5606L25.3614 74.9209L23.9343 75.1378L24.9671 76.1972L24.7229 77.6918L25.9999 76.9865L27.2769 77.6918L27.0327 76.1972L28.0655 75.1393L26.6384 74.9209L25.9999 73.5606Z" fill="#C9DFED"/>
<path id="Vector_4" d="M31.9672 73.5606L31.3287 74.9209L29.9016 75.1378L30.9344 76.1972L30.6902 77.6918L31.9672 76.9865L33.2441 77.6918L33 76.1972L34.0328 75.1393L32.6057 74.9209L31.9672 73.5606Z" fill="#C9DFED"/>
<path id="Vector_5" d="M37.9345 73.7902L37.296 75.1505L35.8689 75.3674L36.9017 76.4267L36.6575 77.9213L37.9345 77.2161L39.2114 77.9213L38.9673 76.4267L40 75.3688L38.5729 75.1505L37.9345 73.7902Z" fill="#C9DFED"/>
</g>
<g id="Avatar">
<path id="Shape" fill-rule="evenodd" clip-rule="evenodd" d="M26 68.2857C31.1284 68.2857 35.2857 64.1284 35.2857 59C35.2857 53.8716 31.1284 49.7143 26 49.7143C20.8716 49.7143 16.7143 53.8716 16.7143 59C16.7143 64.1284 20.8716 68.2857 26 68.2857ZM26 69C31.5229 69 36 64.5229 36 59C36 53.4772 31.5229 49 26 49C20.4772 49 16 53.4772 16 59C16 64.5229 20.4772 69 26 69Z" fill="#C9DFED"/>
<path id="Shape_2" fill-rule="evenodd" clip-rule="evenodd" d="M26 49C20.4771 49 16 53.585 16 59.241C16 61.7056 16.8318 63.6138 18.2482 65.3809C18.4667 63.5889 20.2332 62.4265 22.6838 61.7087C23.5791 62.563 24.7356 63.0813 26 63.0813C27.2346 63.0813 28.3684 62.5892 29.2546 61.7707C31.7264 62.5511 33.4177 63.8022 33.4739 65.6667C35.0329 63.8605 36 61.8414 36 59.241C36 53.585 31.5229 49 26 49ZM26 54.5739C27.2821 54.5745 28.5641 54.923 29.8462 55.6195C29.9137 55.9239 29.9474 56.491 29.9474 57.3208C29.9474 59.1201 29.0335 60.674 27.7143 61.411C27.1946 61.7012 26.6147 61.8686 26 61.8686C25.3616 61.8686 24.7601 61.689 24.226 61.3779C22.9389 60.6278 22.0526 59.0929 22.0526 57.3208C22.0526 56.7448 22.0864 56.1767 22.1538 55.6164C23.4359 54.9209 24.7179 54.5734 26 54.5739ZM25.8481 50.5472L32.9231 54.145L30.3899 55.189V54.8286C30.3899 54.8286 28.177 53.5117 25.9784 53.5117C23.7793 53.5117 21.6246 54.8433 21.6246 54.8433V55.189L19.0769 54.101L25.8481 50.5472Z" fill="#C9DFED"/>
</g>
</g>
</g>
<g id="Resume 3">
<rect id="Rectangle_6" x="102" y="40.0001" width="52" height="72" rx="3" fill="#F3F4F4"/>
<g id="Group 31_2">
<rect id="Rectangle_7" x="116" y="83.0002" width="24" height="2.66667" rx="1.33333" fill="#C9DFED"/>
<rect id="Rectangle_8" x="108" y="90.6667" width="40" height="1" rx="0.5" fill="#C9DFED"/>
<rect id="Rectangle_9" x="108" y="96.0001" width="40" height="1" rx="0.5" fill="#C9DFED"/>
<rect id="Rectangle_10" x="108" y="101.333" width="40" height="1" rx="0.5" fill="#C9DFED"/>
<g id="Group 29_2">
<path id="Vector_6" d="M116.066 73.5607L115.427 74.921L114 75.1379L115.033 76.1973L114.789 77.6918L116.066 76.9866L117.343 77.6918L117.098 76.1973L118.131 75.1394L116.704 74.921L116.066 73.5607Z" fill="#C9DFED"/>
<path id="Vector_7" d="M122.033 73.5607L121.394 74.921L119.967 75.1379L121 76.1972L120.756 77.6918L122.033 76.9866L123.31 77.6918L123.066 76.1972L124.098 75.1394L122.671 74.921L122.033 73.5607Z" fill="#C9DFED"/>
<path id="Vector_8" d="M128 73.5607L127.361 74.921L125.934 75.1379L126.967 76.1972L126.723 77.6918L128 76.9866L129.277 77.6918L129.033 76.1972L130.065 75.1394L128.638 74.921L128 73.5607Z" fill="#C9DFED"/>
<path id="Vector_9" d="M133.967 73.5607L133.329 74.921L131.902 75.1379L132.934 76.1972L132.69 77.6918L133.967 76.9866L135.244 77.6918L135 76.1972L136.033 75.1394L134.606 74.921L133.967 73.5607Z" fill="#C9DFED"/>
<path id="Vector_10" d="M139.934 73.7902L139.296 75.1505L137.869 75.3674L138.902 76.4268L138.658 77.9214L139.934 77.2161L141.211 77.9214L140.967 76.4268L142 75.3689L140.573 75.1505L139.934 73.7902Z" fill="#C9DFED"/>
</g>
<g id="Avatar_2">
<path id="Shape_3" fill-rule="evenodd" clip-rule="evenodd" d="M128 68.2858C133.128 68.2858 137.286 64.1284 137.286 59.0001C137.286 53.8717 133.128 49.7143 128 49.7143C122.872 49.7143 118.714 53.8717 118.714 59.0001C118.714 64.1284 122.872 68.2858 128 68.2858ZM128 69.0001C133.523 69.0001 138 64.5229 138 59.0001C138 53.4772 133.523 49.0001 128 49.0001C122.477 49.0001 118 53.4772 118 59.0001C118 64.5229 122.477 69.0001 128 69.0001Z" fill="#C9DFED"/>
<path id="Shape_4" fill-rule="evenodd" clip-rule="evenodd" d="M128 49.0001C122.477 49.0001 118 53.585 118 59.241C118 61.7056 118.832 63.6139 120.248 65.3809C120.467 63.589 122.233 62.4265 124.684 61.7088C125.579 62.5631 126.736 63.0814 128 63.0814C129.235 63.0814 130.368 62.5892 131.255 61.7708C133.726 62.5512 135.418 63.8022 135.474 65.6667C137.033 63.8606 138 61.8414 138 59.241C138 53.585 133.523 49.0001 128 49.0001ZM128 54.574C129.282 54.5745 130.564 54.923 131.846 55.6195C131.914 55.924 131.947 56.4911 131.947 57.3208C131.947 59.1202 131.034 60.674 129.714 61.4111C129.195 61.7013 128.615 61.8686 128 61.8686C127.362 61.8686 126.76 61.689 126.226 61.3779C124.939 60.6279 124.053 59.093 124.053 57.3208C124.053 56.7449 124.086 56.1767 124.154 55.6164C125.436 54.921 126.718 54.5735 128 54.574ZM127.848 50.5473L134.923 54.1451L132.39 55.1891V54.8286C132.39 54.8286 130.177 53.5118 127.978 53.5118C125.779 53.5118 123.625 54.8434 123.625 54.8434V55.1891L121.077 54.1011L127.848 50.5473Z" fill="#C9DFED"/>
</g>
</g>
</g>
<g id="Resume">
<rect id="Rectangle_11" x="38" y="22.0001" width="80" height="106" rx="3" fill="white"/>
<g id="Group 30">
<rect id="Rectangle_12" x="60" y="83.0001" width="36" height="4" rx="2" fill="#A5CFE9"/>
<rect id="Rectangle_13" x="48" y="96.0001" width="60" height="2" rx="1" fill="#A5CFE9"/>
<rect id="Rectangle_14" x="48" y="104" width="60" height="2" rx="1" fill="#A5CFE9"/>
<rect id="Rectangle_15" x="48" y="112" width="60" height="2" rx="1" fill="#A5CFE9"/>
<g id="Group 29_3">
<path id="Vector_11" d="M56 69L54.7636 71.6343L52 72.0543L54 74.1057L53.5272 77L56 75.6343L58.4728 77L58 74.1057L60 72.0571L57.2364 71.6343L56 69Z" fill="#F8B319"/>
<path id="Vector_12" d="M67 69L65.7636 71.6343L63 72.0543L65 74.1057L64.5272 77L67 75.6343L69.4728 77L69 74.1057L71 72.0571L68.2364 71.6343L67 69Z" fill="#F8B319"/>
<path id="Vector_13" d="M78 69L76.7636 71.6343L74 72.0543L76 74.1057L75.5272 77L78 75.6343L80.4728 77L80 74.1057L82 72.0571L79.2364 71.6343L78 69Z" fill="#F8B319"/>
<path id="Vector_14" d="M89 69L87.7636 71.6343L85 72.0543L87 74.1057L86.5272 77L89 75.6343L91.4728 77L91 74.1057L93 72.0571L90.2364 71.6343L89 69Z" fill="#F8B319"/>
<path id="Vector_15" d="M100 69L98.7636 71.6343L96 72.0543L98 74.1057L97.5272 77L100 75.6343L102.473 77L102 74.1057L104 72.0571L101.236 71.6343L100 69Z" fill="#F8B319"/>
</g>
<g id="Avatar_3">
<path id="Shape_5" fill-rule="evenodd" clip-rule="evenodd" d="M78 61.9286C85.6925 61.9286 91.9286 55.6926 91.9286 48C91.9286 40.3075 85.6925 34.0715 78 34.0715C70.3075 34.0715 64.0714 40.3075 64.0714 48C64.0714 55.6926 70.3075 61.9286 78 61.9286ZM78 63C86.2843 63 93 56.2843 93 48C93 39.7158 86.2843 33 78 33C69.7157 33 63 39.7158 63 48C63 56.2843 69.7157 63 78 63Z" fill="#A5CFE9"/>
<path id="Shape_6" fill-rule="evenodd" clip-rule="evenodd" d="M78 33C69.7157 33 63 39.8775 63 48.3615C63 52.0584 64.2476 54.9207 66.3723 57.5713C66.7001 54.8834 69.3498 53.1397 73.0257 52.0631C74.3686 53.3446 76.1034 54.122 78 54.122C79.852 54.122 81.5526 53.3838 82.882 52.1561C86.5896 53.3267 89.1265 55.2033 89.2108 58C91.5493 55.2908 93 52.2621 93 48.3615C93 39.8775 86.2844 33 78 33ZM78 41.3609C79.9231 41.3617 81.8462 41.8845 83.7692 42.9292C83.8705 43.3859 83.9211 44.2366 83.9211 45.4812C83.9211 48.1802 82.5503 50.511 80.5714 51.6166C79.792 52.0518 78.9221 52.3029 78 52.3029C77.0425 52.3029 76.1402 52.0335 75.339 51.5668C73.4083 50.4417 72.0789 48.1394 72.0789 45.4812C72.0789 44.6172 72.1295 43.765 72.2308 42.9246C74.1538 41.8814 76.0769 41.3602 78 41.3609ZM77.7721 35.3209L88.3846 40.7176L84.5848 42.2835V41.7429C84.5848 41.7429 81.2655 39.7676 77.9675 39.7676C74.669 39.7676 71.4369 41.765 71.4369 41.765V42.2835L67.6154 40.6515L77.7721 35.3209Z" fill="#A5CFE9"/>
</g>
</g>
</g>
<g id="magn">
<path id="Oval" fill-rule="evenodd" clip-rule="evenodd" d="M98.8978 126.4C110.714 122.59 117.204 109.923 113.394 98.1075C109.585 86.2917 96.9179 79.8013 85.1021 83.6109C73.2862 87.4205 66.7959 100.087 70.6054 111.903C74.415 123.719 87.082 130.21 98.8978 126.4Z" fill="white" fill-opacity="0.7"/>
<path id="Rectangle_16" fill-rule="evenodd" clip-rule="evenodd" d="M112.595 118.97L121.972 127.427L118.346 131.446L108.97 122.989L112.595 118.97Z" fill="#023757"/>
<path id="Rectangle Copy 18" d="M120.696 123.403L134.805 136.129C136.855 137.978 137.018 141.14 135.169 143.19C133.319 145.241 130.157 145.404 128.107 143.554L113.998 130.829C113.588 130.459 113.556 129.826 113.925 129.416L119.284 123.476C119.654 123.066 120.286 123.033 120.696 123.403Z" fill="#1974AB"/>
<path id="Shape_7" fill-rule="evenodd" clip-rule="evenodd" d="M83.2997 129.5C73.3901 125.981 66.5759 116.839 66.0347 106.338C65.2995 91.9989 76.3234 79.7772 90.6618 79.0346C101.164 78.4934 110.958 84.3317 115.477 93.827C119.995 103.322 118.35 114.605 111.306 122.413C104.263 130.222 93.2093 133.019 83.2997 129.5ZM101.024 123.962C108.693 120.313 113.409 112.402 112.972 103.92C112.686 98.3575 110.203 93.1366 106.067 89.406C101.931 85.6754 96.4831 83.7408 90.9209 84.028C82.4386 84.4645 75.0545 89.9679 72.2118 97.9717C69.3692 105.976 71.6279 114.904 77.9346 120.593C84.2413 126.282 93.3541 127.612 101.024 123.962Z" fill="#1974AB"/>
</g>
</g>
</svg>
