<svg width="248" height="50" viewBox="0 0 248 50" fill="none" xmlns="http://www.w3.org/2000/svg">
<g clip-path="url(#clip0_1_5362)">
<path d="M24.667 16.667H44.667V18.334H24.667V16.667ZM25.5 11.667H45.5V13.334H25.5V11.667ZM26.333 6.667H46.333V8.334H26.333V6.667ZM28 21.667H43V23.334H28V21.667ZM29.667 26.667H42.167V28.334H29.667V26.667ZM24.667 31.667H41.334V33.334H24.667V31.667Z" fill="#1799E5"/>
<path d="M50.293 0.284C50.2147 0.194995 50.1185 0.123645 50.0105 0.0746819C49.9026 0.0257189 49.7855 0.000262105 49.667 0H23C22.582 0 22.23 0.31 22.174 0.723L18.694 26.825L15.914 28.447C15.7881 28.5204 15.6836 28.6255 15.611 28.7518C15.5384 28.8781 15.5001 29.0213 15.5 29.167V37.988L11.578 41.911C11.4977 41.9913 11.4347 42.0872 11.3928 42.1927C11.3509 42.2983 11.331 42.4113 11.3344 42.5248C11.3377 42.6383 11.3643 42.7499 11.4124 42.8528C11.4605 42.9557 11.5291 43.0476 11.614 43.123L19.114 49.789C19.2724 49.9308 19.4791 50.0064 19.6916 50.0003C19.9041 49.9941 20.1061 49.9067 20.256 49.756L24.402 45.61L31.651 39.167H44.667C45.084 39.167 45.437 38.857 45.492 38.443L50.492 0.943C50.5077 0.825318 50.4981 0.705638 50.4638 0.591982C50.4294 0.478325 50.3712 0.373319 50.293 0.284ZM19.633 48.022L13.381 42.464L16.367 39.478L22.619 45.036L19.633 48.022ZM23.833 43.885L17.167 37.959V29.645L24.702 25.249C25.0592 25.0425 25.4831 24.9842 25.8828 25.0866C26.2825 25.1891 26.6262 25.4441 26.84 25.797C26.9491 25.9775 27.0205 26.1782 27.0497 26.3871C27.0789 26.5959 27.0654 26.8085 27.01 27.012C26.9 27.427 26.632 27.769 26.257 27.978L20.929 30.938C20.7989 31.0101 20.6905 31.1158 20.6151 31.244C20.5396 31.3722 20.4999 31.5183 20.5 31.667V38.333C20.5 38.793 20.873 39.167 21.333 39.167H29.142L23.833 43.885ZM43.938 37.5H22.166V32.157L27.064 29.435C27.4445 29.2254 27.7784 28.9408 28.0457 28.5984C28.313 28.256 28.508 27.8629 28.619 27.443C28.7329 27.0238 28.7606 26.5859 28.7004 26.1556C28.6403 25.7254 28.4935 25.3119 28.269 24.94C27.9974 24.4897 27.6204 24.1122 27.1704 23.84C26.7204 23.5679 26.2109 23.4093 25.686 23.378C25.0484 23.3374 24.4131 23.4874 23.861 23.809L20.516 25.761L23.728 1.667H48.713L43.938 37.5ZM8 4.167H19.667V5.834H8V4.167ZM6.333 14.167H18V15.834H6.333V14.167ZM3.833 24.167H15.5V25.834H3.833V24.167ZM4.667 4.167H6.334V5.834H4.667V4.167ZM3 14.167H4.667V15.834H3V14.167ZM0.5 24.167H2.167V25.834H0.5V24.167Z" fill="#1799E5"/>
</g>
<path d="M72.8 30.78C71.48 30.78 70.3267 30.4733 69.34 29.86C68.3533 29.2467 67.5933 28.4133 67.06 27.36C66.5267 26.2933 66.26 25.1 66.26 23.78C66.26 22.3933 66.54 21.1667 67.1 20.1C67.66 19.02 68.4333 18.1733 69.42 17.56C70.4067 16.9333 71.5467 16.6067 72.84 16.58C74.1733 16.58 75.3267 16.8933 76.3 17.52C77.2867 18.1333 78.0467 18.9667 78.58 20.02C79.1267 21.0733 79.4 22.2667 79.4 23.6C79.4 24.9867 79.12 26.22 78.56 27.3C78 28.3667 77.2267 29.2067 76.24 29.82C75.2533 30.4333 74.1067 30.7533 72.8 30.78ZM72.78 28.88C73.5933 28.88 74.32 28.6733 74.96 28.26C75.6 27.8333 76.1067 27.2267 76.48 26.44C76.8533 25.6533 77.04 24.7133 77.04 23.62C77.04 22.6333 76.8667 21.7533 76.52 20.98C76.1733 20.2067 75.6867 19.6 75.06 19.16C74.4333 18.72 73.7 18.5 72.86 18.5C72.0733 18.5 71.3533 18.7267 70.7 19.18C70.06 19.62 69.5467 20.2333 69.16 21.02C68.7867 21.7933 68.6 22.7 68.6 23.74C68.6 24.74 68.7733 25.6267 69.12 26.4C69.4667 27.1733 69.9533 27.78 70.58 28.22C71.22 28.66 71.9533 28.88 72.78 28.88ZM83.568 30.5V23.72C83.848 23.5067 84.1413 23.2933 84.448 23.08C84.7546 22.8667 85.0746 22.6933 85.408 22.56C85.7546 22.4267 86.088 22.36 86.408 22.36C86.9413 22.36 87.3213 22.54 87.548 22.9C87.788 23.26 87.908 23.76 87.908 24.4V30.5H90.168V24.26C90.168 23.54 90.0613 22.9 89.848 22.34C89.648 21.7667 89.3146 21.3133 88.848 20.98C88.3813 20.6467 87.748 20.48 86.948 20.48C86.5613 20.48 86.148 20.54 85.708 20.66C85.268 20.78 84.8346 20.9533 84.408 21.18C83.9946 21.3933 83.6013 21.6533 83.228 21.96L82.828 20.8H81.328V30.5H83.568ZM97.0022 24.14H91.8422L92.0422 25.92H97.2022L97.0022 24.14ZM108.885 16.9H98.0047V18.68H102.285V30.5H104.565V18.68H109.225L108.885 16.9ZM112.846 30.5V20.8H110.586V30.5H112.846ZM111.686 19.24C112.059 19.24 112.372 19.1133 112.626 18.86C112.892 18.5933 113.026 18.2733 113.026 17.9C113.026 17.5267 112.892 17.2133 112.626 16.96C112.359 16.7067 112.046 16.58 111.686 16.58C111.312 16.58 110.999 16.7067 110.746 16.96C110.506 17.2133 110.386 17.5267 110.386 17.9C110.386 18.2867 110.506 18.6067 110.746 18.86C110.999 19.1133 111.312 19.24 111.686 19.24ZM117.377 30.5V23.72C117.657 23.5067 117.943 23.2933 118.237 23.08C118.53 22.8667 118.83 22.6933 119.137 22.56C119.443 22.4267 119.75 22.36 120.057 22.36C120.403 22.36 120.67 22.4467 120.857 22.62C121.057 22.78 121.197 23.0133 121.277 23.32C121.37 23.6133 121.417 23.9733 121.417 24.4V30.5H123.677V24.06C123.677 23.34 123.57 22.7133 123.357 22.18C123.157 21.6467 122.83 21.2333 122.377 20.94C121.923 20.6333 121.33 20.48 120.597 20.48C120.25 20.48 119.863 20.54 119.437 20.66C119.023 20.78 118.61 20.9533 118.197 21.18C117.797 21.3933 117.41 21.6533 117.037 21.96L116.637 20.8H115.137V30.5H117.377ZM123.577 23.72C123.857 23.5067 124.143 23.2933 124.437 23.08C124.743 22.8667 125.05 22.6933 125.357 22.56C125.663 22.4267 125.963 22.36 126.257 22.36C126.603 22.36 126.87 22.4467 127.057 22.62C127.257 22.78 127.397 23.0133 127.477 23.32C127.57 23.6133 127.617 23.9733 127.617 24.4V30.5H129.877V24.06C129.877 23.34 129.77 22.7133 129.557 22.18C129.357 21.6467 129.03 21.2333 128.577 20.94C128.123 20.6333 127.53 20.48 126.797 20.48C126.437 20.48 126.05 20.54 125.637 20.66C125.223 20.78 124.81 20.9533 124.397 21.18C123.983 21.3933 123.597 21.6533 123.237 21.96L123.577 23.72ZM140.57 26.24V25.76C140.57 24.8133 140.416 23.9467 140.11 23.16C139.816 22.3733 139.35 21.74 138.71 21.26C138.07 20.78 137.25 20.54 136.25 20.54C135.263 20.54 134.41 20.7533 133.69 21.18C132.983 21.6067 132.436 22.2067 132.05 22.98C131.676 23.74 131.49 24.6333 131.49 25.66C131.49 26.6733 131.69 27.5667 132.09 28.34C132.49 29.1 133.096 29.6933 133.91 30.12C134.723 30.5333 135.723 30.74 136.91 30.74C137.416 30.74 137.883 30.6933 138.31 30.6C138.736 30.5067 139.13 30.3733 139.49 30.2C139.85 30.0133 140.183 29.82 140.49 29.62L139.81 27.98C139.33 28.2333 138.87 28.44 138.43 28.6C138.003 28.76 137.51 28.84 136.95 28.84C136.256 28.84 135.69 28.7333 135.25 28.52C134.823 28.2933 134.496 27.9867 134.27 27.6C134.056 27.2133 133.916 26.76 133.85 26.24H140.57ZM133.89 24.72C133.956 24.24 134.083 23.8333 134.27 23.5C134.47 23.1667 134.73 22.9133 135.05 22.74C135.383 22.5533 135.756 22.46 136.17 22.46C136.596 22.46 136.956 22.5533 137.25 22.74C137.556 22.9133 137.803 23.1667 137.99 23.5C138.19 23.8333 138.33 24.24 138.41 24.72H133.89ZM152.396 30.5C153.73 30.4867 154.856 30.1933 155.776 29.62C156.696 29.0467 157.396 28.2467 157.876 27.22C158.356 26.18 158.596 24.98 158.596 23.62C158.596 22.3267 158.37 21.18 157.916 20.18C157.476 19.1667 156.803 18.3667 155.896 17.78C155.003 17.1933 153.85 16.9 152.436 16.9H147.416V30.5H152.396ZM152.516 18.8C153.383 18.8 154.09 19 154.636 19.4C155.196 19.8 155.61 20.36 155.876 21.08C156.143 21.8 156.276 22.6533 156.276 23.64C156.276 24.7733 156.11 25.7067 155.776 26.44C155.456 27.1733 155.003 27.72 154.416 28.08C153.843 28.44 153.156 28.62 152.356 28.62H149.636V18.8H152.516ZM168.988 26.24V25.76C168.988 24.8133 168.834 23.9467 168.528 23.16C168.234 22.3733 167.768 21.74 167.128 21.26C166.488 20.78 165.668 20.54 164.668 20.54C163.681 20.54 162.828 20.7533 162.108 21.18C161.401 21.6067 160.854 22.2067 160.468 22.98C160.094 23.74 159.908 24.6333 159.908 25.66C159.908 26.6733 160.108 27.5667 160.508 28.34C160.908 29.1 161.514 29.6933 162.328 30.12C163.141 30.5333 164.141 30.74 165.328 30.74C165.834 30.74 166.301 30.6933 166.728 30.6C167.154 30.5067 167.548 30.3733 167.908 30.2C168.268 30.0133 168.601 29.82 168.908 29.62L168.228 27.98C167.748 28.2333 167.288 28.44 166.848 28.6C166.421 28.76 165.928 28.84 165.368 28.84C164.674 28.84 164.108 28.7333 163.668 28.52C163.241 28.2933 162.914 27.9867 162.688 27.6C162.474 27.2133 162.334 26.76 162.268 26.24H168.988ZM162.308 24.72C162.374 24.24 162.501 23.8333 162.688 23.5C162.888 23.1667 163.148 22.9133 163.468 22.74C163.801 22.5533 164.174 22.46 164.588 22.46C165.014 22.46 165.374 22.5533 165.668 22.74C165.974 22.9133 166.221 23.1667 166.408 23.5C166.608 23.8333 166.748 24.24 166.828 24.72H162.308ZM173.103 30.5V16.38L170.883 16.6V30.5H173.103ZM177.885 30.5V20.8H175.625V30.5H177.885ZM176.725 19.24C177.098 19.24 177.412 19.1133 177.665 18.86C177.932 18.5933 178.065 18.2733 178.065 17.9C178.065 17.5267 177.932 17.2133 177.665 16.96C177.398 16.7067 177.085 16.58 176.725 16.58C176.352 16.58 176.038 16.7067 175.785 16.96C175.545 17.2133 175.425 17.5267 175.425 17.9C175.425 18.2867 175.545 18.6067 175.785 18.86C176.038 19.1133 176.352 19.24 176.725 19.24ZM184.816 30.5L188.556 20.8H186.196L183.876 27.26L181.396 20.44L179.216 21.16L182.816 30.5H184.816ZM198.402 26.24V25.76C198.402 24.8133 198.248 23.9467 197.942 23.16C197.648 22.3733 197.182 21.74 196.542 21.26C195.902 20.78 195.082 20.54 194.082 20.54C193.095 20.54 192.242 20.7533 191.522 21.18C190.815 21.6067 190.268 22.2067 189.882 22.98C189.508 23.74 189.322 24.6333 189.322 25.66C189.322 26.6733 189.522 27.5667 189.922 28.34C190.322 29.1 190.928 29.6933 191.742 30.12C192.555 30.5333 193.555 30.74 194.742 30.74C195.248 30.74 195.715 30.6933 196.142 30.6C196.568 30.5067 196.962 30.3733 197.322 30.2C197.682 30.0133 198.015 29.82 198.322 29.62L197.642 27.98C197.162 28.2333 196.702 28.44 196.262 28.6C195.835 28.76 195.342 28.84 194.782 28.84C194.088 28.84 193.522 28.7333 193.082 28.52C192.655 28.2933 192.328 27.9867 192.102 27.6C191.888 27.2133 191.748 26.76 191.682 26.24H198.402ZM191.722 24.72C191.788 24.24 191.915 23.8333 192.102 23.5C192.302 23.1667 192.562 22.9133 192.882 22.74C193.215 22.5533 193.588 22.46 194.002 22.46C194.428 22.46 194.788 22.5533 195.082 22.74C195.388 22.9133 195.635 23.1667 195.822 23.5C196.022 23.8333 196.162 24.24 196.242 24.72H191.722ZM202.338 30.5V24.32C202.684 24 203.058 23.7133 203.458 23.46C203.871 23.2067 204.277 23 204.678 22.84C205.091 22.68 205.458 22.6 205.778 22.6L205.298 20.8C204.951 20.8 204.571 20.8867 204.158 21.06C203.758 21.2333 203.371 21.4467 202.998 21.7C202.624 21.94 202.304 22.1733 202.038 22.4L201.298 20.8H200.098V30.5H202.338ZM209.089 31.36C208.982 31.6533 208.802 31.9067 208.549 32.12C208.295 32.3333 208.002 32.52 207.669 32.68C207.349 32.84 207.035 32.9867 206.729 33.12L207.509 34.94C208.042 34.8067 208.555 34.6067 209.049 34.34C209.542 34.0733 209.975 33.74 210.349 33.34C210.735 32.94 211.022 32.5 211.209 32.02L215.529 20.8H213.169L210.829 27.24L208.349 20.44L206.169 21.18L209.629 30.04L209.089 31.36Z" fill="#00466F"/>
<defs>
<clipPath id="clip0_1_5362">
<rect width="50" height="50" fill="white" transform="translate(0.5)"/>
</clipPath>
</defs>
</svg>
