<svg width="87" height="15" viewBox="0 0 87 15" fill="none" xmlns="http://www.w3.org/2000/svg">
<path d="M7.50002 0.625C7.73791 0.625 7.95517 0.760045 8.06046 0.97336L9.84643 4.59154L13.8404 5.17532C14.0758 5.20972 14.2712 5.37473 14.3445 5.60098C14.4179 5.82723 14.3565 6.07552 14.1861 6.24147L11.2966 9.05585L11.9785 13.0318C12.0187 13.2663 11.9223 13.5033 11.7299 13.6432C11.5374 13.783 11.2822 13.8014 11.0716 13.6907L7.50002 11.8124L3.92843 13.6907C3.71785 13.8014 3.46267 13.783 3.27018 13.6432C3.0777 13.5033 2.9813 13.2663 3.02151 13.0318L3.70344 9.05585L0.813935 6.24147C0.643549 6.07552 0.582128 5.82723 0.655489 5.60098C0.72885 5.37473 0.924276 5.20972 1.15963 5.17532L5.1536 4.59154L6.93958 0.97336C7.04487 0.760045 7.26213 0.625 7.50002 0.625Z" fill="#FDC420"/>
<path d="M25.5 0.625C25.7379 0.625 25.9552 0.760045 26.0605 0.97336L27.8464 4.59154L31.8404 5.17532C32.0758 5.20972 32.2712 5.37473 32.3445 5.60098C32.4179 5.82723 32.3565 6.07552 32.1861 6.24147L29.2966 9.05585L29.9785 13.0318C30.0187 13.2663 29.9223 13.5033 29.7299 13.6432C29.5374 13.783 29.2822 13.8014 29.0716 13.6907L25.5 11.8124L21.9284 13.6907C21.7179 13.8014 21.4627 13.783 21.2702 13.6432C21.0777 13.5033 20.9813 13.2663 21.0215 13.0318L21.7034 9.05585L18.8139 6.24147C18.6435 6.07552 18.5821 5.82723 18.6555 5.60098C18.7289 5.37473 18.9243 5.20972 19.1596 5.17532L23.1536 4.59154L24.9396 0.97336C25.0449 0.760045 25.2621 0.625 25.5 0.625Z" fill="#FDC420"/>
<path d="M43.5 0.625C43.7379 0.625 43.9552 0.760045 44.0605 0.97336L45.8464 4.59154L49.8404 5.17532C50.0758 5.20972 50.2712 5.37473 50.3445 5.60098C50.4179 5.82723 50.3565 6.07552 50.1861 6.24147L47.2966 9.05585L47.9785 13.0318C48.0187 13.2663 47.9223 13.5033 47.7299 13.6432C47.5374 13.783 47.2822 13.8014 47.0716 13.6907L43.5 11.8124L39.9284 13.6907C39.7179 13.8014 39.4627 13.783 39.2702 13.6432C39.0777 13.5033 38.9813 13.2663 39.0215 13.0318L39.7034 9.05585L36.8139 6.24147C36.6435 6.07552 36.5821 5.82723 36.6555 5.60098C36.7289 5.37473 36.9243 5.20972 37.1596 5.17532L41.1536 4.59154L42.9396 0.97336C43.0449 0.760045 43.2621 0.625 43.5 0.625Z" fill="#FDC420"/>
<path fill-rule="evenodd" clip-rule="evenodd" d="M61.5 0.625C61.7379 0.625 61.9552 0.760045 62.0605 0.97336L63.8464 4.59154L67.8404 5.17532C68.0758 5.20972 68.2712 5.37473 68.3445 5.60098C68.4179 5.82723 68.3565 6.07552 68.1861 6.24147L65.2966 9.05585L65.9785 13.0318C66.0187 13.2663 65.9223 13.5033 65.7299 13.6432C65.5374 13.783 65.2822 13.8014 65.0716 13.6907L61.5 11.8124L57.9284 13.6907C57.7179 13.8014 57.4627 13.783 57.2702 13.6432C57.0777 13.5033 56.9813 13.2663 57.0215 13.0318L57.7034 9.05585L54.8139 6.24147C54.6435 6.07552 54.5821 5.82723 54.6555 5.60098C54.7289 5.37473 54.9243 5.20972 55.1596 5.17532L59.1536 4.59154L60.9396 0.97336C61.0449 0.760045 61.2621 0.625 61.5 0.625ZM61.508 10.4813C61.6053 10.4825 61.7023 10.5065 61.7909 10.5531L64.5324 11.9948L64.009 8.94315C63.9742 8.74032 64.0415 8.53336 64.1889 8.38978L66.4073 6.22913L63.3409 5.78093C63.1375 5.75121 62.9618 5.62342 62.8708 5.43914L61.508 2.67822V10.4813Z" fill="#FDC420"/>
<path d="M79.5 0.625C79.7379 0.625 79.9552 0.760045 80.0605 0.97336L81.8464 4.59154L85.8404 5.17532C86.0758 5.20972 86.2712 5.37473 86.3445 5.60098C86.4179 5.82723 86.3565 6.07552 86.1861 6.24147L83.2966 9.05585L83.9785 13.0318C84.0187 13.2663 83.9223 13.5033 83.7299 13.6432C83.5374 13.783 83.2822 13.8014 83.0716 13.6907L79.5 11.8124L75.9284 13.6907C75.7179 13.8014 75.4627 13.783 75.2702 13.6432C75.0777 13.5033 74.9813 13.2663 75.0215 13.0318L75.7034 9.05585L72.8139 6.24147C72.6435 6.07552 72.5821 5.82723 72.6555 5.60098C72.7289 5.37473 72.9243 5.20972 73.1596 5.17532L77.1536 4.59154L78.9396 0.97336C79.0449 0.760045 79.2621 0.625 79.5 0.625Z" fill="#ACB8BF"/>
</svg>
