<svg width="21" height="20" viewBox="0 0 21 20" fill="none" xmlns="http://www.w3.org/2000/svg">
<path d="M20.958 13.539C20.958 10.6211 18.9905 8.07837 16.2227 7.30304C16.0476 3.25135 12.6962 0 8.59453 0C4.38444 0 0.958008 3.42643 0.958008 7.63652C0.958008 9.01209 1.32483 10.346 2.01679 11.5215L0.983017 15.248L4.70957 14.2143C5.78502 14.8562 7.00219 15.2147 8.26105 15.2647C9.02804 18.0325 11.5791 20 14.497 20C15.6641 20 16.7896 19.6915 17.79 19.0996L20.9413 19.9667L20.0743 16.8153C20.6495 15.8399 20.958 14.7061 20.958 13.539ZM4.89298 12.9554L2.65871 13.5723L3.27564 11.3381L3.13392 11.1213C2.46697 10.0875 2.11682 8.8787 2.11682 7.64485C2.11682 4.0767 5.01803 1.17549 8.58618 1.17549C12.1543 1.17549 15.0556 4.0767 15.0556 7.64485C15.0556 11.213 12.1543 14.1142 8.58618 14.1142C7.35234 14.1142 6.1435 13.7641 5.10974 13.0971L4.89298 12.9554ZM19.249 18.2993L17.5899 17.8408L17.3648 17.9825C16.5062 18.5411 15.5141 18.8328 14.4803 18.8328C12.1877 18.8328 10.1702 17.3489 9.46155 15.223C12.9713 14.8145 15.7642 12.0217 16.1727 8.51188C18.2986 9.22885 19.7825 11.238 19.7825 13.5306C19.7825 14.5561 19.4907 15.5565 18.9322 16.4152L18.7904 16.6403L19.249 18.2993Z" fill="#00466F"/>
<path d="M8.01097 10.5877H9.18597V11.7632H8.01097V10.5877Z" fill="#00466F"/>
<path d="M9.7617 5.86078C9.7617 6.19425 9.62831 6.50271 9.3782 6.7278L8.00264 7.98666V9.42059H9.17813V8.50354L10.1702 7.59483C10.6537 7.15298 10.9289 6.51938 10.9289 5.86078C10.9289 4.56857 9.87842 3.51813 8.58621 3.51813C7.294 3.51813 6.24357 4.56857 6.24357 5.86078H7.41906C7.41906 5.21051 7.94428 4.68529 8.59455 4.68529C9.24483 4.68529 9.7617 5.21884 9.7617 5.86078Z" fill="#00466F"/>
</svg>
