<svg width="21" height="20" viewBox="0 0 21 20" fill="none" xmlns="http://www.w3.org/2000/svg">
<path d="M20.2975 8.70335L12.134 0.538669C11.7878 0.192382 11.3262 0 10.8337 0C10.3413 0 9.87966 0.192382 9.53342 0.538669L1.37761 8.69565L1.36992 8.70335C0.654363 9.41901 0.654363 10.5887 1.36992 11.3043C1.70077 11.6352 2.13164 11.8199 2.59329 11.843C2.60868 11.843 2.63176 11.843 2.64715 11.843H2.9703V17.8453C2.9703 19.0304 3.93977 20 5.12467 20H8.31774C8.6409 20 8.9025 19.7384 8.9025 19.4152V14.7057C8.9025 14.167 9.34107 13.7207 9.88735 13.7207H11.7724C12.311 13.7207 12.7573 14.1593 12.7573 14.7057V19.4152C12.7573 19.7384 13.0189 20 13.342 20H16.5351C17.72 20 18.6895 19.0304 18.6895 17.8453V11.843H18.9895C19.482 11.843 19.9436 11.6506 20.2899 11.3043C21.0131 10.5887 21.0131 9.41901 20.2975 8.70335Z" fill="#1799E5"/>
</svg>
