<svg width="21" height="20" viewBox="0 0 21 20" fill="none" xmlns="http://www.w3.org/2000/svg">
<path d="M13.0756 11.4286H12.7167C12.6678 11.4286 12.627 11.3959 12.6025 11.3469C12.5617 11.2408 12.5128 11.1347 12.4638 11.0286C12.4394 10.9796 12.4557 10.9306 12.4883 10.898L12.7412 10.6367C13.1979 10.1796 13.1979 9.42857 12.7412 8.96326L11.8195 8.04082C11.3627 7.58367 10.6123 7.58367 10.1474 8.04082L9.89452 8.29388C9.86189 8.32653 9.8048 8.34286 9.75586 8.31837C9.64982 8.26939 9.54379 8.22857 9.42959 8.17959C9.38065 8.16327 9.35618 8.11429 9.35618 8.06531V7.71429C9.35618 7.06122 8.826 6.53061 8.17348 6.53061H6.86842C6.21589 6.53061 5.68571 7.06122 5.68571 7.71429V8.07347C5.68571 8.12245 5.65308 8.16327 5.60414 8.18775C5.49811 8.22857 5.39207 8.27755 5.28604 8.32653C5.2371 8.34286 5.18816 8.33469 5.14738 8.30204L4.89452 8.04898C4.43775 7.59184 3.68734 7.59184 3.22242 8.04898L2.30072 8.97143C1.84395 9.42857 1.84395 10.1796 2.30072 10.6449L2.55357 10.898C2.5862 10.9306 2.59436 10.9878 2.57804 11.0367C2.5291 11.1429 2.48832 11.249 2.44754 11.3551C2.43122 11.4041 2.38229 11.4286 2.33335 11.4286H1.97445C1.32192 11.4286 0.791748 11.9592 0.791748 12.6122V13.9184C0.791748 14.5714 1.32192 15.102 1.97445 15.102H2.33335C2.38229 15.102 2.42307 15.1347 2.43938 15.1837C2.48017 15.2898 2.52095 15.3959 2.56989 15.502C2.59436 15.5429 2.57804 15.6 2.54542 15.6327L2.29256 15.8857C1.83579 16.3429 1.83579 17.0939 2.29256 17.5592L3.21426 18.4816C3.67103 18.9388 4.42144 18.9388 4.88636 18.4816L5.13922 18.2286C5.17184 18.1959 5.22894 18.1878 5.27788 18.2041C5.38392 18.2531 5.48995 18.2939 5.60414 18.3429C5.65308 18.3592 5.67755 18.4082 5.67755 18.4571V18.8163C5.67755 19.4694 6.20773 20 6.86026 20H8.16532C8.81785 20 9.34803 19.4694 9.34803 18.8163V18.4571C9.34803 18.4082 9.38065 18.3673 9.42959 18.3429C9.53563 18.302 9.64167 18.2612 9.7477 18.2122C9.78848 18.1878 9.84558 18.2041 9.87821 18.2367L10.1392 18.4898C10.6041 18.9469 11.3464 18.9469 11.8113 18.4898L12.733 17.5673C13.1898 17.1102 13.1898 16.3592 12.733 15.8939L12.4802 15.6327C12.4475 15.6 12.4394 15.5429 12.4557 15.502C12.5046 15.3959 12.5454 15.298 12.5944 15.1755C12.6107 15.1265 12.6515 15.102 12.7004 15.102H13.0593C13.7118 15.102 14.242 14.5714 14.242 13.9184V12.6122C14.2583 11.9592 13.7281 11.4286 13.0756 11.4286ZM11.6074 14.8082C11.5748 14.898 11.5422 14.9796 11.5014 15.0612C11.2975 15.502 11.3953 16.0408 11.7379 16.3837L11.9908 16.6367C12.0152 16.6612 12.0234 16.6939 12.0234 16.7265C12.0234 16.7592 12.0071 16.7918 11.9908 16.8163L11.0691 17.7388C11.0201 17.7878 10.9386 17.7878 10.8978 17.7388L10.6449 17.4857C10.2942 17.1429 9.76401 17.0449 9.32356 17.249C9.24199 17.2898 9.15227 17.3224 9.06255 17.3551C8.60578 17.5265 8.30398 17.9755 8.30398 18.4571V18.8163C8.30398 18.8816 8.24688 18.9388 8.18163 18.9388H6.87657C6.81132 18.9388 6.75422 18.8816 6.75422 18.8163V18.4571C6.75422 17.9592 6.45243 17.5265 5.99566 17.3551C5.90594 17.3224 5.82437 17.2816 5.73465 17.249C5.57967 17.1755 5.41654 17.1429 5.24525 17.1429C4.9353 17.1429 4.63351 17.2653 4.40512 17.4857L4.15227 17.7388C4.10333 17.7878 4.02992 17.7878 3.98098 17.7388L3.05928 16.8163C3.03481 16.7918 3.02666 16.7592 3.02666 16.7265C3.02666 16.6939 3.04297 16.6612 3.05928 16.6367L3.31214 16.3837C3.65472 16.0327 3.75259 15.502 3.54868 15.0612C3.5079 14.9796 3.47527 14.8898 3.44264 14.8C3.2632 14.3347 2.8309 14.0408 2.3415 14.0327H1.98261C1.91736 14.0327 1.86026 13.9755 1.86026 13.9102V12.6041C1.86026 12.5388 1.91736 12.4816 1.98261 12.4816H2.3415C2.8309 12.4816 3.27136 12.1714 3.44264 11.7224C3.47527 11.6327 3.5079 11.551 3.54868 11.4612C3.75259 11.0204 3.65472 10.4816 3.31214 10.1388L3.05928 9.88571C3.03481 9.86122 3.02666 9.82857 3.02666 9.79592C3.02666 9.76327 3.04297 9.73061 3.05928 9.70612L3.98098 8.78367C4.02992 8.73469 4.11149 8.73469 4.15227 8.78367L4.40512 9.03673C4.7477 9.37959 5.28604 9.47755 5.72649 9.27347C5.80806 9.23265 5.89778 9.2 5.9875 9.16735C6.44427 8.99592 6.74607 8.5551 6.75422 8.06531V7.71429C6.75422 7.64898 6.81132 7.59184 6.87657 7.59184H8.18163C8.24688 7.59184 8.30398 7.64898 8.30398 7.71429V8.07347C8.30398 8.56327 8.61393 9.00408 9.0707 9.17551C9.16042 9.20816 9.24199 9.24082 9.33171 9.28163C9.78033 9.48571 10.3105 9.38776 10.6531 9.0449L10.9059 8.79184C10.9549 8.74286 11.0364 8.74286 11.0772 8.79184L11.9989 9.71428C12.0234 9.73878 12.0315 9.77143 12.0315 9.80408C12.0315 9.83673 12.0152 9.86939 11.9989 9.89388L11.7461 10.1469C11.4035 10.4898 11.3056 11.0286 11.5095 11.4694C11.5503 11.551 11.5829 11.6408 11.6156 11.7306C11.7869 12.1878 12.2355 12.4898 12.7167 12.4898H13.0756C13.1408 12.4898 13.1979 12.5469 13.1979 12.6122V13.9184C13.1979 13.9837 13.1408 14.0408 13.0756 14.0408H12.7167C12.2273 14.0408 11.7869 14.351 11.6074 14.8082Z" fill="#00466F"/>
<path d="M10.4573 13.1347L10.6613 13.1265C10.6613 13.0449 10.6531 12.9551 10.6449 12.8735C10.6368 12.7837 10.6205 12.6939 10.6042 12.6041C10.596 12.5551 10.5797 12.5143 10.5634 12.4327C10.5471 12.3592 10.5226 12.2939 10.4981 12.2204L10.441 12.0735C10.4002 11.9592 10.3431 11.8531 10.2779 11.7225C10.1882 11.5592 10.0821 11.4041 9.93532 11.2327C9.88638 11.1755 9.83744 11.1184 9.7885 11.0694L9.6009 10.8898C9.56012 10.8571 9.51933 10.8163 9.47039 10.7837L9.42145 10.7429C8.88312 10.3429 8.22243 10.1225 7.55359 10.1225C7.52912 10.1225 7.50465 10.1225 7.44756 10.1306C7.37415 10.1306 7.30074 10.1388 7.22733 10.1469C7.18654 10.1469 7.14576 10.1551 7.10498 10.1633C6.99078 10.1796 6.87659 10.1959 6.7624 10.2286C5.94674 10.4408 5.26974 10.9551 4.8456 11.6735C4.42145 12.3918 4.2991 13.2408 4.51118 14.0571C4.79666 15.1673 5.66126 16.0327 6.78687 16.3184C6.90922 16.351 7.03157 16.3755 7.15392 16.3918C7.21917 16.4 7.28442 16.4 7.34152 16.4082L7.44756 16.4163C7.48018 16.4163 7.52096 16.4245 7.55359 16.4245C7.65147 16.4245 7.75751 16.4163 7.83907 16.4082L7.89617 16.4C7.97773 16.3918 8.06746 16.3755 8.15718 16.3592L8.25506 16.3347C8.31215 16.3184 8.37741 16.302 8.44266 16.2857C8.4916 16.2694 8.54054 16.2531 8.58948 16.2367L8.72814 16.1878C8.76893 16.1714 8.80155 16.1551 8.83418 16.1388L8.74446 15.9592L8.88312 16.1225C8.9239 16.1061 8.95653 16.0898 8.99731 16.0653L9.04625 16.0408C9.36436 15.8694 9.66615 15.6571 9.92716 15.4041C10.0087 15.3306 10.0821 15.2408 10.1392 15.151C10.4084 14.7184 10.5878 14.2367 10.6613 13.7306C10.6694 13.6653 10.6776 13.5918 10.6857 13.5265C10.6939 13.4612 10.6939 13.4041 10.6939 13.3388V13.2816C10.6939 13.2408 10.6939 13.2082 10.6939 13.1673L10.4573 13.1347ZM7.80645 10.9959L7.84723 11.2082C7.91248 11.2163 7.97774 11.2327 8.04299 11.249L8.10008 11.2653C8.25506 11.3061 8.41003 11.3714 8.5487 11.4531L8.62211 11.4939C8.67105 11.5265 8.71183 11.551 8.77708 11.6L8.83418 11.6408C8.89127 11.6898 8.94837 11.7388 9.00547 11.7878L9.06256 11.8531C9.09519 11.8857 9.12782 11.9265 9.16044 11.9674C9.18491 11.9918 9.20122 12.0245 9.21754 12.049C9.25016 12.0898 9.27463 12.1388 9.30726 12.1878L9.34804 12.2612C9.38883 12.3347 9.42145 12.4 9.44592 12.4735L9.47855 12.5633C9.49486 12.6204 9.51118 12.6776 9.52749 12.7265L9.55196 12.8163C9.56827 12.898 9.58458 12.9796 9.59274 13.0612L9.79666 13.0449L9.6009 13.1265C9.6009 13.1918 9.60906 13.2653 9.6009 13.3306V13.4041C9.59274 13.4776 9.58459 13.551 9.57643 13.6163C9.46224 14.2367 9.08703 14.7674 8.54054 15.0694L8.40188 15.1347C8.23059 15.2163 8.04299 15.2653 7.8146 15.3061C7.78197 15.3143 7.74119 15.3143 7.70857 15.3225C7.65963 15.3306 7.61069 15.3306 7.5699 15.3306H7.50465C7.43124 15.3306 7.36599 15.3225 7.25995 15.3143C7.17839 15.3061 7.09682 15.2898 7.01525 15.2653C6.47692 15.1265 6.02831 14.7918 5.74283 14.3102C5.45734 13.8286 5.37578 13.2735 5.51444 12.7347C5.70204 12 6.273 11.4286 7.0071 11.2327C7.17839 11.1918 7.34968 11.1674 7.52912 11.1674C7.61069 11.1674 7.70041 11.1755 7.78198 11.1837L7.80645 10.9959Z" fill="#00466F"/>
<path d="M19.6009 6.85714H18.5731C18.5079 6.84082 18.4834 6.82449 18.4671 6.78367C18.3611 6.46531 18.2387 6.16327 18.0919 5.86939C18.0593 5.82857 18.0756 5.77143 18.1082 5.73878L18.8341 5.01224C19.0544 4.79184 19.1767 4.4898 19.1767 4.17143C19.1767 3.85306 19.0544 3.55918 18.8341 3.33878L17.4475 1.95102C16.9907 1.49388 16.2322 1.49388 15.7754 1.95102L15.0495 2.67755C15.0169 2.7102 14.9598 2.72653 14.919 2.70204C14.6253 2.5551 14.3154 2.42449 14.0054 2.31837C13.9565 2.30204 13.932 2.26122 13.932 2.21224V1.18367C13.932 0.530612 13.4018 0 12.7493 0H10.7917C10.1392 0 9.60902 0.530612 9.60902 1.18367V2.21224C9.60902 2.26122 9.57639 2.30204 9.53561 2.31837C9.22566 2.42449 8.92387 2.54694 8.62207 2.69388C8.58129 2.71837 8.52419 2.7102 8.49157 2.66939L7.76563 1.94286C7.3007 1.48571 6.55029 1.48571 6.09352 1.94286L4.7069 3.33061C4.48667 3.55102 4.36432 3.85306 4.36432 4.16327C4.36432 4.48163 4.48667 4.77551 4.7069 5.00408L5.77541 6.08163C5.87329 6.17959 6.01196 6.23673 6.15062 6.22857C6.28928 6.22857 6.42794 6.17143 6.52582 6.06531C6.72974 5.86122 6.72974 5.53469 6.52582 5.32245L5.45731 4.25306C5.43284 4.22857 5.42468 4.19592 5.42468 4.16327C5.42468 4.13061 5.44099 4.09796 5.45731 4.07347L6.84393 2.68571C6.89287 2.63673 6.96628 2.63673 7.01522 2.68571L7.74116 3.41224C8.10005 3.77143 8.64654 3.86122 9.09516 3.63265C9.34801 3.5102 9.60902 3.39592 9.87003 3.31429C10.3513 3.15102 10.6694 2.70204 10.6694 2.19592V1.18367C10.6694 1.11837 10.7265 1.06122 10.7917 1.06122H12.7493C12.8146 1.06122 12.8717 1.11837 12.8717 1.18367V2.21224C12.8717 2.71837 13.1898 3.16735 13.671 3.33061C13.932 3.42041 14.193 3.52653 14.4459 3.64898C14.8945 3.87755 15.441 3.78775 15.7999 3.42857L16.534 2.70204C16.5584 2.67755 16.5829 2.66939 16.6155 2.66939C16.6482 2.66939 16.6808 2.68571 16.7053 2.70204L18.0919 4.0898C18.1164 4.11429 18.1245 4.14694 18.1245 4.17959C18.1245 4.21224 18.1082 4.2449 18.0919 4.26939L17.366 4.99592C17.0071 5.3551 16.9173 5.90204 17.1457 6.35102C17.2681 6.60408 17.3823 6.86531 17.4638 7.12653C17.627 7.60816 18.0756 7.92653 18.5731 7.92653C18.5731 7.92653 18.5731 7.92653 18.5813 7.92653H19.609C19.6743 7.92653 19.7314 7.98367 19.7314 8.04898V10C19.7314 10.0653 19.6743 10.1224 19.609 10.1224H18.5813C18.5813 10.1224 18.5813 10.1224 18.5731 10.1224C18.0674 10.1224 17.6188 10.4408 17.4638 10.9224C17.3741 11.1837 17.2681 11.4449 17.1457 11.698C16.9173 12.1551 17.0071 12.6939 17.366 13.0531L18.0919 13.7878C18.1164 13.8122 18.1245 13.8367 18.1245 13.8694C18.1245 13.902 18.1082 13.9347 18.0919 13.9592L16.7053 15.3469C16.6808 15.3714 16.6482 15.3796 16.6155 15.3796C16.5829 15.3796 16.5503 15.3633 16.534 15.3469L15.4655 14.2775C15.2615 14.0653 14.9271 14.0653 14.7151 14.2694C14.503 14.4735 14.503 14.8082 14.7151 15.0286L15.7836 16.098C16.012 16.3265 16.3138 16.4408 16.6155 16.4408C16.9173 16.4408 17.2191 16.3265 17.4557 16.098L18.8423 14.7102C19.0625 14.4898 19.1849 14.1878 19.1849 13.8694C19.1849 13.551 19.0625 13.2571 18.8423 13.0367L18.1164 12.3102C18.0837 12.2776 18.0674 12.2204 18.0919 12.1796C18.2387 11.8857 18.3692 11.5755 18.4671 11.2653C18.4834 11.2163 18.5324 11.2 18.5813 11.1918H19.609C20.2615 11.1918 20.7917 10.6612 20.7917 10.0082V8.04898C20.7836 7.38775 20.2534 6.85714 19.6009 6.85714Z" fill="#00466F"/>
<path d="M14.658 11.7225C14.9597 11.902 15.2371 11.8122 15.3676 11.6245C16.6155 9.88572 16.4687 7.43674 14.9108 5.87755C13.255 4.22857 10.702 4.07347 8.95648 5.57551C8.87492 5.64898 8.61391 6.02449 8.81782 6.34286C8.96464 6.57143 9.47851 6.53061 9.60901 6.40816C10.9059 5.2 12.8798 5.33061 14.1604 6.59592C15.335 7.7551 15.4818 9.57551 14.6009 10.8898C14.4867 11.0612 14.3072 11.5102 14.658 11.7225Z" fill="#00466F"/>
</svg>
