<svg width="40" height="40" viewBox="0 0 40 40" fill="none" xmlns="http://www.w3.org/2000/svg">
<rect width="40" height="40" rx="20" fill="#BFDFFF"/>
<g clip-path="url(#clip0_196_1798)">
<path fill-rule="evenodd" clip-rule="evenodd" d="M15.8 10H24.2C27.4 10 30 12.6 30 15.8V24.2C30 27.4033 27.4033 30 24.2 30H15.8C12.6 30 10 27.4 10 24.2V15.8C10 12.5967 12.5967 10 15.8 10ZM15.6 12C13.6118 12 12 13.6118 12 15.6V24.4C12 26.39 13.61 28 15.6 28H24.4C26.3882 28 28 26.3882 28 24.4V15.6C28 13.61 26.39 12 24.4 12H15.6ZM26.5 14.75C26.5 14.0596 25.9404 13.5 25.25 13.5C24.5596 13.5 24 14.0596 24 14.75C24 15.4404 24.5596 16 25.25 16C25.9404 16 26.5 15.4404 26.5 14.75ZM20 15C22.7614 15 25 17.2386 25 20C25 22.7614 22.7614 25 20 25C17.2386 25 15 22.7614 15 20C15 17.2386 17.2386 15 20 15ZM17 20C17 18.3431 18.3431 17 20 17C21.6569 17 23 18.3431 23 20C23 21.6569 21.6569 23 20 23C18.3431 23 17 21.6569 17 20Z" fill="#00466F"/>
</g>
<defs>
<clipPath id="clip0_196_1798">
<rect width="20" height="20" fill="white" transform="translate(10 10)"/>
</clipPath>
</defs>
</svg>
