<svg width="41" height="30" viewBox="0 0 41 30" fill="none" xmlns="http://www.w3.org/2000/svg">
<g clip-path="url(#clip0_196_1824)">
<path fill-rule="evenodd" clip-rule="evenodd" d="M7.32846 9.95246V15.5763C7.32846 16.0332 7.25462 16.4763 7.02385 16.8779C6.67154 17.5 6.04091 17.9141 5.33 17.9902C4.31923 18.1332 3.32693 17.9809 2.36462 17.6786C1.76923 17.4894 1.19462 17.2309 0.608465 17.0094C0.497696 16.9655 0.500004 16.8894 0.500004 16.7994V4.82247C0.517742 2.58621 2.06339 0.652489 4.24077 0.142465C4.64231 0.0547732 5.06 0.0109272 5.46847 0.00861925C7.7577 -0.00061075 10.0469 0.00861925 12.3338 0.00861925H12.5323V0.207081C12.5323 8.30708 12.5415 16.4071 12.5254 24.5071C12.5103 26.8022 10.8785 28.7681 8.62539 29.2055C8.27693 29.2748 7.91462 29.3025 7.55923 29.3048C5.27462 29.314 2.99231 29.3117 0.710004 29.314H0.516157V19.0425C0.96385 19.1325 1.40693 19.2432 1.85693 19.3055C2.68539 19.4163 3.51616 19.5317 4.34923 19.5825C5.10616 19.6286 5.87231 19.6263 6.62923 19.5871C7.7277 19.5317 8.80539 19.3355 9.78616 18.7909C10.8615 18.1932 11.4546 17.2725 11.5238 16.0448C11.57 15.2763 11.5562 14.5032 11.5585 13.7325C11.5631 12.5417 11.5585 11.3509 11.5631 10.1602C11.5631 9.994 11.5215 9.94323 11.3508 9.94554C10.0769 9.95247 8.80308 9.95016 7.52923 9.95246H7.32846ZM14.0185 29.3071V18.0733C14.0531 18.0871 14.0785 18.094 14.0969 18.1079C14.9854 18.821 16.0239 19.1833 17.1223 19.391C18.5531 19.6633 19.9931 19.6794 21.4377 19.564C22.4797 19.4697 23.5138 19.3024 24.5323 19.0633C24.6546 19.0379 24.7054 18.9963 24.7054 18.8625C24.6962 18.2948 24.7008 17.7248 24.7008 17.1571V16.9633C24.6315 16.991 24.5854 17.0094 24.5392 17.0325C23.5677 17.5056 22.5546 17.8448 21.4769 17.9787C20.5308 18.0963 19.5939 18.0987 18.6939 17.7317C17.5885 17.2794 16.9839 16.4371 16.82 15.2694C16.7214 14.64 16.7736 13.9962 16.9723 13.391C17.3392 12.3133 18.1192 11.6994 19.1923 11.4179C19.9539 11.2217 20.72 11.2402 21.4908 11.3371C22.5909 11.4836 23.6574 11.8193 24.6431 12.3294C24.6523 12.334 24.6639 12.3294 24.6892 12.3294C24.6939 12.2856 24.7008 12.2394 24.7008 12.1933C24.7008 11.6094 24.6985 11.0233 24.7031 10.4394C24.7031 10.3356 24.6777 10.2825 24.5692 10.2548C22.7785 9.83942 20.9692 9.61558 19.1277 9.70096C17.9646 9.75173 16.8131 9.90173 15.7123 10.3102C15.14 10.5225 14.6046 10.8017 14.1269 11.1871L14.0115 11.261V4.87788C14.009 3.5797 14.526 2.33447 15.4472 1.41977C16.3684 0.505067 17.6173 -0.00305975 18.9154 0.00865425C21.2369 -0.00519175 23.5585 0.00173025 25.88 0.00173025C25.9285 0.00173025 25.9769 0.00634525 26.0415 0.0109602C26.0462 0.0801913 26.0508 0.144807 26.0508 0.209422C26.0508 8.32788 26.0646 16.444 26.0392 24.5625C26.0346 26.4017 25.1185 27.7794 23.5377 28.7025C22.8162 29.1157 21.9967 29.3269 21.1654 29.314H14.1846L14.0185 29.3071V29.3071ZM27.5462 29.3117V19.361H27.7608C30.2577 19.361 32.7569 19.3702 35.2539 19.361C36.0131 19.361 36.7285 19.1694 37.3423 18.6964C37.951 18.2537 38.2878 17.528 38.2328 16.7774C38.1779 16.0268 37.739 15.3579 37.0723 15.0087C36.5659 14.7369 36.0073 14.5764 35.4339 14.5379C35.7085 14.4548 35.9692 14.3971 36.2115 14.2956C36.9431 13.9933 37.4438 13.4787 37.61 12.6802C37.8099 11.7786 37.3905 10.8534 36.5808 10.4094C35.9623 10.0587 35.2862 9.95251 34.5915 9.95251C32.3185 9.9479 30.0454 9.95251 27.7746 9.95251H27.5369V4.85252C27.5458 2.16894 29.7272 -2.07503e-05 32.4108 0.00636225C34.7369 0.00636225 37.0631 0.0132852 39.3892 0.0109772C39.5738 0.0109772 39.5623 0.103285 39.5623 0.2279V24.2971C39.5531 26.0925 38.8169 27.5117 37.3285 28.5202C36.68 28.9587 35.9531 29.2148 35.1685 29.2725C34.7344 29.299 34.2995 29.3106 33.8646 29.3071L27.7262 29.3117H27.5462Z" fill="#BFDFFF"/>
<path d="M29.9253 17.8055V15.2671C29.9806 15.2648 30.0337 15.2578 30.0868 15.2578C30.9729 15.2578 31.8591 15.2555 32.7453 15.2601C33.3776 15.2648 33.8599 15.6178 34.0122 16.1717C34.2429 17.014 33.6983 17.7871 32.8122 17.8171C31.866 17.8471 30.9199 17.8217 29.9714 17.8217C29.9622 17.8217 29.9529 17.8148 29.9253 17.8032V17.8055ZM29.9299 13.7855V11.4317C29.9829 11.4294 30.0291 11.4224 30.0776 11.4224C30.8714 11.4224 31.6653 11.4155 32.4568 11.4294C32.6652 11.4318 32.8712 11.4741 33.0637 11.554C33.5668 11.7732 33.8068 12.2855 33.7099 12.8532C33.616 13.3809 33.1612 13.768 32.6253 13.7763C31.7345 13.8063 30.8414 13.7855 29.9299 13.7855Z" fill="#BFDFFF"/>
</g>
<defs>
<clipPath id="clip0_196_1824">
<rect width="40" height="30" fill="white" transform="translate(0.5)"/>
</clipPath>
</defs>
</svg>
