<svg width="41" height="40" viewBox="0 0 41 40" fill="none" xmlns="http://www.w3.org/2000/svg">
<path d="M13.833 19.9999C13.833 20.4419 14.0086 20.8659 14.3212 21.1784C14.6337 21.491 15.0576 21.6666 15.4997 21.6666H25.4997C25.9417 21.6666 26.3656 21.491 26.6782 21.1784C26.9907 20.8659 27.1663 20.4419 27.1663 19.9999C27.1663 19.5579 26.9907 19.134 26.6782 18.8214C26.3656 18.5088 25.9417 18.3333 25.4997 18.3333H15.4997C15.0576 18.3333 14.6337 18.5088 14.3212 18.8214C14.0086 19.134 13.833 19.5579 13.833 19.9999Z" fill="#1799E5"/>
<path d="M15.5001 26.6667H12.5168C10.8041 26.7125 9.13586 26.1178 7.83826 24.9989C6.54066 23.8801 5.70696 22.3176 5.50015 20.6167C5.41412 19.6908 5.52275 18.7572 5.81904 17.8758C6.11534 16.9944 6.59275 16.1847 7.2206 15.4987C7.84844 14.8128 8.61284 14.2658 9.46468 13.8929C10.3165 13.52 11.2369 13.3294 12.1668 13.3334H15.5001C15.9422 13.3334 16.3661 13.1578 16.6787 12.8452C16.9912 12.5327 17.1668 12.1088 17.1668 11.6667C17.1668 11.2247 16.9912 10.8008 16.6787 10.4882C16.3661 10.1757 15.9422 10.0001 15.5001 10.0001H12.5168C10.0463 9.96706 7.64709 10.8275 5.76065 12.423C3.87422 14.0185 2.62756 16.2417 2.25015 18.6834C2.06256 20.0957 2.17892 21.5318 2.59145 22.8955C3.00398 24.2593 3.70315 25.5191 4.64212 26.5906C5.5811 27.6621 6.73821 28.5207 8.03594 29.1087C9.33368 29.6967 10.7421 30.0006 12.1668 30.0001H15.5001C15.9422 30.0001 16.3661 29.8245 16.6787 29.5119C16.9912 29.1994 17.1668 28.7754 17.1668 28.3334C17.1668 27.8914 16.9912 27.4675 16.6787 27.1549C16.3661 26.8423 15.9422 26.6667 15.5001 26.6667ZM38.8335 18.7334C38.4608 16.2609 37.1986 14.0095 35.2838 12.4015C33.3689 10.7936 30.9332 9.93966 28.4335 10.0001H25.9168C24.5668 10.0001 23.8335 10.7501 23.8335 11.6667C23.8335 12.1088 24.0091 12.5327 24.3216 12.8452C24.6342 13.1578 25.0581 13.3334 25.5001 13.3334H28.4835C30.1962 13.2877 31.8644 13.8824 33.162 15.0012C34.4596 16.12 35.2933 17.6826 35.5001 19.3834C35.5862 20.3093 35.4775 21.243 35.1812 22.1244C34.885 23.0058 34.4075 23.8155 33.7797 24.5014C33.1518 25.1873 32.3874 25.7343 31.5356 26.1072C30.6838 26.4801 29.7634 26.6707 28.8335 26.6667H25.5001C25.0581 26.6667 24.6342 26.8423 24.3216 27.1549C24.0091 27.4675 23.8335 27.8914 23.8335 28.3334C23.8335 28.7754 24.0091 29.1994 24.3216 29.5119C24.6342 29.8245 25.0581 30.0001 25.5001 30.0001H28.8335C30.2604 30.0116 31.6733 29.7175 32.9772 29.1377C34.2811 28.5579 35.4458 27.7058 36.393 26.6385C37.3403 25.5713 38.0482 24.3137 38.4691 22.9502C38.89 21.5867 39.0143 20.1489 38.8335 18.7334Z" fill="#1799E5"/>
</svg>
