<svg width="40" height="40" viewBox="0 0 40 40" fill="none" xmlns="http://www.w3.org/2000/svg">
<path fill-rule="evenodd" clip-rule="evenodd" d="M14.0764 13.6151C15.6241 13.6151 16.8796 14.8442 16.8796 16.3607C16.8796 17.8772 15.6241 19.1063 14.0764 19.1063C12.5287 19.1063 11.2732 17.8772 11.2732 16.3607C11.2732 14.8442 12.5287 13.6151 14.0764 13.6151ZM25.3604 13.6151C26.9081 13.6151 28.1636 14.8442 28.1636 16.3607C28.1636 17.8772 26.9081 19.1063 25.3604 19.1063C23.8127 19.1063 22.5572 17.8772 22.5572 16.3607C22.5572 14.8442 23.8127 13.6151 25.3604 13.6151ZM12.7711 2.85961H27.2287C27.5615 2.47653 28.0878 1.99908 28.8178 1.52642C30.1098 0.689881 31.6691 0.143902 33.4989 0.0245239L33.8748 0L34.0577 0.322625C34.0964 0.390955 34.1661 0.518928 34.2622 0.703569C34.4208 1.00788 34.5969 1.36288 34.7862 1.76558C35.3256 2.91267 35.8643 4.21467 36.3669 5.64792C37.9811 10.251 38.8636 15.1183 38.6292 19.9976C38.1385 30.2248 30.0591 39.1883 20.9389 39.9439V40H20.345C20.2773 40 20.2263 39.9986 20.1157 39.9946C20.0485 39.9921 20.0217 39.9913 20.0122 39.9906C19.9781 39.9913 19.9513 39.9921 19.8842 39.9946L19.8492 39.9958C19.7693 39.9987 19.7143 40 19.6555 40H19.0616V39.9439C9.94086 39.1884 1.86133 30.2249 1.37058 19.9977C1.13625 15.1183 2.01877 10.251 3.63296 5.64792C4.13556 4.21467 4.67428 2.91267 5.2136 1.76558C5.40294 1.36288 5.57908 1.00788 5.73759 0.703569C5.83376 0.518928 5.90343 0.390955 5.94215 0.322625L6.12499 3.46791e-06L6.50088 0.0245239C8.33093 0.143901 9.89036 0.689882 11.1823 1.52643C11.9122 1.99907 12.4384 2.47652 12.7711 2.85961ZM33.1965 1.21756C31.746 1.36841 30.5089 1.82607 29.4728 2.49694C29.0258 2.78636 28.6486 3.09542 28.3402 3.40251C28.1605 3.58141 28.0469 3.71498 27.9984 3.78101L27.8207 4.02301H12.1791L12.0014 3.78094C11.9529 3.71492 11.8394 3.58136 11.6597 3.40247C11.3513 3.09539 10.9742 2.78634 10.5272 2.49693C9.49118 1.82606 8.25411 1.3684 6.80332 1.21755C6.80078 1.22242 6.79822 1.22732 6.79564 1.23228C6.64424 1.52294 6.47505 1.86393 6.2925 2.25221C5.76927 3.36507 5.24545 4.63105 4.75634 6.02584C3.18742 10.4999 2.33053 15.2258 2.55707 19.943C3.03033 29.8059 10.9733 38.4249 19.6828 38.818L19.9272 38.8291C19.9531 38.8283 19.9785 38.8279 20.0122 38.8274C20.0331 38.8278 20.052 38.8283 20.0742 38.829L20.3176 38.818C29.0266 38.4249 36.9695 29.8058 37.4428 19.943C37.6693 15.2258 36.8124 10.4999 35.2435 6.02584C34.7544 4.63105 34.2306 3.36507 33.7073 2.25221C33.5248 1.86393 33.3556 1.52294 33.2042 1.23228C33.2016 1.22733 33.1991 1.22242 33.1965 1.21756ZM19.8579 21.8578C21.6449 22.3737 20.7903 25.2025 20.2415 26.4142C20.0681 26.7964 19.8579 26.8022 19.8579 26.8022C19.8579 26.8022 19.6476 26.7964 19.4742 26.4142C18.9254 25.2025 18.0708 22.3737 19.8579 21.8578ZM14.0764 12.3858C11.8386 12.3858 10.0183 14.1687 10.0183 16.3606C10.0183 18.553 11.8386 20.3359 14.0764 20.3359C16.3142 20.3359 18.1345 18.553 18.1345 16.3606C18.1345 14.1687 16.3142 12.3858 14.0764 12.3858ZM14.0764 21.4993C11.1835 21.4993 8.83048 19.194 8.83048 16.3606C8.83048 13.5277 11.1835 11.2224 14.0764 11.2224C16.9693 11.2224 19.3223 13.5277 19.3223 16.3606C19.3223 19.194 16.9693 21.4993 14.0764 21.4993ZM25.3604 12.3858C23.1226 12.3858 21.3023 14.1687 21.3023 16.3606C21.3023 18.553 23.1226 20.3359 25.3604 20.3359C27.5982 20.3359 29.4185 18.553 29.4185 16.3606C29.4185 14.1687 27.5982 12.3858 25.3604 12.3858ZM25.3604 21.4993C22.4676 21.4993 20.1145 19.194 20.1145 16.3606C20.1145 13.5277 22.4676 11.2224 25.3604 11.2224C28.2533 11.2224 30.6063 13.5277 30.6063 16.3606C30.6063 19.194 28.2533 21.4993 25.3604 21.4993ZM26.4143 7.301C27.3829 7.301 28.4317 7.43014 29.5411 7.75124C35.1719 9.38175 37.6181 18.7454 31.4713 24.766C25.8316 30.2904 19.841 33.6852 19.841 33.6852C19.841 33.6852 13.8676 30.2904 8.22731 24.766C2.08047 18.7454 4.52733 9.38175 10.1575 7.75124C11.2675 7.43014 12.3157 7.301 13.2849 7.301C17.1756 7.301 19.7763 9.38233 19.8493 9.44108C19.9224 9.38233 22.523 7.301 26.4143 7.301ZM26.4143 8.46441C22.9762 8.46441 20.6285 10.32 20.6053 10.3386L19.8493 10.9465L19.0933 10.3386C19.0701 10.32 16.7218 8.46441 13.2849 8.46441C12.3555 8.46441 11.4171 8.59994 10.4942 8.86694C8.43221 9.46435 6.79958 11.3683 6.1261 13.9603C5.20615 17.5064 6.30546 21.238 9.06768 23.9429C13.5071 28.2917 18.2119 31.3264 19.8416 32.3234C21.4748 31.327 26.1915 28.2922 30.6315 23.9429C33.3932 21.238 34.493 17.5064 33.5725 13.9603C32.8996 11.3683 31.2664 9.46435 29.2044 8.86694C28.2821 8.59994 27.3431 8.46441 26.4143 8.46441Z" fill="url(#paint0_linear_325_561)"/>
<defs>
<linearGradient id="paint0_linear_325_561" x1="1.08436" y1="20" x2="38.9155" y2="20" gradientUnits="userSpaceOnUse">
<stop stop-color="#1B99E5"/>
<stop offset="1" stop-color="#FDC420"/>
</linearGradient>
</defs>
</svg>
