<svg width="18" height="18" viewBox="0 0 18 18" fill="none" xmlns="http://www.w3.org/2000/svg">
<path d="M17.726 16.395L13.29 11.94C14.4256 10.6479 15.0532 8.98723 15.056 7.267C15.055 3.26 11.678 0 7.528 0C3.377 0 0 3.26 0 7.267C0 11.275 3.377 14.535 7.528 14.535C9.06495 14.5409 10.5679 14.0825 11.84 13.22L16.311 17.71C16.498 17.897 16.749 18 17.019 18C17.2709 18.0013 17.5139 17.9069 17.699 17.736C17.7914 17.6514 17.8657 17.5489 17.9173 17.4347C17.9689 17.3205 17.9969 17.1971 17.9994 17.0718C18.0019 16.9465 17.979 16.822 17.932 16.7059C17.885 16.5897 17.8149 16.4843 17.726 16.396V16.395ZM7.528 1.895C10.595 1.895 13.091 4.305 13.091 7.267C13.091 10.229 10.595 12.639 7.528 12.639C4.46 12.639 1.964 10.229 1.964 7.267C1.964 4.306 4.46 1.896 7.528 1.896V1.895Z" fill="white"/>
</svg>
