<svg width="41" height="30" viewBox="0 0 41 30" fill="none" xmlns="http://www.w3.org/2000/svg">
<g clip-path="url(#clip0_196_1816)">
<path d="M7.78825 29.921V27.929C7.81425 27.589 7.68725 27.255 7.44025 27.013C7.19225 26.771 6.84825 26.644 6.49725 26.666C6.03625 26.637 5.59425 26.853 5.34525 27.23C5.11825 26.864 4.70125 26.647 4.26025 26.666C3.87625 26.648 3.51125 26.827 3.30025 27.137V26.744H2.56225V29.914H3.30025V28.165C3.25725 27.943 3.32425 27.714 3.48325 27.548C3.64225 27.382 3.87225 27.298 4.10525 27.323C4.57725 27.323 4.84325 27.623 4.84325 28.158V29.921H5.58125V28.165C5.53825 27.943 5.60525 27.714 5.76425 27.548C5.92325 27.382 6.15325 27.298 6.38625 27.323C6.87325 27.323 7.12425 27.623 7.12425 28.158V29.921H7.78825ZM18.4472 26.751H17.2812V25.787H16.5432V26.751H15.8792V27.379H16.5432V28.807C16.5432 29.521 16.8382 29.978 17.6802 29.978C17.9952 29.98 18.3052 29.896 18.5732 29.735L18.3662 29.142C18.1762 29.251 17.9602 29.313 17.7392 29.32C17.3852 29.32 17.2672 29.106 17.2672 28.792V27.364H18.4332L18.4482 26.75L18.4472 26.751ZM24.5302 26.672C24.1762 26.662 23.8452 26.84 23.6662 27.136V26.75H22.9282V29.92H23.6662V28.142C23.6662 27.621 23.9022 27.328 24.3672 27.328C24.5182 27.326 24.6692 27.353 24.8102 27.407L25.0312 26.757C24.8672 26.701 24.6952 26.672 24.5222 26.671H24.5292L24.5302 26.672ZM15.3322 27C14.9282 26.769 14.4653 26.655 13.9963 26.672C13.1693 26.672 12.6302 27.058 12.6302 27.686C12.6302 28.207 13.0292 28.521 13.7592 28.621L14.0992 28.664C14.4902 28.714 14.6753 28.814 14.6753 28.992C14.6753 29.17 14.4173 29.378 13.9373 29.378C13.5453 29.391 13.1602 29.275 12.8442 29.05L12.5042 29.585C12.9192 29.866 13.4153 30.011 13.9213 29.999C14.8663 29.999 15.3973 29.571 15.3973 28.964C15.3973 28.357 14.9613 28.114 14.2533 28.014L13.9132 27.971C13.6032 27.928 13.3593 27.871 13.3593 27.657C13.3593 27.443 13.5952 27.286 13.9862 27.286C14.3442 27.292 14.6942 27.385 15.0052 27.557L15.3302 27H15.3322ZM34.4442 26.672C34.0902 26.662 33.7592 26.84 33.5802 27.136V26.75H32.8423V29.92H33.5802V28.142C33.5802 27.621 33.8162 27.328 34.2812 27.328C34.4322 27.326 34.5833 27.353 34.7243 27.407L34.9452 26.757C34.7812 26.701 34.6092 26.672 34.4362 26.671H34.4432L34.4442 26.672ZM25.7472 29.536C26.0822 29.85 26.5382 30.013 27.0032 29.984C27.4322 30.005 27.8532 29.87 28.1842 29.606L27.8442 29.049C27.5972 29.229 27.2972 29.329 26.9882 29.335C26.4092 29.335 25.9402 28.881 25.9402 28.321C25.9402 27.761 26.4092 27.307 26.9882 27.307C27.2972 27.313 27.5972 27.413 27.8442 27.593L28.1842 27.036C27.8532 26.771 27.4322 26.636 27.0032 26.658C26.5322 26.629 26.0712 26.796 25.7362 27.116C25.4002 27.436 25.2222 27.88 25.2462 28.336C25.2312 28.787 25.4122 29.223 25.7472 29.537V29.536ZM31.9272 28.335V26.75H31.1892V27.128C30.9422 26.821 30.5572 26.649 30.1562 26.664C29.2063 26.664 28.4362 27.409 28.4362 28.327C28.4362 29.246 29.2063 29.99 30.1562 29.99C30.5583 30.005 30.9422 29.833 31.1892 29.526V29.912H31.9272V28.334V28.335ZM30.2932 27.436C30.8302 27.455 31.2532 27.885 31.2462 28.405C31.2392 28.925 30.8032 29.344 30.2662 29.348C29.9912 29.353 29.7272 29.246 29.5372 29.053C29.3482 28.86 29.2502 28.6 29.2692 28.334C29.3012 27.815 29.7562 27.416 30.2932 27.435V27.436ZM20.6692 26.664C19.7192 26.678 18.9612 27.434 18.9752 28.352C18.9892 29.271 19.7712 30.004 20.7212 29.99C21.2102 30.008 21.6882 29.85 22.0642 29.547L21.7172 29.033C21.4462 29.242 21.1112 29.357 20.7652 29.361C20.2732 29.403 19.8372 29.057 19.7832 28.583H22.2192V28.319C22.2602 27.894 22.1152 27.472 21.8192 27.155C21.5232 26.839 21.1032 26.657 20.6612 26.655L20.6682 26.662L20.6692 26.664ZM21.2482 27.498C21.4032 27.643 21.4922 27.841 21.4962 28.049H19.7982C19.8222 27.605 20.2102 27.262 20.6692 27.278C20.8842 27.274 21.0922 27.353 21.2482 27.498ZM38.5342 28.335V25.479H37.7962V27.128C37.5492 26.821 37.1642 26.649 36.7632 26.664C35.8132 26.664 35.0432 27.409 35.0432 28.327C35.0432 29.246 35.8132 29.99 36.7632 29.99C37.1652 30.005 37.5492 29.833 37.7962 29.526V29.912H38.5342V28.334V28.335ZM36.9062 27.422C37.4492 27.44 37.8772 27.875 37.8682 28.401C37.8592 28.927 37.4162 29.348 36.8732 29.349C36.5982 29.354 36.3342 29.247 36.1442 29.054C35.9552 28.861 35.8572 28.601 35.8762 28.335C35.9042 27.81 36.3623 27.404 36.9053 27.422H36.9062ZM11.7902 28.335V26.75H11.0522V27.128C10.8052 26.821 10.4202 26.649 10.0192 26.664C9.06925 26.664 8.29925 27.409 8.29925 28.327C8.29925 29.246 9.06925 29.99 10.0192 29.99C10.4213 30.005 10.8052 29.833 11.0522 29.526V29.912H11.7902V28.334V28.335ZM9.13325 28.335C9.16525 27.816 9.62025 27.417 10.1573 27.436C10.6943 27.455 11.1173 27.885 11.1103 28.405C11.1033 28.925 10.6672 29.344 10.1302 29.348C9.85925 29.347 9.60125 29.237 9.41625 29.045C9.23125 28.853 9.13725 28.596 9.15625 28.334H9.13425L9.13325 28.335ZM19.6892 21.91C14.5342 25.226 7.63725 24.338 3.55925 19.834C-0.51975 15.33 -0.51975 8.60101 3.55925 4.09601C7.63825 -0.40799 14.5352 -1.29599 19.6892 2.02001L19.3942 2.25601C16.4862 4.69701 14.8153 8.23801 14.8153 11.962C14.8153 15.686 16.4852 19.227 19.3942 21.668L19.6892 21.911V21.91ZM28.1342 9.65753e-06C25.7012 -0.00299034 23.3222 0.69301 21.2982 1.99901L21.5932 2.23501C24.5012 4.67601 26.1722 8.21701 26.1722 11.941C26.1722 15.665 24.5022 19.206 21.5932 21.647L21.2982 21.883C25.7002 24.722 31.4833 24.533 35.6772 21.413C39.8712 18.293 41.5452 12.936 39.8382 8.09301C38.1312 3.24901 33.4242 -0.00499034 28.1332 0.00100966L28.1342 9.65753e-06ZM20.0362 2.92701C17.3362 5.19301 15.7863 8.48001 15.7863 11.937C15.7863 15.394 17.3372 18.681 20.0362 20.947L20.5012 21.318L20.9662 20.947C23.6662 18.681 25.2162 15.394 25.2162 11.937C25.2162 8.48001 23.6652 5.19301 20.9662 2.92701L20.5012 2.55601C20.3392 2.67701 20.1842 2.79901 20.0362 2.92701Z" fill="#BFDFFF"/>
</g>
<defs>
<clipPath id="clip0_196_1816">
<rect width="40" height="30" fill="white" transform="translate(0.5)"/>
</clipPath>
</defs>
</svg>
