<svg width="82" height="20" viewBox="0 0 82 20" fill="none" xmlns="http://www.w3.org/2000/svg">
<path fill-rule="evenodd" clip-rule="evenodd" d="M6.98231 6.80753C7.75491 6.80753 8.38164 7.4221 8.38164 8.18035C8.38164 8.93859 7.75491 9.55316 6.98231 9.55316C6.20972 9.55316 5.58299 8.93859 5.58299 8.18035C5.58299 7.4221 6.20972 6.80753 6.98231 6.80753ZM12.6152 6.80753C13.3878 6.80753 14.0145 7.4221 14.0145 8.18035C14.0145 8.93859 13.3878 9.55316 12.6152 9.55316C11.8426 9.55316 11.2159 8.93859 11.2159 8.18035C11.2159 7.4221 11.8426 6.80753 12.6152 6.80753ZM6.33076 1.4298H13.5478C13.7139 1.23826 13.9767 0.999538 14.3411 0.763212C14.986 0.344941 15.7644 0.0719512 16.6778 0.0122619L16.8655 0L16.9567 0.161312C16.9761 0.195477 17.0109 0.259464 17.0589 0.351784C17.138 0.503941 17.2259 0.681438 17.3204 0.882789C17.5897 1.45634 17.8586 2.10734 18.1095 2.82396C18.9153 5.12552 19.3558 7.55914 19.2388 9.99881C18.9938 15.1124 14.9607 19.5942 10.408 19.972V20H10.1115C10.0777 20 10.0523 19.9993 9.99706 19.9973C9.96352 19.9961 9.95014 19.9956 9.94539 19.9953C9.9284 19.9956 9.91503 19.9961 9.88152 19.9973L9.86404 19.9979C9.82418 19.9993 9.79668 20 9.76732 20H9.47086V19.972C4.91791 19.5942 0.884706 15.1125 0.639729 9.99883C0.522755 7.55914 0.963298 5.12552 1.76908 2.82396C2.01997 2.10734 2.2889 1.45634 2.55812 0.882789C2.65263 0.681438 2.74056 0.503941 2.81969 0.351784C2.8677 0.259464 2.90247 0.195477 2.9218 0.161312L3.01307 1.73395e-06L3.20071 0.0122619C4.11425 0.0719507 4.8927 0.344941 5.53762 0.763216C5.90199 0.999537 6.16466 1.23826 6.33076 1.4298ZM16.5269 0.60878C15.8028 0.684206 15.1853 0.913034 14.668 1.24847C14.4449 1.39318 14.2566 1.54771 14.1026 1.70126C14.0129 1.7907 13.9562 1.85749 13.932 1.89051L13.8433 2.0115H6.03523L5.9465 1.89047C5.9223 1.85746 5.86563 1.79068 5.77595 1.70124C5.622 1.5477 5.43374 1.39317 5.21062 1.24846C4.69344 0.913029 4.0759 0.684201 3.35169 0.608777C3.35042 0.611208 3.34914 0.613662 3.34786 0.616139C3.27228 0.761471 3.18782 0.931965 3.09669 1.12611C2.8355 1.68253 2.57402 2.31553 2.32986 3.01292C1.54667 5.24994 1.11892 7.61289 1.23201 9.9715C1.46826 14.903 5.4333 19.2125 9.78097 19.409L9.903 19.4145C9.91589 19.4142 9.92859 19.4139 9.94539 19.4137C9.95584 19.4139 9.9653 19.4142 9.97636 19.4145L10.0979 19.409C14.4453 19.2125 18.4103 14.9029 18.6465 9.97149C18.7596 7.61289 18.3319 5.24994 17.5487 3.01292C17.3045 2.31553 17.043 1.68253 16.7819 1.12611C16.6907 0.931965 16.6063 0.761471 16.5307 0.616139C16.5294 0.613663 16.5281 0.61121 16.5269 0.60878ZM9.86836 10.9289C10.7604 11.1869 10.3338 12.6013 10.0599 13.2071C9.97331 13.3982 9.86836 13.4011 9.86836 13.4011C9.86836 13.4011 9.76341 13.3982 9.67684 13.2071C9.40291 12.6013 8.97629 11.1869 9.86836 10.9289ZM6.98231 6.19291C5.86523 6.19291 4.95655 7.08437 4.95655 8.18029C4.95655 9.2765 5.86523 10.168 6.98231 10.168C8.0994 10.168 9.00807 9.2765 9.00807 8.18029C9.00807 7.08437 8.0994 6.19291 6.98231 6.19291ZM6.98231 10.7497C5.53822 10.7497 4.36362 9.59702 4.36362 8.18029C4.36362 6.76385 5.53822 5.61121 6.98231 5.61121C8.4264 5.61121 9.60101 6.76385 9.60101 8.18029C9.60101 9.59702 8.4264 10.7497 6.98231 10.7497ZM12.6152 6.19291C11.4981 6.19291 10.5894 7.08437 10.5894 8.18029C10.5894 9.2765 11.4981 10.168 12.6152 10.168C13.7323 10.168 14.6409 9.2765 14.6409 8.18029C14.6409 7.08437 13.7323 6.19291 12.6152 6.19291ZM12.6152 10.7497C11.1711 10.7497 9.99649 9.59702 9.99649 8.18029C9.99649 6.76385 11.1711 5.61121 12.6152 5.61121C14.0593 5.61121 15.2339 6.76385 15.2339 8.18029C15.2339 9.59702 14.0593 10.7497 12.6152 10.7497ZM13.1412 3.6505C13.6248 3.6505 14.1483 3.71507 14.7021 3.87562C17.5129 4.69087 18.7341 9.37269 15.6657 12.383C12.8504 15.1452 9.85994 16.8426 9.85994 16.8426C9.85994 16.8426 6.87808 15.1452 4.06253 12.383C0.994095 9.37269 2.21554 4.69087 5.02605 3.87562C5.58014 3.71507 6.10341 3.6505 6.58724 3.6505C8.5294 3.6505 9.82763 4.69116 9.86409 4.72054C9.90056 4.69116 11.1988 3.6505 13.1412 3.6505ZM13.1412 4.2322C11.425 4.2322 10.2531 5.16001 10.2415 5.16932L9.86409 5.47326L9.48669 5.16932C9.47513 5.16001 8.3029 4.2322 6.58724 4.2322C6.12327 4.2322 5.65485 4.29997 5.19414 4.43347C4.16481 4.73217 3.34982 5.68413 3.01363 6.98015C2.5544 8.75318 3.10316 10.619 4.48203 11.9714C6.69812 14.1458 9.04673 15.6632 9.86024 16.1617C10.6755 15.6635 13.0301 14.1461 15.2464 11.9714C16.625 10.619 17.1741 8.75318 16.7146 6.98015C16.3787 5.68413 15.5634 4.73217 14.534 4.43347C14.0736 4.29997 13.6049 4.2322 13.1412 4.2322Z" fill="#ACB8BF"/>
<path d="M25.483 13.75C25.3992 13.75 25.3306 13.7232 25.2773 13.6695C25.2239 13.6159 25.1973 13.5469 25.1973 13.4625V5.98752C25.1973 5.90319 25.2239 5.83419 25.2773 5.78052C25.3306 5.72686 25.3992 5.70002 25.483 5.70002H28.6035C29.2207 5.70002 29.7541 5.79586 30.2037 5.98752C30.661 6.17919 31.0153 6.47052 31.2668 6.86152C31.5258 7.24486 31.6554 7.72402 31.6554 8.29902C31.6554 8.88169 31.5258 9.36469 31.2668 9.74802C31.0153 10.1237 30.661 10.4035 30.2037 10.5875C29.7541 10.7715 29.2207 10.8635 28.6035 10.8635H27.0718V13.4625C27.0718 13.5469 27.0452 13.6159 26.9918 13.6695C26.9385 13.7232 26.8699 13.75 26.7861 13.75H25.483ZM27.0375 9.43752H28.5463C28.935 9.43752 29.236 9.34169 29.4493 9.15002C29.6703 8.95836 29.7808 8.67086 29.7808 8.28752C29.7808 7.95019 29.6818 7.67419 29.4836 7.45952C29.2931 7.24486 28.9807 7.13752 28.5463 7.13752H27.0375V9.43752Z" fill="#ACB8BF"/>
<path d="M34.0929 13.865C33.689 13.865 33.3271 13.7884 33.007 13.635C32.687 13.474 32.4317 13.2594 32.2412 12.991C32.0507 12.7227 31.9554 12.4237 31.9554 12.094C31.9554 11.5497 32.1726 11.1204 32.607 10.806C33.0489 10.4917 33.6281 10.277 34.3444 10.162L35.8417 9.94352V9.73652C35.8417 9.43752 35.7732 9.20752 35.636 9.04652C35.4988 8.88552 35.2588 8.80502 34.9159 8.80502C34.6644 8.80502 34.4625 8.85486 34.3101 8.95452C34.1577 9.05419 34.0396 9.18452 33.9557 9.34552C33.8948 9.44519 33.8071 9.49502 33.6928 9.49502H32.607C32.5231 9.49502 32.4584 9.47202 32.4126 9.42602C32.3669 9.37236 32.3479 9.31102 32.3555 9.24202C32.3555 9.11169 32.405 8.95836 32.5041 8.78202C32.6032 8.60569 32.7556 8.43319 32.9613 8.26452C33.167 8.08819 33.4299 7.94252 33.75 7.82752C34.07 7.71252 34.4625 7.65502 34.9273 7.65502C35.4074 7.65502 35.8189 7.71252 36.1618 7.82752C36.5047 7.94252 36.779 8.10352 36.9848 8.31052C37.1905 8.51752 37.3429 8.75902 37.442 9.03502C37.541 9.30336 37.5906 9.59469 37.5906 9.90902V13.4625C37.5906 13.5469 37.5639 13.6159 37.5106 13.6695C37.4572 13.7232 37.3886 13.75 37.3048 13.75H36.1846C36.1084 13.75 36.0437 13.7232 35.9903 13.6695C35.937 13.6159 35.9103 13.5469 35.9103 13.4625V13.037C35.8113 13.1827 35.6779 13.3207 35.5103 13.451C35.3426 13.5737 35.1407 13.6734 34.9045 13.75C34.6758 13.8267 34.4053 13.865 34.0929 13.865ZM34.5501 12.669C34.8016 12.669 35.0264 12.6154 35.2245 12.508C35.4226 12.4007 35.5788 12.2359 35.6931 12.0135C35.8074 11.7912 35.8646 11.5114 35.8646 11.174V10.9785L34.8016 11.151C34.3901 11.22 34.0891 11.3235 33.8986 11.4615C33.7081 11.5995 33.6128 11.7682 33.6128 11.9675C33.6128 12.1132 33.6547 12.2397 33.7386 12.347C33.83 12.4544 33.9481 12.5349 34.0929 12.5885C34.2377 12.6422 34.3901 12.669 34.5501 12.669Z" fill="#ACB8BF"/>
<path d="M39.0317 15.935C38.9479 15.935 38.8793 15.9082 38.8259 15.8545C38.7726 15.8009 38.7459 15.7319 38.7459 15.6475V8.05752C38.7459 7.97319 38.7726 7.90419 38.8259 7.85052C38.8793 7.79686 38.9479 7.77002 39.0317 7.77002H40.1176C40.2014 7.77002 40.27 7.79686 40.3233 7.85052C40.3767 7.90419 40.4033 7.97319 40.4033 8.05752V8.49452C40.5862 8.24919 40.8224 8.04986 41.112 7.89652C41.4016 7.73552 41.7635 7.65502 42.1979 7.65502C42.5941 7.65502 42.937 7.72019 43.2266 7.85052C43.5238 7.97319 43.7715 8.15336 43.9696 8.39102C44.1753 8.62102 44.3315 8.90086 44.4382 9.23052C44.5525 9.56019 44.6173 9.93202 44.6325 10.346C44.6402 10.4917 44.644 10.6297 44.644 10.76C44.644 10.8904 44.6402 11.0322 44.6325 11.1855C44.6249 11.5765 44.564 11.9369 44.4496 12.2665C44.343 12.5962 44.1868 12.8799 43.981 13.1175C43.7753 13.3552 43.5238 13.5392 43.2266 13.6695C42.937 13.7999 42.5941 13.865 42.1979 13.865C41.8092 13.865 41.4702 13.796 41.1806 13.658C40.8986 13.5124 40.6662 13.3169 40.4833 13.0715V15.6475C40.4833 15.7319 40.4567 15.8009 40.4033 15.8545C40.35 15.9082 40.2852 15.935 40.209 15.935H39.0317ZM41.6835 12.485C41.9731 12.485 42.2017 12.4237 42.3693 12.301C42.537 12.1707 42.6551 12.002 42.7237 11.795C42.7999 11.588 42.8456 11.3619 42.8608 11.1165C42.8761 10.8789 42.8761 10.6412 42.8608 10.4035C42.8456 10.1582 42.7999 9.93202 42.7237 9.72502C42.6551 9.51802 42.537 9.35319 42.3693 9.23052C42.2017 9.10019 41.9731 9.03502 41.6835 9.03502C41.4016 9.03502 41.173 9.10019 40.9977 9.23052C40.8224 9.36086 40.6967 9.52569 40.6205 9.72502C40.5443 9.92436 40.4986 10.139 40.4833 10.369C40.4757 10.507 40.4719 10.6489 40.4719 10.7945C40.4719 10.9402 40.4757 11.0859 40.4833 11.2315C40.491 11.4462 40.5367 11.6494 40.6205 11.841C40.7119 12.025 40.8415 12.1784 41.0091 12.301C41.1844 12.4237 41.4092 12.485 41.6835 12.485Z" fill="#ACB8BF"/>
<path d="M48.2796 13.865C47.4033 13.865 46.706 13.6197 46.1879 13.129C45.6773 12.6384 45.4068 11.9254 45.3763 10.99C45.3763 10.9287 45.3763 10.8482 45.3763 10.7485C45.3763 10.6412 45.3763 10.5569 45.3763 10.4955C45.4068 9.90519 45.5401 9.39919 45.7764 8.97752C46.0126 8.54819 46.3441 8.22236 46.7708 8.00002C47.1975 7.77002 47.6967 7.65502 48.2682 7.65502C48.9083 7.65502 49.4417 7.78919 49.8684 8.05752C50.3028 8.31819 50.6266 8.67852 50.84 9.13852C51.061 9.59086 51.1715 10.1122 51.1715 10.7025V10.967C51.1715 11.0437 51.141 11.1089 51.08 11.1625C51.0267 11.2162 50.9619 11.243 50.8857 11.243H47.148C47.148 11.2507 47.148 11.266 47.148 11.289C47.148 11.3044 47.148 11.3197 47.148 11.335C47.1556 11.5804 47.2013 11.8065 47.2852 12.0135C47.3766 12.2129 47.5023 12.3739 47.6624 12.4965C47.83 12.6192 48.0281 12.6805 48.2567 12.6805C48.4472 12.6805 48.6035 12.6537 48.7254 12.6C48.8473 12.5464 48.9464 12.4812 49.0226 12.4045C49.1064 12.3279 49.1674 12.2627 49.2055 12.209C49.274 12.1324 49.3274 12.0864 49.3655 12.071C49.4112 12.048 49.4798 12.0365 49.5712 12.0365H50.76C50.8362 12.0365 50.8971 12.0595 50.9429 12.1055C50.9962 12.1439 51.0191 12.2014 51.0114 12.278C51.0038 12.4007 50.9391 12.554 50.8171 12.738C50.7028 12.9144 50.5314 13.0907 50.3028 13.267C50.0742 13.4357 49.7884 13.5775 49.4455 13.6925C49.1102 13.8075 48.7216 13.865 48.2796 13.865ZM47.148 10.1965H49.3883V10.1735C49.3883 9.89752 49.3426 9.65986 49.2512 9.46052C49.1674 9.25352 49.0416 9.09252 48.874 8.97752C48.7063 8.86252 48.5044 8.80502 48.2682 8.80502C48.0319 8.80502 47.83 8.86252 47.6624 8.97752C47.4947 9.09252 47.3652 9.25352 47.2737 9.46052C47.1899 9.65986 47.148 9.89752 47.148 10.1735V10.1965Z" fill="#ACB8BF"/>
<path d="M52.3598 13.75C52.2836 13.75 52.2188 13.7232 52.1655 13.6695C52.1121 13.6159 52.0855 13.5469 52.0855 13.4625V8.05752C52.0855 7.98086 52.1121 7.91569 52.1655 7.86202C52.2188 7.80069 52.2836 7.77002 52.3598 7.77002H53.4799C53.5562 7.77002 53.6209 7.80069 53.6743 7.86202C53.7352 7.91569 53.7657 7.98086 53.7657 8.05752V8.51752C53.9562 8.27986 54.1886 8.09586 54.463 7.96552C54.7449 7.83519 55.0688 7.77002 55.4345 7.77002H55.926C56.0022 7.77002 56.067 7.79686 56.1203 7.85052C56.1737 7.90419 56.2004 7.97319 56.2004 8.05752V9.04652C56.2004 9.13086 56.1737 9.19986 56.1203 9.25352C56.067 9.30719 56.0022 9.33402 55.926 9.33402H54.9202C54.5849 9.33402 54.322 9.42986 54.1315 9.62152C53.941 9.80552 53.8457 10.07 53.8457 10.415V13.4625C53.8457 13.5469 53.819 13.6159 53.7657 13.6695C53.7124 13.7232 53.6438 13.75 53.56 13.75H52.3598Z" fill="#ACB8BF"/>
<path d="M59.1673 13.865C58.6949 13.865 58.2872 13.8114 57.9443 13.704C57.609 13.589 57.3347 13.451 57.1213 13.29C56.9156 13.129 56.7593 12.968 56.6527 12.807C56.5536 12.6384 56.5003 12.4965 56.4926 12.3815C56.485 12.2972 56.5117 12.2282 56.5726 12.1745C56.6336 12.1209 56.6946 12.094 56.7555 12.094H57.8643C57.8871 12.094 57.91 12.0979 57.9329 12.1055C57.9557 12.1132 57.9786 12.1324 58.0014 12.163C58.1005 12.232 58.2034 12.3125 58.3101 12.4045C58.4167 12.4889 58.5387 12.5617 58.6758 12.623C58.8206 12.6844 58.9997 12.715 59.2131 12.715C59.4645 12.715 59.6779 12.6652 59.8531 12.5655C60.0284 12.4582 60.116 12.3087 60.116 12.117C60.116 11.979 60.0741 11.864 59.9903 11.772C59.9141 11.68 59.7655 11.5957 59.5445 11.519C59.3235 11.4424 58.9959 11.358 58.5615 11.266C58.15 11.174 57.7995 11.0514 57.5099 10.898C57.2204 10.7447 57.0032 10.553 56.8584 10.323C56.7136 10.0854 56.6412 9.80169 56.6412 9.47202C56.6412 9.17302 56.7327 8.88552 56.9156 8.60952C57.1061 8.33352 57.3842 8.10736 57.75 7.93102C58.1157 7.74702 58.573 7.65502 59.1216 7.65502C59.5407 7.65502 59.9065 7.70869 60.2189 7.81602C60.539 7.91569 60.8057 8.04602 61.019 8.20702C61.2324 8.36036 61.3924 8.52136 61.4991 8.69002C61.6134 8.85102 61.6744 8.99286 61.682 9.11552C61.6896 9.19219 61.6668 9.25736 61.6134 9.31102C61.5601 9.36469 61.4991 9.39152 61.4305 9.39152H60.4132C60.3751 9.39152 60.3408 9.38769 60.3104 9.38002C60.2799 9.36469 60.2532 9.34552 60.2303 9.32252C60.1389 9.26119 60.0437 9.19219 59.9446 9.11552C59.8531 9.03119 59.7427 8.95836 59.6131 8.89702C59.4836 8.83569 59.3159 8.80502 59.1102 8.80502C58.8587 8.80502 58.6644 8.86252 58.5272 8.97752C58.3977 9.08486 58.3329 9.22286 58.3329 9.39152C58.3329 9.49886 58.3672 9.59852 58.4358 9.69052C58.5044 9.78252 58.6453 9.86686 58.8587 9.94352C59.0721 10.0202 59.3959 10.1007 59.8303 10.185C60.3485 10.277 60.76 10.415 61.0648 10.599C61.3696 10.783 61.5867 10.9977 61.7163 11.243C61.8534 11.4807 61.922 11.7375 61.922 12.0135C61.922 12.3739 61.8153 12.6959 61.602 12.9795C61.3886 13.2555 61.0762 13.474 60.6647 13.635C60.2608 13.7884 59.7617 13.865 59.1673 13.865Z" fill="#ACB8BF"/>
<path d="M66.094 13.865C65.4006 13.865 64.8024 13.75 64.2994 13.52C63.7965 13.29 63.4041 12.945 63.1221 12.485C62.8402 12.0174 62.6878 11.4309 62.6649 10.7255C62.6573 10.3959 62.6535 10.07 62.6535 9.74802C62.6535 9.41836 62.6573 9.08486 62.6649 8.74752C62.6878 8.05752 62.8402 7.47869 63.1221 7.01102C63.4117 6.53569 63.8079 6.17919 64.3109 5.94152C64.8214 5.70386 65.4158 5.58502 66.094 5.58502C66.7646 5.58502 67.3513 5.70386 67.8543 5.94152C68.3648 6.17919 68.7649 6.53569 69.0545 7.01102C69.344 7.47869 69.4964 8.05752 69.5117 8.74752C69.5269 9.08486 69.5345 9.41836 69.5345 9.74802C69.5345 10.07 69.5269 10.3959 69.5117 10.7255C69.4888 11.4309 69.3364 12.0174 69.0545 12.485C68.7725 12.945 68.3801 13.29 67.8771 13.52C67.3742 13.75 66.7798 13.865 66.094 13.865ZM66.094 12.3815C66.536 12.3815 66.8979 12.2474 67.1799 11.979C67.4695 11.703 67.6219 11.266 67.6371 10.668C67.6523 10.3307 67.66 10.0164 67.66 9.72502C67.66 9.42602 67.6523 9.11169 67.6371 8.78202C67.6295 8.38336 67.5571 8.05752 67.4199 7.80452C67.2828 7.55152 67.0999 7.36752 66.8713 7.25252C66.6503 7.12986 66.3912 7.06852 66.094 7.06852C65.7968 7.06852 65.5339 7.12986 65.3053 7.25252C65.0767 7.36752 64.8938 7.55152 64.7567 7.80452C64.6271 8.05752 64.5547 8.38336 64.5395 8.78202C64.5319 9.11169 64.5281 9.42602 64.5281 9.72502C64.5281 10.0164 64.5319 10.3307 64.5395 10.668C64.5623 11.266 64.7147 11.703 64.9967 11.979C65.2786 12.2474 65.6444 12.3815 66.094 12.3815Z" fill="#ACB8BF"/>
<path d="M72.2335 13.75C72.1268 13.75 72.043 13.7232 71.982 13.6695C71.9287 13.6159 71.8868 13.5469 71.8563 13.4625L70.2218 8.13802C70.2065 8.09969 70.1989 8.06136 70.1989 8.02302C70.1989 7.95402 70.2218 7.89652 70.2675 7.85052C70.3208 7.79686 70.3818 7.77002 70.4504 7.77002H71.4562C71.5553 7.77002 71.6315 7.79686 71.6848 7.85052C71.7382 7.90419 71.7725 7.95402 71.7877 8.00002L72.8279 11.5535L73.9366 8.02302C73.9519 7.96936 73.9862 7.91569 74.0395 7.86202C74.1005 7.80069 74.1843 7.77002 74.291 7.77002H74.9425C75.0492 7.77002 75.1292 7.80069 75.1825 7.86202C75.2435 7.91569 75.2816 7.96936 75.2968 8.02302L76.4056 11.5535L77.4457 8.00002C77.4533 7.95402 77.4838 7.90419 77.5372 7.85052C77.5981 7.79686 77.6743 7.77002 77.7658 7.77002H78.7716C78.8402 7.77002 78.8974 7.79686 78.9431 7.85052C78.9964 7.89652 79.0231 7.95402 79.0231 8.02302C79.0231 8.06136 79.0193 8.09969 79.0117 8.13802L77.3657 13.4625C77.3429 13.5469 77.3009 13.6159 77.24 13.6695C77.1866 13.7232 77.1066 13.75 76.9999 13.75H76.1198C76.0131 13.75 75.9293 13.7232 75.8683 13.6695C75.8074 13.6159 75.7617 13.5469 75.7312 13.4625L74.6224 10.0585L73.4908 13.4625C73.468 13.5469 73.4261 13.6159 73.3651 13.6695C73.3041 13.7232 73.2203 13.75 73.1136 13.75H72.2335Z" fill="#ACB8BF"/>
<path d="M80.133 13.75C80.0492 13.75 79.9806 13.7232 79.9273 13.6695C79.8739 13.6159 79.8472 13.5469 79.8472 13.4625V5.87252C79.8472 5.78819 79.8739 5.71919 79.9273 5.66552C79.9806 5.61186 80.0492 5.58502 80.133 5.58502H81.276C81.3522 5.58502 81.417 5.61186 81.4704 5.66552C81.5237 5.71919 81.5504 5.78819 81.5504 5.87252V13.4625C81.5504 13.5469 81.5237 13.6159 81.4704 13.6695C81.417 13.7232 81.3522 13.75 81.276 13.75H80.133Z" fill="#ACB8BF"/>
</svg>
