<svg width="165" height="40" viewBox="0 0 165 40" fill="none" xmlns="http://www.w3.org/2000/svg">
<path fill-rule="evenodd" clip-rule="evenodd" d="M14.05 13.6151C15.6046 13.6151 16.8657 14.8442 16.8657 16.3607C16.8657 17.8772 15.6046 19.1063 14.05 19.1063C12.4954 19.1063 11.2343 17.8772 11.2343 16.3607C11.2343 14.8442 12.4954 13.6151 14.05 13.6151ZM25.3845 13.6151C26.9391 13.6151 28.2002 14.8442 28.2002 16.3607C28.2002 17.8772 26.9391 19.1063 25.3845 19.1063C23.8298 19.1063 22.5687 17.8772 22.5687 16.3607C22.5687 14.8442 23.8298 13.6151 25.3845 13.6151ZM12.739 2.85961H27.2611C27.5954 2.47653 28.124 1.99908 28.8572 1.52642C30.155 0.689881 31.7213 0.143902 33.5593 0.0245239L33.9369 0L34.1205 0.322625C34.1594 0.390955 34.2294 0.518928 34.326 0.703569C34.4852 1.00788 34.6621 1.36288 34.8523 1.76558C35.3941 2.91267 35.9352 4.21467 36.44 5.64792C38.0614 10.251 38.9479 15.1183 38.7125 19.9976C38.2196 30.2248 30.1041 39.1883 20.9431 39.9439V40H20.3466C20.2786 40 20.2274 39.9986 20.1163 39.9946C20.0488 39.9921 20.0219 39.9913 20.0123 39.9906C19.9781 39.9913 19.9512 39.9921 19.8838 39.9946L19.8486 39.9958C19.7684 39.9987 19.7131 40 19.654 40H19.0574V39.9439C9.89604 39.1884 1.78044 30.2249 1.2875 19.9977C1.05212 15.1183 1.93858 10.251 3.55997 5.64792C4.06481 4.21467 4.60594 2.91267 5.14767 1.76558C5.33786 1.36288 5.51478 1.00788 5.674 0.703569C5.7706 0.518928 5.84058 0.390955 5.87947 0.322625L6.06313 3.46791e-06L6.4407 0.0245239C8.27892 0.143901 9.84531 0.689882 11.143 1.52643C11.8762 1.99907 12.4047 2.47652 12.739 2.85961ZM33.2555 1.21756C31.7985 1.36841 30.5559 1.82607 29.5152 2.49694C29.0662 2.78636 28.6873 3.09542 28.3775 3.40251C28.197 3.58141 28.0829 3.71498 28.0342 3.78101L27.8556 4.02301H12.1443L11.9658 3.78094C11.9171 3.71492 11.803 3.58136 11.6226 3.40247C11.3128 3.09539 10.934 2.78634 10.485 2.49693C9.44435 1.82606 8.20175 1.3684 6.74449 1.21755C6.74194 1.22242 6.73937 1.22732 6.73678 1.23228C6.5847 1.52294 6.41476 1.86393 6.23139 2.25221C5.70582 3.36507 5.17966 4.63105 4.68837 6.02584C3.11244 10.4999 2.25173 15.2258 2.47928 19.943C2.95466 29.8059 10.9331 38.4249 19.6815 38.818L19.927 38.8291C19.9529 38.8283 19.9785 38.8279 20.0123 38.8274C20.0333 38.8278 20.0524 38.8283 20.0746 38.829L20.3191 38.818C29.067 38.4249 37.0453 29.8058 37.5207 19.943C37.7483 15.2258 36.8876 10.4999 35.3116 6.02584C34.8203 4.63105 34.2942 3.36507 33.7686 2.25221C33.5852 1.86393 33.4153 1.52294 33.2632 1.23228C33.2606 1.22733 33.2581 1.22242 33.2555 1.21756ZM19.8573 21.8578C21.6523 22.3737 20.7939 25.2025 20.2427 26.4142C20.0685 26.7964 19.8573 26.8022 19.8573 26.8022C19.8573 26.8022 19.6461 26.7964 19.4719 26.4142C18.9207 25.2025 18.0623 22.3737 19.8573 21.8578ZM14.05 12.3858C11.8022 12.3858 9.97379 14.1687 9.97379 16.3606C9.97379 18.553 11.8022 20.3359 14.05 20.3359C16.2978 20.3359 18.1262 18.553 18.1262 16.3606C18.1262 14.1687 16.2978 12.3858 14.05 12.3858ZM14.05 21.4993C11.1442 21.4993 8.78069 19.194 8.78069 16.3606C8.78069 13.5277 11.1442 11.2224 14.05 11.2224C16.9558 11.2224 19.3193 13.5277 19.3193 16.3606C19.3193 19.194 16.9558 21.4993 14.05 21.4993ZM25.3845 12.3858C23.1367 12.3858 21.3082 14.1687 21.3082 16.3606C21.3082 18.553 23.1367 20.3359 25.3845 20.3359C27.6322 20.3359 29.4607 18.553 29.4607 16.3606C29.4607 14.1687 27.6322 12.3858 25.3845 12.3858ZM25.3845 21.4993C22.4787 21.4993 20.1151 19.194 20.1151 16.3606C20.1151 13.5277 22.4787 11.2224 25.3845 11.2224C28.2902 11.2224 30.6538 13.5277 30.6538 16.3606C30.6538 19.194 28.2902 21.4993 25.3845 21.4993ZM26.443 7.301C27.4159 7.301 28.4694 7.43014 29.5838 7.75124C35.2397 9.38175 37.6969 18.7454 31.5226 24.766C25.8578 30.2904 19.8404 33.6852 19.8404 33.6852C19.8404 33.6852 13.8403 30.2904 8.17484 24.766C2.00055 18.7454 4.45833 9.38175 10.1136 7.75124C11.2286 7.43014 12.2815 7.301 13.2551 7.301C17.163 7.301 19.7753 9.38233 19.8487 9.44108C19.9221 9.38233 22.5344 7.301 26.443 7.301ZM26.443 8.46441C22.9895 8.46441 20.6314 10.32 20.6081 10.3386L19.8487 10.9465L19.0893 10.3386C19.066 10.32 16.7073 8.46441 13.2551 8.46441C12.3215 8.46441 11.3789 8.59994 10.4519 8.86694C8.38065 9.46435 6.74073 11.3683 6.06425 13.9603C5.14019 17.5064 6.2444 21.238 9.01895 23.9429C13.4782 28.2917 18.204 31.3264 19.841 32.3234C21.4815 31.327 26.2193 28.2922 30.6791 23.9429C33.453 21.238 34.5578 17.5064 33.6332 13.9603C32.9573 11.3683 31.3168 9.46435 29.2456 8.86694C28.3191 8.59994 27.376 8.46441 26.443 8.46441Z" fill="url(#paint0_linear_162_625)"/>
<path d="M51.2769 27.4999C51.1082 27.4999 50.9702 27.4463 50.8629 27.3389C50.7556 27.2316 50.7019 27.0936 50.7019 26.9249V11.9749C50.7019 11.8063 50.7556 11.6683 50.8629 11.5609C50.9702 11.4536 51.1082 11.3999 51.2769 11.3999H57.5559C58.7979 11.3999 59.8712 11.5916 60.7759 11.9749C61.6959 12.3583 62.4089 12.9409 62.9149 13.7229C63.4362 14.4896 63.6969 15.4479 63.6969 16.5979C63.6969 17.7633 63.4362 18.7293 62.9149 19.4959C62.4089 20.2473 61.6959 20.8069 60.7759 21.1749C59.8712 21.5429 58.7979 21.7269 57.5559 21.7269H54.4739V26.9249C54.4739 27.0936 54.4202 27.2316 54.3129 27.3389C54.2056 27.4463 54.0676 27.4999 53.8989 27.4999H51.2769ZM54.4049 18.8749H57.4409C58.2229 18.8749 58.8286 18.6833 59.2579 18.2999C59.7026 17.9166 59.9249 17.3416 59.9249 16.5749C59.9249 15.9003 59.7256 15.3483 59.3269 14.9189C58.9436 14.4896 58.3149 14.2749 57.4409 14.2749H54.4049V18.8749Z" fill="white"/>
<path d="M68.6017 27.7299C67.789 27.7299 67.0607 27.5766 66.4167 27.2699C65.7727 26.9479 65.259 26.5186 64.8757 25.9819C64.4923 25.4453 64.3007 24.8473 64.3007 24.1879C64.3007 23.0993 64.7377 22.2406 65.6117 21.6119C66.501 20.9833 67.6663 20.5539 69.1077 20.3239L72.1207 19.8869V19.4729C72.1207 18.8749 71.9827 18.4149 71.7067 18.0929C71.4307 17.7709 70.9477 17.6099 70.2577 17.6099C69.7517 17.6099 69.3453 17.7096 69.0387 17.9089C68.732 18.1083 68.4943 18.3689 68.3257 18.6909C68.203 18.8903 68.0267 18.9899 67.7967 18.9899H65.6117C65.443 18.9899 65.3127 18.9439 65.2207 18.8519C65.1287 18.7446 65.0903 18.6219 65.1057 18.4839C65.1057 18.2233 65.2053 17.9166 65.4047 17.5639C65.604 17.2113 65.9107 16.8663 66.3247 16.5289C66.7387 16.1763 67.2677 15.8849 67.9117 15.6549C68.5557 15.4249 69.3453 15.3099 70.2807 15.3099C71.2467 15.3099 72.0747 15.4249 72.7647 15.6549C73.4547 15.8849 74.0067 16.2069 74.4207 16.6209C74.8347 17.0349 75.1413 17.5179 75.3407 18.0699C75.54 18.6066 75.6397 19.1893 75.6397 19.8179V26.9249C75.6397 27.0936 75.586 27.2316 75.4787 27.3389C75.3713 27.4463 75.2333 27.4999 75.0647 27.4999H72.8107C72.6573 27.4999 72.527 27.4463 72.4197 27.3389C72.3123 27.2316 72.2587 27.0936 72.2587 26.9249V26.0739C72.0593 26.3653 71.791 26.6413 71.4537 26.9019C71.1163 27.1473 70.71 27.3466 70.2347 27.4999C69.7747 27.6533 69.2303 27.7299 68.6017 27.7299ZM69.5217 25.3379C70.0277 25.3379 70.48 25.2306 70.8787 25.0159C71.2773 24.8013 71.5917 24.4716 71.8217 24.0269C72.0517 23.5823 72.1667 23.0226 72.1667 22.3479V21.9569L70.0277 22.3019C69.1997 22.4399 68.594 22.6469 68.2107 22.9229C67.8273 23.1989 67.6357 23.5363 67.6357 23.9349C67.6357 24.2263 67.72 24.4793 67.8887 24.6939C68.0727 24.9086 68.3103 25.0696 68.6017 25.1769C68.893 25.2843 69.1997 25.3379 69.5217 25.3379Z" fill="white"/>
<path d="M78.5395 31.8699C78.3708 31.8699 78.2328 31.8163 78.1255 31.7089C78.0181 31.6016 77.9645 31.4636 77.9645 31.2949V16.1149C77.9645 15.9463 78.0181 15.8083 78.1255 15.7009C78.2328 15.5936 78.3708 15.5399 78.5395 15.5399H80.7245C80.8931 15.5399 81.0311 15.5936 81.1385 15.7009C81.2458 15.8083 81.2995 15.9463 81.2995 16.1149V16.9889C81.6675 16.4983 82.1428 16.0996 82.7255 15.7929C83.3081 15.4709 84.0365 15.3099 84.9105 15.3099C85.7078 15.3099 86.3978 15.4403 86.9805 15.7009C87.5785 15.9463 88.0768 16.3066 88.4755 16.7819C88.8895 17.2419 89.2038 17.8016 89.4185 18.4609C89.6485 19.1203 89.7788 19.8639 89.8095 20.6919C89.8248 20.9833 89.8325 21.2593 89.8325 21.5199C89.8325 21.7806 89.8248 22.0643 89.8095 22.3709C89.7941 23.1529 89.6715 23.8736 89.4415 24.5329C89.2268 25.1923 88.9125 25.7596 88.4985 26.2349C88.0845 26.7103 87.5785 27.0783 86.9805 27.3389C86.3978 27.5996 85.7078 27.7299 84.9105 27.7299C84.1285 27.7299 83.4461 27.5919 82.8635 27.3159C82.2961 27.0246 81.8285 26.6336 81.4605 26.1429V31.2949C81.4605 31.4636 81.4068 31.6016 81.2995 31.7089C81.1921 31.8163 81.0618 31.8699 80.9085 31.8699H78.5395ZM83.8755 24.9699C84.4581 24.9699 84.9181 24.8473 85.2555 24.6019C85.5928 24.3413 85.8305 24.0039 85.9685 23.5899C86.1218 23.1759 86.2138 22.7236 86.2445 22.2329C86.2751 21.7576 86.2751 21.2823 86.2445 20.8069C86.2138 20.3163 86.1218 19.8639 85.9685 19.4499C85.8305 19.0359 85.5928 18.7063 85.2555 18.4609C84.9181 18.2003 84.4581 18.0699 83.8755 18.0699C83.3081 18.0699 82.8481 18.2003 82.4955 18.4609C82.1428 18.7216 81.8898 19.0513 81.7365 19.4499C81.5831 19.8486 81.4911 20.2779 81.4605 20.7379C81.4451 21.0139 81.4375 21.2976 81.4375 21.5889C81.4375 21.8803 81.4451 22.1716 81.4605 22.4629C81.4758 22.8923 81.5678 23.2986 81.7365 23.6819C81.9205 24.0499 82.1811 24.3566 82.5185 24.6019C82.8711 24.8473 83.3235 24.9699 83.8755 24.9699Z" fill="white"/>
<path d="M97.1481 27.7299C95.3847 27.7299 93.9817 27.2393 92.9391 26.2579C91.9117 25.2766 91.3674 23.8506 91.3061 21.9799C91.3061 21.8573 91.3061 21.6963 91.3061 21.4969C91.3061 21.2823 91.3061 21.1136 91.3061 20.9909C91.3674 19.8103 91.6357 18.7983 92.1111 17.9549C92.5864 17.0963 93.2534 16.4446 94.1121 15.9999C94.9707 15.5399 95.9751 15.3099 97.1251 15.3099C98.4131 15.3099 99.4864 15.5783 100.345 16.1149C101.219 16.6363 101.871 17.3569 102.3 18.2769C102.745 19.1816 102.967 20.2243 102.967 21.4049V21.9339C102.967 22.0873 102.906 22.2176 102.783 22.3249C102.676 22.4323 102.545 22.4859 102.392 22.4859H94.8711C94.8711 22.5013 94.8711 22.5319 94.8711 22.5779C94.8711 22.6086 94.8711 22.6393 94.8711 22.6699C94.8864 23.1606 94.9784 23.6129 95.1471 24.0269C95.3311 24.4256 95.5841 24.7476 95.9061 24.9929C96.2434 25.2383 96.6421 25.3609 97.1021 25.3609C97.4854 25.3609 97.7997 25.3073 98.0451 25.1999C98.2904 25.0926 98.4897 24.9623 98.6431 24.8089C98.8117 24.6556 98.9344 24.5253 99.0111 24.4179C99.1491 24.2646 99.2564 24.1726 99.3331 24.1419C99.4251 24.0959 99.5631 24.0729 99.7471 24.0729H102.139C102.292 24.0729 102.415 24.1189 102.507 24.2109C102.614 24.2876 102.66 24.4026 102.645 24.5559C102.63 24.8013 102.499 25.1079 102.254 25.4759C102.024 25.8286 101.679 26.1813 101.219 26.5339C100.759 26.8713 100.184 27.1549 99.4941 27.3849C98.8194 27.6149 98.0374 27.7299 97.1481 27.7299ZM94.8711 20.3929H99.3791V20.3469C99.3791 19.7949 99.2871 19.3196 99.1031 18.9209C98.9344 18.5069 98.6814 18.1849 98.3441 17.9549C98.0067 17.7249 97.6004 17.6099 97.1251 17.6099C96.6497 17.6099 96.2434 17.7249 95.9061 17.9549C95.5687 18.1849 95.3081 18.5069 95.1241 18.9209C94.9554 19.3196 94.8711 19.7949 94.8711 20.3469V20.3929Z" fill="white"/>
<path d="M105.358 27.4999C105.205 27.4999 105.075 27.4463 104.967 27.3389C104.86 27.2316 104.806 27.0936 104.806 26.9249V16.1149C104.806 15.9616 104.86 15.8313 104.967 15.7239C105.075 15.6013 105.205 15.5399 105.358 15.5399H107.612C107.766 15.5399 107.896 15.6013 108.003 15.7239C108.126 15.8313 108.187 15.9616 108.187 16.1149V17.0349C108.571 16.5596 109.038 16.1916 109.59 15.9309C110.158 15.6703 110.809 15.5399 111.545 15.5399H112.534C112.688 15.5399 112.818 15.5936 112.925 15.7009C113.033 15.8083 113.086 15.9463 113.086 16.1149V18.0929C113.086 18.2616 113.033 18.3996 112.925 18.5069C112.818 18.6143 112.688 18.6679 112.534 18.6679H110.51C109.836 18.6679 109.307 18.8596 108.923 19.2429C108.54 19.6109 108.348 20.1399 108.348 20.8299V26.9249C108.348 27.0936 108.295 27.2316 108.187 27.3389C108.08 27.4463 107.942 27.4999 107.773 27.4999H105.358Z" fill="white"/>
<path d="M119.056 27.7299C118.106 27.7299 117.285 27.6226 116.595 27.4079C115.921 27.1779 115.369 26.9019 114.939 26.5799C114.525 26.2579 114.211 25.9359 113.996 25.6139C113.797 25.2766 113.69 24.9929 113.674 24.7629C113.659 24.5943 113.713 24.4563 113.835 24.3489C113.958 24.2416 114.081 24.1879 114.203 24.1879H116.434C116.48 24.1879 116.526 24.1956 116.572 24.2109C116.618 24.2263 116.664 24.2646 116.71 24.3259C116.91 24.4639 117.117 24.6249 117.331 24.8089C117.546 24.9776 117.791 25.1233 118.067 25.2459C118.359 25.3686 118.719 25.4299 119.148 25.4299C119.654 25.4299 120.084 25.3303 120.436 25.1309C120.789 24.9163 120.965 24.6173 120.965 24.2339C120.965 23.9579 120.881 23.7279 120.712 23.5439C120.559 23.3599 120.26 23.1913 119.815 23.0379C119.371 22.8846 118.711 22.7159 117.837 22.5319C117.009 22.3479 116.304 22.1026 115.721 21.7959C115.139 21.4893 114.702 21.1059 114.41 20.6459C114.119 20.1706 113.973 19.6033 113.973 18.9439C113.973 18.3459 114.157 17.7709 114.525 17.2189C114.909 16.6669 115.468 16.2146 116.204 15.8619C116.94 15.4939 117.86 15.3099 118.964 15.3099C119.808 15.3099 120.544 15.4173 121.172 15.6319C121.816 15.8313 122.353 16.0919 122.782 16.4139C123.212 16.7206 123.534 17.0426 123.748 17.3799C123.978 17.7019 124.101 17.9856 124.116 18.2309C124.132 18.3843 124.086 18.5146 123.978 18.6219C123.871 18.7293 123.748 18.7829 123.61 18.7829H121.563C121.487 18.7829 121.418 18.7753 121.356 18.7599C121.295 18.7293 121.241 18.6909 121.195 18.6449C121.011 18.5223 120.82 18.3843 120.62 18.2309C120.436 18.0623 120.214 17.9166 119.953 17.7939C119.693 17.6713 119.355 17.6099 118.941 17.6099C118.435 17.6099 118.044 17.7249 117.768 17.9549C117.508 18.1696 117.377 18.4456 117.377 18.7829C117.377 18.9976 117.446 19.1969 117.584 19.3809C117.722 19.5649 118.006 19.7336 118.435 19.8869C118.865 20.0403 119.516 20.2013 120.39 20.3699C121.433 20.5539 122.261 20.8299 122.874 21.1979C123.488 21.5659 123.925 21.9953 124.185 22.4859C124.461 22.9613 124.599 23.4749 124.599 24.0269C124.599 24.7476 124.385 25.3916 123.955 25.9589C123.526 26.5109 122.897 26.9479 122.069 27.2699C121.257 27.5766 120.252 27.7299 119.056 27.7299Z" fill="white"/>
<path d="M132.994 27.7299C131.599 27.7299 130.395 27.4999 129.383 27.0399C128.371 26.5799 127.581 25.8899 127.014 24.9699C126.447 24.0346 126.14 22.8616 126.094 21.4509C126.079 20.7916 126.071 20.1399 126.071 19.4959C126.071 18.8366 126.079 18.1696 126.094 17.4949C126.14 16.1149 126.447 14.9573 127.014 14.0219C127.597 13.0713 128.394 12.3583 129.406 11.8829C130.433 11.4076 131.629 11.1699 132.994 11.1699C134.343 11.1699 135.524 11.4076 136.536 11.8829C137.563 12.3583 138.368 13.0713 138.951 14.0219C139.534 14.9573 139.84 16.1149 139.871 17.4949C139.902 18.1696 139.917 18.8366 139.917 19.4959C139.917 20.1399 139.902 20.7916 139.871 21.4509C139.825 22.8616 139.518 24.0346 138.951 24.9699C138.384 25.8899 137.594 26.5799 136.582 27.0399C135.57 27.4999 134.374 27.7299 132.994 27.7299ZM132.994 24.7629C133.883 24.7629 134.612 24.4946 135.179 23.9579C135.762 23.4059 136.068 22.5319 136.099 21.3359C136.13 20.6613 136.145 20.0326 136.145 19.4499C136.145 18.8519 136.13 18.2233 136.099 17.5639C136.084 16.7666 135.938 16.1149 135.662 15.6089C135.386 15.1029 135.018 14.7349 134.558 14.5049C134.113 14.2596 133.592 14.1369 132.994 14.1369C132.396 14.1369 131.867 14.2596 131.407 14.5049C130.947 14.7349 130.579 15.1029 130.303 15.6089C130.042 16.1149 129.897 16.7666 129.866 17.5639C129.851 18.2233 129.843 18.8519 129.843 19.4499C129.843 20.0326 129.851 20.6613 129.866 21.3359C129.912 22.5319 130.219 23.4059 130.786 23.9579C131.353 24.4946 132.089 24.7629 132.994 24.7629Z" fill="white"/>
<path d="M145.348 27.4999C145.133 27.4999 144.965 27.4463 144.842 27.3389C144.735 27.2316 144.65 27.0936 144.589 26.9249L141.3 16.2759C141.269 16.1993 141.254 16.1226 141.254 16.0459C141.254 15.9079 141.3 15.7929 141.392 15.7009C141.499 15.5936 141.622 15.5399 141.76 15.5399H143.784C143.983 15.5399 144.137 15.5936 144.244 15.7009C144.351 15.8083 144.42 15.9079 144.451 15.9999L146.544 23.1069L148.775 16.0459C148.806 15.9386 148.875 15.8313 148.982 15.7239C149.105 15.6013 149.273 15.5399 149.488 15.5399H150.799C151.014 15.5399 151.175 15.6013 151.282 15.7239C151.405 15.8313 151.481 15.9386 151.512 16.0459L153.743 23.1069L155.836 15.9999C155.851 15.9079 155.913 15.8083 156.02 15.7009C156.143 15.5936 156.296 15.5399 156.48 15.5399H158.504C158.642 15.5399 158.757 15.5936 158.849 15.7009C158.956 15.7929 159.01 15.9079 159.01 16.0459C159.01 16.1226 159.002 16.1993 158.987 16.2759L155.675 26.9249C155.629 27.0936 155.545 27.2316 155.422 27.3389C155.315 27.4463 155.154 27.4999 154.939 27.4999H153.168C152.953 27.4999 152.785 27.4463 152.662 27.3389C152.539 27.2316 152.447 27.0936 152.386 26.9249L150.155 20.1169L147.878 26.9249C147.832 27.0936 147.748 27.2316 147.625 27.3389C147.502 27.4463 147.334 27.4999 147.119 27.4999H145.348Z" fill="white"/>
<path d="M161.243 27.4999C161.075 27.4999 160.937 27.4463 160.829 27.3389C160.722 27.2316 160.668 27.0936 160.668 26.9249V11.7449C160.668 11.5763 160.722 11.4383 160.829 11.3309C160.937 11.2236 161.075 11.1699 161.243 11.1699H163.543C163.697 11.1699 163.827 11.2236 163.934 11.3309C164.042 11.4383 164.095 11.5763 164.095 11.7449V26.9249C164.095 27.0936 164.042 27.2316 163.934 27.3389C163.827 27.4463 163.697 27.4999 163.543 27.4999H161.243Z" fill="white"/>
<defs>
<linearGradient id="paint0_linear_162_625" x1="1" y1="20" x2="39" y2="20" gradientUnits="userSpaceOnUse">
<stop stop-color="#1B99E5"/>
<stop offset="1" stop-color="#FDC420"/>
</linearGradient>
</defs>
</svg>
