<svg width="335" height="265" viewBox="0 0 335 265" fill="none" xmlns="http://www.w3.org/2000/svg">
<g clip-path="url(#clip0_1_5532)">
<path d="M203.079 262.234C273.94 262.234 331.385 204.498 331.385 133.277C331.385 62.0565 273.94 4.32056 203.079 4.32056C132.217 4.32056 74.772 62.0565 74.772 133.277C74.772 204.498 132.217 262.234 203.079 262.234Z" fill="#00E2FF"/>
<path d="M202.535 248.574C269.193 248.574 323.23 194.263 323.23 127.267C323.23 60.2709 269.193 5.95996 202.535 5.95996C135.877 5.95996 81.8398 60.2709 81.8398 127.267C81.8398 194.263 135.877 248.574 202.535 248.574Z" fill="#003E65"/>
<path d="M209.331 245.295C270.734 245.295 320.512 195.265 320.512 133.551C320.512 71.8358 270.734 21.8062 209.331 21.8062C147.927 21.8062 98.1499 71.8358 98.1499 133.551C98.1499 195.265 147.927 245.295 209.331 245.295Z" fill="#003458"/>
<g filter="url(#filter0_f_1_5532)">
<path fill-rule="evenodd" clip-rule="evenodd" d="M139.243 259.841C139.46 260.429 144.097 258.648 145.87 258.384C147.643 258.119 156.847 259.288 160.294 258.703C163.742 258.119 170.423 255.491 172.814 255.491C175.204 255.491 182.111 257.916 183.457 256.704C184.802 255.491 180.118 254.592 178.152 253.876C176.187 253.159 168.048 253.254 162.57 255.491C158.918 256.983 153.351 256.983 145.87 255.491C141.308 257.999 139.099 259.449 139.243 259.841Z" fill="black" fill-opacity="0.25"/>
</g>
<g filter="url(#filter1_f_1_5532)">
<path fill-rule="evenodd" clip-rule="evenodd" d="M193.495 259.527C191.183 257.531 188.037 254.143 188.845 252.569C189.384 251.52 196.757 252.026 210.965 254.087C219.501 254.897 224.316 255.578 225.41 256.129C227.051 256.955 228.76 259.582 227.945 260.343C227.129 261.105 224.684 260.639 223.163 260.343C221.643 260.047 218.399 261.08 216.73 261.586C215.06 262.092 210.178 263.106 209.341 263.853C208.503 264.6 208.075 266.44 206.34 266.44C204.604 266.44 195.807 261.524 193.495 259.527Z" fill="black" fill-opacity="0.25"/>
</g>
<path d="M143.361 109.085C143.361 109.085 137.812 139.796 108.591 121.169C79.3704 102.542 56.9156 86.1642 56.9156 86.1642C56.9156 86.1642 39.0847 88.1844 29.1753 86.7023C19.2658 85.2203 16.616 84.53 16.616 84.53C17.2757 87.9909 19.3457 91.0168 22.325 92.8755C27.3723 96.0283 46.3388 100.765 46.3388 100.765C46.3388 100.765 45.0489 106.532 43.2908 109.614C41.5327 112.697 38.3557 115.565 38.3557 115.565C38.3557 115.565 47.4716 128.272 49.3503 139.024C51.229 149.775 50.8337 151.46 50.8337 151.46C50.8337 151.46 60.9282 152.683 59.6327 136.054L67.8373 138.308C67.8373 138.308 68.7627 129.14 60.7684 125.471L60.8216 123.153C60.8216 123.153 66.5363 125.607 68.4767 126.19L67.2962 127.317C67.2962 127.317 70.1423 127.162 70.8629 127.669C71.5835 128.176 67.8458 128.492 67.8458 128.492C67.8458 128.492 72.8033 129.233 72.6968 129.943C72.5902 130.653 69.3011 129.909 69.3011 129.909C69.3011 129.909 71.6452 131.168 70.8713 131.997C70.0974 132.825 69.9796 134.118 69.9796 134.118C69.9796 134.118 70.9639 131.864 72.6799 132.487C74.396 133.11 71.449 132.011 70.4227 136.003C70.4227 136.003 72.4556 134.49 75.0634 136.916C77.6711 139.342 90.4856 157.402 100.908 169.07C111.331 180.737 117.833 187.665 122.71 187.969C122.71 187.969 116.555 184.808 115.419 181.65C115.419 181.65 120.093 188.085 126.007 187.733C126.007 187.733 119.401 185.437 119.678 181.114C119.678 181.114 176.836 170.335 211.211 176.767C245.585 183.199 154.238 105.616 143.361 109.085Z" fill="url(#paint0_radial_1_5532)"/>
<path d="M143.746 118.738C143.746 118.738 137.016 126.142 127.956 127.452C129.832 133.107 131.601 151.198 129.271 158.746C125.873 169.735 122.97 178.452 112.534 172.552C102.097 166.652 76.1879 126.908 68.474 126.181L67.2935 127.308C67.2935 127.308 70.1396 127.153 70.8602 127.661C71.5808 128.168 67.843 128.483 67.843 128.483C67.843 128.483 72.8006 129.224 72.694 129.934C72.5875 130.644 69.2983 129.901 69.2983 129.901C69.2983 129.901 71.6425 131.16 70.8686 131.988C70.5072 132.405 70.2479 132.901 70.1115 133.437C70.1339 133.538 70.1536 133.642 70.1704 133.746C70.5349 133.138 71.4042 132.019 72.6772 132.479C74.3961 133.098 71.4462 132.002 70.42 135.995C70.42 135.995 72.4529 134.482 75.0606 136.908C77.6684 139.334 90.4829 157.394 100.905 169.061C111.328 180.729 117.831 187.657 122.707 187.961C122.707 187.961 116.552 184.8 115.416 181.641C115.416 181.641 120.091 188.077 126.004 187.724C126.004 187.724 119.398 185.428 119.676 181.106C119.676 181.106 175.294 178.359 209.669 184.794C244.043 191.229 154.622 115.264 143.746 118.738Z" fill="#1169B0"/>
<path d="M16.616 84.53C16.616 84.53 17.1992 91.8274 27.0105 95.0027C36.8219 98.1781 53.1919 102.573 53.1919 102.573L55.4828 107.969C55.4828 107.969 56.1361 97.3244 54.7341 96.1974C53.3321 95.0704 21.6688 93.8278 16.616 84.53Z" fill="#1169B0"/>
<path d="M68.4738 126.181L60.8188 123.144L60.7655 125.463C60.7655 125.463 68.0056 127.474 67.8345 138.299L59.6299 136.045C59.6299 136.045 61.2674 151.666 50.8308 151.451C50.8308 151.451 61.6544 149.6 57.3867 133.473C53.1189 117.345 51.3159 115.593 51.3159 115.593L55.0929 110.783L75.6466 131.334L68.4738 126.181Z" fill="#1169B0"/>
<path d="M22.6362 87.2996C22.6362 87.2996 39.867 92.3711 55.107 88.08C55.107 88.08 91.5819 112.874 111.039 125.068C111.039 125.068 94.5851 125.654 53.8368 93.8587C53.8368 93.8587 28.0172 92.9656 22.6362 87.2996Z" fill="#0080FF"/>
<path d="M155.329 207.207C155.329 207.207 168.763 228.141 168.46 238.332C168.157 248.523 165.432 250.501 157.864 252.023C150.296 253.544 144.404 253.237 143.785 253.995C143.165 254.753 141.822 258.255 140.608 258.864C139.394 259.472 141.971 260.081 143.936 258.864C145.902 257.646 147.116 257.038 147.116 257.038C147.116 257.038 161.041 258.864 169.972 255.212C178.903 251.561 181.779 255.973 182.385 257.184C182.991 258.396 184.191 257.511 184.191 257.511C184.358 257.884 184.35 257.866 184.167 257.457C183.549 256.076 181.856 253.265 177.391 249.58C168.18 241.973 178.928 220.086 179.455 218.587C179.982 217.088 160.528 194.923 155.329 207.207Z" fill="url(#paint1_linear_1_5532)"/>
<path opacity="0.5" d="M177.391 249.6C168.18 241.993 178.889 219.292 179.416 217.787C179.943 216.283 160.528 194.923 155.329 207.207C158.543 212.314 161.446 217.613 164.022 223.073C166.498 222.915 172.078 222.884 172.619 225.786C173.317 229.525 170.294 240.626 172.619 246.12C174.943 251.614 170.409 254.854 162.85 256.17C156.229 257.331 148.984 256.815 144.239 253.767C144.072 253.801 143.918 253.881 143.793 253.998C143.19 254.759 141.83 258.258 140.616 258.867C139.402 259.475 141.979 260.084 143.945 258.867C145.91 257.649 147.124 257.041 147.124 257.041C147.124 257.041 161.049 258.867 169.98 255.215C178.911 251.564 181.788 255.976 182.394 257.187C182.999 258.399 184.199 257.514 184.199 257.514C183.594 256.173 181.92 253.336 177.391 249.6Z" fill="#DD9300"/>
<path d="M208.241 217.069C208.241 217.069 199.667 228.62 199.984 238.8C200.3 248.98 203.009 250.969 210.577 252.488C218.145 254.006 224.037 253.705 224.656 254.46C225.276 255.215 226.619 258.72 227.833 259.329C229.047 259.937 226.473 260.546 224.505 259.329C223.128 258.483 213.137 261.34 207.54 263.053C207.078 263.194 207.919 264.58 207.515 264.707C205.833 265.231 203.92 264.194 203.92 264.194C203.92 264.194 184.601 255.373 191.053 250.051C200.264 242.443 190.84 222.022 190.312 220.517C189.785 219.013 203.043 204.779 208.241 217.069Z" fill="url(#paint2_linear_1_5532)"/>
<path opacity="0.5" d="M207.526 263.059L207.717 263C204.209 261.056 194.257 255.336 194.358 253.026C194.476 250.208 198.256 249.541 206.696 252.026C208.978 252.696 212.806 253.55 215.215 253.248C213.77 253.062 212.211 252.817 210.571 252.488C203 250.969 200.28 248.991 199.977 238.8C199.675 228.609 208.241 217.069 208.241 217.069C203.042 204.773 189.602 218.585 190.13 220.086C190.657 221.588 200.249 242.449 191.038 250.051C184.589 255.373 203.906 264.194 203.906 264.194C203.906 264.194 205.815 265.231 207.501 264.707C207.904 264.586 207.063 263.2 207.526 263.059Z" fill="#DD9300"/>
<path d="M132.235 103.627C132.235 103.627 122.233 205.105 180.857 213.287C240.362 221.591 263.091 134.611 263.296 127.241C263.501 119.87 137.235 103.627 132.235 103.627Z" fill="url(#paint3_radial_1_5532)"/>
<path d="M145.832 118.737C145.832 118.737 129.812 203.094 179.368 209.968C238.749 218.207 248.555 144.272 248.729 138.195C248.903 132.118 149.951 118.737 145.832 118.737Z" fill="url(#paint4_radial_1_5532)"/>
<path d="M259.448 137.333C259.448 137.333 285.167 187.268 288.61 194.374C292.054 201.48 291.51 208.058 288.61 209.828C288.61 209.828 291.513 206.137 289.006 203.742C289.006 203.742 289.847 209.828 285.47 211.882C285.47 211.882 288.083 209.828 286.634 207.177C286.634 207.177 283.83 214.147 267.507 219.768C251.185 225.389 206.152 223.18 187.926 217.052C169.61 210.896 169.313 208.847 170.106 207.433C170.9 206.019 180.778 207.929 190.576 210.118C199.459 212.09 200.684 209.521 193.444 207.732C191.624 207.281 182.842 204.987 180.173 204.252C167.871 200.871 162.039 197.913 163.814 195.306C166.043 192.027 207.919 204.384 201.918 198.206C201.122 197.388 194.173 196.467 185.234 195.405C176.295 194.343 166.873 192.765 166.935 190.359C166.996 187.953 184.841 186.358 203.082 184.386C221.322 182.413 239.506 183.856 243.541 180.807C247.576 177.759 235.067 165.125 233.211 160.113C231.355 155.1 235.707 127.517 259.448 137.333Z" fill="url(#paint5_radial_1_5532)"/>
<path opacity="0.5" d="M131.671 126.319C131.671 126.319 147.638 142.852 150.632 145.673C153.532 148.395 148.995 151.004 148.995 151.004L146.752 154.751H141.601L147.009 190.212C147.009 190.212 152.766 199.769 156.369 200.614C159.973 201.46 169.7 154.069 169.7 154.069C169.7 154.069 144.562 137.082 131.59 123.699L131.671 126.319Z" fill="#1169B0"/>
<path d="M259.448 137.333C235.707 127.525 231.355 155.083 233.211 160.107C233.772 161.612 235.286 163.806 237.03 166.221C236.946 162.045 238.328 148.882 252.194 149.879C254.3 150.032 256.437 150.93 258.557 152.381L265.357 148.803L259.448 137.333Z" fill="#1169B0"/>
<path d="M138.499 41.8643C138.499 41.8643 127.336 56.614 123.357 70.0226C123.357 70.0226 125.746 66.0189 128.932 65.2187C128.932 65.2187 122.362 72.023 120.567 80.4333C118.773 88.8436 114.595 92.0386 114.595 92.0386C114.595 92.0386 116.086 91.3399 118.178 89.1366C118.178 89.1366 116.776 93.3403 112.601 94.5406C112.601 94.5406 114.003 98.826 115.489 102.545C117.505 107.617 126.119 121.82 152.04 140.906C160.769 147.332 174.924 161.535 195.172 161.527C233.691 161.51 267.491 145.391 277.05 137.164C277.05 137.164 273.315 136.564 273.166 135.814C273.017 135.065 277.05 136.113 277.05 136.113C277.05 136.113 275.106 134.611 274.806 133.112C274.506 131.613 277.05 134.313 277.05 134.313C277.05 134.313 275.555 128.309 279.587 119.453C283.619 110.598 283.322 96.9411 281.679 94.9914C281.679 94.9914 283.771 96.7918 284.368 102.196C284.368 102.196 285.86 99.6431 282.725 90.644C279.59 81.6448 287.321 72.8119 293.593 69.8084C299.866 66.805 301.097 59.1272 300.946 57.0254C300.946 57.0254 307.956 54.3741 310.059 49.6209C310.059 49.6209 294.524 42.3179 261.515 48.9222C228.506 55.5265 191.916 44.5156 172.504 30.5492C153.091 16.5827 143.821 14.0836 128.287 12.7312C128.287 12.7312 127.541 15.7347 131.573 19.6369C131.565 19.6454 122.754 25.4382 138.499 41.8643Z" fill="url(#paint6_radial_1_5532)"/>
<path d="M261.515 48.9109C228.506 55.5152 191.916 44.5156 172.504 30.5492C153.091 16.5827 143.821 14.0836 128.287 12.7312C128.287 12.7312 127.541 15.7347 131.573 19.6369C131.573 19.6369 133.034 29.8645 150.178 44.2367C146.003 47.5288 142.365 51.4547 139.394 55.873C134.739 62.945 122.365 85.5922 130.878 104.315C139.391 123.037 161.638 141.17 171.452 146.913C180.307 152.094 192.037 156.182 203.816 154.278C219.429 151.742 245.496 142.762 263.321 128.207C281.146 113.652 275.28 68.4307 275.28 68.4307C275.28 68.4307 288.26 63.2324 300.951 57.093C300.951 57.0676 300.951 57.0395 300.951 57.0169C300.951 56.9944 307.961 54.3656 310.064 49.6125C310.059 49.6097 294.524 42.3067 261.515 48.9109Z" fill="url(#paint7_radial_1_5532)"/>
<path opacity="0.5" d="M180.467 131.211C180.467 131.211 184.079 130.332 186.502 133.983C188.924 137.635 197.171 142.717 204.136 137.632C211.101 132.546 209.786 114.742 201.789 110.865C194.779 107.462 189.83 108.656 187.41 110.865C184.99 113.074 180.467 131.211 180.467 131.211Z" fill="#1169B0"/>
<path opacity="0.5" d="M131.565 19.6454C131.565 19.6454 139.416 30.1012 156.187 41.8108C172.958 53.5204 202.131 66.4274 199.574 83.8538C197.017 101.28 185.683 115.314 185.683 115.314C185.683 115.314 195.805 110.857 204.445 119.07C204.445 119.07 200.799 96.9186 205.418 83.51C210.036 70.1015 243.496 69.4929 266.506 64.2298C282.77 60.5135 295.862 58.9892 301.98 56.5746C302.873 56.1606 303.742 55.6959 304.582 55.1827C304.648 55.1281 304.721 55.0826 304.798 55.0475C306.798 53.7909 309.032 51.9482 310.064 49.6097C310.064 49.6097 294.53 42.3067 261.521 48.9109C228.512 55.5152 191.916 44.5156 172.504 30.5492C153.091 16.5827 143.821 14.0836 128.287 12.7312C128.281 12.7397 127.535 15.7431 131.565 19.6454Z" fill="#00D6FD"/>
<g opacity="0.5">
<path opacity="0.5" d="M168.158 118.552C164.417 118.557 160.717 117.776 157.295 116.258C142.812 109.86 136.593 91.9401 143.432 76.3113C148.479 64.7595 159.415 57.2818 171.237 57.2818C174.977 57.2746 178.677 58.054 182.099 59.5697C189.11 62.6689 194.406 68.5181 197.028 76.0493C199.65 83.5805 199.271 91.9373 195.963 99.5164C190.904 111.079 179.991 118.552 168.158 118.552Z" fill="#1169B0"/>
<path opacity="0.5" d="M171.236 58.127C174.859 58.1217 178.443 58.878 181.757 60.3473C195.817 66.5458 201.843 83.9778 195.189 99.1783C192.801 104.702 188.889 109.424 183.916 112.787C179.264 115.961 173.778 117.674 168.155 117.706C164.535 117.71 160.954 116.954 157.642 115.486C143.583 109.273 137.557 91.8527 144.211 76.6522C146.599 71.1281 150.511 66.406 155.483 63.0436C160.136 59.8701 165.622 58.1587 171.245 58.127H171.236ZM171.245 56.4365C159.493 56.4365 147.997 63.7987 142.669 75.9704C135.634 92.0528 142.032 110.437 156.97 117.033C160.504 118.596 164.324 119.401 168.186 119.397C179.937 119.397 191.434 112.032 196.762 99.8601C203.797 83.7777 197.398 65.3963 182.461 58.7976C178.931 57.2368 175.116 56.4326 171.259 56.4365H171.245Z" fill="#00365B"/>
</g>
<g opacity="0.5">
<path opacity="0.5" d="M199.279 81.8757C199.24 81.5798 199.193 81.2812 199.142 80.9854L189.678 82.5829L189.852 83.1097L199.279 81.8757Z" fill="#1169B0"/>
<path opacity="0.5" d="M197.793 75.6941L188.664 78.9906V79.4949L198.102 76.6351C198.001 76.3224 197.903 76.0068 197.793 75.6941Z" fill="#1169B0"/>
<path opacity="0.5" d="M156.358 75.3082L149.185 66.1484C148.936 66.4105 148.692 66.6753 148.451 66.943L155.834 75.7336L156.358 75.3082Z" fill="#1169B0"/>
<path opacity="0.5" d="M152.082 83.1973L152.259 82.4957L141.059 80.4502C140.947 80.8587 140.846 81.2645 140.745 81.673L152.082 83.1973Z" fill="#1169B0"/>
<path opacity="0.5" d="M195.373 70.4423C195.228 70.1916 195.071 69.9493 194.916 69.7013C194.807 69.5604 194.692 69.4196 194.577 69.2759L186.496 75.2208L186.973 75.7336L195.373 70.4423Z" fill="#1169B0"/>
<path opacity="0.5" d="M153.997 78.0186L154.258 77.627L144.25 72.7893C144.076 73.0964 143.905 73.4063 143.74 73.7191L153.997 78.0186Z" fill="#1169B0"/>
<path opacity="0.5" d="M153.131 95.0082L152.78 94.239L140.891 97.8116C141.003 98.2399 141.126 98.6569 141.258 99.0851L153.131 95.0082Z" fill="#1169B0"/>
<path opacity="0.5" d="M151.647 88.7957H139.817C139.817 89.2183 139.817 89.6409 139.817 90.0579L151.913 89.5085L151.647 88.7957Z" fill="#1169B0"/>
<path opacity="0.5" d="M166.865 66.4554L169.697 66.2807L168.592 56.5603C166.839 56.7258 165.105 57.0493 163.41 57.5267L166.865 66.4554Z" fill="#1169B0"/>
<path opacity="0.5" d="M188.663 95.6335L188.195 95.6758L196.461 100.466C196.554 100.266 196.644 100.066 196.742 99.8655C196.801 99.7302 196.851 99.5837 196.907 99.4598L188.663 95.6335Z" fill="#1169B0"/>
<path opacity="0.5" d="M180.156 57.91C178.676 57.4069 177.156 57.0299 175.613 56.783L173.976 66.8077L176.883 67.5093L180.156 57.91Z" fill="#1169B0"/>
<path opacity="0.5" d="M169.75 56.4702L170.331 66.3625L173.135 66.6273L174.747 56.6561C173.09 56.4458 171.418 56.3836 169.75 56.4702Z" fill="#1169B0"/>
<path opacity="0.5" d="M191.05 65.6045C190.744 65.3228 190.433 65.0551 190.105 64.7818C189.92 64.624 189.726 64.4691 189.544 64.3113L183.322 71.7664L184.101 72.3299L191.05 65.6045Z" fill="#1169B0"/>
<path opacity="0.5" d="M184.984 60.7613C184.74 60.5809 184.496 60.4063 184.25 60.2288L179.929 69.087L180.467 69.4308L184.984 60.7613Z" fill="#1169B0"/>
<path opacity="0.5" d="M190.332 91.8667L189.678 92.8162L198.441 94.98C198.559 94.5433 198.671 94.1066 198.769 93.6699L190.332 91.8667Z" fill="#1169B0"/>
<path opacity="0.5" d="M181.757 102.562L181.129 102.911L188.206 111.595C188.535 111.308 188.858 111.012 189.174 110.707L181.757 102.562Z" fill="#1169B0"/>
<path opacity="0.5" d="M182.332 115.72C183.301 115.191 184.242 114.612 185.153 113.987L182.332 115.72Z" fill="#1169B0"/>
<path opacity="0.5" d="M185.666 99.4712L185.229 99.9699L193.254 106.019C193.498 105.678 193.733 105.334 193.966 104.982L185.666 99.4712Z" fill="#1169B0"/>
<path opacity="0.5" d="M162.549 104.931L161.677 104.452L156.801 116.962L156.95 117.033C157.421 117.241 157.897 117.436 158.374 117.616L162.549 104.931Z" fill="#1169B0"/>
<path opacity="0.5" d="M189.939 86.657L189.852 87.2515L199.532 88.1812C199.551 87.815 199.566 87.4515 199.574 87.0852L189.939 86.657Z" fill="#1169B0"/>
<path opacity="0.5" d="M155.573 99.4712L154.875 98.7979L143.658 104.76C143.888 105.177 144.13 105.605 144.379 105.997L155.573 99.4712Z" fill="#1169B0"/>
<path opacity="0.5" d="M160.014 71.189C159.762 70.9974 156.111 65.0243 154.196 61.8743C153.68 62.2321 153.17 62.604 152.671 63.0013L159.061 71.7722C159.061 71.7722 160.354 71.4538 160.014 71.189Z" fill="#1169B0"/>
<path opacity="0.5" d="M162.987 68.1206L165.791 67.157L162.165 57.9099C160.741 58.3786 159.353 58.9511 158.012 59.623L162.129 68.1206H162.987Z" fill="#1169B0"/>
<path opacity="0.5" d="M177.29 105.391H176.508L180.818 116.483C181.325 116.241 181.827 115.987 182.323 115.717L177.29 105.391Z" fill="#1169B0"/>
<path opacity="0.5" d="M157.841 102.424L157.317 101.976L149.247 111.939C149.527 112.22 149.825 112.465 150.125 112.719L157.841 102.424Z" fill="#1169B0"/>
<path opacity="0.5" d="M168.051 106.599L167.347 106.422L165.569 119.275C166.04 119.32 166.511 119.351 166.985 119.371L168.051 106.599Z" fill="#1169B0"/>
<path opacity="0.5" d="M173.132 106.687H172.058L173.3 118.926C173.874 118.823 174.446 118.701 175.016 118.56L173.132 106.687Z" fill="#1169B0"/>
</g>
<g opacity="0.5">
<path opacity="0.5" d="M202.558 96.6031C202.597 96.3045 202.645 96.0058 202.695 95.71L212.161 97.3075L211.985 97.8344L202.558 96.6031Z" fill="#1169B0"/>
<path opacity="0.5" d="M204.044 90.4187L213.162 93.7152V94.2252L203.724 91.3682C203.836 91.047 203.934 90.7314 204.044 90.4187Z" fill="#1169B0"/>
<path opacity="0.5" d="M245.482 90.0326L252.654 80.8728C252.901 81.1339 253.145 81.3987 253.386 81.6673L246.003 90.458L245.482 90.0326Z" fill="#1169B0"/>
<path opacity="0.5" d="M249.755 97.9217L249.581 97.2201L260.778 95.1746C260.893 95.5831 260.994 95.9888 261.092 96.3974L249.755 97.9217Z" fill="#1169B0"/>
<path opacity="0.5" d="M206.463 85.1667C206.609 84.9159 206.766 84.6736 206.92 84.4257L207.263 84.0002L215.341 89.9452L214.864 90.458L206.463 85.1667Z" fill="#1169B0"/>
<path opacity="0.5" d="M247.837 92.743L247.573 92.3514L257.584 87.5137C257.755 87.8208 257.926 88.1307 258.091 88.4435L247.837 92.743Z" fill="#1169B0"/>
<path opacity="0.5" d="M248.709 109.721L249.057 108.955L260.946 112.525C260.834 112.953 260.713 113.37 260.582 113.798L248.709 109.721Z" fill="#1169B0"/>
<path opacity="0.5" d="M250.19 103.523H262.02C262.02 103.946 262.02 104.368 262.02 104.785L249.923 104.222L250.19 103.523Z" fill="#1169B0"/>
<path opacity="0.5" d="M234.972 81.18L232.14 81.0054L233.245 71.2849C234.998 71.4507 236.734 71.7741 238.43 72.2513L234.972 81.18Z" fill="#1169B0"/>
<path opacity="0.5" d="M213.162 110.358L213.631 110.403L205.364 115.193C205.275 114.993 205.182 114.796 205.084 114.593C205.025 114.458 204.975 114.311 204.916 114.187L213.162 110.358Z" fill="#1169B0"/>
<path opacity="0.5" d="M221.684 72.6346C223.163 72.1315 224.682 71.7545 226.224 71.5076L227.861 81.5464L224.953 82.248L221.684 72.6346Z" fill="#1169B0"/>
<path opacity="0.5" d="M232.09 71.2004L231.509 81.0926L228.705 81.3575L227.104 71.3807C228.757 71.173 230.426 71.1127 232.09 71.2004Z" fill="#1169B0"/>
<path opacity="0.5" d="M210.79 80.3291C211.093 80.0549 211.407 79.7807 211.732 79.5064L212.293 79.0359L218.518 86.4939L217.736 87.0574L210.79 80.3291Z" fill="#1169B0"/>
<path opacity="0.5" d="M216.853 75.4859L217.587 74.9534L221.908 83.8004L221.37 84.1497L216.853 75.4859Z" fill="#1169B0"/>
<path opacity="0.5" d="M211.508 106.591L212.161 107.529L203.396 109.693C203.278 109.256 203.166 108.823 203.068 108.383L211.508 106.591Z" fill="#1169B0"/>
<path opacity="0.5" d="M220.08 117.286L220.708 117.636L213.622 126.319C213.297 126.038 212.972 125.736 212.655 125.432L220.08 117.286Z" fill="#1169B0"/>
<path opacity="0.5" d="M219.505 130.444C218.541 129.916 217.605 129.338 216.701 128.711L219.505 130.444Z" fill="#1169B0"/>
<path opacity="0.5" d="M216.171 114.196L216.609 114.697L208.598 120.743C208.354 120.403 208.118 120.059 207.888 119.707L216.171 114.196Z" fill="#1169B0"/>
<path opacity="0.5" d="M239.288 119.659L240.16 119.18L245.03 131.698L244.882 131.769C244.411 131.977 243.934 132.172 243.457 132.352L239.288 119.659Z" fill="#1169B0"/>
<path opacity="0.5" d="M211.898 101.382L211.985 101.976L202.308 102.906C202.286 102.54 202.272 102.176 202.263 101.81L211.898 101.382Z" fill="#1169B0"/>
<path opacity="0.5" d="M246.267 114.196L246.962 113.522L258.179 119.484C257.949 119.901 257.708 120.329 257.458 120.721L246.267 114.196Z" fill="#1169B0"/>
<path opacity="0.5" d="M241.825 85.9133C242.075 85.7217 245.726 79.7486 247.641 76.5986C248.16 76.9565 248.667 77.3284 249.169 77.7256L242.776 86.4994C242.776 86.4994 241.483 86.1782 241.825 85.9133Z" fill="#1169B0"/>
<path opacity="0.5" d="M238.85 82.848L236.046 81.8816L239.672 72.6345C241.095 73.1039 242.483 73.6764 243.825 74.3476L239.711 82.848H238.85Z" fill="#1169B0"/>
<path opacity="0.5" d="M224.547 120.115H225.332L221.014 131.213C220.506 130.971 220.004 130.718 219.508 130.447L224.547 120.115Z" fill="#1169B0"/>
<path opacity="0.5" d="M244.007 117.149L244.528 116.703L252.601 126.663C252.321 126.945 252.021 127.19 251.724 127.444L244.007 117.149Z" fill="#1169B0"/>
<path opacity="0.5" d="M233.786 121.324L234.49 121.149L236.271 134C235.797 134.045 235.326 134.076 234.869 134.096L233.786 121.324Z" fill="#1169B0"/>
<path opacity="0.5" d="M228.705 121.411H229.779L228.54 133.651C227.965 133.546 227.39 133.425 226.824 133.284L228.705 121.411Z" fill="#1169B0"/>
</g>
<path opacity="0.5" d="M262.028 108.143C259.379 125.418 244.461 136.843 228.099 134.082C211.738 131.32 199.922 114.525 202.583 97.251C205.244 79.9768 219.917 68.3996 236.296 71.1608C252.674 73.9219 264.678 90.8665 262.028 108.143Z" fill="#1169B0" stroke="#00365B" stroke-width="6"/>
<path d="M170.992 109.085C183.319 109.085 193.312 99.0435 193.312 86.6572C193.312 74.2708 183.319 64.2297 170.992 64.2297C158.665 64.2297 148.672 74.2708 148.672 86.6572C148.672 99.0435 158.665 109.085 170.992 109.085Z" fill="#1169B0"/>
<path d="M230.107 122.316C242.389 122.316 252.346 112.311 252.346 99.97C252.346 87.6288 242.389 77.6243 230.107 77.6243C217.825 77.6243 207.868 87.6288 207.868 99.97C207.868 112.311 217.825 122.316 230.107 122.316Z" fill="#1169B0"/>
<path opacity="0.7" d="M175.742 125.778C182.391 125.778 187.78 120.363 187.78 113.683C187.78 107.003 182.391 101.587 175.742 101.587C169.094 101.587 163.705 107.003 163.705 113.683C163.705 120.363 169.094 125.778 175.742 125.778Z" fill="#1169B0"/>
<path d="M170.331 107.259C181.769 107.259 191.041 97.9417 191.041 86.4486C191.041 74.9555 181.769 65.6384 170.331 65.6384C158.893 65.6384 149.62 74.9555 149.62 86.4486C149.62 97.9417 158.893 107.259 170.331 107.259Z" fill="url(#paint8_radial_1_5532)"/>
<path opacity="0.5" d="M152.83 89.1733C152.834 81.0913 157.724 73.8221 165.186 70.805C172.648 67.788 181.185 69.6281 186.759 75.4548C182.65 69.1766 175.36 65.7743 167.935 66.6696C160.51 67.5649 154.228 72.6037 151.714 79.6805C149.2 86.7573 150.887 94.6542 156.069 100.071C153.948 96.8371 152.822 93.0468 152.83 89.1733Z" fill="white"/>
<path d="M147.938 161.927L146.216 159.453L149.443 153.973L191.969 154.179C191.969 154.179 194.061 155.407 195.895 154.179L237.911 155.038L242.201 160.718L218.21 166.576L147.938 161.927Z" fill="white"/>
<path opacity="0.3" d="M147.105 157.943L148.142 156.185H190.783C190.783 156.185 192.555 157.656 194.56 157.064C196.565 156.472 196.848 156.185 196.848 156.185L239.75 157.487L240.692 158.738L209.797 174.505L167.56 168.399L147.105 157.943Z" fill="#6D6D6D"/>
<path d="M144.337 158.625L144.898 157.966L190.78 157.487C190.78 157.487 193.957 158.991 197.333 157.487L243.165 158.974L243.785 159.515L193.105 167.45L168.651 162.871L144.337 158.625Z" fill="#E2E2E2"/>
<path d="M190.783 157.966C192.76 159.319 195.36 159.319 197.336 157.966L195.901 220.653C195.901 220.653 195.166 221.498 193.413 221.498C191.661 221.498 190.783 220.653 190.783 220.653V157.966Z" fill="#E2E2E2"/>
<path d="M151.88 218.069L144.337 158.625L190.783 157.966V220.652L151.88 218.069Z" fill="#F2F2F2"/>
<path d="M236.24 218.069L243.782 159.515L197.336 157.966L195.901 220.652L236.24 218.069Z" fill="#F2F2F2"/>
<path opacity="0.3" d="M240.984 180.272L196.764 182.887C196.764 182.887 195.362 184.836 190.783 183.614C190.783 183.614 166.004 186.645 165.267 189.308C164.529 191.97 166.778 192.63 163.497 193.664C160.217 194.698 160.413 197.419 163.957 199.58C167.501 201.741 169.753 204.181 169.004 206.624C168.256 209.067 168.256 210.453 172.837 213.846C177.419 217.238 190.783 220.653 190.783 220.653C190.783 220.653 191.417 221.498 193.52 221.498C195.236 221.498 195.901 220.653 195.901 220.653C195.901 220.653 199.669 220.63 202.185 220.25C204.7 219.869 240.704 181.979 240.704 181.979L240.984 180.272Z" fill="#6D6D6D"/>
<path d="M288.591 194.365C286.628 190.294 277.347 172.169 269.779 157.427L242.324 173.887C244.164 176.967 245.103 179.607 243.53 180.793C239.52 183.842 221.33 182.385 203.082 184.385C184.833 186.386 166.988 187.952 166.924 190.359C166.859 192.765 176.281 194.343 185.223 195.405C194.165 196.467 201.111 197.377 201.907 198.205C207.908 204.39 166.032 192.027 163.811 195.306C162.036 197.912 167.869 200.874 180.17 204.252C182.839 204.987 191.622 207.281 193.441 207.731C200.681 209.521 199.456 212.104 190.573 210.118C180.787 207.929 170.905 206.018 170.103 207.433C169.302 208.847 169.607 210.895 187.923 217.052C206.149 223.18 251.185 225.38 267.491 219.759C283.796 214.138 286.628 207.168 286.628 207.168C288.078 209.819 285.464 211.873 285.464 211.873C289.839 209.819 289 203.733 289 203.733C291.507 206.128 288.605 209.819 288.605 209.819C291.496 208.053 292.026 201.468 288.591 194.365Z" fill="url(#paint9_radial_1_5532)"/>
<path d="M173.132 104.379C180.376 104.379 186.249 98.4782 186.249 91.1989C186.249 83.9196 180.376 78.0186 173.132 78.0186C165.887 78.0186 160.015 83.9196 160.015 91.1989C160.015 98.4782 165.887 104.379 173.132 104.379Z" fill="url(#paint10_radial_1_5532)" stroke="#008E07" stroke-width="2"/>
<path opacity="0.7" d="M214.158 133.386C220.806 133.386 226.195 127.97 226.195 121.29C226.195 114.61 220.806 109.195 214.158 109.195C207.509 109.195 202.12 114.61 202.12 121.29C202.12 127.97 207.509 133.386 214.158 133.386Z" fill="#1169B0"/>
<path d="M230.497 120.281C241.935 120.281 251.207 110.964 251.207 99.4713C251.207 87.9782 241.935 78.6611 230.497 78.6611C219.059 78.6611 209.786 87.9782 209.786 99.4713C209.786 110.964 219.059 120.281 230.497 120.281Z" fill="url(#paint11_radial_1_5532)"/>
<path opacity="0.5" d="M181.12 98.5429C184.278 95.0162 183.994 89.5837 180.485 86.4092C176.975 83.2347 171.57 83.5203 168.412 87.0471C165.254 90.5738 165.538 96.0063 169.047 99.1808C172.556 102.355 177.961 102.07 181.12 98.5429Z" fill="#3D9926"/>
<path opacity="0.4" d="M178.998 110.863L170.936 101.046L170.687 101.207L181.129 116.962L180.467 117.782L167.983 103.776C167.936 103.841 167.888 103.909 167.843 103.977L180.436 120.394C185.314 118.548 188.181 113.462 187.249 108.309C186.317 103.156 181.852 99.4098 176.64 99.4065C176.058 99.4076 175.478 99.4547 174.904 99.5474L178.998 110.863Z" fill="white"/>
<path opacity="0.4" d="M216.572 118.47L208.51 108.653L208.261 108.814L218.703 124.57L218.041 125.39L205.558 111.384C205.51 111.448 205.462 111.516 205.417 111.584L218.01 128.001C222.888 126.155 225.755 121.069 224.823 115.917C223.891 110.764 219.426 107.017 214.214 107.014C213.632 107.015 213.052 107.062 212.478 107.155L216.572 118.47Z" fill="white"/>
<path opacity="0.4" d="M176.64 121.084C182.597 121.084 187.427 116.232 187.427 110.245C187.427 104.259 182.597 99.4065 176.64 99.4065C170.682 99.4065 165.853 104.259 165.853 110.245C165.853 116.232 170.682 121.084 176.64 121.084Z" fill="white"/>
<path opacity="0.4" d="M214.32 128.799C220.278 128.799 225.107 123.946 225.107 117.96C225.107 111.974 220.278 107.121 214.32 107.121C208.363 107.121 203.533 111.974 203.533 117.96C203.533 123.946 208.363 128.799 214.32 128.799Z" fill="white"/>
<path d="M174.914 99.8421C178.698 99.8321 181.759 96.7411 181.749 92.938C181.739 89.135 178.663 86.0601 174.878 86.0701C171.093 86.0801 168.033 89.1711 168.043 92.9741C168.053 96.7771 171.129 99.852 174.914 99.8421Z" fill="#102023"/>
<path d="M176.884 100.356C182.149 100.356 186.417 104.645 186.417 109.935C186.417 115.226 182.149 119.515 176.884 119.515C171.618 119.515 167.35 115.226 167.35 109.935C167.358 104.648 171.622 100.364 176.884 100.356ZM176.884 98.1018C170.379 98.1018 165.107 103.4 165.107 109.935C165.107 116.471 170.379 121.769 176.884 121.769C183.388 121.769 188.661 116.471 188.661 109.935C188.661 103.4 183.388 98.1018 176.884 98.1018Z" fill="black"/>
<path d="M173.035 90.9431C173.953 89.9518 173.414 87.9494 171.833 86.4707C170.251 84.9921 168.225 84.597 167.308 85.5883C166.39 86.5797 166.929 88.582 168.51 90.0607C170.092 91.5394 172.118 91.9345 173.035 90.9431Z" fill="white"/>
<path opacity="0.3" d="M182.738 95.0084C186.931 95.0084 190.329 91.5356 190.329 87.2517C190.329 82.9679 186.931 79.4951 182.738 79.4951C178.546 79.4951 175.148 82.9679 175.148 87.2517C175.148 91.5356 178.546 95.0084 182.738 95.0084Z" fill="white"/>
<path d="M195.256 108.713C195.256 108.713 188.445 107.749 182.464 113.384C176.483 119.019 174.82 129.126 177.167 137.643C177.167 137.643 177.394 132.397 181.028 130.951C184.662 129.506 196.013 131.18 199.417 125.781C199.417 125.781 198.663 128.973 194.423 130.115C191.8 130.81 189.111 131.218 186.401 131.332C186.401 131.332 189.58 136.809 195.559 137.189C201.537 137.57 204.792 132.543 205.852 129.951C206.912 127.359 207.683 124.249 205.642 117.861C203.601 111.474 199.266 109.375 195.256 108.713Z" fill="url(#paint12_linear_1_5532)"/>
<path d="M225.049 115.156C232.293 115.156 238.166 109.255 238.166 101.976C238.166 94.6967 232.293 88.7957 225.049 88.7957C217.804 88.7957 211.931 94.6967 211.931 101.976C211.931 109.255 217.804 115.156 225.049 115.156Z" fill="url(#paint13_radial_1_5532)" stroke="#008E07" stroke-width="2"/>
<path opacity="0.5" d="M228.392 108.161C231.551 104.634 231.267 99.2016 227.757 96.0271C224.248 92.8526 218.843 93.1382 215.685 96.665C212.526 100.192 212.811 105.624 216.32 108.799C219.829 111.973 225.234 111.688 228.392 108.161Z" fill="#3D9926"/>
<path d="M221.842 109.464C225.626 109.454 228.687 106.363 228.677 102.56C228.667 98.7573 225.59 95.6825 221.806 95.6924C218.021 95.7024 214.961 98.7934 214.971 102.596C214.98 106.399 218.057 109.474 221.842 109.464Z" fill="#102023"/>
<path d="M219.704 100.961C220.463 100.141 220.02 98.4866 218.714 97.2643C217.409 96.042 215.735 95.7151 214.976 96.5342C214.216 97.3533 214.659 99.0082 215.965 100.231C217.271 101.453 218.944 101.78 219.704 100.961Z" fill="white"/>
<path opacity="0.7" d="M177.066 137.246C177.066 137.246 173.387 120.87 184.917 113.753C195.438 107.273 201.568 113.297 202.097 116.416C202.512 118.859 200.356 124.401 193.685 124.553C187.015 124.705 176.41 127.353 177.066 137.246Z" fill="#FFE564"/>
<path d="M205.411 83.5185C205.378 84.206 206.904 76.8185 223.554 72.0709C240.204 67.3234 260.222 67.3037 274.307 62.7027C288.392 58.1017 269.338 65.585 250.644 64.5341C231.949 63.4832 219.11 64.3735 216.373 62.421C216.73 63.1585 217.249 63.8042 217.893 64.3087C218.944 65.1173 216.973 64.9793 216.095 63.0408L215.504 63.0662C215.504 63.0662 215.363 65.7935 214.991 65.7935C214.618 65.7935 214.856 64.1481 214.856 64.1481C214.856 64.1481 205.816 75.7337 205.411 83.5185Z" fill="#00E1FF"/>
<path d="M199.577 83.8536C199.296 84.4819 200.931 72.7892 188.826 63.2858C175.187 52.5792 157.121 44.1746 146.036 34.2879C134.952 24.4012 149.44 38.9283 166.991 45.4819C184.541 52.0354 195.954 58.017 199.237 57.3295C198.617 57.8648 197.883 58.2503 197.092 58.4565C195.808 58.7749 197.67 59.4399 199.243 58.017L199.776 58.279C199.776 58.279 198.817 60.8373 199.159 60.9839C199.501 61.1304 199.941 59.5328 199.941 59.5328C199.941 59.5328 202.849 76.5985 199.577 83.8536Z" fill="#00E1FF"/>
<path opacity="0.3" d="M233.75 102.909C237.942 102.909 241.34 99.4358 241.34 95.1519C241.34 90.868 237.942 87.3953 233.75 87.3953C229.557 87.3953 226.159 90.868 226.159 95.1519C226.159 99.4358 229.557 102.909 233.75 102.909Z" fill="white"/>
<path d="M214.354 108.087C219.619 108.087 223.888 112.376 223.888 117.667C223.888 122.957 219.619 127.246 214.354 127.246C209.089 127.246 204.82 122.957 204.82 117.667C204.82 112.376 209.089 108.087 214.354 108.087ZM214.354 105.833C207.85 105.833 202.577 111.131 202.577 117.667C202.577 124.202 207.85 129.5 214.354 129.5C220.858 129.5 226.131 124.202 226.131 117.667C226.131 111.131 220.858 105.833 214.354 105.833Z" fill="black"/>
<path d="M186.496 110.513C186.496 110.513 196.265 105.275 203.531 113.829L206.026 110.522C206.026 110.522 197.053 101.694 186.496 107.191V110.513Z" fill="black"/>
<path d="M198.943 216.181C198.699 217.59 197.51 218.52 197.51 218.52C198.379 218.115 199.118 217.474 199.641 216.669L198.943 216.181Z" fill="url(#paint14_radial_1_5532)"/>
<path opacity="0.3" d="M244.94 185.817C238.601 186.279 185.057 187.953 184.654 189.674C184.25 191.396 214.682 193.1 214.2 198.989C213.72 204.818 199.361 202.26 198.107 204.649C196.854 207.038 251.791 215.536 264.056 211.087C276.32 206.638 279.618 183.284 244.94 185.817Z" fill="#0080FF"/>
<path d="M246.654 215.096C219.253 213.009 192.345 205.751 182.354 202.471C172.364 199.192 165.056 197.346 165.931 195.506C166.806 193.666 195.303 199.955 200.205 200.913C205.106 201.871 208.073 200.375 208.073 198.487C208.073 196.599 200.031 194.469 186.344 193.247C172.658 192.024 167.084 191.584 167.891 189.42C167.271 189.722 166.932 190.032 166.924 190.359C166.862 192.765 176.281 194.343 185.223 195.405C194.165 196.467 201.111 197.377 201.907 198.205C207.908 204.39 166.032 192.027 163.811 195.306C162.036 197.912 167.869 200.874 180.17 204.252C182.839 204.987 191.622 207.281 193.441 207.731C200.682 209.521 199.456 212.104 190.573 210.118C180.787 207.929 170.905 206.018 170.103 207.433C169.302 208.847 169.607 210.896 187.923 217.049C206.149 223.18 251.185 225.38 267.491 219.759C276.825 216.542 281.738 212.882 284.233 210.343L282.722 207.875C277.686 212.347 266.327 216.587 246.654 215.096Z" fill="#1169B0"/>
<path d="M303.516 223.157L303.469 223.195L303.516 223.157Z" fill="#1169B0"/>
<path d="M303.757 223.033L303.707 222.969C303.617 223.052 303.55 223.111 303.508 223.147L303.757 223.033Z" fill="#1169B0"/>
<path d="M288.591 194.365C286.219 189.446 273.169 164.001 265.351 148.806L258.551 152.384C272.942 162.245 286.592 197.935 285.722 202.961C285.442 204.522 284.475 206.28 282.638 207.971C283.227 208.684 283.824 209.416 284.416 210.146C286.126 208.357 286.608 207.168 286.608 207.168C287.797 209.343 286.252 211.112 285.658 211.676L285.703 211.732C289.783 209.563 288.981 203.728 288.981 203.728C291.488 206.123 288.585 209.814 288.585 209.814C291.496 208.053 292.026 201.468 288.591 194.365Z" fill="#1169B0"/>
<path opacity="0.7" d="M237.916 155.038L240.703 158.738L243.163 158.974L243.782 159.515L242.002 173.341C242.002 173.341 246.07 178.866 243.541 180.793C241.012 182.72 234.142 182.765 230.429 182.912C226.717 183.058 211.802 183.399 207.234 183.977C202.667 184.554 226.08 183.822 236.957 183.977C247.834 184.132 259.74 183.597 264.367 185.625C268.993 187.654 263.315 180.892 255.674 177.454C248.033 174.017 245.509 163.716 245.509 158.752C245.509 153.787 245.425 152.967 245.425 152.967L237.916 155.038Z" fill="#1169B0"/>
<path opacity="0.3" d="M167.984 103.776C168.544 104.275 170.911 100.297 175.678 99.9699C180.069 99.6712 182.82 101.613 183.316 101.736C183.812 101.86 181.05 98.2343 175.148 98.7978C169.245 99.3613 167.984 103.776 167.984 103.776Z" fill="white"/>
<path d="M170.687 101.207C171.065 101.59 173.869 100.173 173.491 99.6799C173.112 99.1868 170.039 100.556 170.687 101.207Z" fill="white"/>
<path opacity="0.3" d="M204.489 113.412C205.05 113.624 207.091 109.423 211.328 108.144C215.565 106.864 220.498 109.271 221.832 110.358C223.167 111.446 222.603 107.865 216.608 106.591C210.613 105.318 206.348 108.946 204.938 111.381C203.528 113.815 204.489 113.412 204.489 113.412Z" fill="white"/>
<path d="M207.613 109.085C207.893 109.964 210.599 108.363 210.097 107.848C209.595 107.332 207.445 108.561 207.613 109.085Z" fill="white"/>
<path opacity="0.3" d="M188.358 107.259C188.358 107.259 192.673 105.005 196.899 106.414C196.899 106.414 197.765 107.436 196.058 107.259C194.35 107.081 189.53 108.186 188.675 108.651C187.82 109.116 188.358 107.259 188.358 107.259Z" fill="white"/>
<path opacity="0.5" d="M248.213 102.309C248.212 94.2252 243.322 86.9535 235.859 83.9359C228.396 80.9183 219.857 82.7604 214.284 88.5901C218.396 82.3205 225.682 78.926 233.102 79.8233C240.521 80.7206 246.797 85.7555 249.311 92.8264C251.826 99.8973 250.145 107.789 244.971 113.207C247.093 109.973 248.221 106.182 248.213 102.309Z" fill="white"/>
<path opacity="0.7" d="M180.467 121.29C180.599 122.417 198.542 116.726 196.899 112.719C195.256 108.713 179.665 114.458 180.467 121.29Z" fill="#FFE564"/>
</g>
<defs>
<filter id="filter0_f_1_5532" x="134.237" y="248.478" width="54.459" height="16.481" filterUnits="userSpaceOnUse" color-interpolation-filters="sRGB">
<feFlood flood-opacity="0" result="BackgroundImageFix"/>
<feBlend mode="normal" in="SourceGraphic" in2="BackgroundImageFix" result="shape"/>
<feGaussianBlur stdDeviation="2.5" result="effect1_foregroundBlur_1_5532"/>
</filter>
<filter id="filter1_f_1_5532" x="183.715" y="247.038" width="49.4395" height="24.4021" filterUnits="userSpaceOnUse" color-interpolation-filters="sRGB">
<feFlood flood-opacity="0" result="BackgroundImageFix"/>
<feBlend mode="normal" in="SourceGraphic" in2="BackgroundImageFix" result="shape"/>
<feGaussianBlur stdDeviation="2.5" result="effect1_foregroundBlur_1_5532"/>
</filter>
<radialGradient id="paint0_radial_1_5532" cx="0" cy="0" r="1" gradientUnits="userSpaceOnUse" gradientTransform="translate(59.2026 88.3919) rotate(-40.0087) scale(86.3542 60.111)">
<stop stop-color="#0077F0"/>
<stop offset="1" stop-color="#0071B8"/>
</radialGradient>
<linearGradient id="paint1_linear_1_5532" x1="140.297" y1="231.551" x2="184.311" y2="231.551" gradientUnits="userSpaceOnUse">
<stop stop-color="#F6C100"/>
<stop offset="0.52" stop-color="#FFC400"/>
<stop offset="0.99" stop-color="#FFAA00"/>
</linearGradient>
<linearGradient id="paint2_linear_1_5532" x1="189.721" y1="238.485" x2="228.133" y2="238.485" gradientUnits="userSpaceOnUse">
<stop stop-color="#F6C100"/>
<stop offset="0.52" stop-color="#FFC400"/>
<stop offset="0.99" stop-color="#FFAA00"/>
</linearGradient>
<radialGradient id="paint3_radial_1_5532" cx="0" cy="0" r="1" gradientUnits="userSpaceOnUse" gradientTransform="translate(161.096 188.347) scale(77.1103 77.5009)">
<stop offset="0.01" stop-color="#0CDDFD"/>
<stop offset="1" stop-color="#008FE8"/>
</radialGradient>
<radialGradient id="paint4_radial_1_5532" cx="0" cy="0" r="1" gradientUnits="userSpaceOnUse" gradientTransform="translate(167.318 186.465) scale(64.745 65.073)">
<stop stop-color="#00C5FF"/>
<stop offset="1" stop-color="#0088DE"/>
</radialGradient>
<radialGradient id="paint5_radial_1_5532" cx="0" cy="0" r="1" gradientUnits="userSpaceOnUse" gradientTransform="translate(163.445 205.605) scale(55.8776 56.1608)">
<stop stop-color="#0077F0"/>
<stop offset="1" stop-color="#0071B8"/>
</radialGradient>
<radialGradient id="paint6_radial_1_5532" cx="0" cy="0" r="1" gradientUnits="userSpaceOnUse" gradientTransform="translate(149.721 130.824) scale(102.421 102.94)">
<stop offset="0.01" stop-color="#0CDDFD"/>
<stop offset="1" stop-color="#008FE8"/>
</radialGradient>
<radialGradient id="paint7_radial_1_5532" cx="0" cy="0" r="1" gradientUnits="userSpaceOnUse" gradientTransform="translate(157.535 114.488) scale(66.3802 66.7166)">
<stop offset="0.01" stop-color="#0CDDFD"/>
<stop offset="1" stop-color="#008FE8"/>
</radialGradient>
<radialGradient id="paint8_radial_1_5532" cx="0" cy="0" r="1" gradientUnits="userSpaceOnUse" gradientTransform="translate(176.774 79.5983) scale(31.3708 31.5298)">
<stop stop-color="white"/>
<stop offset="1" stop-color="#C9C8C8"/>
</radialGradient>
<radialGradient id="paint9_radial_1_5532" cx="0" cy="0" r="1" gradientUnits="userSpaceOnUse" gradientTransform="translate(125.97 208.988) scale(54.771 55.0485)">
<stop stop-color="#0077F0"/>
<stop offset="1" stop-color="#0071B8"/>
</radialGradient>
<radialGradient id="paint10_radial_1_5532" cx="0" cy="0" r="1" gradientUnits="userSpaceOnUse" gradientTransform="translate(166.937 84.9294) scale(23.9983 24.1199)">
<stop stop-color="#41FF02"/>
<stop offset="1" stop-color="#008A17"/>
</radialGradient>
<radialGradient id="paint11_radial_1_5532" cx="0" cy="0" r="1" gradientUnits="userSpaceOnUse" gradientTransform="translate(143.227 79.4134) scale(17.6402 17.7296)">
<stop stop-color="white"/>
<stop offset="1" stop-color="#C9C8C8"/>
</radialGradient>
<linearGradient id="paint12_linear_1_5532" x1="176.146" y1="123.141" x2="206.918" y2="123.141" gradientUnits="userSpaceOnUse">
<stop stop-color="#F6C100"/>
<stop offset="0.52" stop-color="#FFC400"/>
<stop offset="0.99" stop-color="#FFAA00"/>
</linearGradient>
<radialGradient id="paint13_radial_1_5532" cx="0" cy="0" r="1" gradientUnits="userSpaceOnUse" gradientTransform="translate(132.389 80.6249) scale(14.8138 14.8888)">
<stop stop-color="#41FF02"/>
<stop offset="1" stop-color="#008A17"/>
</radialGradient>
<radialGradient id="paint14_radial_1_5532" cx="0" cy="0" r="1" gradientUnits="userSpaceOnUse" gradientTransform="translate(198.64 200.814) scale(0.987037 0.992008)">
<stop stop-color="#0077F0"/>
<stop offset="1" stop-color="#0071B8"/>
</radialGradient>
<clipPath id="clip0_1_5532">
<rect width="335" height="265" fill="white"/>
</clipPath>
</defs>
</svg>
