<svg width="38" height="40" viewBox="0 0 38 40" fill="none" xmlns="http://www.w3.org/2000/svg">
<path fill-rule="evenodd" clip-rule="evenodd" d="M13.05 13.6151C14.6046 13.6151 15.8657 14.8442 15.8657 16.3607C15.8657 17.8772 14.6046 19.1063 13.05 19.1063C11.4954 19.1063 10.2343 17.8772 10.2343 16.3607C10.2343 14.8442 11.4954 13.6151 13.05 13.6151ZM24.3845 13.6151C25.9391 13.6151 27.2002 14.8442 27.2002 16.3607C27.2002 17.8772 25.9391 19.1063 24.3845 19.1063C22.8298 19.1063 21.5687 17.8772 21.5687 16.3607C21.5687 14.8442 22.8298 13.6151 24.3845 13.6151ZM11.739 2.85961H26.2611C26.5954 2.47653 27.124 1.99908 27.8572 1.52642C29.155 0.689881 30.7213 0.143902 32.5593 0.0245239L32.9369 0L33.1205 0.322625C33.1594 0.390955 33.2294 0.518928 33.326 0.703569C33.4852 1.00788 33.6621 1.36288 33.8523 1.76558C34.3941 2.91267 34.9352 4.21467 35.44 5.64792C37.0614 10.251 37.9479 15.1183 37.7125 19.9976C37.2196 30.2248 29.1041 39.1883 19.9431 39.9439V40H19.3466C19.2786 40 19.2274 39.9986 19.1163 39.9946C19.0488 39.9921 19.0219 39.9913 19.0123 39.9906C18.9781 39.9913 18.9512 39.9921 18.8838 39.9946L18.8486 39.9958C18.7684 39.9987 18.7131 40 18.654 40H18.0574V39.9439C8.89604 39.1884 0.780439 30.2249 0.287498 19.9977C0.0521228 15.1183 0.938583 10.251 2.55997 5.64792C3.06481 4.21467 3.60594 2.91267 4.14767 1.76558C4.33786 1.36288 4.51478 1.00788 4.674 0.703569C4.7706 0.518928 4.84058 0.390955 4.87947 0.322625L5.06313 3.46791e-06L5.4407 0.0245239C7.27892 0.143901 8.84531 0.689882 10.143 1.52643C10.8762 1.99907 11.4047 2.47652 11.739 2.85961ZM32.2555 1.21756C30.7985 1.36841 29.5559 1.82607 28.5152 2.49694C28.0662 2.78636 27.6873 3.09542 27.3775 3.40251C27.197 3.58141 27.0829 3.71498 27.0342 3.78101L26.8556 4.02301H11.1443L10.9658 3.78094C10.9171 3.71492 10.803 3.58136 10.6226 3.40247C10.3128 3.09539 9.93398 2.78634 9.48503 2.49693C8.44435 1.82606 7.20175 1.3684 5.74449 1.21755C5.74194 1.22242 5.73937 1.22732 5.73678 1.23228C5.5847 1.52294 5.41476 1.86393 5.23139 2.25221C4.70582 3.36507 4.17966 4.63105 3.68837 6.02584C2.11244 10.4999 1.25173 15.2258 1.47928 19.943C1.95466 29.8059 9.93309 38.4249 18.6815 38.818L18.927 38.8291C18.9529 38.8283 18.9785 38.8279 19.0123 38.8274C19.0333 38.8278 19.0524 38.8283 19.0746 38.829L19.3191 38.818C28.067 38.4249 36.0453 29.8058 36.5207 19.943C36.7483 15.2258 35.8876 10.4999 34.3116 6.02584C33.8203 4.63105 33.2942 3.36507 32.7686 2.25221C32.5852 1.86393 32.4153 1.52294 32.2632 1.23228C32.2606 1.22733 32.2581 1.22242 32.2555 1.21756ZM18.8573 21.8578C20.6523 22.3737 19.7939 25.2025 19.2427 26.4142C19.0685 26.7964 18.8573 26.8022 18.8573 26.8022C18.8573 26.8022 18.6461 26.7964 18.4719 26.4142C17.9207 25.2025 17.0623 22.3737 18.8573 21.8578ZM13.05 12.3858C10.8022 12.3858 8.97379 14.1687 8.97379 16.3606C8.97379 18.553 10.8022 20.3359 13.05 20.3359C15.2978 20.3359 17.1262 18.553 17.1262 16.3606C17.1262 14.1687 15.2978 12.3858 13.05 12.3858ZM13.05 21.4993C10.1442 21.4993 7.78069 19.194 7.78069 16.3606C7.78069 13.5277 10.1442 11.2224 13.05 11.2224C15.9558 11.2224 18.3193 13.5277 18.3193 16.3606C18.3193 19.194 15.9558 21.4993 13.05 21.4993ZM24.3845 12.3858C22.1367 12.3858 20.3082 14.1687 20.3082 16.3606C20.3082 18.553 22.1367 20.3359 24.3845 20.3359C26.6322 20.3359 28.4607 18.553 28.4607 16.3606C28.4607 14.1687 26.6322 12.3858 24.3845 12.3858ZM24.3845 21.4993C21.4787 21.4993 19.1151 19.194 19.1151 16.3606C19.1151 13.5277 21.4787 11.2224 24.3845 11.2224C27.2902 11.2224 29.6538 13.5277 29.6538 16.3606C29.6538 19.194 27.2902 21.4993 24.3845 21.4993ZM25.443 7.301C26.4159 7.301 27.4694 7.43014 28.5838 7.75124C34.2397 9.38175 36.6969 18.7454 30.5226 24.766C24.8578 30.2904 18.8404 33.6852 18.8404 33.6852C18.8404 33.6852 12.8403 30.2904 7.17484 24.766C1.00055 18.7454 3.45833 9.38175 9.11362 7.75124C10.2286 7.43014 11.2815 7.301 12.2551 7.301C16.163 7.301 18.7753 9.38233 18.8487 9.44108C18.9221 9.38233 21.5344 7.301 25.443 7.301ZM25.443 8.46441C21.9895 8.46441 19.6314 10.32 19.6081 10.3386L18.8487 10.9465L18.0893 10.3386C18.066 10.32 15.7073 8.46441 12.2551 8.46441C11.3215 8.46441 10.3789 8.59994 9.45187 8.86694C7.38065 9.46435 5.74073 11.3683 5.06425 13.9603C4.14019 17.5064 5.2444 21.238 8.01895 23.9429C12.4782 28.2917 17.204 31.3264 18.841 32.3234C20.4815 31.327 25.2193 28.2922 29.6791 23.9429C32.453 21.238 33.5578 17.5064 32.6332 13.9603C31.9573 11.3683 30.3168 9.46435 28.2456 8.86694C27.3191 8.59994 26.376 8.46441 25.443 8.46441Z" fill="url(#paint0_linear_81_627)"/>
<defs>
<linearGradient id="paint0_linear_81_627" x1="1.44196e-06" y1="20" x2="38" y2="20" gradientUnits="userSpaceOnUse">
<stop stop-color="#1B99E5"/>
<stop offset="1" stop-color="#FDC420"/>
</linearGradient>
</defs>
</svg>
