<svg width="480" height="400" viewBox="0 0 480 400" fill="none" xmlns="http://www.w3.org/2000/svg">
<g clip-path="url(#clip0_1_4986)">
<path d="M208 152.839C208 152.839 199.108 201.565 152.31 172.016C105.512 142.468 69.538 116.495 69.538 116.495C69.538 116.495 40.9742 119.714 25.1204 117.345C9.22169 114.975 5 113.903 5 113.903C5 113.903 6.07788 122.128 14.162 127.135C22.2461 132.141 52.6063 139.651 52.6063 139.651C52.6063 139.651 50.5404 148.815 47.7109 153.688C44.8815 158.561 39.8065 163.12 39.8065 163.12C39.8065 163.12 54.4028 183.281 57.4118 200.358C60.4209 217.434 59.7922 220.072 59.7922 220.072C59.7922 220.072 75.9603 221.994 73.8944 195.619L87.0535 199.195C87.0535 199.195 88.5356 184.667 75.7358 178.811L75.8256 175.145C75.8256 175.145 84.9876 179.034 88.0865 179.973L86.2002 181.761C86.2002 181.761 90.7363 181.493 91.904 182.298C93.0717 183.102 87.0535 183.594 87.0535 183.594C87.0535 183.594 95.0029 184.756 94.8232 185.919C94.6436 187.036 89.3889 185.874 89.3889 185.874C89.3889 185.874 93.1615 187.886 91.904 189.182C90.6464 190.478 90.4668 192.535 90.4668 192.535C90.4668 192.535 92.0387 188.958 94.7783 189.942C97.5179 190.925 92.8022 189.182 91.1405 195.53C91.1405 195.53 94.419 193.116 98.5958 196.96C102.773 200.805 123.297 229.459 140.004 247.966C156.711 266.473 167.131 277.47 174.946 277.962C174.946 277.962 165.065 272.955 163.269 267.948C163.269 267.948 170.769 278.14 180.245 277.604C180.245 277.604 169.646 273.938 170.095 267.099C170.095 267.099 261.625 249.978 316.687 260.215C371.748 270.452 225.426 147.34 208 152.839Z" fill="url(#paint0_radial_1_4986)"/>
<path d="M208.629 168.172C208.629 168.172 197.85 179.929 183.344 181.985C186.353 190.97 189.182 219.669 185.455 231.65C180.021 249.084 175.35 262.897 158.643 253.554C141.935 244.211 100.437 181.135 88.0865 179.973L86.2002 181.761C86.2002 181.761 90.7363 181.493 91.904 182.298C93.0717 183.102 87.0535 183.594 87.0535 183.594C87.0535 183.594 95.0029 184.756 94.8232 185.919C94.6436 187.081 89.3889 185.874 89.3889 185.874C89.3889 185.874 93.1615 187.886 91.904 189.182C91.2303 189.897 90.871 190.791 90.6914 191.462C90.7363 191.641 90.7363 191.775 90.7812 191.954C91.365 190.97 92.7573 189.227 94.7783 189.942C97.5179 190.925 92.8022 189.182 91.1405 195.53C91.1405 195.53 94.419 193.116 98.5958 196.96C102.773 200.805 123.297 229.459 140.004 247.966C156.711 266.473 167.131 277.47 174.946 277.962C174.946 277.962 165.065 272.955 163.268 267.948C163.268 267.948 170.769 278.14 180.245 277.604C180.245 277.604 169.646 273.938 170.095 267.099C170.095 267.099 259.155 262.763 314.216 272.955C369.278 283.192 226.055 162.673 208.629 168.172Z" fill="#1169B0"/>
<path d="M5 113.903C5 113.903 5.94314 125.481 21.6622 130.532C37.3813 135.583 63.6096 142.557 63.6096 142.557L67.2924 151.14C67.2924 151.14 68.3254 134.242 66.0798 132.454C63.7893 130.621 13.0841 128.654 5 113.903Z" fill="#1169B0"/>
<path d="M88.0863 179.973L75.8254 175.145L75.7356 178.811C75.7356 178.811 87.3228 181.985 87.0533 199.195L73.8942 195.619C73.8942 195.619 76.4991 220.384 59.792 220.071C59.792 220.071 77.1279 217.121 70.3013 191.551C63.4747 165.981 60.6004 163.165 60.6004 163.165L66.6635 155.521L99.5837 188.109L88.0863 179.973Z" fill="#1169B0"/>
<path d="M14.6558 118.283C14.6558 118.283 42.2764 126.33 66.6634 119.535C66.6634 119.535 125.093 158.874 156.262 178.23C156.262 178.23 129.899 179.169 64.6424 128.699C64.5975 128.699 23.2788 127.269 14.6558 118.283Z" fill="#0080FF"/>
<path d="M227.178 308.538C227.178 308.538 248.69 341.752 248.196 357.935C247.702 374.117 243.346 377.246 231.22 379.66C219.094 382.074 209.662 381.582 208.674 382.789C207.686 383.996 205.53 389.539 203.599 390.523C201.668 391.506 205.8 392.445 208.944 390.523C212.088 388.601 214.019 387.617 214.019 387.617C214.019 387.617 236.34 390.523 250.622 384.712C264.904 378.9 269.529 385.919 270.518 387.841C271.506 389.763 273.392 388.377 273.392 388.377L273.886 389.808C273.886 389.808 272.808 384.265 262.478 375.816C247.747 363.746 264.948 329.012 265.802 326.643C266.655 324.229 235.486 289.048 227.178 308.538Z" fill="url(#paint1_linear_1_4986)"/>
<path opacity="0.5" d="M262.523 375.816C247.792 363.746 264.904 327.716 265.757 325.346C266.61 322.977 235.486 289.048 227.178 308.583C227.178 308.583 234.992 320.653 241.1 333.751C245.053 333.482 253.99 333.438 254.888 338.042C256.011 343.988 251.161 361.6 254.888 370.317C258.616 379.034 251.34 384.175 239.259 386.276C228.66 388.109 217.028 387.304 209.438 382.477C209.078 382.566 208.854 382.7 208.719 382.834C207.731 384.041 205.575 389.584 203.644 390.568C201.713 391.551 205.845 392.49 208.989 390.568C212.132 388.646 214.064 387.662 214.064 387.662C214.064 387.662 236.385 390.568 250.667 384.756C264.948 378.945 269.574 385.963 270.562 387.886C271.55 389.808 273.437 388.422 273.437 388.422C272.449 386.232 269.754 381.717 262.523 375.816Z" fill="#DD9300"/>
<path d="M311.926 324.184C311.926 324.184 298.183 342.468 298.677 358.65C299.171 374.832 303.528 377.961 315.654 380.375C327.78 382.789 337.211 382.298 338.199 383.505C339.187 384.712 341.343 390.255 343.274 391.238C345.206 392.222 341.074 393.16 337.93 391.238C335.729 389.897 319.741 394.412 310.758 397.139C309.995 397.362 311.342 399.553 310.713 399.776C308.019 400.626 304.965 398.972 304.965 398.972C304.965 398.972 274.021 384.98 284.35 376.531C299.081 364.461 283.991 332.052 283.183 329.683C282.329 327.269 303.617 304.694 311.926 324.184Z" fill="url(#paint2_linear_1_4986)"/>
<path opacity="0.5" d="M310.758 397.139C310.848 397.094 310.983 397.094 311.073 397.05C305.459 393.965 289.515 384.89 289.695 381.225C289.874 376.755 295.938 375.682 309.456 379.616C313.094 380.688 319.247 382.029 323.109 381.538C320.774 381.225 318.304 380.867 315.654 380.331C303.528 377.917 299.171 374.788 298.677 358.605C298.183 342.423 311.926 324.139 311.926 324.139C303.617 304.649 282.06 326.553 282.913 328.923C283.766 331.292 299.126 364.417 284.35 376.442C274.021 384.89 304.965 398.882 304.965 398.882C304.965 398.882 308.019 400.536 310.713 399.687C311.387 399.598 310.04 397.363 310.758 397.139Z" fill="#DD9300"/>
<path d="M190.171 144.211C190.171 144.211 174.137 305.23 268.047 318.194C363.35 331.381 399.773 193.384 400.088 181.672C400.447 169.96 198.21 144.211 190.171 144.211Z" fill="url(#paint3_radial_1_4986)"/>
<path d="M211.953 168.172C211.953 168.172 186.308 302.012 265.667 312.919C360.79 325.972 376.464 208.672 376.778 199.061C377.093 189.45 218.555 168.172 211.953 168.172Z" fill="url(#paint4_radial_1_4986)"/>
<path d="M393.934 197.676C393.934 197.676 435.118 276.889 440.642 288.154C446.122 299.419 445.268 309.879 440.642 312.696C440.642 312.696 445.268 306.84 441.271 303.04C441.271 303.04 442.618 312.696 435.612 315.959C435.612 315.959 439.789 312.696 437.499 308.494C437.499 308.494 432.962 319.535 406.869 328.476C380.775 337.416 308.647 333.885 279.41 324.184C250.082 314.439 249.588 311.176 250.846 308.941C252.103 306.705 267.957 309.745 283.631 313.187C297.868 316.361 299.8 312.249 288.212 309.388C285.293 308.672 271.236 305.051 266.969 303.889C247.253 298.525 237.911 293.831 240.786 289.674C244.379 284.488 311.432 304.068 301.821 294.278C300.563 292.982 289.425 291.507 275.098 289.853C260.771 288.154 245.681 285.65 245.771 281.851C245.861 278.051 274.469 275.503 303.662 272.374C332.854 269.245 362.002 271.524 368.469 266.697C374.937 261.869 354.906 241.797 351.942 233.84C348.933 225.838 355.894 182.119 393.934 197.676Z" fill="url(#paint5_radial_1_4986)"/>
<path opacity="0.5" d="M189.272 180.197C189.272 180.197 214.827 206.437 219.678 210.907C224.303 215.244 217.073 219.356 217.073 219.356L213.525 225.302H205.216L213.839 281.582C213.839 281.582 223.046 296.737 228.84 298.078C234.633 299.419 250.173 224.229 250.173 224.229C250.173 224.229 209.932 197.273 189.138 176.039L189.272 180.197Z" fill="#1169B0"/>
<path d="M393.935 197.675C355.895 182.119 348.933 225.838 351.897 233.795C352.796 236.165 355.221 239.651 358.005 243.496C357.871 236.88 360.071 216.004 382.303 217.568C385.671 217.792 389.084 219.222 392.497 221.547L403.366 215.869C397.842 205.185 393.935 197.675 393.935 197.675Z" fill="#1169B0"/>
<path d="M200.231 46.2226C200.231 46.2226 182.356 69.6469 175.978 90.8806C175.978 90.8806 179.796 84.5329 184.916 83.2812C184.916 83.2812 174.407 94.0545 171.532 107.421C168.658 120.787 161.966 125.838 161.966 125.838C161.966 125.838 164.346 124.721 167.715 121.234C167.715 121.234 165.469 127.895 158.777 129.817C158.777 129.817 161.023 136.612 163.403 142.512C166.637 150.559 180.425 173.089 221.968 203.353C235.935 213.545 258.616 236.075 291.042 236.075C352.751 236.03 406.869 210.46 422.184 197.407C422.184 197.407 416.211 196.468 415.986 195.262C415.762 194.055 422.184 195.753 422.184 195.753C422.184 195.753 419.085 193.384 418.591 190.97C418.097 188.601 422.184 192.892 422.184 192.892C422.184 192.892 419.804 183.371 426.271 169.334C432.738 155.297 432.244 133.616 429.639 130.532C429.639 130.532 433.008 133.393 433.951 141.976C433.951 141.976 436.331 137.908 431.301 123.648C426.271 109.343 438.667 95.3509 448.727 90.6124C458.787 85.8292 460.763 73.6701 460.494 70.3174C460.494 70.3174 471.721 66.1153 475.09 58.5606C475.09 58.5606 450.209 46.9826 397.348 57.443C344.487 67.9034 285.877 50.4694 254.753 28.3415C223.63 6.21368 208.719 2.14573 183.838 0C183.838 0 182.625 4.78319 189.093 10.9522C189.138 10.9522 174.99 20.1609 200.231 46.2226Z" fill="url(#paint6_radial_1_4986)"/>
<path d="M397.258 57.3983C344.397 67.8587 285.787 50.4247 254.663 28.2968C223.585 6.12427 208.719 2.14573 183.838 0C183.838 0 182.625 4.78319 189.092 10.9522C189.092 10.9522 191.428 27.1793 218.869 49.9776C218.869 49.9776 209.033 57.2195 201.578 68.4399C194.123 79.6603 174.361 115.601 188.015 145.284C201.668 174.966 237.283 203.755 253.002 212.874C267.194 221.1 285.967 227.582 304.83 224.542C329.845 220.519 371.568 206.258 400.132 183.192C428.696 160.08 419.264 88.3326 419.264 88.3326C419.264 88.3326 440.059 80.0626 460.403 70.3621C460.403 70.3174 460.403 70.2727 460.403 70.228C460.403 70.228 471.631 66.0259 475 58.4712C475 58.5159 450.119 46.8932 397.258 57.3983Z" fill="url(#paint7_radial_1_4986)"/>
<path opacity="0.5" d="M267.418 187.975C267.418 187.975 273.212 186.589 277.074 192.356C280.937 198.167 294.186 206.214 305.324 198.167C316.462 190.076 314.351 161.869 301.551 155.7C290.323 150.291 282.419 152.213 278.512 155.7C274.694 159.187 267.418 187.975 267.418 187.975Z" fill="#1169B0"/>
<path opacity="0.5" d="M189.138 10.9522C189.138 10.9522 201.713 27.5369 228.57 46.1332C255.427 64.7295 302.135 85.2034 298.048 112.83C293.961 140.501 275.772 162.763 275.772 162.763C275.772 162.763 291.985 155.7 305.818 168.708C305.818 168.708 299.979 133.572 307.39 112.293C314.8 91.0147 368.38 90.076 405.252 81.7166C431.301 75.8158 452.275 73.4019 462.065 69.5574C463.143 69.0657 464.625 68.3505 466.242 67.367C466.377 67.2776 466.467 67.1882 466.602 67.1435C469.79 65.1319 473.383 62.2262 475.045 58.5159C475.045 58.5159 450.164 46.9379 397.303 57.3983C344.442 67.8587 285.832 50.4247 254.709 28.2968C223.585 6.12427 208.719 2.14573 183.838 0C183.838 0 182.67 4.78319 189.138 10.9522Z" fill="#00D6FD"/>
<g opacity="0.5">
<path opacity="0.5" d="M247.702 167.859C241.684 167.859 235.801 166.652 230.322 164.238C207.147 154.09 197.177 125.659 208.135 100.849C216.219 82.5213 233.735 70.675 252.688 70.675C258.706 70.675 264.589 71.882 270.068 74.296C281.296 79.2133 289.785 88.5114 293.961 100.447C298.183 112.427 297.554 125.659 292.255 137.684C284.171 156.013 266.655 167.859 247.702 167.859Z" fill="#1169B0"/>
<path opacity="0.5" d="M252.643 72.0161C258.481 72.0161 264.14 73.2231 269.485 75.5477C291.985 85.3823 301.641 113.053 290.997 137.148C287.09 146.044 280.847 153.509 272.943 158.739C265.263 163.836 256.55 166.562 247.703 166.562C241.864 166.562 236.205 165.355 230.861 163.031C208.36 153.196 198.704 125.525 209.348 101.431C213.255 92.5347 219.498 85.0693 227.402 79.8391C235.082 74.6983 243.795 72.0161 252.643 72.0161ZM252.643 69.334C233.825 69.334 215.411 81.0014 206.878 100.313C195.605 125.838 205.845 154.984 229.783 165.445C235.576 167.993 241.684 169.2 247.747 169.2C266.565 169.2 284.979 157.532 293.512 138.221C304.785 112.696 294.545 83.5494 270.607 73.089C264.769 70.541 258.706 69.334 252.643 69.334Z" fill="#00365B"/>
</g>
<g opacity="0.5">
<path opacity="0.5" d="M297.555 109.701C297.51 109.209 297.42 108.762 297.33 108.27L282.15 110.818L282.419 111.667L297.555 109.701Z" fill="#1169B0"/>
<path opacity="0.5" d="M295.174 99.866L280.533 105.096V105.901L295.668 101.386C295.533 100.894 295.354 100.358 295.174 99.866Z" fill="#1169B0"/>
<path opacity="0.5" d="M228.84 99.2847L217.342 84.7563C216.938 85.1587 216.534 85.6057 216.175 86.008L227.987 99.9553L228.84 99.2847Z" fill="#1169B0"/>
<path opacity="0.5" d="M221.968 111.802L222.237 110.684L204.318 107.421C204.138 108.046 203.958 108.717 203.824 109.343L221.968 111.802Z" fill="#1169B0"/>
<path opacity="0.5" d="M291.312 91.5513C291.087 91.149 290.818 90.7467 290.593 90.389C290.413 90.1655 290.234 89.942 290.054 89.7185L277.12 99.1508L277.883 99.9555L291.312 91.5513Z" fill="#1169B0"/>
<path opacity="0.5" d="M225.067 103.576L225.471 102.95L209.438 95.2615C209.168 95.7532 208.899 96.2449 208.629 96.7367L225.067 103.576Z" fill="#1169B0"/>
<path opacity="0.5" d="M223.675 130.532L223.136 129.325L204.093 135.002C204.273 135.673 204.453 136.343 204.677 137.014L223.675 130.532Z" fill="#1169B0"/>
<path opacity="0.5" d="M221.294 120.653H202.342C202.342 121.323 202.342 121.994 202.342 122.664L221.699 121.815L221.294 120.653Z" fill="#1169B0"/>
<path opacity="0.5" d="M245.636 85.2034L250.173 84.9351L248.421 69.5127C245.636 69.7809 242.852 70.2726 240.112 71.0326L245.636 85.2034Z" fill="#1169B0"/>
<path opacity="0.5" d="M280.578 131.516L279.814 131.605L293.063 139.204C293.198 138.892 293.378 138.579 293.512 138.266C293.602 138.042 293.692 137.819 293.782 137.64L280.578 131.516Z" fill="#1169B0"/>
<path opacity="0.5" d="M266.924 71.6585C264.544 70.8538 262.074 70.2727 259.649 69.8704L257.044 85.7845L261.715 86.9021L266.924 71.6585Z" fill="#1169B0"/>
<path opacity="0.5" d="M250.263 69.3787L251.206 85.0694L255.697 85.4717L258.257 69.6469C255.607 69.334 252.912 69.2446 250.263 69.3787Z" fill="#1169B0"/>
<path opacity="0.5" d="M284.395 83.8625C283.901 83.4155 283.407 83.0131 282.868 82.5661C282.554 82.2979 282.284 82.0744 281.97 81.8062L272 93.6524L273.257 94.5464L284.395 83.8625Z" fill="#1169B0"/>
<path opacity="0.5" d="M274.694 76.1736C274.29 75.9054 273.931 75.5924 273.527 75.3242L266.565 89.4056L267.419 89.942L274.694 76.1736Z" fill="#1169B0"/>
<path opacity="0.5" d="M283.228 125.525L282.195 127.001L296.252 130.443C296.432 129.772 296.611 129.057 296.791 128.386L283.228 125.525Z" fill="#1169B0"/>
<path opacity="0.5" d="M269.485 142.512L268.497 143.049L279.859 156.817C280.398 156.37 280.892 155.879 281.431 155.387L269.485 142.512Z" fill="#1169B0"/>
<path opacity="0.5" d="M270.428 163.388C271.955 162.539 273.482 161.645 274.964 160.662L270.428 163.388Z" fill="#1169B0"/>
<path opacity="0.5" d="M275.772 137.595L275.054 138.4L287.898 148.011C288.303 147.474 288.662 146.938 289.021 146.357L275.772 137.595Z" fill="#1169B0"/>
<path opacity="0.5" d="M238.721 146.267L237.328 145.507L229.559 165.355C229.648 165.4 229.738 165.445 229.783 165.489C230.547 165.802 231.31 166.115 232.074 166.428L238.721 146.267Z" fill="#1169B0"/>
<path opacity="0.5" d="M282.599 117.255L282.464 118.194L297.958 119.669C298.003 119.088 298.003 118.507 298.048 117.926L282.599 117.255Z" fill="#1169B0"/>
<path opacity="0.5" d="M227.582 137.595L226.459 136.522L208.54 145.999C208.899 146.67 209.303 147.296 209.707 147.966L227.582 137.595Z" fill="#1169B0"/>
<path opacity="0.5" d="M234.678 92.7136C234.274 92.4007 228.435 82.9237 225.381 77.917C224.573 78.4981 223.72 79.0793 222.956 79.7051L233.196 93.6077C233.151 93.6524 235.217 93.1606 234.678 92.7136Z" fill="#1169B0"/>
<path opacity="0.5" d="M239.439 87.8855L243.93 86.3656L238.091 71.6584C235.801 72.4184 233.6 73.3124 231.444 74.3853L238.046 87.8855H239.439Z" fill="#1169B0"/>
<path opacity="0.5" d="M262.343 146.983H261.086L268.002 164.596C268.811 164.193 269.619 163.791 270.428 163.389L262.343 146.983Z" fill="#1169B0"/>
<path opacity="0.5" d="M231.175 142.289L230.322 141.574L217.432 157.398C217.881 157.801 218.375 158.248 218.824 158.65L231.175 142.289Z" fill="#1169B0"/>
<path opacity="0.5" d="M247.568 148.905L246.445 148.637L243.616 169.021C244.379 169.111 245.143 169.155 245.861 169.155L247.568 148.905Z" fill="#1169B0"/>
<path opacity="0.5" d="M255.697 149.039H253.99L255.966 168.44C256.909 168.261 257.808 168.082 258.706 167.859L255.697 149.039Z" fill="#1169B0"/>
</g>
<g opacity="0.5">
<path opacity="0.5" d="M302.809 133.035C302.854 132.543 302.944 132.096 303.034 131.605L318.214 134.153L317.944 135.002L302.809 133.035Z" fill="#1169B0"/>
<path opacity="0.5" d="M305.189 123.245L319.831 128.476V129.28L304.695 124.721C304.875 124.229 305.01 123.737 305.189 123.245Z" fill="#1169B0"/>
<path opacity="0.5" d="M371.568 122.619L383.066 108.091C383.47 108.493 383.874 108.94 384.233 109.343L372.422 123.29L371.568 122.619Z" fill="#1169B0"/>
<path opacity="0.5" d="M378.395 135.136L378.125 134.019L396.045 130.755C396.225 131.381 396.405 132.052 396.539 132.678L378.395 135.136Z" fill="#1169B0"/>
<path opacity="0.5" d="M309.097 114.931C309.321 114.528 309.591 114.126 309.815 113.768C309.995 113.545 310.175 113.321 310.354 113.098L323.289 122.53L322.525 123.335L309.097 114.931Z" fill="#1169B0"/>
<path opacity="0.5" d="M375.341 126.911L374.937 126.285L390.97 118.596C391.24 119.088 391.509 119.58 391.779 120.071L375.341 126.911Z" fill="#1169B0"/>
<path opacity="0.5" d="M376.733 153.867L377.272 152.66L396.315 158.337C396.135 159.007 395.956 159.678 395.731 160.349L376.733 153.867Z" fill="#1169B0"/>
<path opacity="0.5" d="M379.114 144.032H398.066C398.066 144.703 398.066 145.373 398.066 146.044L378.709 145.194L379.114 144.032Z" fill="#1169B0"/>
<path opacity="0.5" d="M354.727 108.583L350.19 108.315L351.942 92.8921C354.727 93.1603 357.511 93.652 360.251 94.412L354.727 108.583Z" fill="#1169B0"/>
<path opacity="0.5" d="M319.831 154.895L320.594 154.984L307.345 162.584C307.21 162.271 307.031 161.958 306.896 161.645C306.806 161.421 306.716 161.198 306.626 161.019L319.831 154.895Z" fill="#1169B0"/>
<path opacity="0.5" d="M333.438 95.0379C335.819 94.2332 338.289 93.6521 340.714 93.2498L343.319 109.164L338.648 110.281L333.438 95.0379Z" fill="#1169B0"/>
<path opacity="0.5" d="M350.101 92.7581L349.158 108.449L344.666 108.851L342.106 93.0263C344.801 92.7134 347.451 92.624 350.101 92.7581Z" fill="#1169B0"/>
<path opacity="0.5" d="M316.013 107.242C316.507 106.795 317.001 106.393 317.54 105.945C317.855 105.677 318.124 105.454 318.438 105.186L328.409 117.032L327.151 117.926L316.013 107.242Z" fill="#1169B0"/>
<path opacity="0.5" d="M325.714 99.553C326.118 99.2847 326.477 98.9718 326.882 98.7036L333.798 112.74L332.945 113.277L325.714 99.553Z" fill="#1169B0"/>
<path opacity="0.5" d="M317.136 148.905L318.169 150.38L304.111 153.822C303.932 153.152 303.752 152.436 303.572 151.766L317.136 148.905Z" fill="#1169B0"/>
<path opacity="0.5" d="M330.879 165.892L331.867 166.428L320.504 180.197C319.965 179.75 319.471 179.258 318.932 178.766L330.879 165.892Z" fill="#1169B0"/>
<path opacity="0.5" d="M329.98 186.768C328.453 185.919 326.926 185.024 325.444 184.041L329.98 186.768Z" fill="#1169B0"/>
<path opacity="0.5" d="M324.636 160.974L325.355 161.779L312.51 171.39C312.106 170.854 311.747 170.317 311.387 169.736L324.636 160.974Z" fill="#1169B0"/>
<path opacity="0.5" d="M361.643 169.647L363.035 168.887L370.85 188.735C370.76 188.779 370.67 188.824 370.625 188.869C369.862 189.182 369.098 189.495 368.335 189.808L361.643 169.647Z" fill="#1169B0"/>
<path opacity="0.5" d="M317.765 140.635L317.899 141.574L302.405 143.049C302.36 142.468 302.36 141.886 302.315 141.305L317.765 140.635Z" fill="#1169B0"/>
<path opacity="0.5" d="M372.826 160.974L373.949 159.902L391.869 169.379C391.509 170.049 391.105 170.675 390.701 171.345L372.826 160.974Z" fill="#1169B0"/>
<path opacity="0.5" d="M365.73 116.093C366.134 115.78 371.973 106.303 375.027 101.296C375.835 101.878 376.689 102.459 377.452 103.084L367.212 116.987C367.257 117.032 365.146 116.495 365.73 116.093Z" fill="#1169B0"/>
<path opacity="0.5" d="M360.97 111.22L356.479 109.7L362.272 95.0378C364.563 95.7978 366.763 96.6918 368.919 97.7647L362.317 111.265H360.97V111.22Z" fill="#1169B0"/>
<path opacity="0.5" d="M338.02 170.362H339.277L332.406 187.975C331.597 187.573 330.789 187.17 329.98 186.768L338.02 170.362Z" fill="#1169B0"/>
<path opacity="0.5" d="M369.188 165.668L370.042 164.953L382.976 180.778C382.527 181.18 382.033 181.627 381.584 182.03L369.188 165.668Z" fill="#1169B0"/>
<path opacity="0.5" d="M352.84 172.284L353.963 172.016L356.793 192.401C356.029 192.49 355.266 192.535 354.547 192.535L352.84 172.284Z" fill="#1169B0"/>
<path opacity="0.5" d="M344.712 172.418H346.418L344.442 191.819C343.499 191.641 342.601 191.462 341.703 191.238L344.712 172.418Z" fill="#1169B0"/>
</g>
<path opacity="0.5" d="M398.066 151.364C393.8 178.766 369.952 196.916 343.678 192.535C317.405 188.154 298.542 161.511 302.809 134.108C307.075 106.705 330.564 88.3327 356.793 92.7135C383.066 97.0944 402.333 123.961 398.066 151.364Z" fill="#1169B0" stroke="#00365B" stroke-width="6" stroke-miterlimit="10"/>
<path d="M252.283 152.839C272.027 152.839 288.033 136.907 288.033 117.255C288.033 97.6031 272.027 81.6719 252.283 81.6719C232.539 81.6719 216.534 97.6031 216.534 117.255C216.534 136.907 232.539 152.839 252.283 152.839Z" fill="#1169B0"/>
<path d="M346.957 173.849C366.626 173.849 382.572 157.978 382.572 138.4C382.572 118.822 366.626 102.95 346.957 102.95C327.287 102.95 311.342 118.822 311.342 138.4C311.342 157.978 327.287 173.849 346.957 173.849Z" fill="#1169B0"/>
<path opacity="0.7" d="M259.874 179.347C270.514 179.347 279.141 170.761 279.141 160.17C279.141 149.578 270.514 140.992 259.874 140.992C249.233 140.992 240.606 149.578 240.606 160.17C240.606 170.761 249.233 179.347 259.874 179.347Z" fill="#1169B0"/>
<path d="M251.205 149.978C269.535 149.978 284.395 135.187 284.395 116.942C284.395 98.6974 269.535 83.907 251.205 83.907C232.875 83.907 218.016 98.6974 218.016 116.942C218.016 135.187 232.875 149.978 251.205 149.978Z" fill="url(#paint8_radial_1_4986)"/>
<path opacity="0.5" d="M228.929 100.671C241.28 88.3774 261.266 88.3774 273.616 100.671C279.949 106.974 283.003 115.288 282.868 123.558C284.934 113.545 282.06 102.772 274.245 94.9934C261.894 82.7001 241.909 82.7001 229.558 94.9934C223.54 100.984 220.486 108.762 220.306 116.585C221.519 110.729 224.393 105.186 228.929 100.671Z" fill="white"/>
<path d="M215.321 236.701L212.582 232.767L217.746 224.095L285.877 224.408C285.877 224.408 289.246 226.375 292.165 224.408L359.442 225.793L366.314 234.823L327.87 244.077L215.321 236.701Z" fill="white"/>
<path opacity="0.3" d="M214.019 230.398L215.68 227.626H283.991C283.991 227.626 286.82 229.951 290.054 229.012C293.288 228.073 293.737 227.626 293.737 227.626L362.451 229.683L363.978 231.649L314.441 256.683L246.804 246.982L214.019 230.398Z" fill="#6D6D6D"/>
<path d="M209.572 231.471L210.47 230.443L283.946 229.683C283.946 229.683 289.021 232.052 294.455 229.683L367.841 232.052L368.829 232.901L287.674 245.507L248.511 238.221L209.572 231.471Z" fill="#E2E2E2"/>
<path d="M283.946 230.398C283.946 230.398 288.886 234.064 294.455 230.398L292.165 329.861C292.165 329.861 290.997 331.203 288.168 331.203C285.338 331.203 283.946 329.861 283.946 329.861V230.398Z" fill="#E2E2E2"/>
<path d="M221.653 325.794L209.572 231.471L283.946 230.398V329.861L221.653 325.794Z" fill="#F2F2F2"/>
<path d="M356.747 325.794L368.829 232.857L294.455 230.398L292.165 329.861L356.747 325.794Z" fill="#F2F2F2"/>
<path opacity="0.3" d="M364.383 265.802L293.557 269.96C293.557 269.96 291.312 273.044 283.991 271.122C283.991 271.122 244.289 275.95 243.122 280.152C241.909 284.399 245.547 285.427 240.292 287.081C235.038 288.735 235.352 293.026 241.011 296.468C246.715 299.91 250.308 303.755 249.095 307.644C247.882 311.533 247.882 313.724 255.248 319.088C262.568 324.452 283.991 329.906 283.991 329.906C283.991 329.906 285.024 331.247 288.393 331.247C291.132 331.247 292.21 329.906 292.21 329.906C292.21 329.906 298.228 329.861 302.27 329.28C306.312 328.699 363.979 268.574 363.979 268.574L364.383 265.802Z" fill="#6D6D6D"/>
<path d="M440.643 288.154C437.499 281.717 422.633 252.928 410.507 229.549L366.539 255.655C369.503 260.528 370.985 264.73 368.47 266.607C362.003 271.435 332.9 269.11 303.663 272.284C274.425 275.458 245.861 277.962 245.771 281.761C245.682 285.561 260.772 288.064 275.099 289.763C289.426 291.462 300.564 292.892 301.821 294.189C311.432 303.979 244.379 284.399 240.786 289.584C237.957 293.742 247.298 298.435 266.97 303.8C271.236 304.962 285.294 308.628 288.213 309.298C299.8 312.159 297.824 316.227 283.632 313.098C267.958 309.611 252.149 306.616 250.847 308.851C249.589 311.086 250.038 314.35 279.41 324.095C308.603 333.84 380.731 337.327 406.869 328.386C433.008 319.49 437.499 308.404 437.499 308.404C439.835 312.606 435.613 315.87 435.613 315.87C442.619 312.606 441.272 302.95 441.272 302.95C445.269 306.75 440.643 312.606 440.643 312.606C445.269 309.879 446.122 299.419 440.643 288.154Z" fill="url(#paint9_radial_1_4986)"/>
<path d="M243.436 142.959C254.399 142.959 263.287 134.113 263.287 123.201C263.287 112.288 254.399 103.442 243.436 103.442C232.473 103.442 223.585 112.288 223.585 123.201C223.585 134.113 232.473 142.959 243.436 142.959Z" fill="url(#paint10_radial_1_4986)" stroke="#008E07" stroke-width="1.8917" stroke-miterlimit="10"/>
<path opacity="0.7" d="M321.402 191.417C332.043 191.417 340.669 182.831 340.669 172.239C340.669 161.648 332.043 153.062 321.402 153.062C310.761 153.062 302.135 161.648 302.135 172.239C302.135 182.831 310.761 191.417 321.402 191.417Z" fill="#1169B0"/>
<path d="M347.586 170.63C365.916 170.63 380.775 155.84 380.775 137.595C380.775 119.35 365.916 104.56 347.586 104.56C329.256 104.56 314.396 119.35 314.396 137.595C314.396 155.84 329.256 170.63 347.586 170.63Z" fill="url(#paint11_radial_1_4986)"/>
<path opacity="0.5" d="M248.531 132.998C253.294 127.732 252.866 119.62 247.575 114.88C242.284 110.14 234.135 110.566 229.372 115.832C224.61 121.098 225.038 129.21 230.329 133.95C235.619 138.69 243.769 138.264 248.531 132.998Z" fill="#3D9926"/>
<path opacity="0.4" d="M265.083 155.7L252.193 140.143C252.058 140.232 251.924 140.322 251.789 140.411L268.496 165.4L267.418 166.696L247.433 144.479C247.343 144.569 247.298 144.703 247.208 144.792L267.373 170.854C273.93 168.395 278.556 162.137 278.556 154.761C278.556 145.284 270.832 137.55 261.265 137.55C260.322 137.55 259.379 137.64 258.481 137.774L265.083 155.7Z" fill="white"/>
<path opacity="0.4" d="M325.264 167.769L312.375 152.213C312.24 152.302 312.105 152.392 311.971 152.481L328.678 177.47L327.6 178.766L307.614 156.549C307.524 156.638 307.479 156.773 307.39 156.862L327.555 182.924C334.112 180.465 338.738 174.207 338.738 166.831C338.738 157.354 331.013 149.62 321.447 149.62C320.504 149.62 319.561 149.71 318.662 149.844L325.264 167.769Z" fill="white"/>
<path opacity="0.4" d="M261.311 171.927C270.86 171.927 278.601 164.221 278.601 154.716C278.601 145.211 270.86 137.506 261.311 137.506C251.761 137.506 244.02 145.211 244.02 154.716C244.02 164.221 251.761 171.927 261.311 171.927Z" fill="white"/>
<path opacity="0.4" d="M321.672 184.131C331.221 184.131 338.963 176.425 338.963 166.92C338.963 157.415 331.221 149.709 321.672 149.709C312.122 149.709 304.381 157.415 304.381 166.92C304.381 176.425 312.122 184.131 321.672 184.131Z" fill="white"/>
<path d="M239.197 134.869C244.902 134.853 249.515 130.238 249.499 124.559C249.484 118.881 244.847 114.29 239.142 114.305C233.437 114.32 228.825 118.936 228.84 124.614C228.855 130.293 233.493 134.884 239.197 134.869Z" fill="#102023"/>
<path d="M261.714 139.025C270.158 139.025 276.984 145.865 276.984 154.224C276.984 162.584 270.113 169.423 261.714 169.423C253.271 169.423 246.444 162.584 246.444 154.224C246.444 145.865 253.271 139.025 261.714 139.025ZM261.714 135.449C251.295 135.449 242.852 143.853 242.852 154.224C242.852 164.595 251.295 172.999 261.714 172.999C272.134 172.999 280.577 164.595 280.577 154.224C280.577 143.853 272.134 135.449 261.714 135.449Z" fill="black"/>
<path d="M235.716 121.013C237.017 119.621 236.261 116.816 234.027 114.748C231.794 112.679 228.928 112.13 227.627 113.522C226.326 114.914 227.082 117.719 229.316 119.788C231.549 121.856 234.415 122.405 235.716 121.013Z" fill="white"/>
<path opacity="0.3" d="M254.484 124.139C260.437 124.139 265.263 119.256 265.263 113.232C265.263 107.208 260.437 102.324 254.484 102.324C248.531 102.324 243.705 107.208 243.705 113.232C243.705 119.256 248.531 124.139 254.484 124.139Z" fill="white"/>
<path d="M291.132 152.258C291.132 152.258 280.219 150.738 270.652 159.633C261.086 168.574 258.391 184.622 262.164 198.123C262.164 198.123 262.523 189.808 268.362 187.483C274.2 185.203 292.345 187.841 297.824 179.258C297.824 179.258 296.611 184.309 289.83 186.142C283.048 187.93 276.985 188.064 276.985 188.064C276.985 188.064 282.06 196.737 291.671 197.363C301.282 197.988 306.447 189.987 308.154 185.919C309.86 181.806 311.073 176.889 307.794 166.741C304.516 156.594 297.554 153.33 291.132 152.258Z" fill="url(#paint12_linear_1_4986)"/>
<path d="M338.828 162.494C350.436 162.494 359.847 153.128 359.847 141.573C359.847 130.019 350.436 120.653 338.828 120.653C327.22 120.653 317.81 130.019 317.81 141.573C317.81 153.128 327.22 162.494 338.828 162.494Z" fill="url(#paint13_radial_1_4986)" stroke="#008E07" stroke-width="2" stroke-miterlimit="10"/>
<path opacity="0.5" d="M344.188 151.424C349.249 145.828 348.794 137.208 343.171 132.17C337.549 127.132 328.888 127.585 323.827 133.182C318.766 138.778 319.221 147.398 324.843 152.436C330.466 157.474 339.127 157.021 344.188 151.424Z" fill="#3D9926"/>
<path d="M333.739 153.42C339.791 153.404 344.684 148.508 344.668 142.484C344.652 136.46 339.732 131.589 333.68 131.605C327.628 131.621 322.735 136.518 322.751 142.542C322.767 148.566 327.687 153.436 333.739 153.42Z" fill="#102023"/>
<path d="M331.29 139.283C332.507 137.982 331.784 135.345 329.677 133.395C327.57 131.445 324.876 130.919 323.66 132.221C322.444 133.522 323.166 136.159 325.273 138.109C327.38 140.059 330.074 140.585 331.29 139.283Z" fill="white"/>
<path opacity="0.7" d="M261.984 197.541C261.984 197.541 256.101 171.569 274.56 160.259C291.402 149.933 301.237 159.544 302.09 164.461C302.764 168.35 299.306 177.112 288.617 177.38C277.973 177.649 260.951 181.851 261.984 197.541Z" fill="#FFE564"/>
<path d="M307.39 112.293C307.345 113.366 309.77 101.654 336.448 94.144C363.125 86.5892 395.192 86.5892 417.738 79.3027C440.283 72.0161 409.788 83.8624 379.832 82.2084C349.876 80.5544 329.307 81.9401 324.95 78.8557C324.95 78.8557 325.714 80.5544 327.375 81.8507C329.037 83.1471 325.893 82.9236 324.501 79.8391L323.558 79.8838C323.558 79.8838 323.333 84.22 322.75 84.22C322.166 84.22 322.525 81.6272 322.525 81.6272C322.525 81.6272 308.019 99.9553 307.39 112.293Z" fill="#00E1FF"/>
<path d="M298.048 112.83C297.599 113.813 300.204 95.2615 280.847 80.1967C259.02 63.2097 230.052 49.8883 212.312 34.1976C194.572 18.507 217.746 41.5736 245.861 51.9446C273.976 62.3156 292.255 71.8373 297.509 70.7197C297.509 70.7197 296.117 71.9714 294.051 72.5078C291.985 72.9996 294.994 74.0724 297.509 71.7926L298.363 72.1949C298.363 72.1949 296.836 76.2629 297.375 76.4864C297.914 76.7099 298.632 74.1618 298.632 74.1618C298.632 74.1618 303.303 101.296 298.048 112.83Z" fill="#00E1FF"/>
<path opacity="0.3" d="M352.796 143.049C359.517 143.049 364.967 137.545 364.967 130.755C364.967 123.966 359.517 118.462 352.796 118.462C346.074 118.462 340.625 123.966 340.625 130.755C340.625 137.545 346.074 143.049 352.796 143.049Z" fill="white"/>
<path d="M321.716 151.274C330.16 151.274 336.986 158.113 336.986 166.473C336.986 174.832 330.115 181.672 321.716 181.672C313.273 181.672 306.446 174.832 306.446 166.473C306.446 158.113 313.273 151.274 321.716 151.274ZM321.716 147.698C311.297 147.698 302.854 156.102 302.854 166.473C302.854 176.844 311.297 185.248 321.716 185.248C332.136 185.248 340.579 176.844 340.579 166.473C340.579 156.102 332.136 147.698 321.716 147.698Z" fill="black"/>
<path d="M277.074 155.119C277.074 155.119 292.703 146.804 304.336 160.393L308.333 155.163C308.333 155.163 293.961 141.171 277.029 149.888V155.119H277.074Z" fill="black"/>
<path d="M297.015 322.798C296.611 325.033 294.725 326.509 294.725 326.509C296.252 325.793 297.374 324.765 298.138 323.558C297.779 323.29 297.419 323.022 297.015 322.798Z" fill="url(#paint14_radial_1_4986)"/>
<path opacity="0.3" d="M370.715 274.609C360.565 275.324 274.784 278.006 274.155 280.733C273.527 283.46 322.256 286.187 321.492 295.53C320.729 304.783 297.734 300.715 295.713 304.515C293.692 308.315 381.674 321.77 401.345 314.707C420.971 307.644 426.271 270.586 370.715 274.609Z" fill="#0080FF"/>
<path d="M373.455 321.055C329.577 317.747 286.461 306.214 270.473 301.028C254.484 295.843 242.762 292.892 244.155 289.987C245.547 287.081 291.177 297.05 299.037 298.57C306.896 300.089 311.657 297.72 311.657 294.725C311.657 291.73 298.767 288.333 276.85 286.41C254.933 284.488 245.996 283.773 247.298 280.331C246.31 280.823 245.771 281.314 245.771 281.806C245.682 285.606 260.772 288.109 275.099 289.808C289.426 291.506 300.564 292.937 301.821 294.233C311.432 304.023 244.379 284.443 240.786 289.629C237.957 293.786 247.298 298.48 266.97 303.844C271.236 305.007 285.294 308.672 288.213 309.343C299.8 312.204 297.824 316.272 283.632 313.143C267.958 309.656 252.149 306.661 250.847 308.896C249.589 311.131 250.038 314.394 279.41 324.139C308.603 333.885 380.731 337.371 406.869 328.431C421.825 323.335 429.685 317.523 433.682 313.5L431.256 309.566C423.172 316.674 404.938 323.424 373.455 321.055Z" fill="#1169B0"/>
<path d="M464.535 333.84C464.491 333.884 464.446 333.884 464.446 333.884C464.446 333.884 464.491 333.884 464.535 333.84Z" fill="#1169B0"/>
<path d="M464.894 333.661C464.849 333.617 464.849 333.572 464.804 333.572C464.67 333.706 464.536 333.796 464.491 333.841C464.67 333.796 464.804 333.706 464.894 333.661Z" fill="#1169B0"/>
<path d="M440.642 288.154C436.825 280.331 415.941 239.964 403.411 215.869L392.542 221.547C415.582 237.193 437.454 293.831 436.061 301.788C435.612 304.247 434.04 307.063 431.121 309.745C432.064 310.863 433.007 312.025 433.95 313.187C436.69 310.326 437.454 308.449 437.454 308.449C439.34 311.891 436.87 314.707 435.927 315.601C435.972 315.646 435.972 315.646 436.016 315.691C442.529 312.248 441.271 302.995 441.271 302.995C445.268 306.795 440.642 312.651 440.642 312.651C445.268 309.879 446.122 299.419 440.642 288.154Z" fill="#1169B0"/>
<path d="M273.392 388.377L273.886 389.808C273.886 389.808 273.796 389.316 273.392 388.377Z" fill="#DD9300"/>
<path opacity="0.7" d="M359.442 225.749L363.889 231.605L367.841 231.962L368.829 232.812L366 254.761C366 254.761 372.512 263.523 368.47 266.607C364.428 269.692 353.424 269.736 347.451 269.96C341.523 270.183 317.63 270.72 310.309 271.658C302.989 272.553 340.49 271.435 357.915 271.658C375.341 271.882 394.429 271.077 401.839 274.251C409.249 277.47 400.132 266.741 387.916 261.243C375.7 255.744 371.614 239.428 371.614 231.56C371.614 223.692 371.479 222.396 371.479 222.396L359.442 225.749Z" fill="#1169B0"/>
<path opacity="0.3" d="M247.433 144.434C248.331 145.239 252.103 138.936 259.738 138.4C266.79 137.908 271.191 140.992 271.954 141.216C272.763 141.395 268.317 135.673 258.885 136.567C249.454 137.416 247.433 144.434 247.433 144.434Z" fill="white"/>
<path d="M251.789 140.366C252.373 140.992 256.909 138.712 256.28 137.953C255.652 137.148 250.756 139.338 251.789 140.366Z" fill="white"/>
<path opacity="0.3" d="M305.908 159.723C306.806 160.081 310.085 153.375 316.866 151.364C323.648 149.352 331.552 153.152 333.708 154.895C335.864 156.594 334.966 150.961 325.354 148.905C315.743 146.893 308.917 152.66 306.671 156.504C304.381 160.394 305.908 159.723 305.908 159.723Z" fill="white"/>
<path d="M310.938 152.839C311.387 154.224 315.698 151.676 314.935 150.872C314.171 150.067 310.623 152.034 310.938 152.839Z" fill="white"/>
<path opacity="0.3" d="M280.084 149.978C280.084 149.978 287 146.401 293.782 148.637C293.782 148.637 295.174 150.246 292.435 149.978C289.695 149.665 281.97 151.453 280.623 152.168C279.186 152.928 280.084 149.978 280.084 149.978Z" fill="white"/>
<path opacity="0.5" d="M375.97 142.11C375.97 124.765 361.823 110.684 344.397 110.684C335.46 110.684 327.376 114.394 321.627 120.34C327.286 111.801 336.987 106.214 347.99 106.214C365.416 106.214 379.563 120.295 379.563 137.64C379.563 146.088 376.195 153.733 370.76 159.41C374.039 154.448 375.97 148.502 375.97 142.11Z" fill="white"/>
<path opacity="0.7" d="M267.418 172.24C267.643 174.028 296.386 164.998 293.737 158.65C291.132 152.258 266.161 161.377 267.418 172.24Z" fill="#FFE564"/>
</g>
<defs>
<radialGradient id="paint0_radial_1_4986" cx="0" cy="0" r="1" gradientUnits="userSpaceOnUse" gradientTransform="translate(80.9263 161.756) rotate(-23.0116) scale(114.822 114.451)">
<stop stop-color="#0077F0"/>
<stop offset="0.9982" stop-color="#0071B8"/>
</radialGradient>
<linearGradient id="paint1_linear_1_4986" x1="203.096" y1="347.163" x2="273.904" y2="347.163" gradientUnits="userSpaceOnUse">
<stop stop-color="#F6C100"/>
<stop offset="0.5235" stop-color="#FFC400"/>
<stop offset="0.986" stop-color="#FFAA00"/>
</linearGradient>
<linearGradient id="paint2_linear_1_4986" x1="282.257" y1="358.167" x2="343.781" y2="358.167" gradientUnits="userSpaceOnUse">
<stop stop-color="#F6C100"/>
<stop offset="0.5235" stop-color="#FFC400"/>
<stop offset="0.986" stop-color="#FFAA00"/>
</linearGradient>
<radialGradient id="paint3_radial_1_4986" cx="0" cy="0" r="1" gradientUnits="userSpaceOnUse" gradientTransform="translate(283.947 277.612) scale(123.799 102.191)">
<stop offset="0.00510204" stop-color="#0CDDFD"/>
<stop offset="0.9984" stop-color="#008FE8"/>
</radialGradient>
<radialGradient id="paint4_radial_1_4986" cx="0" cy="0" r="1" gradientUnits="userSpaceOnUse" gradientTransform="translate(283.53 276.568) scale(103.67 85.5708)">
<stop stop-color="#00C5FF"/>
<stop offset="0.9982" stop-color="#0088DE"/>
</radialGradient>
<radialGradient id="paint5_radial_1_4986" cx="0" cy="0" r="1" gradientUnits="userSpaceOnUse" gradientTransform="translate(348.51 306.386) scale(89.5717 89.1551)">
<stop stop-color="#0077F0"/>
<stop offset="0.9982" stop-color="#0071B8"/>
</radialGradient>
<radialGradient id="paint6_radial_1_4986" cx="0" cy="0" r="1" gradientUnits="userSpaceOnUse" gradientTransform="translate(289.106 187.225) scale(163.998 163.235)">
<stop offset="0.00510204" stop-color="#0CDDFD"/>
<stop offset="0.9984" stop-color="#008FE8"/>
</radialGradient>
<radialGradient id="paint7_radial_1_4986" cx="0" cy="0" r="1" gradientUnits="userSpaceOnUse" gradientTransform="translate(295.652 161.312) scale(106.289 105.794)">
<stop offset="0.00510204" stop-color="#0CDDFD"/>
<stop offset="0.9984" stop-color="#008FE8"/>
</radialGradient>
<radialGradient id="paint8_radial_1_4986" cx="0" cy="0" r="1" gradientUnits="userSpaceOnUse" gradientTransform="translate(261.467 105.973) scale(50.2282 49.9946)">
<stop stop-color="white"/>
<stop offset="1" stop-color="#C9C8C8"/>
</radialGradient>
<radialGradient id="paint9_radial_1_4986" cx="0" cy="0" r="1" gradientUnits="userSpaceOnUse" gradientTransform="translate(348.49 313.246) scale(88.0662 87.6566)">
<stop stop-color="#0077F0"/>
<stop offset="0.9982" stop-color="#0071B8"/>
</radialGradient>
<radialGradient id="paint10_radial_1_4986" cx="0" cy="0" r="1" gradientUnits="userSpaceOnUse" gradientTransform="translate(233.989 113.697) scale(36.345 36.176)">
<stop stop-color="#41FF02"/>
<stop offset="1" stop-color="#008A17"/>
</radialGradient>
<radialGradient id="paint11_radial_1_4986" cx="0" cy="0" r="1" gradientUnits="userSpaceOnUse" gradientTransform="translate(356.992 128.416) scale(45.7578 45.545)">
<stop stop-color="white"/>
<stop offset="1" stop-color="#C9C8C8"/>
</radialGradient>
<linearGradient id="paint12_linear_1_4986" x1="260.516" y1="175.162" x2="309.806" y2="175.162" gradientUnits="userSpaceOnUse">
<stop stop-color="#F6C100"/>
<stop offset="0.5235" stop-color="#FFC400"/>
<stop offset="0.986" stop-color="#FFAA00"/>
</linearGradient>
<radialGradient id="paint13_radial_1_4986" cx="0" cy="0" r="1" gradientUnits="userSpaceOnUse" gradientTransform="translate(328.868 131.532) scale(38.4263 38.2476)">
<stop stop-color="#41FF02"/>
<stop offset="1" stop-color="#008A17"/>
</radialGradient>
<radialGradient id="paint14_radial_1_4986" cx="0" cy="0" r="1" gradientUnits="userSpaceOnUse" gradientTransform="translate(296.546 325.765) scale(1.5816 1.57426)">
<stop stop-color="#0077F0"/>
<stop offset="0.9982" stop-color="#0071B8"/>
</radialGradient>
<clipPath id="clip0_1_4986">
<rect width="480" height="400" fill="white"/>
</clipPath>
</defs>
</svg>
