<svg width="115" height="21" viewBox="0 0 115 21" fill="none" xmlns="http://www.w3.org/2000/svg">
<path d="M1.2769 16.4999C1.10824 16.4999 0.970238 16.4463 0.862904 16.3389C0.755571 16.2316 0.701904 16.0936 0.701904 15.9249V0.974923C0.701904 0.806255 0.755571 0.668255 0.862904 0.560922C0.970238 0.453589 1.10824 0.399922 1.2769 0.399922H7.55591C8.79791 0.399922 9.87124 0.591589 10.7759 0.974923C11.6959 1.35826 12.4089 1.94092 12.9149 2.72292C13.4362 3.48959 13.6969 4.44792 13.6969 5.59792C13.6969 6.76326 13.4362 7.72926 12.9149 8.49592C12.4089 9.24726 11.6959 9.80692 10.7759 10.1749C9.87124 10.5429 8.79791 10.7269 7.55591 10.7269H4.47391V15.9249C4.47391 16.0936 4.42024 16.2316 4.31291 16.3389C4.20557 16.4463 4.06757 16.4999 3.89891 16.4999H1.2769ZM4.40491 7.87492H7.44091C8.22291 7.87492 8.82857 7.68326 9.25791 7.29992C9.70257 6.91659 9.92491 6.34159 9.92491 5.57492C9.92491 4.90026 9.72557 4.34826 9.32691 3.91892C8.94357 3.48959 8.31491 3.27492 7.44091 3.27492H4.40491V7.87492Z" fill="white"/>
<path d="M18.6017 16.7299C17.789 16.7299 17.0607 16.5766 16.4167 16.2699C15.7727 15.9479 15.259 15.5186 14.8757 14.9819C14.4923 14.4453 14.3007 13.8473 14.3007 13.1879C14.3007 12.0993 14.7377 11.2406 15.6117 10.6119C16.501 9.98326 17.6663 9.55392 19.1077 9.32392L22.1207 8.88692V8.47292C22.1207 7.87492 21.9827 7.41492 21.7067 7.09292C21.4307 6.77092 20.9477 6.60992 20.2577 6.60992C19.7517 6.60992 19.3453 6.70959 19.0387 6.90892C18.732 7.10826 18.4943 7.36892 18.3257 7.69092C18.203 7.89026 18.0267 7.98992 17.7967 7.98992H15.6117C15.443 7.98992 15.3127 7.94392 15.2207 7.85192C15.1287 7.74459 15.0903 7.62192 15.1057 7.48392C15.1057 7.22326 15.2053 6.91659 15.4047 6.56392C15.604 6.21126 15.9107 5.86626 16.3247 5.52892C16.7387 5.17626 17.2677 4.88492 17.9117 4.65492C18.5557 4.42492 19.3453 4.30992 20.2807 4.30992C21.2467 4.30992 22.0747 4.42492 22.7647 4.65492C23.4547 4.88492 24.0067 5.20692 24.4207 5.62092C24.8347 6.03492 25.1413 6.51792 25.3407 7.06992C25.54 7.60659 25.6397 8.18926 25.6397 8.81792V15.9249C25.6397 16.0936 25.586 16.2316 25.4787 16.3389C25.3713 16.4463 25.2333 16.4999 25.0647 16.4999H22.8107C22.6573 16.4999 22.527 16.4463 22.4197 16.3389C22.3123 16.2316 22.2587 16.0936 22.2587 15.9249V15.0739C22.0593 15.3653 21.791 15.6413 21.4537 15.9019C21.1163 16.1473 20.71 16.3466 20.2347 16.4999C19.7747 16.6533 19.2303 16.7299 18.6017 16.7299ZM19.5217 14.3379C20.0277 14.3379 20.48 14.2306 20.8787 14.0159C21.2773 13.8013 21.5917 13.4716 21.8217 13.0269C22.0517 12.5823 22.1667 12.0226 22.1667 11.3479V10.9569L20.0277 11.3019C19.1997 11.4399 18.594 11.6469 18.2107 11.9229C17.8273 12.1989 17.6357 12.5363 17.6357 12.9349C17.6357 13.2263 17.72 13.4793 17.8887 13.6939C18.0727 13.9086 18.3103 14.0696 18.6017 14.1769C18.893 14.2843 19.1997 14.3379 19.5217 14.3379Z" fill="white"/>
<path d="M28.5395 20.8699C28.3708 20.8699 28.2328 20.8163 28.1255 20.7089C28.0181 20.6016 27.9645 20.4636 27.9645 20.2949V5.11492C27.9645 4.94626 28.0181 4.80826 28.1255 4.70092C28.2328 4.59359 28.3708 4.53992 28.5395 4.53992H30.7245C30.8931 4.53992 31.0311 4.59359 31.1385 4.70092C31.2458 4.80826 31.2995 4.94626 31.2995 5.11492V5.98892C31.6675 5.49826 32.1428 5.09959 32.7255 4.79292C33.3081 4.47092 34.0365 4.30992 34.9105 4.30992C35.7078 4.30992 36.3978 4.44026 36.9805 4.70092C37.5785 4.94626 38.0768 5.30659 38.4755 5.78192C38.8895 6.24192 39.2038 6.80159 39.4185 7.46092C39.6485 8.12026 39.7788 8.86392 39.8095 9.69192C39.8248 9.98326 39.8325 10.2593 39.8325 10.5199C39.8325 10.7806 39.8248 11.0643 39.8095 11.3709C39.7941 12.1529 39.6715 12.8736 39.4415 13.5329C39.2268 14.1923 38.9125 14.7596 38.4985 15.2349C38.0845 15.7103 37.5785 16.0783 36.9805 16.3389C36.3978 16.5996 35.7078 16.7299 34.9105 16.7299C34.1285 16.7299 33.4461 16.5919 32.8635 16.3159C32.2961 16.0246 31.8285 15.6336 31.4605 15.1429V20.2949C31.4605 20.4636 31.4068 20.6016 31.2995 20.7089C31.1921 20.8163 31.0618 20.8699 30.9085 20.8699H28.5395ZM33.8755 13.9699C34.4581 13.9699 34.9181 13.8473 35.2555 13.6019C35.5928 13.3413 35.8305 13.0039 35.9685 12.5899C36.1218 12.1759 36.2138 11.7236 36.2445 11.2329C36.2751 10.7576 36.2751 10.2823 36.2445 9.80692C36.2138 9.31626 36.1218 8.86392 35.9685 8.44992C35.8305 8.03592 35.5928 7.70626 35.2555 7.46092C34.9181 7.20026 34.4581 7.06992 33.8755 7.06992C33.3081 7.06992 32.8481 7.20026 32.4955 7.46092C32.1428 7.72159 31.8898 8.05126 31.7365 8.44992C31.5831 8.84859 31.4911 9.27792 31.4605 9.73792C31.4451 10.0139 31.4375 10.2976 31.4375 10.5889C31.4375 10.8803 31.4451 11.1716 31.4605 11.4629C31.4758 11.8923 31.5678 12.2986 31.7365 12.6819C31.9205 13.0499 32.1811 13.3566 32.5185 13.6019C32.8711 13.8473 33.3235 13.9699 33.8755 13.9699Z" fill="white"/>
<path d="M47.1481 16.7299C45.3847 16.7299 43.9817 16.2393 42.9391 15.2579C41.9117 14.2766 41.3674 12.8506 41.3061 10.9799C41.3061 10.8573 41.3061 10.6963 41.3061 10.4969C41.3061 10.2823 41.3061 10.1136 41.3061 9.99092C41.3674 8.81026 41.6357 7.79826 42.1111 6.95492C42.5864 6.09626 43.2534 5.44459 44.1121 4.99992C44.9707 4.53992 45.9751 4.30992 47.1251 4.30992C48.4131 4.30992 49.4864 4.57826 50.3451 5.11492C51.2191 5.63626 51.8707 6.35692 52.3001 7.27692C52.7447 8.18159 52.9671 9.22426 52.9671 10.4049V10.9339C52.9671 11.0873 52.9057 11.2176 52.7831 11.3249C52.6757 11.4323 52.5454 11.4859 52.3921 11.4859H44.8711C44.8711 11.5013 44.8711 11.5319 44.8711 11.5779C44.8711 11.6086 44.8711 11.6393 44.8711 11.6699C44.8864 12.1606 44.9784 12.6129 45.1471 13.0269C45.3311 13.4256 45.5841 13.7476 45.9061 13.9929C46.2434 14.2383 46.6421 14.3609 47.1021 14.3609C47.4854 14.3609 47.7997 14.3073 48.0451 14.1999C48.2904 14.0926 48.4897 13.9623 48.6431 13.8089C48.8117 13.6556 48.9344 13.5253 49.0111 13.4179C49.1491 13.2646 49.2564 13.1726 49.3331 13.1419C49.4251 13.0959 49.5631 13.0729 49.7471 13.0729H52.1391C52.2924 13.0729 52.4151 13.1189 52.5071 13.2109C52.6144 13.2876 52.6604 13.4026 52.6451 13.5559C52.6297 13.8013 52.4994 14.1079 52.2541 14.4759C52.0241 14.8286 51.6791 15.1813 51.2191 15.5339C50.7591 15.8713 50.1841 16.1549 49.4941 16.3849C48.8194 16.6149 48.0374 16.7299 47.1481 16.7299ZM44.8711 9.39292H49.3791V9.34692C49.3791 8.79492 49.2871 8.31959 49.1031 7.92092C48.9344 7.50692 48.6814 7.18492 48.3441 6.95492C48.0067 6.72492 47.6004 6.60992 47.1251 6.60992C46.6497 6.60992 46.2434 6.72492 45.9061 6.95492C45.5687 7.18492 45.3081 7.50692 45.1241 7.92092C44.9554 8.31959 44.8711 8.79492 44.8711 9.34692V9.39292Z" fill="white"/>
<path d="M55.3582 16.4999C55.2048 16.4999 55.0745 16.4463 54.9672 16.3389C54.8599 16.2316 54.8062 16.0936 54.8062 15.9249V5.11492C54.8062 4.96159 54.8599 4.83126 54.9672 4.72392C55.0745 4.60126 55.2048 4.53992 55.3582 4.53992H57.6122C57.7655 4.53992 57.8958 4.60126 58.0032 4.72392C58.1258 4.83126 58.1872 4.96159 58.1872 5.11492V6.03492C58.5705 5.55959 59.0382 5.19159 59.5902 4.93092C60.1575 4.67026 60.8092 4.53992 61.5452 4.53992H62.5342C62.6875 4.53992 62.8179 4.59359 62.9252 4.70092C63.0325 4.80826 63.0862 4.94626 63.0862 5.11492V7.09292C63.0862 7.26159 63.0325 7.39959 62.9252 7.50692C62.8179 7.61426 62.6875 7.66792 62.5342 7.66792H60.5102C59.8355 7.66792 59.3065 7.85959 58.9232 8.24292C58.5398 8.61092 58.3482 9.13992 58.3482 9.82992V15.9249C58.3482 16.0936 58.2945 16.2316 58.1872 16.3389C58.0798 16.4463 57.9418 16.4999 57.7732 16.4999H55.3582Z" fill="white"/>
<path d="M69.0563 16.7299C68.1056 16.7299 67.2853 16.6226 66.5953 16.4079C65.9206 16.1779 65.3686 15.9019 64.9393 15.5799C64.5253 15.2579 64.211 14.9359 63.9963 14.6139C63.797 14.2766 63.6896 13.9929 63.6743 13.7629C63.659 13.5943 63.7126 13.4563 63.8353 13.3489C63.958 13.2416 64.0806 13.1879 64.2033 13.1879H66.4343C66.4803 13.1879 66.5263 13.1956 66.5723 13.2109C66.6183 13.2263 66.6643 13.2646 66.7103 13.3259C66.9096 13.4639 67.1166 13.6249 67.3313 13.8089C67.546 13.9776 67.7913 14.1233 68.0673 14.2459C68.3586 14.3686 68.719 14.4299 69.1483 14.4299C69.6543 14.4299 70.0836 14.3303 70.4363 14.1309C70.789 13.9163 70.9653 13.6173 70.9653 13.2339C70.9653 12.9579 70.881 12.7279 70.7123 12.5439C70.559 12.3599 70.26 12.1913 69.8153 12.0379C69.3706 11.8846 68.7113 11.7159 67.8373 11.5319C67.0093 11.3479 66.304 11.1026 65.7213 10.7959C65.1386 10.4893 64.7016 10.1059 64.4103 9.64592C64.119 9.17059 63.9733 8.60326 63.9733 7.94392C63.9733 7.34592 64.1573 6.77092 64.5253 6.21892C64.9086 5.66692 65.4683 5.21459 66.2043 4.86192C66.9403 4.49392 67.8603 4.30992 68.9643 4.30992C69.8076 4.30992 70.5436 4.41726 71.1723 4.63192C71.8163 4.83126 72.353 5.09192 72.7823 5.41392C73.2116 5.72059 73.5336 6.04259 73.7483 6.37992C73.9783 6.70192 74.101 6.98559 74.1163 7.23092C74.1316 7.38426 74.0856 7.51459 73.9783 7.62192C73.871 7.72926 73.7483 7.78292 73.6103 7.78292H71.5633C71.4866 7.78292 71.4176 7.77526 71.3563 7.75992C71.295 7.72926 71.2413 7.69092 71.1953 7.64492C71.0113 7.52226 70.8196 7.38426 70.6203 7.23092C70.4363 7.06226 70.214 6.91659 69.9533 6.79392C69.6926 6.67126 69.3553 6.60992 68.9413 6.60992C68.4353 6.60992 68.0443 6.72492 67.7683 6.95492C67.5076 7.16959 67.3773 7.44559 67.3773 7.78292C67.3773 7.99759 67.4463 8.19692 67.5843 8.38092C67.7223 8.56492 68.006 8.73359 68.4353 8.88692C68.8646 9.04026 69.5163 9.20126 70.3903 9.36992C71.433 9.55392 72.261 9.82992 72.8743 10.1979C73.4876 10.5659 73.9246 10.9953 74.1853 11.4859C74.4613 11.9613 74.5993 12.4749 74.5993 13.0269C74.5993 13.7476 74.3846 14.3916 73.9553 14.9589C73.526 15.5109 72.8973 15.9479 72.0693 16.2699C71.2566 16.5766 70.2523 16.7299 69.0563 16.7299Z" fill="white"/>
<path d="M82.9941 16.7299C81.5988 16.7299 80.3951 16.4999 79.3831 16.0399C78.3711 15.5799 77.5815 14.8899 77.0141 13.9699C76.4468 13.0346 76.1401 11.8616 76.0941 10.4509C76.0788 9.79159 76.0711 9.13992 76.0711 8.49592C76.0711 7.83659 76.0788 7.16959 76.0941 6.49492C76.1401 5.11492 76.4468 3.95726 77.0141 3.02192C77.5968 2.07126 78.3941 1.35826 79.4061 0.882922C80.4335 0.407589 81.6295 0.169922 82.9941 0.169922C84.3435 0.169922 85.5241 0.407589 86.5361 0.882922C87.5635 1.35826 88.3685 2.07126 88.9511 3.02192C89.5338 3.95726 89.8405 5.11492 89.8711 6.49492C89.9018 7.16959 89.9171 7.83659 89.9171 8.49592C89.9171 9.13992 89.9018 9.79159 89.8711 10.4509C89.8251 11.8616 89.5185 13.0346 88.9511 13.9699C88.3838 14.8899 87.5941 15.5799 86.5821 16.0399C85.5701 16.4999 84.3741 16.7299 82.9941 16.7299ZM82.9941 13.7629C83.8835 13.7629 84.6118 13.4946 85.1791 12.9579C85.7618 12.4059 86.0685 11.5319 86.0991 10.3359C86.1298 9.66126 86.1451 9.03259 86.1451 8.44992C86.1451 7.85192 86.1298 7.22326 86.0991 6.56392C86.0838 5.76659 85.9381 5.11492 85.6621 4.60892C85.3861 4.10292 85.0181 3.73492 84.5581 3.50492C84.1135 3.25959 83.5921 3.13692 82.9941 3.13692C82.3961 3.13692 81.8671 3.25959 81.4071 3.50492C80.9471 3.73492 80.5791 4.10292 80.3031 4.60892C80.0425 5.11492 79.8968 5.76659 79.8661 6.56392C79.8508 7.22326 79.8431 7.85192 79.8431 8.44992C79.8431 9.03259 79.8508 9.66126 79.8661 10.3359C79.9121 11.5319 80.2188 12.4059 80.7861 12.9579C81.3535 13.4946 82.0895 13.7629 82.9941 13.7629Z" fill="white"/>
<path d="M95.348 16.4999C95.1333 16.4999 94.9647 16.4463 94.842 16.3389C94.7347 16.2316 94.6503 16.0936 94.589 15.9249L91.3 5.27592C91.2693 5.19926 91.254 5.12259 91.254 5.04592C91.254 4.90792 91.3 4.79292 91.392 4.70092C91.4993 4.59359 91.622 4.53992 91.76 4.53992H93.784C93.9833 4.53992 94.1367 4.59359 94.244 4.70092C94.3513 4.80826 94.4203 4.90792 94.451 4.99992L96.544 12.1069L98.775 5.04592C98.8057 4.93859 98.8747 4.83126 98.982 4.72392C99.1047 4.60126 99.2733 4.53992 99.488 4.53992H100.799C101.014 4.53992 101.175 4.60126 101.282 4.72392C101.405 4.83126 101.481 4.93859 101.512 5.04592L103.743 12.1069L105.836 4.99992C105.851 4.90792 105.913 4.80826 106.02 4.70092C106.143 4.59359 106.296 4.53992 106.48 4.53992H108.504C108.642 4.53992 108.757 4.59359 108.849 4.70092C108.956 4.79292 109.01 4.90792 109.01 5.04592C109.01 5.12259 109.002 5.19926 108.987 5.27592L105.675 15.9249C105.629 16.0936 105.545 16.2316 105.422 16.3389C105.315 16.4463 105.154 16.4999 104.939 16.4999H103.168C102.953 16.4999 102.785 16.4463 102.662 16.3389C102.539 16.2316 102.447 16.0936 102.386 15.9249L100.155 9.11692L97.878 15.9249C97.832 16.0936 97.7477 16.2316 97.625 16.3389C97.5023 16.4463 97.3337 16.4999 97.119 16.4999H95.348Z" fill="white"/>
<path d="M111.243 16.4999C111.075 16.4999 110.937 16.4463 110.829 16.3389C110.722 16.2316 110.668 16.0936 110.668 15.9249V0.744921C110.668 0.576255 110.722 0.438255 110.829 0.330923C110.937 0.223589 111.075 0.169922 111.243 0.169922H113.543C113.697 0.169922 113.827 0.223589 113.934 0.330923C114.042 0.438255 114.095 0.576255 114.095 0.744921V15.9249C114.095 16.0936 114.042 16.2316 113.934 16.3389C113.827 16.4463 113.697 16.4999 113.543 16.4999H111.243Z" fill="white"/>
</svg>
