<svg width="390" height="350" viewBox="0 0 390 350" fill="none" xmlns="http://www.w3.org/2000/svg">
<g id="img" clip-path="url(#clip0_1_5371)">
<g id="Frame 3" clip-path="url(#clip1_1_5371)">
<g id="Mask group">
<path id="Rectangle" d="M381 305L381 135C381 133.343 379.657 132 378 132L150 132C148.343 132 147 133.343 147 135L147 465" stroke="#4DA6FF" stroke-dasharray="4 4"/>
<rect id="Rectangle_2" x="98" y="92" width="234" height="333" rx="3" fill="white" stroke="#4DA6FF" stroke-dasharray="4 4"/>
<rect id="Rectangle_3" x="49" y="52" width="234" height="333" rx="3" fill="white" stroke="#4DA6FF" stroke-dasharray="4 4"/>
</g>
<g id="Group 5">
<g id="Rectangle_4" filter="url(#filter0_d_1_5371)">
<rect width="234" height="333" rx="3" fill="white"/>
<rect x="1" y="1" width="232" height="331" rx="2" stroke="#4DA6FF" stroke-width="2"/>
</g>
<g id="guarantee (1) 1" clip-path="url(#clip2_1_5371)">
<path id="Vector" d="M70.1947 57.4162C72.7019 53.6086 74.1635 49.0543 74.1635 44.164C74.1635 30.8398 63.3232 20 49.9991 20C36.675 20 25.8351 30.8398 25.8351 44.164C25.8351 49.0543 27.2968 53.6086 29.8035 57.4162L20.3516 71.2009L31.1671 69.1844L33.1841 80L42.0976 67C44.575 67.8596 47.2333 68.3279 49.9991 68.3279C52.7654 68.3279 55.4236 67.8596 57.9005 67L66.8146 80L68.831 69.1844L79.6466 71.2009L70.1947 57.4162ZM35.0952 70.9592L33.9952 65.0595L28.096 66.16L32.0767 60.3542C33.9833 62.4626 36.2561 64.2332 38.793 65.5672L35.0952 70.9592ZM29.3713 44.164C29.3713 32.7899 38.625 23.5362 49.9991 23.5362C61.3736 23.5362 70.6273 32.7899 70.6273 44.164C70.6273 55.5385 61.3736 64.7922 49.9991 64.7922C38.625 64.7922 29.3713 55.5385 29.3713 44.164V44.164ZM66.003 65.0595L64.903 70.9592L61.2056 65.5672C63.7425 64.2332 66.0153 62.4626 67.9219 60.3542L71.9026 66.1595L66.003 65.0595Z" fill="#1799E5"/>
<path id="Vector_2" d="M45.6917 49.4709L39.9422 43.7218L37.4419 46.2221L45.6917 54.4719L62.5571 37.607L60.0568 35.1067L45.6917 49.4709Z" fill="#1799E5"/>
</g>
<path id="Path" d="M19.999 107.136C19.999 103.196 22.3339 100.001 25.2091 100.001L158.789 100.001C161.666 100.001 163.999 103.192 163.999 107.136L163.999 112.865C163.999 116.806 161.664 120.001 158.789 120.001L25.2091 120.001C22.3317 120.001 19.999 116.81 19.999 112.865L19.999 107.136Z" fill="#4DA6FF"/>
<path id="Path_2" d="M19.999 148.925C19.999 146.758 23.1447 145.001 27.0182 145.001L206.98 145.001C210.856 145.001 213.999 146.756 213.999 148.925L213.999 152.076C213.999 154.244 210.853 156.001 206.98 156.001L27.0182 156.001C23.1416 156.001 19.999 154.246 19.999 152.076L19.999 148.925Z" fill="#4DA6FF"/>
<path id="Path_3" d="M19.9995 174.925C19.9995 172.758 22.6587 171.001 25.9332 171.001L178.066 171.001C181.343 171.001 184 172.756 184 174.925L184 178.076C184 180.244 181.34 182.001 178.066 182.001L25.9332 182.001C22.6561 182.001 19.9995 180.246 19.9995 178.076L19.9995 174.925Z" fill="#4DA6FF"/>
<path id="Path_4" d="M19.999 200.925C19.999 198.758 22.8204 197.001 26.2946 197.001L187.703 197.001C191.18 197.001 193.999 198.756 193.999 200.925L193.999 204.076C193.999 206.244 191.178 208.001 187.703 208.001L26.2946 208.001C22.8176 208.001 19.999 206.246 19.999 204.076L19.999 200.925Z" fill="#4DA6FF"/>
<path id="Path_5" d="M19.999 226.925C19.999 224.758 22.0096 223.001 24.4855 223.001L139.513 223.001C141.99 223.001 143.999 224.756 143.999 226.925L143.999 230.076C143.999 232.244 141.988 234.001 139.513 234.001L24.4855 234.001C22.0077 234.001 19.999 232.246 19.999 230.076L19.999 226.925Z" fill="#4DA6FF"/>
<path id="Path_6" d="M19.9995 267.925C19.9995 265.758 22.0101 264.001 24.486 264.001L139.513 264.001C141.991 264.001 144 265.756 144 267.925L144 271.076C144 273.244 141.989 275.001 139.513 275.001L24.486 275.001C22.0082 275.001 19.9995 273.246 19.9995 271.076L19.9995 267.925Z" fill="#4DA6FF"/>
<path id="Path_7" d="M200 23.9254C200 21.7579 200.227 20.0007 200.506 20.0007L213.493 20.0007C213.773 20.0007 214 21.7559 214 23.9254L214 27.0761C214 29.2436 213.773 31.0007 213.493 31.0007L200.506 31.0007C200.226 31.0007 200 29.2456 200 27.0761L200 23.9254Z" fill="#4DA6FF"/>
</g>
<rect id="Rectangle 2" x="306" y="327" width="52" height="23" fill="white"/>
</g>
<g id="Group 6">
<mask id="mask0_1_5371" style="mask-type:alpha" maskUnits="userSpaceOnUse" x="194" y="270" width="80" height="80">
<path id="Vector_3" d="M272.939 319.112C277.971 297.606 264.617 276.093 243.112 271.061C221.606 266.029 200.093 279.383 195.061 300.888C190.029 322.394 203.383 343.907 224.888 348.939C246.394 353.971 267.907 340.617 272.939 319.112Z" fill="#FDC420"/>
</mask>
<g mask="url(#mask0_1_5371)">
<path id="Vector_4" d="M272.939 319.112C277.971 297.606 264.617 276.093 243.112 271.061C221.606 266.029 200.093 279.383 195.061 300.888C190.029 322.394 203.383 343.907 224.888 348.939C246.394 353.971 267.907 340.617 272.939 319.112Z" fill="#61AC42"/>
</g>
<g id="rush 1" clip-path="url(#clip3_1_5371)">
<path id="Vector_5" d="M246.039 298.813L247.318 296.7L249.028 297.737C249.5 298.023 250.114 297.873 250.401 297.401L252.476 293.98C252.762 293.508 252.611 292.893 252.139 292.607L247.008 289.5C246.782 289.361 246.509 289.319 246.251 289.384C245.994 289.447 245.772 289.61 245.635 289.836L243.561 293.257C243.275 293.729 243.425 294.343 243.897 294.63L245.608 295.667L244.392 297.673C241.857 296.112 238.972 295.211 236 295.051V293H237C238.657 293 240 291.657 240 290C240 288.343 238.657 287 237 287H233C231.343 287 230 288.343 230 290C230 291.657 231.343 293 233 293H234V295.051C225.301 295.528 218.19 302.163 217.112 310.809C216.034 319.454 221.299 327.631 229.614 330.23C237.93 332.829 246.913 329.103 250.95 321.382C254.986 313.662 252.918 304.159 246.039 298.813ZM250.247 293.803L249.21 295.514L245.79 293.44L246.826 291.729L250.247 293.803ZM232 290C232 289.448 232.448 289 233 289H237C237.552 289 238 289.448 238 290C238 290.552 237.552 291 237 291H233C232.448 291 232 290.552 232 290ZM235 329C226.163 329 219 321.836 219 313C219 304.164 226.163 297 235 297C243.836 297 251 304.164 251 313C250.99 321.832 243.832 328.99 235 329Z" fill="white"/>
<path id="Vector_6" d="M235 299C227.268 299 221 305.268 221 313C221 320.732 227.268 327 235 327C242.732 327 249 320.732 249 313C248.992 305.271 242.729 299.008 235 299ZM227.259 322.155L227.929 321.485C228.189 321.234 228.293 320.862 228.202 320.513C228.11 320.163 227.837 319.89 227.487 319.798C227.138 319.707 226.766 319.811 226.515 320.071L225.845 320.741C224.233 318.84 223.256 316.483 223.051 314H226C226.552 314 227 313.552 227 313C227 312.448 226.552 312 226 312H223.051C223.256 309.517 224.233 307.159 225.845 305.259L226.515 305.929C226.766 306.189 227.138 306.293 227.487 306.202C227.837 306.11 228.11 305.837 228.202 305.487C228.293 305.138 228.189 304.766 227.929 304.515L227.259 303.845C229.159 302.233 231.517 301.256 234 301.051V304C234 304.552 234.448 305 235 305C235.552 305 236 304.552 236 304V301.051C238.483 301.256 240.841 302.233 242.741 303.845L242.071 304.515C241.811 304.766 241.707 305.138 241.798 305.487C241.89 305.837 242.163 306.11 242.513 306.202C242.862 306.293 243.234 306.189 243.485 305.929L244.155 305.259C245.767 307.159 246.744 309.517 246.949 312H244C243.448 312 243 312.448 243 313C243 313.552 243.448 314 244 314H246.949C246.744 316.483 245.767 318.84 244.155 320.741L243.485 320.071C243.093 319.692 242.469 319.697 242.083 320.083C241.697 320.469 241.692 321.093 242.071 321.485L242.741 322.155C240.841 323.767 238.483 324.744 236 324.949V322C236 321.448 235.552 321 235 321C234.448 321 234 321.448 234 322V324.949C231.517 324.744 229.159 323.767 227.259 322.155Z" fill="white"/>
<path id="Vector_7" d="M214 313C214 312.448 213.552 312 213 312H204C203.448 312 203 312.448 203 313C203 313.552 203.448 314 204 314H213C213.552 314 214 313.552 214 313Z" fill="white"/>
<path id="Vector_8" d="M210 304H216C216.552 304 217 303.552 217 303C217 302.448 216.552 302 216 302H210C209.448 302 209 302.448 209 303C209 303.552 209.448 304 210 304Z" fill="white"/>
<path id="Vector_9" d="M216 322H210C209.448 322 209 322.448 209 323C209 323.552 209.448 324 210 324H216C216.552 324 217 323.552 217 323C217 322.448 216.552 322 216 322Z" fill="white"/>
<path id="Vector_10" d="M207 309H214C214.552 309 215 308.552 215 308C215 307.448 214.552 307 214 307H207C206.448 307 206 307.448 206 308C206 308.552 206.448 309 207 309Z" fill="white"/>
<path id="Vector_11" d="M215 318C215 317.448 214.552 317 214 317H207C206.448 317 206 317.448 206 318C206 318.552 206.448 319 207 319H214C214.552 319 215 318.552 215 318Z" fill="white"/>
<path id="Vector_12" d="M236 313V309C236 308.448 235.552 308 235 308C234.448 308 234 308.448 234 309V312H233C232.448 312 232 312.448 232 313C232 313.552 232.448 314 233 314H235C235.552 314 236 313.552 236 313Z" fill="white"/>
</g>
</g>
</g>
<defs>
<filter id="filter0_d_1_5371" x="-15" y="-15" width="274" height="373" filterUnits="userSpaceOnUse" color-interpolation-filters="sRGB">
<feFlood flood-opacity="0" result="BackgroundImageFix"/>
<feColorMatrix in="SourceAlpha" type="matrix" values="0 0 0 0 0 0 0 0 0 0 0 0 0 0 0 0 0 0 127 0" result="hardAlpha"/>
<feOffset dx="5" dy="5"/>
<feGaussianBlur stdDeviation="10"/>
<feComposite in2="hardAlpha" operator="out"/>
<feColorMatrix type="matrix" values="0 0 0 0 0.054902 0 0 0 0 0.392157 0 0 0 0 0.6 0 0 0 0.2 0"/>
<feBlend mode="normal" in2="BackgroundImageFix" result="effect1_dropShadow_1_5371"/>
<feBlend mode="normal" in="SourceGraphic" in2="effect1_dropShadow_1_5371" result="shape"/>
</filter>
<clipPath id="clip0_1_5371">
<rect width="390" height="350" fill="white"/>
</clipPath>
<clipPath id="clip1_1_5371">
<rect width="381" height="350" fill="white"/>
</clipPath>
<clipPath id="clip2_1_5371">
<rect width="60" height="60" fill="white" transform="translate(20 20)"/>
</clipPath>
<clipPath id="clip3_1_5371">
<rect width="50" height="50" fill="white" transform="translate(203 284)"/>
</clipPath>
</defs>
</svg>
