<svg width="354" height="30" viewBox="0 0 354 30" fill="none" xmlns="http://www.w3.org/2000/svg">
<g clip-path="url(#clip0_1_5336)">
<path d="M27.9058 4.4227L23.3463 25.8586H28.8715L33.2926 4.4227H27.9058ZM19.8925 4.4227L14.2289 18.948L11.8808 6.53771C11.604 5.1267 10.4998 4.4227 9.39419 4.4227H0.138393L0 4.9868C1.9345 5.4095 4.00588 6.11501 5.38831 6.82051C6.21716 7.24321 6.35556 7.66742 6.63234 8.65422L10.915 25.7187H16.717L25.5591 4.2828H19.8955V4.42421L19.8925 4.4227ZM62.8576 4.4227H58.1612C57.0556 4.4227 56.2267 4.9868 55.8131 5.97361L47.6629 25.8586H53.3265L54.4321 22.6154H61.3398L62.0302 25.8586H67.0034L62.8591 4.4227H62.8576ZM56.2267 18.244L59.1285 10.2051L60.7862 18.244H56.2267ZM40.477 10.3465C40.477 9.64103 41.1675 8.79562 42.8252 8.51282C43.654 8.37142 45.7269 8.37142 48.2135 9.49962L49.1807 4.9868C47.9367 4.5641 46.1421 4 44.0692 4C38.6809 4 34.9518 6.96191 34.9518 11.052C34.9518 14.1554 37.7151 15.8477 39.6481 16.8345C41.721 17.8213 42.4115 18.5268 42.4115 19.5136C42.4115 20.9246 40.7538 21.6286 39.0961 21.6286C36.3327 21.6286 34.8134 20.9231 33.5709 20.2176L32.6036 24.8718C33.8477 25.4359 36.1958 26 38.6824 26C44.346 26 48.0766 23.1795 48.0766 18.6667C48.0766 13.3069 40.3401 12.8842 40.4785 10.3465H40.477Z" fill="#BFDFFF"/>
</g>
<g clip-path="url(#clip1_1_5336)">
<path d="M106.288 29.921V27.929C106.314 27.589 106.187 27.255 105.94 27.013C105.692 26.771 105.348 26.644 104.997 26.666C104.536 26.637 104.094 26.853 103.845 27.23C103.618 26.864 103.201 26.647 102.76 26.666C102.376 26.648 102.011 26.827 101.8 27.137V26.744H101.062V29.914H101.8V28.165C101.757 27.943 101.824 27.714 101.983 27.548C102.142 27.382 102.372 27.298 102.605 27.323C103.077 27.323 103.343 27.623 103.343 28.158V29.921H104.081V28.165C104.038 27.943 104.105 27.714 104.264 27.548C104.423 27.382 104.653 27.298 104.886 27.323C105.373 27.323 105.624 27.623 105.624 28.158V29.921H106.288ZM116.947 26.751H115.781V25.787H115.043V26.751H114.379V27.379H115.043V28.807C115.043 29.521 115.338 29.978 116.18 29.978C116.495 29.98 116.805 29.896 117.073 29.735L116.866 29.142C116.676 29.251 116.46 29.313 116.239 29.32C115.885 29.32 115.767 29.106 115.767 28.792V27.364H116.933L116.948 26.75L116.947 26.751ZM123.03 26.672C122.676 26.662 122.345 26.84 122.166 27.136V26.75H121.428V29.92H122.166V28.142C122.166 27.621 122.402 27.328 122.867 27.328C123.018 27.326 123.169 27.353 123.31 27.407L123.531 26.757C123.367 26.701 123.195 26.672 123.022 26.671H123.029L123.03 26.672ZM113.832 27C113.428 26.769 112.965 26.655 112.496 26.672C111.669 26.672 111.13 27.058 111.13 27.686C111.13 28.207 111.529 28.521 112.259 28.621L112.599 28.664C112.99 28.714 113.175 28.814 113.175 28.992C113.175 29.17 112.917 29.378 112.437 29.378C112.045 29.391 111.66 29.275 111.344 29.05L111.004 29.585C111.419 29.866 111.915 30.011 112.421 29.999C113.366 29.999 113.897 29.571 113.897 28.964C113.897 28.357 113.461 28.114 112.753 28.014L112.413 27.971C112.103 27.928 111.859 27.871 111.859 27.657C111.859 27.443 112.095 27.286 112.486 27.286C112.844 27.292 113.194 27.385 113.505 27.557L113.83 27H113.832ZM132.944 26.672C132.59 26.662 132.259 26.84 132.08 27.136V26.75H131.342V29.92H132.08V28.142C132.08 27.621 132.316 27.328 132.781 27.328C132.932 27.326 133.083 27.353 133.224 27.407L133.445 26.757C133.281 26.701 133.109 26.672 132.936 26.671H132.943L132.944 26.672ZM124.247 29.536C124.582 29.85 125.038 30.013 125.503 29.984C125.932 30.005 126.353 29.87 126.684 29.606L126.344 29.049C126.097 29.229 125.797 29.329 125.488 29.335C124.909 29.335 124.44 28.881 124.44 28.321C124.44 27.761 124.909 27.307 125.488 27.307C125.797 27.313 126.097 27.413 126.344 27.593L126.684 27.036C126.353 26.771 125.932 26.636 125.503 26.658C125.032 26.629 124.571 26.796 124.236 27.116C123.9 27.436 123.722 27.88 123.746 28.336C123.731 28.787 123.912 29.223 124.247 29.537V29.536ZM130.427 28.335V26.75H129.689V27.128C129.442 26.821 129.057 26.649 128.656 26.664C127.706 26.664 126.936 27.409 126.936 28.327C126.936 29.246 127.706 29.99 128.656 29.99C129.058 30.005 129.442 29.833 129.689 29.526V29.912H130.427V28.334V28.335ZM128.793 27.436C129.33 27.455 129.753 27.885 129.746 28.405C129.739 28.925 129.303 29.344 128.766 29.348C128.491 29.353 128.227 29.246 128.037 29.053C127.848 28.86 127.75 28.6 127.769 28.334C127.801 27.815 128.256 27.416 128.793 27.435V27.436ZM119.169 26.664C118.219 26.678 117.461 27.434 117.475 28.352C117.489 29.271 118.271 30.004 119.221 29.99C119.71 30.008 120.188 29.85 120.564 29.547L120.217 29.033C119.946 29.242 119.611 29.357 119.265 29.361C118.773 29.403 118.337 29.057 118.283 28.583H120.719V28.319C120.76 27.894 120.615 27.472 120.319 27.155C120.023 26.839 119.603 26.657 119.161 26.655L119.168 26.662L119.169 26.664ZM119.748 27.498C119.903 27.643 119.992 27.841 119.996 28.049H118.298C118.322 27.605 118.71 27.262 119.169 27.278C119.384 27.274 119.592 27.353 119.748 27.498ZM137.034 28.335V25.479H136.296V27.128C136.049 26.821 135.664 26.649 135.263 26.664C134.313 26.664 133.543 27.409 133.543 28.327C133.543 29.246 134.313 29.99 135.263 29.99C135.665 30.005 136.049 29.833 136.296 29.526V29.912H137.034V28.334V28.335ZM135.406 27.422C135.949 27.44 136.377 27.875 136.368 28.401C136.359 28.927 135.916 29.348 135.373 29.349C135.098 29.354 134.834 29.247 134.644 29.054C134.455 28.861 134.357 28.601 134.376 28.335C134.404 27.81 134.862 27.404 135.405 27.422H135.406ZM110.29 28.335V26.75H109.552V27.128C109.305 26.821 108.92 26.649 108.519 26.664C107.569 26.664 106.799 27.409 106.799 28.327C106.799 29.246 107.569 29.99 108.519 29.99C108.921 30.005 109.305 29.833 109.552 29.526V29.912H110.29V28.334V28.335ZM107.633 28.335C107.665 27.816 108.12 27.417 108.657 27.436C109.194 27.455 109.617 27.885 109.61 28.405C109.603 28.925 109.167 29.344 108.63 29.348C108.359 29.347 108.101 29.237 107.916 29.045C107.731 28.853 107.637 28.596 107.656 28.334H107.634L107.633 28.335ZM118.189 21.91C113.034 25.226 106.137 24.338 102.059 19.834C97.9802 15.33 97.9802 8.60101 102.059 4.09601C106.138 -0.40799 113.035 -1.29599 118.189 2.02001L117.894 2.25601C114.986 4.69701 113.315 8.23801 113.315 11.962C113.315 15.686 114.985 19.227 117.894 21.668L118.189 21.911V21.91ZM126.634 9.65753e-06C124.201 -0.00299034 121.822 0.69301 119.798 1.99901L120.093 2.23501C123.001 4.67601 124.672 8.21701 124.672 11.941C124.672 15.665 123.002 19.206 120.093 21.647L119.798 21.883C124.2 24.722 129.983 24.533 134.177 21.413C138.371 18.293 140.045 12.936 138.338 8.09301C136.631 3.24901 131.924 -0.00499034 126.633 0.00100966L126.634 9.65753e-06ZM118.536 2.92701C115.836 5.19301 114.286 8.48001 114.286 11.937C114.286 15.394 115.837 18.681 118.536 20.947L119.001 21.318L119.466 20.947C122.166 18.681 123.716 15.394 123.716 11.937C123.716 8.48001 122.165 5.19301 119.466 2.92701L119.001 2.55601C118.839 2.67701 118.684 2.79901 118.536 2.92701Z" fill="#BFDFFF"/>
</g>
<g clip-path="url(#clip2_1_5336)">
<path fill-rule="evenodd" clip-rule="evenodd" d="M171 0H201V30H171V0ZM176.823 20.905V16.195H181.81L182.345 16.8917L182.898 16.195H201V20.58C201 20.58 200.527 20.9 199.978 20.905H189.955L189.352 20.1633V20.905H187.377V19.6383C187.377 19.6383 187.107 19.815 186.523 19.815H185.85V20.905H182.857L182.322 20.1933L181.778 20.905H176.823ZM171 12.645L172.125 10.0233H174.07L174.708 11.4916V10.0233H177.127L177.507 11.085L177.875 10.0233H188.728V10.5566C188.728 10.5566 189.298 10.0233 190.237 10.0233L193.758 10.035L194.385 11.485V10.0233H196.408L196.965 10.8566V10.0233H199.007V14.7333H196.965L196.432 13.8983V14.7333H193.458L193.16 13.9916H192.362L192.068 14.7333H190.052C189.245 14.7333 188.728 14.21 188.728 14.21V14.7333H185.687L185.083 13.9916V14.7333H173.782L173.483 13.9916H172.687L172.39 14.7333H171V12.645Z" fill="#BFDFFF"/>
<path fill-rule="evenodd" clip-rule="evenodd" d="M172.523 10.6033L171.007 14.13H171.993L172.273 13.4233H173.9L174.178 14.13H175.188L173.673 10.6033H172.523ZM173.083 11.425L173.58 12.6583H172.587L173.083 11.425ZM175.292 14.13V10.6033L176.695 10.6083L177.512 12.8817L178.308 10.6033H179.7V14.13H178.818V11.5317L177.885 14.13H177.112L176.173 11.5317V14.13H175.292ZM180.303 14.13V10.6033H183.182V11.3917H181.195V11.995H183.135V12.7383H181.195V13.365H183.182V14.13H180.303ZM183.692 10.6033V14.13H184.573V12.8767H184.945L186.002 14.13H187.078L185.918 12.83C186.395 12.79 186.885 12.3817 186.885 11.7467C186.885 11.005 186.302 10.6033 185.652 10.6033H183.692ZM184.573 11.3933H185.582C185.823 11.3933 186 11.5817 186 11.765C186 12 185.772 12.1367 185.595 12.1367H184.573V11.3933ZM188.147 14.13H187.247V10.6033H188.147V14.13ZM190.28 14.13H190.085C189.145 14.13 188.573 13.39 188.573 12.3817C188.573 11.3483 189.138 10.6033 190.325 10.6033H191.3V11.4383H190.29C189.808 11.4383 189.467 11.815 189.467 12.39C189.467 13.0733 189.857 13.36 190.418 13.36H190.65L190.28 14.13ZM192.2 10.6033L190.683 14.13H191.67L191.95 13.4233H193.577L193.855 14.13H194.865L193.35 10.6033H192.2ZM192.76 11.425L193.257 12.6583H192.263L192.76 11.425ZM194.968 14.13V10.6033H196.088L197.52 12.8183V10.6033H198.402V14.13H197.317L195.85 11.8567V14.13H194.968ZM177.427 20.3016V16.775H180.303V17.5633H178.318V18.1666H180.258V18.91H178.318V19.5366H180.303V20.3016H177.427ZM191.525 20.3016V16.775H194.402V17.5633H192.415V18.1666H194.345V18.91H192.415V19.5366H194.402V20.3016H191.525ZM180.415 20.3016L181.817 18.56L180.382 16.775H181.493L182.347 17.8783L183.205 16.775H184.272L182.857 18.5383L184.26 20.3016H183.148L182.32 19.215L181.51 20.3016H180.415ZM184.365 16.775V20.3016H185.27V19.1883H186.198C186.983 19.1883 187.578 18.7716 187.578 17.9616C187.578 17.29 187.112 16.775 186.312 16.775H184.365ZM185.27 17.5733H186.247C186.5 17.5733 186.682 17.7283 186.682 17.98C186.682 18.215 186.502 18.3866 186.243 18.3866H185.268V17.5733H185.27ZM187.96 16.775V20.3016H188.842V19.0483H189.213L190.27 20.3016H191.347L190.187 19.0016C190.663 18.9616 191.153 18.5533 191.153 17.9183C191.153 17.1766 190.57 16.775 189.92 16.775H187.96ZM188.842 17.5633H189.85C190.092 17.5633 190.268 17.7516 190.268 17.935C190.268 18.17 190.04 18.3066 189.863 18.3066H188.842V17.5633ZM194.81 20.3016V19.5366H196.575C196.837 19.5366 196.95 19.3949 196.95 19.2416C196.95 19.0933 196.837 18.9433 196.575 18.9433H195.778C195.085 18.9433 194.7 18.5216 194.7 17.8866C194.7 17.3216 195.053 16.7766 196.083 16.7766H197.8L197.428 17.5699H195.943C195.66 17.5699 195.572 17.7183 195.572 17.8616C195.572 18.0083 195.68 18.1683 195.897 18.1683H196.732C197.505 18.1683 197.84 18.6066 197.84 19.1799C197.84 19.7966 197.467 20.3016 196.69 20.3016H194.81ZM198.045 20.3016V19.5366H199.735C199.997 19.5366 200.11 19.3949 200.11 19.2416C200.11 19.0933 199.997 18.9433 199.735 18.9433H199.012C198.318 18.9433 197.933 18.5216 197.933 17.8866C197.933 17.3216 198.287 16.7766 199.317 16.7766H201L200.628 17.5699H199.178C198.895 17.5699 198.807 17.7183 198.807 17.8616C198.807 18.0083 198.915 18.1683 199.132 18.1683H199.892C200.665 18.1683 201 18.6066 201 19.1799C201 19.7966 200.627 20.3016 199.85 20.3016H198.045Z" fill="#BFDFFF"/>
</g>
<g clip-path="url(#clip3_1_5336)">
<path fill-rule="evenodd" clip-rule="evenodd" d="M239.828 9.95246V15.5763C239.828 16.0332 239.755 16.4763 239.524 16.8779C239.172 17.5 238.541 17.9141 237.83 17.9902C236.819 18.1332 235.827 17.9809 234.865 17.6786C234.269 17.4894 233.695 17.2309 233.108 17.0094C232.998 16.9655 233 16.8894 233 16.7994V4.82247C233.018 2.58621 234.563 0.652489 236.741 0.142465C237.142 0.0547732 237.56 0.0109272 237.968 0.00861925C240.258 -0.00061075 242.547 0.00861925 244.834 0.00861925H245.032V0.207081C245.032 8.30708 245.042 16.4071 245.025 24.5071C245.01 26.8022 243.378 28.7681 241.125 29.2055C240.777 29.2748 240.415 29.3025 240.059 29.3048C237.775 29.314 235.492 29.3117 233.21 29.314H233.016V19.0425C233.464 19.1325 233.907 19.2432 234.357 19.3055C235.185 19.4163 236.016 19.5317 236.849 19.5825C237.606 19.6286 238.372 19.6263 239.129 19.5871C240.228 19.5317 241.305 19.3355 242.286 18.7909C243.362 18.1932 243.955 17.2725 244.024 16.0448C244.07 15.2763 244.056 14.5032 244.059 13.7325C244.063 12.5417 244.059 11.3509 244.063 10.1602C244.063 9.994 244.021 9.94323 243.851 9.94554C242.577 9.95247 241.303 9.95016 240.029 9.95246H239.828ZM246.519 29.3071V18.0733C246.553 18.0871 246.578 18.094 246.597 18.1079C247.485 18.821 248.524 19.1833 249.622 19.391C251.053 19.6633 252.493 19.6794 253.938 19.564C254.98 19.4697 256.014 19.3024 257.032 19.0633C257.155 19.0379 257.205 18.9963 257.205 18.8625C257.196 18.2948 257.201 17.7248 257.201 17.1571V16.9633C257.132 16.991 257.085 17.0094 257.039 17.0325C256.068 17.5056 255.055 17.8448 253.977 17.9787C253.031 18.0963 252.094 18.0987 251.194 17.7317C250.088 17.2794 249.484 16.4371 249.32 15.2694C249.221 14.64 249.274 13.9962 249.472 13.391C249.839 12.3133 250.619 11.6994 251.692 11.4179C252.454 11.2217 253.22 11.2402 253.991 11.3371C255.091 11.4836 256.157 11.8193 257.143 12.3294C257.152 12.334 257.164 12.3294 257.189 12.3294C257.194 12.2856 257.201 12.2394 257.201 12.1933C257.201 11.6094 257.198 11.0233 257.203 10.4394C257.203 10.3356 257.178 10.2825 257.069 10.2548C255.278 9.83942 253.469 9.61558 251.628 9.70096C250.465 9.75173 249.313 9.90173 248.212 10.3102C247.64 10.5225 247.105 10.8017 246.627 11.1871L246.512 11.261V4.87788C246.509 3.5797 247.026 2.33447 247.947 1.41977C248.868 0.505067 250.117 -0.00305975 251.415 0.00865425C253.737 -0.00519175 256.058 0.00173025 258.38 0.00173025C258.428 0.00173025 258.477 0.00634525 258.542 0.0109602C258.546 0.0801913 258.551 0.144807 258.551 0.209422C258.551 8.32788 258.565 16.444 258.539 24.5625C258.535 26.4017 257.618 27.7794 256.038 28.7025C255.316 29.1157 254.497 29.3269 253.665 29.314H246.685L246.519 29.3071V29.3071ZM260.046 29.3117V19.361H260.261C262.758 19.361 265.257 19.3702 267.754 19.361C268.513 19.361 269.229 19.1694 269.842 18.6964C270.451 18.2537 270.788 17.528 270.733 16.7774C270.678 16.0268 270.239 15.3579 269.572 15.0087C269.066 14.7369 268.507 14.5764 267.934 14.5379C268.208 14.4548 268.469 14.3971 268.711 14.2956C269.443 13.9933 269.944 13.4787 270.11 12.6802C270.31 11.7786 269.89 10.8534 269.081 10.4094C268.462 10.0587 267.786 9.95251 267.091 9.95251C264.818 9.9479 262.545 9.95251 260.275 9.95251H260.037V4.85252C260.046 2.16894 262.227 -2.07503e-05 264.911 0.00636225C267.237 0.00636225 269.563 0.0132852 271.889 0.0109772C272.074 0.0109772 272.062 0.103285 272.062 0.2279V24.2971C272.053 26.0925 271.317 27.5117 269.828 28.5202C269.18 28.9587 268.453 29.2148 267.668 29.2725C267.234 29.299 266.799 29.3106 266.365 29.3071L260.226 29.3117H260.046Z" fill="#BFDFFF"/>
<path d="M262.425 17.8055V15.2671C262.481 15.2648 262.534 15.2578 262.587 15.2578C263.473 15.2578 264.359 15.2555 265.245 15.2601C265.878 15.2648 266.36 15.6178 266.512 16.1717C266.743 17.014 266.198 17.7871 265.312 17.8171C264.366 17.8471 263.42 17.8217 262.471 17.8217C262.462 17.8217 262.453 17.8148 262.425 17.8032V17.8055ZM262.43 13.7855V11.4317C262.483 11.4294 262.529 11.4224 262.578 11.4224C263.371 11.4224 264.165 11.4155 264.957 11.4294C265.165 11.4318 265.371 11.4741 265.564 11.554C266.067 11.7732 266.307 12.2855 266.21 12.8532C266.116 13.3809 265.661 13.768 265.125 13.7763C264.234 13.8063 263.341 13.7855 262.43 13.7855Z" fill="#BFDFFF"/>
</g>
<g clip-path="url(#clip4_1_5336)">
<path d="M341.348 11.6798C340.98 11.563 340.501 11.9745 340.292 12.6048C340.072 13.235 340.206 13.8408 340.578 13.9549C340.949 14.073 341.427 13.6588 341.638 13.0299C341.854 12.401 341.722 11.7952 341.348 11.6798ZM337.854 9.25664C337.684 9.14526 337.412 9.09229 337.04 9.09229H335.902L335.492 11.0849H336.834C337.183 11.0849 337.458 11.0034 337.663 10.8417C337.864 10.6801 337.998 10.4315 338.071 10.0947C338.083 10.0336 338.089 9.97652 338.099 9.9249C338.102 9.876 338.11 9.82845 338.11 9.78092C338.11 9.5405 338.026 9.36666 337.854 9.25664ZM336.403 21.333L336.135 22.2811H337.183L337.45 21.333H336.403ZM337.445 17.6684L337.088 18.9166C337.088 18.9166 337.698 18.6817 338.226 18.6151C338.343 18.1791 338.493 17.6684 338.493 17.6684H337.445ZM336.922 19.5034L336.562 20.8087C336.562 20.8087 337.241 20.4745 337.703 20.446C337.84 19.9434 337.973 19.5034 337.973 19.5034H336.922ZM327.152 11.5602C327.02 11.4176 326.834 11.3456 326.592 11.3456C326.273 11.3456 326.014 11.4584 325.81 11.6825C325.605 11.908 325.459 12.2462 325.367 12.6985C325.355 12.7677 325.344 12.8384 325.336 12.9049C325.329 12.9742 325.326 13.0394 325.328 13.0992C325.328 13.3559 325.394 13.5542 325.527 13.6941C325.658 13.834 325.844 13.9033 326.088 13.9033C326.409 13.9033 326.668 13.7919 326.872 13.5705C327.076 13.3504 327.22 13.0163 327.309 12.5735C327.323 12.5042 327.334 12.4323 327.341 12.3589C327.346 12.2883 327.35 12.2217 327.35 12.1606C327.35 11.9039 327.285 11.7029 327.152 11.5602Z" fill="#BFDFFF"/>
<path d="M351.713 0.006791L340.148 0.004074H340.145C340.133 0.004074 340.125 0.005434 340.117 0.005434C338.527 0.05433 336.548 1.32838 336.188 2.8999L335.16 7.44601H334.207L335.235 2.8999C335.596 1.32838 337.575 0.05433 339.164 0.005433C339.173 0.005433 339.182 0.004074 339.192 0.004074H334.568L326.345 0C326.325 0 326.304 0.001358 326.283 0.002716C324.689 0.035315 322.685 1.31752 322.325 2.90125L321.296 7.44737H320.185L321.212 2.90125C321.572 1.31888 323.578 0.035315 325.172 0.002716L314.558 0C312.955 0 310.902 1.29714 310.535 2.90125L305.064 27.1028C305.03 27.2495 305.011 27.3948 305 27.5361V27.9843C305.109 29.1389 305.992 29.9823 307.26 30H317.939C316.362 29.9756 315.38 28.6852 315.741 27.0987L317.011 21.481H318.125L316.855 27.0987C316.494 28.6866 317.476 29.9756 319.051 30H331.968C330.39 29.9756 329.411 28.6852 329.771 27.0987L330.196 25.2162H331.149L330.724 27.0987C330.364 28.6866 331.345 29.9756 332.922 30H345.071C346.627 29.9226 348.134 28.6635 348.489 27.1096L353.959 2.90805C354.323 1.30665 353.315 0.005433 351.713 0.006791ZM315.206 14.217C314.629 14.6435 313.882 14.8581 312.968 14.8581C312.106 14.8581 311.476 14.6394 311.074 14.2007C310.796 13.8896 310.656 13.493 310.656 13.0149C310.656 12.8166 310.679 12.6033 310.726 12.3752L311.7 7.67827H313.171L312.21 12.3208C312.18 12.4512 312.169 12.5707 312.17 12.678C312.169 12.9157 312.227 13.11 312.347 13.2621C312.521 13.4889 312.803 13.6017 313.198 13.6017C313.651 13.6017 314.023 13.4916 314.312 13.2675C314.602 13.0461 314.79 12.7324 314.875 12.3222L315.839 7.67963H317.302L316.328 12.3765C316.165 13.1738 315.789 13.7837 315.206 14.217ZM321.085 11.8658L320.514 14.7222H319.445L319.963 12.1334C320.016 11.8658 320.001 11.6661 319.918 11.5385C319.838 11.4094 319.683 11.3456 319.459 11.3456C319.184 11.3456 318.953 11.4312 318.765 11.6009C318.576 11.7721 318.451 12.0098 318.39 12.3127L317.913 14.7209H316.844L317.682 10.5279H318.721L318.603 11.1323L318.751 10.9598C319.089 10.5999 319.498 10.4206 319.98 10.4206C320.418 10.4206 320.733 10.5483 320.931 10.8036C321.125 11.0604 321.178 11.4121 321.085 11.8658ZM340.034 10.9775C340.93 10.5605 341.396 10.8077 341.905 11.2057L342.392 10.8702L343.545 10.7683L342.676 14.7209L341.347 14.6869L341.152 14.4601C337.787 15.8944 338.81 11.5439 340.034 10.9775ZM342.412 17.3016L342.173 18.1247H341.202C340.831 18.1451 340.642 18.0065 340.623 17.6996L340.578 16.632H341.901L341.957 17.1182C341.948 17.2432 342.024 17.3016 342.18 17.3016H342.412ZM334.731 7.92819H337.75C338.329 7.92819 338.776 8.0613 339.087 8.31937C339.395 8.58016 339.549 8.95504 339.549 9.44402V9.45896C339.549 9.55132 339.542 9.65726 339.533 9.77C339.518 9.88138 339.501 9.99547 339.474 10.1136C339.341 10.7602 339.033 11.279 338.556 11.6743C338.075 12.0668 337.509 12.2651 336.858 12.2651H335.239L334.739 14.7209H333.339L334.731 7.92819ZM329.597 10.5293H330.637L330.519 11.1337L330.664 10.9612C331.001 10.6013 331.413 10.422 331.894 10.422C332.328 10.422 332.645 10.5496 332.843 10.805C333.035 11.0604 333.09 11.4135 332.997 11.8658L332.426 14.7222H331.357L331.875 12.1334C331.928 11.8658 331.915 11.6661 331.833 11.5385C331.747 11.4094 331.596 11.3456 331.373 11.3456C331.099 11.3456 330.868 11.4312 330.678 11.6009C330.489 11.7721 330.364 12.0098 330.305 12.3127L329.826 14.7209H328.759L329.597 10.5293ZM329.265 17.1834L329.052 17.9712H327.058C326.829 18.3162 326.546 18.4778 326.205 18.4575H325.166L325.393 17.6344H325.594C325.78 17.6344 325.904 17.5732 325.962 17.451L326.484 16.6686H327.881L327.589 17.1834H329.265ZM322.754 14.7195H321.605L322.505 10.5293H323.657L322.754 14.7195ZM323.812 10.0199H322.651L322.867 9.00122H324.029L323.812 10.0199ZM324.236 12.9483C324.248 12.841 324.263 12.7392 324.282 12.6427C324.42 11.9609 324.71 11.4203 325.158 11.0223C325.605 10.6216 326.146 10.4206 326.777 10.4206C327.296 10.4206 327.706 10.5659 328.006 10.8553C328.306 11.1459 328.457 11.5398 328.457 12.0383C328.457 12.1239 328.45 12.223 328.44 12.329C328.425 12.4376 328.41 12.5409 328.391 12.6427C328.258 13.3124 327.968 13.8475 327.519 14.2387C327.07 14.6339 326.533 14.8295 325.905 14.8295C325.386 14.8295 324.977 14.6869 324.677 14.403C324.374 14.1137 324.222 13.7266 324.221 13.2336C324.221 13.1466 324.226 13.0516 324.236 12.9483ZM327.614 23.5903H325.366C324.938 23.5903 324.793 23.3459 324.926 22.8569L325.352 21.3003H324.434L324.666 20.4419H325.586L325.81 19.6188H324.933L325.163 18.7644H328.836L328.603 19.6188H327.126L326.901 20.4446H328.338L328.104 21.3003H326.666L326.332 22.5187C326.25 22.7211 326.359 22.8134 326.657 22.793H327.828L327.614 23.5903ZM333.536 21.1441C333.423 21.5529 333.124 21.7648 332.641 21.7866H332.002L332 22.6722C331.987 22.8107 332.116 22.884 332.381 22.884H332.979L332.782 23.5876H331.345C330.944 23.6026 330.745 23.4124 330.75 23.0063L330.84 20.6266H332.039L332.014 21.1441H332.334C332.495 21.1441 332.576 21.0911 332.576 20.9906L332.671 20.6551H333.665L333.536 21.1441ZM332.772 20.4093H330.139L329.522 22.6694C329.487 22.789 329.536 22.8528 329.67 22.8528H330.189L329.997 23.555H328.68C328.173 23.555 327.964 23.4056 328.047 23.0973L329.791 16.6618H331.02L330.965 17.163C330.965 17.163 331.659 16.6428 332.286 16.6428H334.611L333.723 19.8606C333.65 20.23 333.333 20.4106 332.772 20.4093ZM338.404 23.1951L338.29 23.5917H336.93L337.044 23.1951H334.359L334.618 22.2796H334.887L336.199 17.667H335.929L336.206 16.6904H337.611L337.549 17.0503C337.549 17.0503 338.265 16.6904 338.784 16.6904H340.52L340.244 17.667H339.973L338.66 22.2796H338.933L338.677 23.1951H338.404ZM344.223 19.2819H342.862L342.627 20.105H343.988L343.732 20.9879H342.218L341.875 21.5054H342.613L342.786 22.5458C342.806 22.6491 342.897 22.698 343.053 22.698H343.284L343.041 23.5537H342.225C341.804 23.5754 341.586 23.4355 341.567 23.1272L341.369 22.1818L340.695 23.191C340.538 23.4763 340.289 23.6094 339.96 23.5876H338.714L338.959 22.7319H339.345C339.504 22.7319 339.641 22.6599 339.759 22.5187L340.815 20.992H339.451L339.706 20.1091H341.183L341.419 19.2874H339.94L340.194 18.4018H344.472L344.223 19.2819ZM345.825 15.529C345.385 16.4717 344.963 17.0204 344.714 17.2758C344.464 17.5298 343.974 18.1165 342.788 18.0731L342.891 17.3546C343.887 17.0489 344.426 15.6662 344.735 15.0523L344.368 10.5401L345.135 10.5293H345.78L345.85 13.3599L347.064 10.5293H348.292L345.825 15.529Z" fill="#BFDFFF"/>
<path d="M330.541 18.9451L330.366 19.5848H332.24C332.394 19.6065 332.481 19.5454 332.491 19.4014L332.619 18.9451H330.541ZM330.921 17.5719L330.673 18.4398C330.673 18.4398 331.018 18.1913 331.594 18.1818C332.171 18.1736 332.828 18.1818 332.828 18.1818L332.995 17.5719H330.921Z" fill="#BFDFFF"/>
</g>
<defs>
<clipPath id="clip0_1_5336">
<rect width="67" height="30" fill="white"/>
</clipPath>
<clipPath id="clip1_1_5336">
<rect width="40" height="30" fill="white" transform="translate(99)"/>
</clipPath>
<clipPath id="clip2_1_5336">
<rect width="30" height="30" fill="white" transform="translate(171)"/>
</clipPath>
<clipPath id="clip3_1_5336">
<rect width="40" height="30" fill="white" transform="translate(233)"/>
</clipPath>
<clipPath id="clip4_1_5336">
<rect width="49" height="30" fill="white" transform="translate(305)"/>
</clipPath>
</defs>
</svg>
