<svg width="248" height="50" viewBox="0 0 248 50" fill="none" xmlns="http://www.w3.org/2000/svg">
<path d="M48 25C48 37.7025 37.7025 48 25 48C12.2975 48 2 37.7025 2 25C2 12.2975 12.2975 2 25 2C37.7025 2 48 12.2975 48 25Z" stroke="#1799E5" stroke-width="2"/>
<path fill-rule="evenodd" clip-rule="evenodd" d="M11.551 10.316C11.4007 10.3371 11.2627 10.4109 11.1618 10.5243C11.0609 10.6377 11.0035 10.7832 11 10.935V37.228C11 37.552 11.295 37.847 11.619 37.847H31.106C31.2684 37.8413 31.4227 37.7743 31.5377 37.6594C31.6528 37.5446 31.72 37.3904 31.726 37.228V33.825H33.581C33.7447 33.8213 33.9008 33.7553 34.0175 33.6405C34.1342 33.5256 34.2027 33.3706 34.209 33.207C34.209 32.88 33.908 32.583 33.581 32.588H31.725V31.66H33.581C33.7449 31.6563 33.9011 31.5902 34.0178 31.4751C34.1345 31.3601 34.2029 31.2048 34.209 31.041C34.209 30.715 33.908 30.418 33.581 30.423H31.725V29.185H33.581C33.7447 29.1813 33.9008 29.1153 34.0175 29.0005C34.1342 28.8856 34.2027 28.7306 34.209 28.567C34.209 28.24 33.908 27.943 33.581 27.948H31.725V26.711H33.581C33.7449 26.7073 33.9011 26.6412 34.0178 26.5261C34.1345 26.4111 34.2029 26.2558 34.209 26.092C34.209 25.765 33.908 25.469 33.581 25.473H31.725V24.236H33.581C33.7449 24.2323 33.9011 24.1662 34.0178 24.0511C34.1345 23.9361 34.2029 23.7808 34.209 23.617C34.209 23.291 33.908 22.994 33.581 22.999H31.725V17.122C31.7249 16.986 31.6807 16.8537 31.599 16.745C30.412 15.203 28.025 12.057 26.993 10.742C26.767 10.454 26.557 10.319 26.467 10.316H11.619C11.5964 10.3146 11.5736 10.3146 11.551 10.316ZM12.237 11.554H25.935C25.949 11.581 25.965 11.606 25.983 11.631C27.543 13.522 29.023 15.436 30.488 17.325C30.478 23.789 30.488 30.169 30.488 36.609H12.238V11.554H12.237Z" fill="#1799E5"/>
<path fill-rule="evenodd" clip-rule="evenodd" d="M32.2331 13.41C32.0713 13.4236 31.9207 13.4978 31.8113 13.6178C31.7019 13.7378 31.6418 13.8946 31.6431 14.057C31.6565 14.2191 31.7308 14.37 31.8511 14.4795C31.9713 14.589 32.1285 14.6488 32.2911 14.647H32.6001V20.215C32.6001 20.555 32.8641 20.832 33.1901 20.833H37.2401V39.703H18.9901V39.026C18.9862 38.8621 18.9198 38.7058 18.8046 38.5891C18.6894 38.4724 18.534 38.4041 18.3701 38.398C18.2066 38.4046 18.0517 38.4731 17.9369 38.5898C17.8221 38.7064 17.7561 38.8624 17.7521 39.026V40.321C17.7521 40.645 18.0471 40.94 18.3711 40.94H37.8591C38.0212 40.9338 38.175 40.8666 38.2896 40.7518C38.4042 40.637 38.4712 40.4831 38.4771 40.321V20.215C38.4762 20.0824 38.4323 19.9536 38.3521 19.848L33.7121 13.661C33.6545 13.5844 33.5802 13.5219 33.4947 13.4784C33.4093 13.4349 33.315 13.4115 33.2191 13.41H32.2331ZM33.7791 15.807L36.6211 19.597H33.7801V15.807H33.7791ZM16.7571 16.194C16.6734 16.1949 16.5908 16.2127 16.5141 16.2463C16.4375 16.28 16.3685 16.3289 16.3112 16.3899C16.254 16.451 16.2097 16.523 16.181 16.6016C16.1524 16.6803 16.1399 16.7639 16.1445 16.8475C16.149 16.9311 16.1704 17.0129 16.2074 17.088C16.2444 17.1631 16.2962 17.2299 16.3597 17.2844C16.4232 17.3389 16.4971 17.38 16.5769 17.4052C16.6567 17.4304 16.7408 17.4392 16.8241 17.431H23.9391C24.0224 17.4344 24.1056 17.4208 24.1835 17.3913C24.2615 17.3617 24.3327 17.3167 24.3928 17.2589C24.453 17.2011 24.5008 17.1318 24.5335 17.0551C24.5662 16.9784 24.583 16.8959 24.583 16.8125C24.583 16.7291 24.5662 16.6466 24.5335 16.5699C24.5008 16.4932 24.453 16.4239 24.3928 16.3661C24.3327 16.3083 24.2615 16.2633 24.1835 16.2337C24.1056 16.2042 24.0224 16.1907 23.9391 16.194H16.8241C16.8018 16.1928 16.7795 16.1928 16.7571 16.194ZM16.7571 19.287C16.6734 19.2879 16.5908 19.3057 16.5141 19.3393C16.4375 19.373 16.3685 19.4219 16.3112 19.4829C16.254 19.544 16.2097 19.616 16.181 19.6946C16.1524 19.7733 16.1399 19.8569 16.1445 19.9405C16.149 20.0241 16.1704 20.1059 16.2074 20.181C16.2444 20.2561 16.2962 20.3229 16.3597 20.3774C16.4232 20.4319 16.4971 20.473 16.5769 20.4982C16.6567 20.5234 16.7408 20.5322 16.8241 20.524H23.9391C24.0224 20.5274 24.1056 20.5138 24.1835 20.4843C24.2615 20.4547 24.3327 20.4097 24.3928 20.3519C24.453 20.2941 24.5008 20.2248 24.5335 20.1481C24.5662 20.0714 24.583 19.9889 24.583 19.9055C24.583 19.8221 24.5662 19.7396 24.5335 19.6629C24.5008 19.5862 24.453 19.5169 24.3928 19.4591C24.3327 19.4013 24.2615 19.3563 24.1835 19.3267C24.1056 19.2972 24.0224 19.2837 23.9391 19.287H16.8241C16.8018 19.2858 16.7795 19.2858 16.7571 19.287Z" fill="#1799E5"/>
<path d="M7 11L43 39" stroke="#1799E5" stroke-width="2"/>
<path d="M68.98 18V13.12H70.64C71.3467 13.12 72.0267 13.0333 72.68 12.86C73.3333 12.6867 73.9133 12.42 74.42 12.06C74.94 11.7 75.3467 11.24 75.64 10.68C75.9333 10.12 76.08 9.46 76.08 8.7C76.08 7.67333 75.8467 6.84667 75.38 6.22C74.9133 5.58 74.28 5.12 73.48 4.84C72.68 4.54667 71.7933 4.4 70.82 4.4H66.76V18H68.98ZM70.76 6.28C71.3867 6.28 71.9133 6.36 72.34 6.52C72.78 6.68 73.12 6.94667 73.36 7.32C73.6133 7.68 73.74 8.18 73.74 8.82C73.7 9.38 73.5533 9.84667 73.3 10.22C73.0467 10.58 72.7 10.8467 72.26 11.02C71.82 11.18 71.3133 11.26 70.74 11.26H68.98V6.28H70.76ZM80.2206 18V3.88L78.0006 4.1V18H80.2206ZM84.442 15.14C84.442 14.7533 84.582 14.4 84.862 14.08C85.142 13.76 85.5354 13.6 86.042 13.6H88.222V15.34C87.8754 15.6867 87.502 15.96 87.102 16.16C86.702 16.36 86.2887 16.46 85.862 16.46C85.5687 16.46 85.3154 16.4 85.102 16.28C84.8887 16.1467 84.722 15.98 84.602 15.78C84.4954 15.58 84.442 15.3667 84.442 15.14ZM83.622 10.74C83.9954 10.58 84.4287 10.4333 84.922 10.3C85.4287 10.1533 85.9354 10.08 86.442 10.08C87.0687 10.08 87.5154 10.2667 87.782 10.64C88.0487 11 88.1887 11.4667 88.202 12.04V12.1H86.082C85.0154 12.1133 84.1487 12.38 83.482 12.9C82.8154 13.42 82.482 14.1667 82.482 15.14C82.482 16.06 82.762 16.8067 83.322 17.38C83.882 17.9533 84.742 18.24 85.902 18.24C86.4087 18.24 86.902 18.12 87.382 17.88C87.862 17.64 88.2754 17.3533 88.622 17.02L88.962 18H90.482V11.52C90.482 10.8667 90.2954 10.2733 89.922 9.74C89.562 9.20667 89.0754 8.79333 88.462 8.5C87.8487 8.19333 87.162 8.04 86.402 8.04C86.1354 8.04 85.782 8.08 85.342 8.16C84.902 8.22667 84.4687 8.32667 84.042 8.46C83.6154 8.58 83.2754 8.72667 83.022 8.9L83.622 10.74ZM101.343 8.3H100.123L99.083 9.98V18.64C99.083 19.32 98.8296 19.8467 98.323 20.22C97.8296 20.5933 97.1896 20.7867 96.403 20.8C95.8563 20.7867 95.3563 20.7067 94.903 20.56C94.4496 20.4267 93.963 20.2267 93.443 19.96L92.763 21.56C93.003 21.7333 93.2896 21.8867 93.623 22.02C93.9563 22.1533 94.2963 22.26 94.643 22.34C95.003 22.4333 95.343 22.5 95.663 22.54C95.9963 22.58 96.263 22.6 96.463 22.6C97.4763 22.6 98.343 22.44 99.063 22.12C99.7963 21.8 100.356 21.3467 100.743 20.76C101.143 20.1733 101.343 19.4733 101.343 18.66V8.3ZM99.643 14.96C99.203 15.4133 98.7763 15.7533 98.363 15.98C97.963 16.2067 97.503 16.32 96.983 16.32C96.4496 16.32 95.983 16.1867 95.583 15.92C95.1963 15.64 94.903 15.26 94.703 14.78C94.503 14.3 94.403 13.7467 94.403 13.12C94.403 12.52 94.503 11.9867 94.703 11.52C94.903 11.04 95.1963 10.66 95.583 10.38C95.983 10.1 96.4563 9.96 97.003 9.96C97.5096 9.96 97.9696 10.0667 98.383 10.28C98.8096 10.4933 99.243 10.8533 99.683 11.36L100.343 9.82C100.09 9.44667 99.763 9.12667 99.363 8.86C98.9763 8.59333 98.5696 8.39333 98.143 8.26C97.7163 8.11333 97.3296 8.04 96.983 8.04C95.983 8.04 95.1163 8.25333 94.383 8.68C93.6496 9.10667 93.083 9.7 92.683 10.46C92.2963 11.22 92.103 12.1067 92.103 13.12C92.103 14.16 92.2963 15.0667 92.683 15.84C93.0696 16.6 93.623 17.1933 94.343 17.62C95.0763 18.0467 95.943 18.26 96.943 18.26C97.3163 18.26 97.703 18.1867 98.103 18.04C98.5163 17.9067 98.9163 17.7067 99.303 17.44C99.6896 17.1733 100.03 16.8533 100.323 16.48L99.643 14.96ZM106.018 18V8.3H103.758V18H106.018ZM104.858 6.74C105.231 6.74 105.544 6.61333 105.798 6.36C106.064 6.09333 106.198 5.77333 106.198 5.4C106.198 5.02667 106.064 4.71333 105.798 4.46C105.531 4.20667 105.218 4.08 104.858 4.08C104.484 4.08 104.171 4.20667 103.918 4.46C103.678 4.71333 103.558 5.02667 103.558 5.4C103.558 5.78667 103.678 6.10667 103.918 6.36C104.171 6.61333 104.484 6.74 104.858 6.74ZM110.008 15.14C110.008 14.7533 110.148 14.4 110.428 14.08C110.708 13.76 111.102 13.6 111.608 13.6H113.788V15.34C113.442 15.6867 113.068 15.96 112.668 16.16C112.268 16.36 111.855 16.46 111.428 16.46C111.135 16.46 110.882 16.4 110.668 16.28C110.455 16.1467 110.288 15.98 110.168 15.78C110.062 15.58 110.008 15.3667 110.008 15.14ZM109.188 10.74C109.562 10.58 109.995 10.4333 110.488 10.3C110.995 10.1533 111.502 10.08 112.008 10.08C112.635 10.08 113.082 10.2667 113.348 10.64C113.615 11 113.755 11.4667 113.768 12.04V12.1H111.648C110.582 12.1133 109.715 12.38 109.048 12.9C108.382 13.42 108.048 14.1667 108.048 15.14C108.048 16.06 108.328 16.8067 108.888 17.38C109.448 17.9533 110.308 18.24 111.468 18.24C111.975 18.24 112.468 18.12 112.948 17.88C113.428 17.64 113.842 17.3533 114.188 17.02L114.528 18H116.048V11.52C116.048 10.8667 115.862 10.2733 115.488 9.74C115.128 9.20667 114.642 8.79333 114.028 8.5C113.415 8.19333 112.728 8.04 111.968 8.04C111.702 8.04 111.348 8.08 110.908 8.16C110.468 8.22667 110.035 8.32667 109.608 8.46C109.182 8.58 108.842 8.72667 108.588 8.9L109.188 10.74ZM120.509 18V11.82C120.856 11.5 121.229 11.2133 121.629 10.96C122.043 10.7067 122.449 10.5 122.849 10.34C123.263 10.18 123.629 10.1 123.949 10.1L123.469 8.3C123.123 8.3 122.743 8.38667 122.329 8.56C121.929 8.73333 121.543 8.94667 121.169 9.2C120.796 9.44 120.476 9.67333 120.209 9.9L119.469 8.3H118.269V18H120.509ZM127.561 18V8.3H125.301V18H127.561ZM126.401 6.74C126.774 6.74 127.087 6.61333 127.341 6.36C127.607 6.09333 127.741 5.77333 127.741 5.4C127.741 5.02667 127.607 4.71333 127.341 4.46C127.074 4.20667 126.761 4.08 126.401 4.08C126.027 4.08 125.714 4.20667 125.461 4.46C125.221 4.71333 125.101 5.02667 125.101 5.4C125.101 5.78667 125.221 6.10667 125.461 6.36C125.714 6.61333 126.027 6.74 126.401 6.74ZM129.311 17.32C129.605 17.52 129.951 17.6933 130.351 17.84C130.751 17.9867 131.158 18.0933 131.571 18.16C131.985 18.2267 132.325 18.26 132.591 18.26C133.885 18.26 134.871 18 135.551 17.48C136.231 16.9467 136.571 16.22 136.571 15.3C136.571 14.74 136.405 14.26 136.071 13.86C135.751 13.4467 135.338 13.0933 134.831 12.8C134.338 12.4933 133.825 12.2533 133.291 12.08C132.825 11.92 132.411 11.7467 132.051 11.56C131.705 11.3733 131.531 11.1533 131.531 10.9C131.531 10.6067 131.665 10.36 131.931 10.16C132.211 9.96 132.558 9.86 132.971 9.86C133.465 9.86 133.911 9.92667 134.311 10.06C134.711 10.18 135.118 10.34 135.531 10.54L136.231 9C135.938 8.78667 135.591 8.61333 135.191 8.48C134.791 8.33333 134.398 8.22667 134.011 8.16C133.625 8.08 133.291 8.04 133.011 8.04C131.851 8.04 130.938 8.3 130.271 8.82C129.605 9.32667 129.271 10.0333 129.271 10.94C129.271 11.46 129.431 11.9133 129.751 12.3C130.085 12.6733 130.498 12.9867 130.991 13.24C131.485 13.4933 131.985 13.7133 132.491 13.9C132.891 14.0067 133.231 14.14 133.511 14.3C133.791 14.4467 134.011 14.6133 134.171 14.8C134.331 14.9733 134.411 15.1667 134.411 15.38C134.411 15.5933 134.325 15.78 134.151 15.94C133.978 16.1 133.751 16.22 133.471 16.3C133.191 16.38 132.891 16.42 132.571 16.42C132.291 16.42 132.011 16.3933 131.731 16.34C131.451 16.2867 131.165 16.2133 130.871 16.12C130.578 16.0133 130.285 15.9 129.991 15.78L129.311 17.32ZM140.529 18V11.22C140.809 11.0067 141.096 10.7933 141.389 10.58C141.682 10.3667 141.982 10.1933 142.289 10.06C142.596 9.92667 142.902 9.86 143.209 9.86C143.556 9.86 143.822 9.94667 144.009 10.12C144.209 10.28 144.349 10.5133 144.429 10.82C144.522 11.1133 144.569 11.4733 144.569 11.9V18H146.829V11.56C146.829 10.84 146.722 10.2133 146.509 9.68C146.309 9.14667 145.982 8.73333 145.529 8.44C145.076 8.13333 144.482 7.98 143.749 7.98C143.402 7.98 143.016 8.04 142.589 8.16C142.176 8.28 141.762 8.45333 141.349 8.68C140.949 8.89333 140.562 9.15333 140.189 9.46L139.789 8.3H138.289V18H140.529ZM146.729 11.22C147.009 11.0067 147.296 10.7933 147.589 10.58C147.896 10.3667 148.202 10.1933 148.509 10.06C148.816 9.92667 149.116 9.86 149.409 9.86C149.756 9.86 150.022 9.94667 150.209 10.12C150.409 10.28 150.549 10.5133 150.629 10.82C150.722 11.1133 150.769 11.4733 150.769 11.9V18H153.029V11.56C153.029 10.84 152.922 10.2133 152.709 9.68C152.509 9.14667 152.182 8.73333 151.729 8.44C151.276 8.13333 150.682 7.98 149.949 7.98C149.589 7.98 149.202 8.04 148.789 8.16C148.376 8.28 147.962 8.45333 147.549 8.68C147.136 8.89333 146.749 9.15333 146.389 9.46L146.729 11.22ZM159.842 11.64H154.682L154.882 13.42H160.042L159.842 11.64ZM168.965 10.34H164.625V6.16H170.245L169.905 4.4H162.405V18H164.625V12.08H169.285L168.965 10.34ZM174.045 18V11.82C174.391 11.5 174.765 11.2133 175.165 10.96C175.578 10.7067 175.985 10.5 176.385 10.34C176.798 10.18 177.165 10.1 177.485 10.1L177.005 8.3C176.658 8.3 176.278 8.38667 175.865 8.56C175.465 8.73333 175.078 8.94667 174.705 9.2C174.331 9.44 174.011 9.67333 173.745 9.9L173.005 8.3H171.805V18H174.045ZM187.316 13.74V13.26C187.316 12.3133 187.162 11.4467 186.856 10.66C186.562 9.87333 186.096 9.24 185.456 8.76C184.816 8.28 183.996 8.04 182.996 8.04C182.009 8.04 181.156 8.25333 180.436 8.68C179.729 9.10667 179.182 9.70667 178.796 10.48C178.422 11.24 178.236 12.1333 178.236 13.16C178.236 14.1733 178.436 15.0667 178.836 15.84C179.236 16.6 179.842 17.1933 180.656 17.62C181.469 18.0333 182.469 18.24 183.656 18.24C184.162 18.24 184.629 18.1933 185.056 18.1C185.482 18.0067 185.876 17.8733 186.236 17.7C186.596 17.5133 186.929 17.32 187.236 17.12L186.556 15.48C186.076 15.7333 185.616 15.94 185.176 16.1C184.749 16.26 184.256 16.34 183.696 16.34C183.002 16.34 182.436 16.2333 181.996 16.02C181.569 15.7933 181.242 15.4867 181.016 15.1C180.802 14.7133 180.662 14.26 180.596 13.74H187.316ZM180.636 12.22C180.702 11.74 180.829 11.3333 181.016 11C181.216 10.6667 181.476 10.4133 181.796 10.24C182.129 10.0533 182.502 9.96 182.916 9.96C183.342 9.96 183.702 10.0533 183.996 10.24C184.302 10.4133 184.549 10.6667 184.736 11C184.936 11.3333 185.076 11.74 185.156 12.22H180.636ZM197.492 13.74V13.26C197.492 12.3133 197.338 11.4467 197.032 10.66C196.738 9.87333 196.272 9.24 195.632 8.76C194.992 8.28 194.172 8.04 193.172 8.04C192.185 8.04 191.332 8.25333 190.612 8.68C189.905 9.10667 189.358 9.70667 188.972 10.48C188.598 11.24 188.412 12.1333 188.412 13.16C188.412 14.1733 188.612 15.0667 189.012 15.84C189.412 16.6 190.018 17.1933 190.832 17.62C191.645 18.0333 192.645 18.24 193.832 18.24C194.338 18.24 194.805 18.1933 195.232 18.1C195.658 18.0067 196.052 17.8733 196.412 17.7C196.772 17.5133 197.105 17.32 197.412 17.12L196.732 15.48C196.252 15.7333 195.792 15.94 195.352 16.1C194.925 16.26 194.432 16.34 193.872 16.34C193.178 16.34 192.612 16.2333 192.172 16.02C191.745 15.7933 191.418 15.4867 191.192 15.1C190.978 14.7133 190.838 14.26 190.772 13.74H197.492ZM190.812 12.22C190.878 11.74 191.005 11.3333 191.192 11C191.392 10.6667 191.652 10.4133 191.972 10.24C192.305 10.0533 192.678 9.96 193.092 9.96C193.518 9.96 193.878 10.0533 194.172 10.24C194.478 10.4133 194.725 10.6667 194.912 11C195.112 11.3333 195.252 11.74 195.332 12.22H190.812ZM68.98 43V38.12H70.64C71.3467 38.12 72.0267 38.0333 72.68 37.86C73.3333 37.6867 73.9133 37.42 74.42 37.06C74.94 36.7 75.3467 36.24 75.64 35.68C75.9333 35.12 76.08 34.46 76.08 33.7C76.08 32.6733 75.8467 31.8467 75.38 31.22C74.9133 30.58 74.28 30.12 73.48 29.84C72.68 29.5467 71.7933 29.4 70.82 29.4H66.76V43H68.98ZM70.76 31.28C71.3867 31.28 71.9133 31.36 72.34 31.52C72.78 31.68 73.12 31.9467 73.36 32.32C73.6133 32.68 73.74 33.18 73.74 33.82C73.7 34.38 73.5533 34.8467 73.3 35.22C73.0467 35.58 72.7 35.8467 72.26 36.02C71.82 36.18 71.3133 36.26 70.74 36.26H68.98V31.28H70.76ZM82.1806 43.26C81.154 43.26 80.2673 43.0467 79.5206 42.62C78.774 42.1933 78.2006 41.6 77.8006 40.84C77.4006 40.0667 77.2006 39.1733 77.2006 38.16C77.2006 37.12 77.4073 36.22 77.8206 35.46C78.234 34.7 78.814 34.1067 79.5606 33.68C80.3206 33.2533 81.2073 33.04 82.2206 33.04C83.2473 33.04 84.1273 33.2533 84.8606 33.68C85.6073 34.1067 86.1873 34.7 86.6006 35.46C87.014 36.22 87.2206 37.1133 87.2206 38.14C87.2206 39.1533 87.0073 40.0467 86.5806 40.82C86.1673 41.5933 85.5873 42.1933 84.8406 42.62C84.094 43.0333 83.2073 43.2467 82.1806 43.26ZM82.2006 41.32C82.7606 41.32 83.2406 41.18 83.6406 40.9C84.0406 40.62 84.3473 40.24 84.5606 39.76C84.7873 39.28 84.9006 38.74 84.9006 38.14C84.9006 37.5267 84.794 36.98 84.5806 36.5C84.3673 36.02 84.0606 35.6467 83.6606 35.38C83.2606 35.1 82.7806 34.96 82.2206 34.96C81.6873 34.96 81.214 35.1 80.8006 35.38C80.3873 35.66 80.0673 36.04 79.8406 36.52C79.6273 37 79.514 37.54 79.5006 38.14C79.5006 38.7533 79.6073 39.3 79.8206 39.78C80.034 40.26 80.3473 40.64 80.7606 40.92C81.174 41.1867 81.654 41.32 82.2006 41.32ZM91.3339 43V28.88L89.1139 29.1V43H91.3339ZM96.1153 43V33.3H93.8553V43H96.1153ZM94.9553 31.74C95.3286 31.74 95.642 31.6133 95.8953 31.36C96.162 31.0933 96.2953 30.7733 96.2953 30.4C96.2953 30.0267 96.162 29.7133 95.8953 29.46C95.6286 29.2067 95.3153 29.08 94.9553 29.08C94.582 29.08 94.2686 29.2067 94.0153 29.46C93.7753 29.7133 93.6553 30.0267 93.6553 30.4C93.6553 30.7867 93.7753 31.1067 94.0153 31.36C94.2686 31.6133 94.582 31.74 94.9553 31.74ZM105.446 40.68C105.006 40.88 104.579 41.04 104.166 41.16C103.766 41.2667 103.313 41.32 102.806 41.32C102.259 41.32 101.779 41.1867 101.366 40.92C100.953 40.64 100.639 40.26 100.426 39.78C100.213 39.3 100.106 38.7533 100.106 38.14C100.119 37.54 100.233 37 100.446 36.52C100.673 36.04 100.993 35.66 101.406 35.38C101.819 35.1 102.293 34.96 102.826 34.96C103.333 34.96 103.793 35.0267 104.206 35.16C104.619 35.28 105.046 35.4333 105.486 35.62L106.146 34.02C105.839 33.8067 105.473 33.6267 105.046 33.48C104.633 33.3333 104.226 33.2267 103.826 33.16C103.426 33.08 103.093 33.04 102.826 33.04C101.813 33.04 100.926 33.2533 100.166 33.68C99.4194 34.1067 98.8394 34.7067 98.4261 35.48C98.0128 36.24 97.8061 37.1333 97.8061 38.16C97.8061 39.1733 98.0061 40.0667 98.4061 40.84C98.8194 41.6 99.3994 42.1933 100.146 42.62C100.893 43.0467 101.773 43.26 102.786 43.26C103.066 43.26 103.406 43.22 103.806 43.14C104.206 43.0733 104.619 42.9667 105.046 42.82C105.473 42.6733 105.826 42.5 106.106 42.3L105.446 40.68ZM109.722 43.86C109.615 44.1533 109.435 44.4067 109.182 44.62C108.928 44.8333 108.635 45.02 108.302 45.18C107.982 45.34 107.668 45.4867 107.362 45.62L108.142 47.44C108.675 47.3067 109.188 47.1067 109.682 46.84C110.175 46.5733 110.608 46.24 110.982 45.84C111.368 45.44 111.655 45 111.842 44.52L116.162 33.3H113.802L111.462 39.74L108.982 32.94L106.802 33.68L110.262 42.54L109.722 43.86Z" fill="#00466F"/>
</svg>
