<svg width="29" height="31" viewBox="0 0 29 31" fill="none" xmlns="http://www.w3.org/2000/svg">
<path fill-rule="evenodd" clip-rule="evenodd" d="M10.0573 10.7113C11.2181 10.7113 12.1597 11.6332 12.1597 12.7705C12.1597 13.9079 11.2181 14.8297 10.0573 14.8297C8.89657 14.8297 7.95495 13.9079 7.95495 12.7705C7.95495 11.6332 8.89657 10.7113 10.0573 10.7113ZM18.5204 10.7113C19.6812 10.7113 20.6228 11.6332 20.6228 12.7705C20.6228 13.9079 19.6812 14.8297 18.5204 14.8297C17.3596 14.8297 16.418 13.9079 16.418 12.7705C16.418 11.6332 17.3596 10.7113 18.5204 10.7113ZM9.07842 2.64471H19.9216C20.1712 2.3574 20.5659 1.99931 21.1134 1.64482C22.0824 1.01741 23.2519 0.607927 24.6243 0.518393L24.9062 0.5L25.0433 0.741968C25.0724 0.793216 25.1246 0.889196 25.1967 1.02768C25.3156 1.25591 25.4477 1.52216 25.5897 1.82418C25.9942 2.6845 26.3983 3.66101 26.7752 4.73594C27.9859 8.18828 28.6477 11.8387 28.472 15.4982C28.1039 23.1686 22.0444 29.8912 15.2042 30.4579V30.5H14.7588C14.708 30.5 14.6698 30.499 14.5868 30.4959C14.5364 30.4941 14.5163 30.4934 14.5092 30.4929C14.4837 30.4934 14.4636 30.4941 14.4132 30.4959L14.387 30.4969C14.3271 30.499 14.2858 30.5 14.2417 30.5H13.7962V30.4579C6.95571 29.8913 0.896061 23.1687 0.527998 15.4982C0.352252 11.8387 1.01414 8.18828 2.22478 4.73594C2.60173 3.66101 3.00577 2.6845 3.41026 1.82418C3.55227 1.52216 3.68437 1.25591 3.80325 1.02768C3.87538 0.889196 3.92763 0.793216 3.95667 0.741968L4.0938 0.500003L4.37572 0.518393C5.74826 0.607926 6.91783 1.01741 7.88678 1.64482C8.43422 1.99931 8.82887 2.35739 9.07842 2.64471ZM24.3975 1.41317C23.3095 1.52631 22.3818 1.86955 21.6047 2.3727C21.2694 2.58977 20.9865 2.82156 20.7552 3.05188C20.6204 3.18605 20.5352 3.28623 20.4989 3.33576L20.3656 3.51726H8.6344L8.5011 3.33571C8.46474 3.28619 8.3796 3.18602 8.24486 3.05185C8.01356 2.82154 7.73071 2.58975 7.39549 2.3727C6.61845 1.86954 5.69064 1.5263 4.60255 1.41317C4.60065 1.41681 4.59873 1.42049 4.59679 1.42421C4.48324 1.64221 4.35635 1.89795 4.21943 2.18916C3.82702 3.0238 3.43415 3.97329 3.06731 5.01938C1.89062 8.37491 1.24796 11.9193 1.41786 15.4573C1.77281 22.8544 7.73004 29.3187 14.2622 29.6135L14.4455 29.6218C14.4649 29.6213 14.4839 29.6209 14.5092 29.6206C14.5249 29.6209 14.5391 29.6212 14.5557 29.6218L14.7383 29.6135C21.27 29.3187 27.2272 22.8544 27.5821 15.4572C27.752 11.9193 27.1094 8.37491 25.9327 5.01938C25.5659 3.97329 25.173 3.0238 24.7806 2.18916C24.6436 1.89795 24.5168 1.64221 24.4032 1.42421C24.4013 1.42049 24.3994 1.41681 24.3975 1.41317ZM14.3935 16.8933C15.7337 17.2803 15.0928 19.4019 14.6812 20.3107C14.5511 20.5973 14.3935 20.6017 14.3935 20.6017C14.3935 20.6017 14.2358 20.5973 14.1057 20.3107C13.6941 19.4019 13.0532 17.2803 14.3935 16.8933ZM10.0573 9.78937C8.37899 9.78937 7.01376 11.1265 7.01376 12.7704C7.01376 14.4148 8.37899 15.7519 10.0573 15.7519C11.7357 15.7519 13.1009 14.4148 13.1009 12.7704C13.1009 11.1265 11.7357 9.78937 10.0573 9.78937ZM10.0573 16.6245C7.88769 16.6245 6.12292 14.8955 6.12292 12.7704C6.12292 10.6458 7.88769 8.91682 10.0573 8.91682C12.227 8.91682 13.9918 10.6458 13.9918 12.7704C13.9918 14.8955 12.227 16.6245 10.0573 16.6245ZM18.5204 9.78937C16.842 9.78937 15.4768 11.1265 15.4768 12.7704C15.4768 14.4148 16.842 15.7519 18.5204 15.7519C20.1987 15.7519 21.564 14.4148 21.564 12.7704C21.564 11.1265 20.1987 9.78937 18.5204 9.78937ZM18.5204 16.6245C16.3507 16.6245 14.586 14.8955 14.586 12.7704C14.586 10.6458 16.3507 8.91682 18.5204 8.91682C20.6901 8.91682 22.4548 10.6458 22.4548 12.7704C22.4548 14.8955 20.6901 16.6245 18.5204 16.6245ZM19.3108 5.97575C20.0372 5.97575 20.8239 6.07261 21.6559 6.31343C25.879 7.53631 27.7137 14.559 23.1035 19.0745C18.8738 23.2178 14.3808 25.7639 14.3808 25.7639C14.3808 25.7639 9.90073 23.2178 5.67055 19.0745C1.06041 14.559 2.89556 7.53631 7.11817 6.31343C7.95067 6.07261 8.73684 5.97575 9.46377 5.97575C12.3817 5.97575 14.3323 7.53675 14.387 7.58081C14.4418 7.53675 16.3923 5.97575 19.3108 5.97575ZM19.3108 6.8483C16.7322 6.8483 14.9714 8.24002 14.9541 8.25398L14.387 8.70989L13.82 8.25398C13.8026 8.24002 12.0414 6.8483 9.46377 6.8483C8.76669 6.8483 8.06292 6.94996 7.37073 7.15021C5.82422 7.59826 4.59975 9.02619 4.09464 10.9702C3.40468 13.6298 4.22915 16.4285 6.30082 18.4571C9.63036 21.7187 13.159 23.9948 14.3812 24.7426C15.6062 23.9952 19.1437 21.7192 22.4737 18.4571C24.5449 16.4285 25.3699 13.6298 24.6794 10.9702C24.1748 9.02619 22.9499 7.59826 21.4034 7.15021C20.7116 6.94996 20.0074 6.8483 19.3108 6.8483Z" fill="url(#paint0_linear_162_354)"/>
<defs>
<linearGradient id="paint0_linear_162_354" x1="0.313334" y1="15.5" x2="28.6867" y2="15.5" gradientUnits="userSpaceOnUse">
<stop stop-color="#1B99E5"/>
<stop offset="1" stop-color="#FDC420"/>
</linearGradient>
</defs>
</svg>
