<svg width="21" height="16" viewBox="0 0 21 16" fill="none" xmlns="http://www.w3.org/2000/svg">
<path d="M18.2323 10.4598C17.663 10.0577 16.9092 10.0577 16.3323 10.4598C16.0476 10.2627 15.7246 10.1602 15.3861 10.1602C14.4476 10.1602 13.6938 10.9407 13.6938 11.8946C13.6938 12.8486 14.4476 13.637 15.3861 13.637C15.7246 13.637 16.0553 13.5345 16.3323 13.3374C17.1092 13.8735 18.163 13.6606 18.6861 12.8722C19.2169 12.0838 19.0092 10.9959 18.2323 10.4598ZM17.8553 12.4071C17.5861 12.7303 17.1169 12.7776 16.7938 12.5017C16.7553 12.4701 16.7246 12.4386 16.6938 12.3992C16.6015 12.2888 16.4707 12.2258 16.3323 12.2336C16.1938 12.2336 16.063 12.2967 15.9707 12.4071C15.8323 12.5884 15.6169 12.6909 15.3861 12.683C14.9707 12.683 14.6246 12.3361 14.6246 11.9104C14.6169 11.4768 14.9553 11.1299 15.3784 11.1299C15.6015 11.1299 15.8169 11.2324 15.963 11.4137C16.1246 11.6187 16.4246 11.6502 16.6246 11.4847C16.6476 11.4689 16.6707 11.4453 16.6938 11.4137C16.963 11.0905 17.4323 11.0432 17.7553 11.3191C18.0784 11.5872 18.1246 12.076 17.8553 12.4071Z" fill="#00466F"/>
<path d="M20.8553 6.38384C20.8553 6.34442 20.8707 6.28924 20.8707 6.24193C20.8707 6.19463 20.8553 6.14733 20.8553 6.10791V5.08301C20.8553 3.95563 19.9477 3.04899 18.8477 3.04899H18.2784V2.46558C18.2784 1.3382 17.4015 0.400024 16.3015 0.400024H2.87077C1.77077 0.400024 0.878467 1.33031 0.878467 2.46558V10.917C0.870775 12.0365 1.76308 12.9432 2.85539 12.9511C2.86308 12.9511 2.86308 12.9511 2.87077 12.9511H3.41692V13.5345C3.42461 14.6697 4.30923 15.5921 5.41692 15.6H18.8554C19.963 15.5921 20.8553 14.6697 20.863 13.5345V8.63861C20.863 8.5992 20.8784 8.54401 20.8784 8.50459C20.8784 8.46517 20.863 8.40998 20.863 8.37056V6.38384H20.8553ZM3.40154 5.08301V11.9892H2.85539C2.28616 11.9971 1.80923 11.5241 1.80154 10.9328C1.80154 10.9249 1.80154 10.9249 1.80154 10.917V2.46558C1.80154 1.86641 2.26308 1.36185 2.85539 1.36185H16.2938C16.8784 1.36185 17.3323 1.86641 17.3323 2.46558V3.04899H5.40153C4.30153 3.04899 3.40154 3.95563 3.40154 5.08301ZM19.9169 13.5345C19.9092 14.1415 19.44 14.6303 18.8477 14.6382H5.40923C4.81692 14.6303 4.34769 14.1415 4.34769 13.5345V8.96185H19.9169V13.5345ZM19.9169 8.00002H4.34769V6.7465H19.9169V8.00002ZM19.9169 5.79256H4.34V5.08301C4.34769 4.48384 4.81692 4.00293 5.40153 4.01081H18.8477C19.4323 4.01081 19.9169 4.48384 19.9169 5.08301V5.79256Z" fill="#00466F"/>
</svg>
