<svg width="248" height="50" viewBox="0 0 248 50" fill="none" xmlns="http://www.w3.org/2000/svg">
<path d="M45.9976 7.30092C45.9972 7.10819 45.9358 6.92055 45.8221 6.76499C45.7085 6.60944 45.5485 6.49399 45.3651 6.43526L25.59 0.0449737C25.3976 -0.0178386 25.1899 -0.0146656 24.9996 0.053991C24.8089 -0.0143904 24.601 -0.017912 24.4082 0.0439718L4.63502 6.43726C4.45158 6.49563 4.29139 6.61082 4.17755 6.76622C4.06371 6.92162 4.0021 7.1092 4.0016 7.30192L4.0026 21.7697C3.99459 21.9821 3.43922 43.0186 24.5263 49.9539C24.6193 49.985 24.7164 50 24.8145 50H25.1857C25.2836 50.0003 25.3809 49.9848 25.4739 49.9539C46.5599 43.0186 46.0046 21.9811 45.9976 21.8048V7.30092ZM25.0376 48.1785H24.9626C5.34149 41.6379 5.8018 22.6444 5.83182 21.8038V7.96219L24.9736 1.7753C24.9826 1.7733 24.9906 1.76929 24.9996 1.76628L25.0256 1.7763L44.1683 7.96219V21.8389C44.1763 22.0352 44.6947 41.6229 25.0376 48.1795V48.1785Z" fill="#1799E5"/>
<path d="M40.2858 9.88789L25.4459 4.92135C25.3168 4.87927 25.1837 4.86825 25.0606 4.87927C24.9307 4.86776 24.7998 4.88206 24.6754 4.92135L9.83748 9.88689C9.65659 9.94732 9.4992 10.0631 9.38753 10.2179C9.27586 10.3726 9.21553 10.5586 9.21507 10.7496V22.0503C9.22107 22.2126 9.96257 38.3777 24.7304 44.0666C24.9431 44.1477 25.1781 44.1477 25.3908 44.0666C40.1587 38.3777 40.9012 22.2126 40.9082 22.0182V10.7496C40.9075 10.5588 40.8471 10.373 40.7354 10.2185C40.6238 10.0639 40.4665 9.94827 40.2858 9.88789ZM25.0596 42.2401C11.7528 36.8798 11.0493 22.1364 11.0443 22.0192V11.4038L25.0606 6.71279L39.078 11.4038V21.9862C39.0729 22.1354 38.3675 36.8788 25.0606 42.2411L25.0596 42.2401Z" fill="#1799E5"/>
<path d="M35.5356 18.279C35.349 18.1241 35.1089 18.0493 34.8675 18.0709C34.626 18.0924 34.4029 18.2087 34.2467 18.3942L23.6567 31.0095L16.8261 23.8758C16.6582 23.7009 16.4282 23.5994 16.186 23.5932C15.9438 23.587 15.7089 23.6766 15.5323 23.8427C15.4453 23.9248 15.3754 24.0233 15.3267 24.1326C15.278 24.2418 15.2514 24.3597 15.2484 24.4793C15.2454 24.5989 15.2662 24.7179 15.3094 24.8295C15.3526 24.941 15.4175 25.0429 15.5003 25.1292L23.0383 33.0023C23.1242 33.0917 23.2272 33.1628 23.3412 33.2113C23.4552 33.2599 23.5778 33.2849 23.7017 33.2849L23.7317 33.2839C23.8604 33.2799 23.9867 33.2489 24.1026 33.1928C24.2184 33.1367 24.3212 33.0567 24.4042 32.9582L35.6517 19.5615C35.7286 19.4699 35.7867 19.3641 35.8225 19.2499C35.8583 19.1358 35.8712 19.0157 35.8604 18.8965C35.8496 18.7774 35.8154 18.6616 35.7596 18.5557C35.7038 18.4499 35.6277 18.3562 35.5356 18.28V18.279Z" fill="#1799E5"/>
<path d="M68.98 30.5V25.62H70.64C71.3467 25.62 72.0267 25.5333 72.68 25.36C73.3333 25.1867 73.9133 24.92 74.42 24.56C74.94 24.2 75.3467 23.74 75.64 23.18C75.9333 22.62 76.08 21.96 76.08 21.2C76.08 20.1733 75.8467 19.3467 75.38 18.72C74.9133 18.08 74.28 17.62 73.48 17.34C72.68 17.0467 71.7933 16.9 70.82 16.9H66.76V30.5H68.98ZM70.76 18.78C71.3867 18.78 71.9133 18.86 72.34 19.02C72.78 19.18 73.12 19.4467 73.36 19.82C73.6133 20.18 73.74 20.68 73.74 21.32C73.7 21.88 73.5533 22.3467 73.3 22.72C73.0467 23.08 72.7 23.3467 72.26 23.52C71.82 23.68 71.3133 23.76 70.74 23.76H68.98V18.78H70.76ZM80.0406 30.5V24.32C80.3873 24 80.7606 23.7133 81.1606 23.46C81.574 23.2067 81.9806 23 82.3806 22.84C82.794 22.68 83.1606 22.6 83.4806 22.6L83.0006 20.8C82.654 20.8 82.274 20.8867 81.8606 21.06C81.4606 21.2333 81.074 21.4467 80.7006 21.7C80.3273 21.94 80.0073 22.1733 79.7406 22.4L79.0006 20.8H77.8006V30.5H80.0406ZM87.0919 30.5V20.8H84.8319V30.5H87.0919ZM85.9319 19.24C86.3052 19.24 86.6185 19.1133 86.8719 18.86C87.1385 18.5933 87.2719 18.2733 87.2719 17.9C87.2719 17.5267 87.1385 17.2133 86.8719 16.96C86.6052 16.7067 86.2919 16.58 85.9319 16.58C85.5585 16.58 85.2452 16.7067 84.9919 16.96C84.7519 17.2133 84.6319 17.5267 84.6319 17.9C84.6319 18.2867 84.7519 18.6067 84.9919 18.86C85.2452 19.1133 85.5585 19.24 85.9319 19.24ZM94.0227 30.5L97.7627 20.8H95.4027L93.0827 27.26L90.6027 20.44L88.4227 21.16L92.0227 30.5H94.0227ZM100.829 27.64C100.829 27.2533 100.969 26.9 101.249 26.58C101.529 26.26 101.922 26.1 102.429 26.1H104.609V27.84C104.262 28.1867 103.889 28.46 103.489 28.66C103.089 28.86 102.675 28.96 102.249 28.96C101.955 28.96 101.702 28.9 101.489 28.78C101.275 28.6467 101.109 28.48 100.989 28.28C100.882 28.08 100.829 27.8667 100.829 27.64ZM100.009 23.24C100.382 23.08 100.815 22.9333 101.309 22.8C101.815 22.6533 102.322 22.58 102.829 22.58C103.455 22.58 103.902 22.7667 104.169 23.14C104.435 23.5 104.575 23.9667 104.589 24.54V24.6H102.469C101.402 24.6133 100.535 24.88 99.8688 25.4C99.2021 25.92 98.8688 26.6667 98.8688 27.64C98.8688 28.56 99.1488 29.3067 99.7088 29.88C100.269 30.4533 101.129 30.74 102.289 30.74C102.795 30.74 103.289 30.62 103.769 30.38C104.249 30.14 104.662 29.8533 105.009 29.52L105.349 30.5H106.869V24.02C106.869 23.3667 106.682 22.7733 106.309 22.24C105.949 21.7067 105.462 21.2933 104.849 21C104.235 20.6933 103.549 20.54 102.789 20.54C102.522 20.54 102.169 20.58 101.729 20.66C101.289 20.7267 100.855 20.8267 100.429 20.96C100.002 21.08 99.6621 21.2267 99.4088 21.4L100.009 23.24ZM116.13 28.18C115.69 28.38 115.263 28.54 114.85 28.66C114.45 28.7667 113.996 28.82 113.49 28.82C112.943 28.82 112.463 28.6867 112.05 28.42C111.636 28.14 111.323 27.76 111.11 27.28C110.896 26.8 110.79 26.2533 110.79 25.64C110.803 25.04 110.916 24.5 111.13 24.02C111.356 23.54 111.676 23.16 112.09 22.88C112.503 22.6 112.976 22.46 113.51 22.46C114.016 22.46 114.476 22.5267 114.89 22.66C115.303 22.78 115.73 22.9333 116.17 23.12L116.83 21.52C116.523 21.3067 116.156 21.1267 115.73 20.98C115.316 20.8333 114.91 20.7267 114.51 20.66C114.11 20.58 113.776 20.54 113.51 20.54C112.496 20.54 111.61 20.7533 110.85 21.18C110.103 21.6067 109.523 22.2067 109.11 22.98C108.696 23.74 108.49 24.6333 108.49 25.66C108.49 26.6733 108.69 27.5667 109.09 28.34C109.503 29.1 110.083 29.6933 110.83 30.12C111.576 30.5467 112.456 30.76 113.47 30.76C113.75 30.76 114.09 30.72 114.49 30.64C114.89 30.5733 115.303 30.4667 115.73 30.32C116.156 30.1733 116.51 30 116.79 29.8L116.13 28.18ZM120.405 31.36C120.298 31.6533 120.118 31.9067 119.865 32.12C119.612 32.3333 119.318 32.52 118.985 32.68C118.665 32.84 118.352 32.9867 118.045 33.12L118.825 34.94C119.358 34.8067 119.872 34.6067 120.365 34.34C120.858 34.0733 121.292 33.74 121.665 33.34C122.052 32.94 122.338 32.5 122.525 32.02L126.845 20.8H124.485L122.145 27.24L119.665 20.44L117.485 21.18L120.945 30.04L120.405 31.36ZM135.582 30.5V25.62H137.242C137.948 25.62 138.628 25.5333 139.282 25.36C139.935 25.1867 140.515 24.92 141.022 24.56C141.542 24.2 141.948 23.74 142.242 23.18C142.535 22.62 142.682 21.96 142.682 21.2C142.682 20.1733 142.448 19.3467 141.982 18.72C141.515 18.08 140.882 17.62 140.082 17.34C139.282 17.0467 138.395 16.9 137.422 16.9H133.362V30.5H135.582ZM137.362 18.78C137.988 18.78 138.515 18.86 138.942 19.02C139.382 19.18 139.722 19.4467 139.962 19.82C140.215 20.18 140.342 20.68 140.342 21.32C140.302 21.88 140.155 22.3467 139.902 22.72C139.648 23.08 139.302 23.3467 138.862 23.52C138.422 23.68 137.915 23.76 137.342 23.76H135.582V18.78H137.362ZM148.782 30.76C147.756 30.76 146.869 30.5467 146.122 30.12C145.376 29.6933 144.802 29.1 144.402 28.34C144.002 27.5667 143.802 26.6733 143.802 25.66C143.802 24.62 144.009 23.72 144.422 22.96C144.836 22.2 145.416 21.6067 146.162 21.18C146.922 20.7533 147.809 20.54 148.822 20.54C149.849 20.54 150.729 20.7533 151.462 21.18C152.209 21.6067 152.789 22.2 153.202 22.96C153.616 23.72 153.822 24.6133 153.822 25.64C153.822 26.6533 153.609 27.5467 153.182 28.32C152.769 29.0933 152.189 29.6933 151.442 30.12C150.696 30.5333 149.809 30.7467 148.782 30.76ZM148.802 28.82C149.362 28.82 149.842 28.68 150.242 28.4C150.642 28.12 150.949 27.74 151.162 27.26C151.389 26.78 151.502 26.24 151.502 25.64C151.502 25.0267 151.396 24.48 151.182 24C150.969 23.52 150.662 23.1467 150.262 22.88C149.862 22.6 149.382 22.46 148.822 22.46C148.289 22.46 147.816 22.6 147.402 22.88C146.989 23.16 146.669 23.54 146.442 24.02C146.229 24.5 146.116 25.04 146.102 25.64C146.102 26.2533 146.209 26.8 146.422 27.28C146.636 27.76 146.949 28.14 147.362 28.42C147.776 28.6867 148.256 28.82 148.802 28.82ZM157.935 30.5V16.38L155.715 16.6V30.5H157.935ZM162.717 30.5V20.8H160.457V30.5H162.717ZM161.557 19.24C161.93 19.24 162.244 19.1133 162.497 18.86C162.764 18.5933 162.897 18.2733 162.897 17.9C162.897 17.5267 162.764 17.2133 162.497 16.96C162.23 16.7067 161.917 16.58 161.557 16.58C161.184 16.58 160.87 16.7067 160.617 16.96C160.377 17.2133 160.257 17.5267 160.257 17.9C160.257 18.2867 160.377 18.6067 160.617 18.86C160.87 19.1133 161.184 19.24 161.557 19.24ZM172.048 28.18C171.608 28.38 171.181 28.54 170.768 28.66C170.368 28.7667 169.914 28.82 169.408 28.82C168.861 28.82 168.381 28.6867 167.968 28.42C167.554 28.14 167.241 27.76 167.028 27.28C166.814 26.8 166.708 26.2533 166.708 25.64C166.721 25.04 166.834 24.5 167.048 24.02C167.274 23.54 167.594 23.16 168.008 22.88C168.421 22.6 168.894 22.46 169.428 22.46C169.934 22.46 170.394 22.5267 170.808 22.66C171.221 22.78 171.648 22.9333 172.088 23.12L172.748 21.52C172.441 21.3067 172.074 21.1267 171.648 20.98C171.234 20.8333 170.828 20.7267 170.428 20.66C170.028 20.58 169.694 20.54 169.428 20.54C168.414 20.54 167.528 20.7533 166.768 21.18C166.021 21.6067 165.441 22.2067 165.028 22.98C164.614 23.74 164.408 24.6333 164.408 25.66C164.408 26.6733 164.608 27.5667 165.008 28.34C165.421 29.1 166.001 29.6933 166.748 30.12C167.494 30.5467 168.374 30.76 169.388 30.76C169.668 30.76 170.008 30.72 170.408 30.64C170.808 30.5733 171.221 30.4667 171.648 30.32C172.074 30.1733 172.428 30 172.708 29.8L172.048 28.18ZM176.323 31.36C176.216 31.6533 176.036 31.9067 175.783 32.12C175.53 32.3333 175.236 32.52 174.903 32.68C174.583 32.84 174.27 32.9867 173.963 33.12L174.743 34.94C175.276 34.8067 175.79 34.6067 176.283 34.34C176.776 34.0733 177.21 33.74 177.583 33.34C177.97 32.94 178.256 32.5 178.443 32.02L182.763 20.8H180.403L178.063 27.24L175.583 20.44L173.403 21.18L176.863 30.04L176.323 31.36Z" fill="#00466F"/>
</svg>
