<svg width="248" height="50" viewBox="0 0 248 50" fill="none" xmlns="http://www.w3.org/2000/svg">
<path fill-rule="evenodd" clip-rule="evenodd" d="M10.2477 5.25L8.2517 6.332L8.63384 4.04L7.01898 2.418L9.24971 2.084L10.2477 0L11.2448 2.084L13.4755 2.418L11.8616 4.041L12.2428 6.331L10.2477 5.25ZM17.5665 5.25L15.5734 6.332L15.9535 4.041L14.3397 2.418L16.5704 2.084L17.5674 0L18.5645 2.084L20.7952 2.418L19.1813 4.041L19.5625 6.331L17.5665 5.25ZM25.8017 5.25L23.8067 6.332L24.1879 4.041L22.574 2.418L24.8047 2.084L25.8008 0L26.7988 2.084L29.0295 2.418L27.4156 4.041L27.7968 6.331L25.8017 5.25ZM33.1215 5.25L31.1264 6.332L31.5076 4.041L29.8937 2.418L32.1244 2.084L33.1215 0L34.1204 2.084L36.3512 2.418L34.7363 4.041L35.1175 6.331L33.1215 5.25ZM40.4421 5.25L38.4461 6.332L38.8273 4.041L37.2134 2.418L39.4441 2.084L40.4421 0L41.4392 2.084L43.6699 2.418L42.056 4.041L42.4372 6.331L40.4421 5.25Z" fill="#1799E5"/>
<path d="M17.0214 28.333H34.8013L34.8013 26.667H17.0214L17.0204 26.666V28.333H17.0214Z" fill="#1799E5"/>
<path d="M15.4036 28.333H17.0204V26.666L15.4046 26.667L15.4036 26.666V28.333Z" fill="#1799E5"/>
<path fill-rule="evenodd" clip-rule="evenodd" d="M13.3329 28.333L9.04022 44.156C8.91392 44.6637 8.9021 45.1944 9.00567 45.7075C9.10923 46.2206 9.32543 46.7024 9.63767 47.116C10.2196 47.89 11.0828 48.333 12.0013 48.333H39.8224C40.7409 48.333 41.6031 47.89 42.186 47.117C42.4995 46.7003 42.7159 46.2148 42.8185 45.6981C42.9211 45.1814 42.9071 44.6472 42.7776 44.137L38.4907 28.333H36.4191H36.4181H34.8013V21.667L34.8013 17.5H29.9393C29.725 17.5 29.5195 17.4122 29.368 17.256C29.2165 17.0998 29.1314 16.8879 29.1314 16.667V11.667H17.8293C17.6151 11.6673 17.4098 11.7551 17.2583 11.9113C17.1068 12.0674 17.0216 12.2792 17.0214 12.5V26.667L17.0204 26.666L15.4046 26.667L15.4036 26.666V23.333H12.9799C12.7655 23.3333 12.56 23.4212 12.4085 23.5776C12.2571 23.734 12.172 23.946 12.172 24.167V25.833C12.172 26.2792 12.5133 26.6445 12.9401 26.666H15.4036V28.333H13.3329ZM44.3391 43.706L40.0754 27.9852C40.7883 27.5495 41.2675 26.7481 41.2675 25.833V24.167C41.2675 22.788 40.1793 21.667 38.8428 21.667H36.4181V16.321L36.1983 16.0949C36.1928 16.0889 36.1871 16.0829 36.1814 16.077L30.5096 10.243C30.5009 10.2341 30.4921 10.2255 30.483 10.2171L30.2719 10H17.8283C16.4909 10 15.4036 11.121 15.4036 12.5V21.667H12.9789C11.6414 21.667 10.5542 22.788 10.5542 24.167H8.14502C7.95903 24.1669 7.77869 24.2329 7.63436 24.3538C7.49003 24.4747 7.39053 24.6433 7.35262 24.831L6.51658 28.998C6.4924 29.1192 6.49469 29.2445 6.5233 29.3647C6.55191 29.485 6.60611 29.5971 6.68198 29.693C6.75784 29.789 6.85347 29.8663 6.96192 29.9194C7.07037 29.9725 7.18892 30 7.30898 30C7.49479 29.9999 7.67491 29.9338 7.81904 29.8129C7.96317 29.692 8.06252 29.5236 8.1004 29.336L8.8026 25.833H10.5542C10.555 26.4958 10.8107 27.1312 11.2652 27.5999C11.411 27.7502 11.5735 27.8794 11.7481 27.9857L7.47871 43.726C7.28764 44.4823 7.26787 45.2737 7.42091 46.0391C7.57396 46.8045 7.89571 47.5233 8.3613 48.14C9.25359 49.322 10.5794 50 12.0013 50H39.8224C41.2433 50 42.5701 49.322 43.4624 48.14C44.4051 46.889 44.7271 45.28 44.3391 43.706ZM10.5542 25.833H11.3631C11.5774 25.833 11.7829 25.7452 11.9344 25.589C12.0859 25.4328 12.171 25.2209 12.171 25C12.171 24.7791 12.0859 24.5672 11.9344 24.411C11.7829 24.2548 11.5774 24.167 11.3631 24.167H10.5542V25.833ZM39.6517 25.833C39.6517 26.2792 39.3104 26.6445 38.8836 26.666L36.4191 26.667V23.333H38.8438C39.0581 23.3333 39.2636 23.4212 39.4151 23.5776C39.5666 23.734 39.6517 23.946 39.6517 24.167V25.833ZM33.655 15.834L30.7472 12.8431V15.834H33.655ZM16.4498 32.2559C16.6014 32.4122 16.807 32.5 17.0214 32.5H17.8293C18.0437 32.5 18.2493 32.4122 18.4009 32.2559C18.5525 32.0996 18.6377 31.8876 18.6377 31.6665C18.6377 31.4454 18.5525 31.2334 18.4009 31.0771C18.2493 30.9208 18.0437 30.833 17.8293 30.833H17.0214C16.807 30.833 16.6014 30.9208 16.4498 31.0771C16.2982 31.2334 16.213 31.4454 16.213 31.6665C16.213 31.8876 16.2982 32.0996 16.4498 32.2559ZM22.6787 32.5H23.4866C23.701 32.5 23.9067 32.4122 24.0583 32.2559C24.2099 32.0996 24.295 31.8876 24.295 31.6665C24.295 31.4454 24.2099 31.2334 24.0583 31.0771C23.9067 30.9208 23.701 30.833 23.4866 30.833H22.6787C22.4643 30.833 22.2587 30.9208 22.1071 31.0771C21.9555 31.2334 21.8703 31.4454 21.8703 31.6665C21.8703 31.8876 21.9555 32.0996 22.1071 32.2559C22.2587 32.4122 22.4643 32.5 22.6787 32.5ZM28.3361 32.5H29.1449C29.3593 32.5 29.565 32.4122 29.7166 32.2559C29.8682 32.0996 29.9533 31.8876 29.9533 31.6665C29.9533 31.4454 29.8682 31.2334 29.7166 31.0771C29.565 30.9208 29.3593 30.833 29.1449 30.833H28.3361C28.1217 30.833 27.916 30.9208 27.7644 31.0771C27.6128 31.2334 27.5277 31.4454 27.5277 31.6665C27.5277 31.8876 27.6128 32.0996 27.7644 32.2559C27.916 32.4122 28.1217 32.5 28.3361 32.5ZM33.4227 32.2559C33.5743 32.4122 33.78 32.5 33.9944 32.5H34.8023C35.0167 32.5 35.2223 32.4122 35.3739 32.2559C35.5255 32.0996 35.6107 31.8876 35.6107 31.6665C35.6107 31.4454 35.5255 31.2334 35.3739 31.0771C35.2223 30.9208 35.0167 30.833 34.8023 30.833H33.9944C33.78 30.833 33.5743 30.9208 33.4227 31.0771C33.2711 31.2334 33.186 31.4454 33.186 31.6665C33.186 31.8876 33.2711 32.0996 33.4227 32.2559ZM16.4501 40.589C16.6016 40.7452 16.8071 40.833 17.0214 40.833H17.8293C18.0436 40.833 18.2491 40.7452 18.4006 40.589C18.5521 40.4328 18.6372 40.2209 18.6372 40C18.6372 39.7791 18.5521 39.5672 18.4006 39.411C18.2491 39.2548 18.0436 39.167 17.8293 39.167H17.0214C16.8071 39.167 16.6016 39.2548 16.4501 39.411C16.2986 39.5672 16.2135 39.7791 16.2135 40C16.2135 40.2209 16.2986 40.4328 16.4501 40.589ZM17.0224 45.833H34.8013C35.0156 45.833 35.2211 45.7452 35.3726 45.589C35.5241 45.4328 35.6092 45.2209 35.6092 45C35.6092 44.7791 35.5241 44.5672 35.3726 44.411C35.2211 44.2548 35.0156 44.167 34.8013 44.167H17.0224C16.8081 44.167 16.6026 44.2548 16.4511 44.411C16.2996 44.5672 16.2144 44.7791 16.2144 45C16.2144 45.2209 16.2996 45.4328 16.4511 45.589C16.6026 45.7452 16.8081 45.833 17.0224 45.833ZM22.6787 40.833H23.4866C23.7009 40.833 23.9064 40.7452 24.0579 40.589C24.2094 40.4328 24.2945 40.2209 24.2945 40C24.2945 39.7791 24.2094 39.5672 24.0579 39.411C23.9064 39.2548 23.7009 39.167 23.4866 39.167H22.6787C22.4644 39.167 22.259 39.2548 22.1074 39.411C21.9559 39.5672 21.8708 39.7791 21.8708 40C21.8708 40.2209 21.9559 40.4328 22.1074 40.589C22.259 40.7452 22.4644 40.833 22.6787 40.833ZM28.3361 40.833H29.1449C29.3592 40.833 29.5647 40.7452 29.7162 40.589C29.8677 40.4328 29.9528 40.2209 29.9528 40C29.9528 39.7791 29.8677 39.5672 29.7162 39.411C29.5647 39.2548 29.3592 39.167 29.1449 39.167H28.3361C28.1218 39.167 27.9163 39.2548 27.7648 39.411C27.6133 39.5672 27.5281 39.7791 27.5281 40C27.5281 40.2209 27.6133 40.4328 27.7648 40.589C27.9163 40.7452 28.1218 40.833 28.3361 40.833ZM33.4231 40.589C33.5746 40.7452 33.7801 40.833 33.9944 40.833H34.8023C35.0165 40.833 35.222 40.7452 35.3735 40.589C35.5251 40.4328 35.6102 40.2209 35.6102 40C35.6102 39.7791 35.5251 39.5672 35.3735 39.411C35.222 39.2548 35.0165 39.167 34.8023 39.167H33.9944C33.7801 39.167 33.5746 39.2548 33.4231 39.411C33.2716 39.5672 33.1864 39.7791 33.1864 40C33.1864 40.2209 33.2716 40.4328 33.4231 40.589ZM14.0251 36.4229C14.1767 36.5792 14.3823 36.667 14.5967 36.667H15.4046C15.619 36.667 15.8246 36.5792 15.9762 36.4229C16.1278 36.2666 16.213 36.0546 16.213 35.8335C16.213 35.6124 16.1278 35.4004 15.9762 35.2441C15.8246 35.0878 15.619 35 15.4046 35H14.5967C14.3823 35 14.1767 35.0878 14.0251 35.2441C13.8735 35.4004 13.7883 35.6124 13.7883 35.8335C13.7883 36.0546 13.8735 36.2666 14.0251 36.4229ZM20.254 36.667H21.0619C21.2763 36.667 21.4819 36.5792 21.6336 36.4229C21.7852 36.2666 21.8703 36.0546 21.8703 35.8335C21.8703 35.6124 21.7852 35.4004 21.6336 35.2441C21.4819 35.0878 21.2763 35 21.0619 35H20.254C20.0396 35 19.834 35.0878 19.6824 35.2441C19.5308 35.4004 19.4456 35.6124 19.4456 35.8335C19.4456 36.0546 19.5308 36.2666 19.6824 36.4229C19.834 36.5792 20.0396 36.667 20.254 36.667ZM25.9113 36.667H26.7202C26.9346 36.667 27.1402 36.5792 27.2919 36.4229C27.4435 36.2666 27.5286 36.0546 27.5286 35.8335C27.5286 35.6124 27.4435 35.4004 27.2919 35.2441C27.1402 35.0878 26.9346 35 26.7202 35H25.9113C25.6969 35 25.4913 35.0878 25.3397 35.2441C25.1881 35.4004 25.1029 35.6124 25.1029 35.8335C25.1029 36.0546 25.1881 36.2666 25.3397 36.4229C25.4913 36.5792 25.6969 36.667 25.9113 36.667ZM30.998 36.4229C31.1496 36.5792 31.3552 36.667 31.5696 36.667H32.3776C32.592 36.667 32.7976 36.5792 32.9492 36.4229C33.1008 36.2666 33.186 36.0546 33.186 35.8335C33.186 35.6124 33.1008 35.4004 32.9492 35.2441C32.7976 35.0878 32.592 35 32.3776 35H31.5696C31.3552 35 31.1496 35.0878 30.998 35.2441C30.8464 35.4004 30.7612 35.6124 30.7612 35.8335C30.7612 36.0546 30.8464 36.2666 30.998 36.4229ZM35.8474 36.4229C35.999 36.5792 36.2047 36.667 36.4191 36.667H37.227C37.4414 36.667 37.647 36.5792 37.7986 36.4229C37.9502 36.2666 38.0354 36.0546 38.0354 35.8335C38.0354 35.6124 37.9502 35.4004 37.7986 35.2441C37.647 35.0878 37.4414 35 37.227 35H36.4191C36.2047 35 35.999 35.0878 35.8474 35.2441C35.6958 35.4004 35.6107 35.6124 35.6107 35.8335C35.6107 36.0546 35.6958 36.2666 35.8474 36.4229ZM20.2404 17.5H25.8978C26.1122 17.5 26.3178 17.4122 26.4694 17.2559C26.621 17.0996 26.7062 16.8876 26.7062 16.6665C26.7062 16.4454 26.621 16.2334 26.4694 16.0771C26.3178 15.9208 26.1122 15.833 25.8978 15.833H20.2404C20.026 15.833 19.8204 15.9208 19.6688 16.0771C19.5172 16.2334 19.432 16.4454 19.432 16.6665C19.432 16.8876 19.5172 17.0996 19.6688 17.2559C19.8204 17.4122 20.026 17.5 20.2404 17.5ZM20.2404 22.5H31.5551C31.7695 22.5 31.9751 22.4122 32.1267 22.2559C32.2783 22.0996 32.3635 21.8876 32.3635 21.6665C32.3635 21.4454 32.2783 21.2334 32.1267 21.0771C31.9751 20.9208 31.7695 20.833 31.5551 20.833H20.2404C20.026 20.833 19.8204 20.9208 19.6688 21.0771C19.5172 21.2334 19.432 21.4454 19.432 21.6665C19.432 21.8876 19.5172 22.0996 19.6688 22.2559C19.8204 22.4122 20.026 22.5 20.2404 22.5Z" fill="#1799E5"/>
<path d="M10.5542 24.167V25.833H11.3631C11.5774 25.833 11.7829 25.7452 11.9344 25.589C12.0859 25.4328 12.171 25.2209 12.171 25C12.171 24.7791 12.0859 24.5672 11.9344 24.411C11.7829 24.2548 11.5774 24.167 11.3631 24.167H10.5542Z" fill="#1799E5"/>
<path d="M69.48 30.5V25.62H71.14C71.8467 25.62 72.5267 25.5333 73.18 25.36C73.8333 25.1867 74.4133 24.92 74.92 24.56C75.44 24.2 75.8467 23.74 76.14 23.18C76.4333 22.62 76.58 21.96 76.58 21.2C76.58 20.1733 76.3467 19.3467 75.88 18.72C75.4133 18.08 74.78 17.62 73.98 17.34C73.18 17.0467 72.2933 16.9 71.32 16.9H67.26V30.5H69.48ZM71.26 18.78C71.8867 18.78 72.4133 18.86 72.84 19.02C73.28 19.18 73.62 19.4467 73.86 19.82C74.1133 20.18 74.24 20.68 74.24 21.32C74.2 21.88 74.0533 22.3467 73.8 22.72C73.5467 23.08 73.2 23.3467 72.76 23.52C72.32 23.68 71.8133 23.76 71.24 23.76H69.48V18.78H71.26ZM80.5406 30.5V24.32C80.8873 24 81.2606 23.7133 81.6606 23.46C82.074 23.2067 82.4806 23 82.8806 22.84C83.294 22.68 83.6606 22.6 83.9806 22.6L83.5006 20.8C83.154 20.8 82.774 20.8867 82.3606 21.06C81.9606 21.2333 81.574 21.4467 81.2006 21.7C80.8273 21.94 80.5073 22.1733 80.2406 22.4L79.5006 20.8H78.3006V30.5H80.5406ZM89.7119 30.76C88.6852 30.76 87.7985 30.5467 87.0519 30.12C86.3052 29.6933 85.7319 29.1 85.3319 28.34C84.9319 27.5667 84.7319 26.6733 84.7319 25.66C84.7319 24.62 84.9385 23.72 85.3519 22.96C85.7652 22.2 86.3452 21.6067 87.0919 21.18C87.8519 20.7533 88.7385 20.54 89.7519 20.54C90.7785 20.54 91.6585 20.7533 92.3919 21.18C93.1385 21.6067 93.7185 22.2 94.1319 22.96C94.5452 23.72 94.7519 24.6133 94.7519 25.64C94.7519 26.6533 94.5385 27.5467 94.1119 28.32C93.6985 29.0933 93.1185 29.6933 92.3719 30.12C91.6252 30.5333 90.7385 30.7467 89.7119 30.76ZM89.7319 28.82C90.2919 28.82 90.7719 28.68 91.1719 28.4C91.5719 28.12 91.8785 27.74 92.0919 27.26C92.3185 26.78 92.4319 26.24 92.4319 25.64C92.4319 25.0267 92.3252 24.48 92.1119 24C91.8985 23.52 91.5919 23.1467 91.1919 22.88C90.7919 22.6 90.3119 22.46 89.7519 22.46C89.2185 22.46 88.7452 22.6 88.3319 22.88C87.9185 23.16 87.5985 23.54 87.3719 24.02C87.1585 24.5 87.0452 25.04 87.0319 25.64C87.0319 26.2533 87.1385 26.8 87.3519 27.28C87.5652 27.76 87.8785 28.14 88.2919 28.42C88.7052 28.6867 89.1852 28.82 89.7319 28.82ZM95.5452 22.58H97.0452V30.5H99.3052V22.58H101.825L101.105 20.88H99.3052V20.14C99.3052 19.6333 99.4052 19.2267 99.6052 18.92C99.8185 18.6 100.158 18.44 100.625 18.44C100.772 18.44 100.932 18.46 101.105 18.5C101.292 18.54 101.465 18.6 101.625 18.68L102.245 16.98C102.125 16.8867 101.958 16.8 101.745 16.72C101.545 16.64 101.332 16.58 101.105 16.54C100.892 16.4867 100.678 16.46 100.465 16.46C99.7452 16.46 99.1318 16.6 98.6252 16.88C98.1185 17.16 97.7252 17.5533 97.4452 18.06C97.1785 18.5667 97.0452 19.1667 97.0452 19.86V20.88H95.5452V22.58ZM111.878 26.24V25.76C111.878 24.8133 111.725 23.9467 111.418 23.16C111.125 22.3733 110.658 21.74 110.018 21.26C109.378 20.78 108.558 20.54 107.558 20.54C106.572 20.54 105.718 20.7533 104.998 21.18C104.292 21.6067 103.745 22.2067 103.358 22.98C102.985 23.74 102.798 24.6333 102.798 25.66C102.798 26.6733 102.998 27.5667 103.398 28.34C103.798 29.1 104.405 29.6933 105.218 30.12C106.032 30.5333 107.032 30.74 108.218 30.74C108.725 30.74 109.192 30.6933 109.618 30.6C110.045 30.5067 110.438 30.3733 110.798 30.2C111.158 30.0133 111.492 29.82 111.798 29.62L111.118 27.98C110.638 28.2333 110.178 28.44 109.738 28.6C109.312 28.76 108.818 28.84 108.258 28.84C107.565 28.84 106.998 28.7333 106.558 28.52C106.132 28.2933 105.805 27.9867 105.578 27.6C105.365 27.2133 105.225 26.76 105.158 26.24H111.878ZM105.198 24.72C105.265 24.24 105.392 23.8333 105.578 23.5C105.778 23.1667 106.038 22.9133 106.358 22.74C106.692 22.5533 107.065 22.46 107.478 22.46C107.905 22.46 108.265 22.5533 108.558 22.74C108.865 22.9133 109.112 23.1667 109.298 23.5C109.498 23.8333 109.638 24.24 109.718 24.72H105.198ZM113.034 29.82C113.327 30.02 113.674 30.1933 114.074 30.34C114.474 30.4867 114.881 30.5933 115.294 30.66C115.707 30.7267 116.047 30.76 116.314 30.76C117.607 30.76 118.594 30.5 119.274 29.98C119.954 29.4467 120.294 28.72 120.294 27.8C120.294 27.24 120.127 26.76 119.794 26.36C119.474 25.9467 119.061 25.5933 118.554 25.3C118.061 24.9933 117.547 24.7533 117.014 24.58C116.547 24.42 116.134 24.2467 115.774 24.06C115.427 23.8733 115.254 23.6533 115.254 23.4C115.254 23.1067 115.387 22.86 115.654 22.66C115.934 22.46 116.281 22.36 116.694 22.36C117.187 22.36 117.634 22.4267 118.034 22.56C118.434 22.68 118.841 22.84 119.254 23.04L119.954 21.5C119.661 21.2867 119.314 21.1133 118.914 20.98C118.514 20.8333 118.121 20.7267 117.734 20.66C117.347 20.58 117.014 20.54 116.734 20.54C115.574 20.54 114.661 20.8 113.994 21.32C113.327 21.8267 112.994 22.5333 112.994 23.44C112.994 23.96 113.154 24.4133 113.474 24.8C113.807 25.1733 114.221 25.4867 114.714 25.74C115.207 25.9933 115.707 26.2133 116.214 26.4C116.614 26.5067 116.954 26.64 117.234 26.8C117.514 26.9467 117.734 27.1133 117.894 27.3C118.054 27.4733 118.134 27.6667 118.134 27.88C118.134 28.0933 118.047 28.28 117.874 28.44C117.701 28.6 117.474 28.72 117.194 28.8C116.914 28.88 116.614 28.92 116.294 28.92C116.014 28.92 115.734 28.8933 115.454 28.84C115.174 28.7867 114.887 28.7133 114.594 28.62C114.301 28.5133 114.007 28.4 113.714 28.28L113.034 29.82ZM121.472 29.82C121.765 30.02 122.112 30.1933 122.512 30.34C122.912 30.4867 123.318 30.5933 123.732 30.66C124.145 30.7267 124.485 30.76 124.752 30.76C126.045 30.76 127.032 30.5 127.712 29.98C128.392 29.4467 128.732 28.72 128.732 27.8C128.732 27.24 128.565 26.76 128.232 26.36C127.912 25.9467 127.498 25.5933 126.992 25.3C126.498 24.9933 125.985 24.7533 125.452 24.58C124.985 24.42 124.572 24.2467 124.212 24.06C123.865 23.8733 123.692 23.6533 123.692 23.4C123.692 23.1067 123.825 22.86 124.092 22.66C124.372 22.46 124.718 22.36 125.132 22.36C125.625 22.36 126.072 22.4267 126.472 22.56C126.872 22.68 127.278 22.84 127.692 23.04L128.392 21.5C128.098 21.2867 127.752 21.1133 127.352 20.98C126.952 20.8333 126.558 20.7267 126.172 20.66C125.785 20.58 125.452 20.54 125.172 20.54C124.012 20.54 123.098 20.8 122.432 21.32C121.765 21.8267 121.432 22.5333 121.432 23.44C121.432 23.96 121.592 24.4133 121.912 24.8C122.245 25.1733 122.658 25.4867 123.152 25.74C123.645 25.9933 124.145 26.2133 124.652 26.4C125.052 26.5067 125.392 26.64 125.672 26.8C125.952 26.9467 126.172 27.1133 126.332 27.3C126.492 27.4733 126.572 27.6667 126.572 27.88C126.572 28.0933 126.485 28.28 126.312 28.44C126.138 28.6 125.912 28.72 125.632 28.8C125.352 28.88 125.052 28.92 124.732 28.92C124.452 28.92 124.172 28.8933 123.892 28.84C123.612 28.7867 123.325 28.7133 123.032 28.62C122.738 28.5133 122.445 28.4 122.152 28.28L121.472 29.82ZM132.709 30.5V20.8H130.449V30.5H132.709ZM131.549 19.24C131.922 19.24 132.236 19.1133 132.489 18.86C132.756 18.5933 132.889 18.2733 132.889 17.9C132.889 17.5267 132.756 17.2133 132.489 16.96C132.222 16.7067 131.909 16.58 131.549 16.58C131.176 16.58 130.862 16.7067 130.609 16.96C130.369 17.2133 130.249 17.5267 130.249 17.9C130.249 18.2867 130.369 18.6067 130.609 18.86C130.862 19.1133 131.176 19.24 131.549 19.24ZM139.38 30.76C138.353 30.76 137.467 30.5467 136.72 30.12C135.973 29.6933 135.4 29.1 135 28.34C134.6 27.5667 134.4 26.6733 134.4 25.66C134.4 24.62 134.607 23.72 135.02 22.96C135.433 22.2 136.013 21.6067 136.76 21.18C137.52 20.7533 138.407 20.54 139.42 20.54C140.447 20.54 141.327 20.7533 142.06 21.18C142.807 21.6067 143.387 22.2 143.8 22.96C144.213 23.72 144.42 24.6133 144.42 25.64C144.42 26.6533 144.207 27.5467 143.78 28.32C143.367 29.0933 142.787 29.6933 142.04 30.12C141.293 30.5333 140.407 30.7467 139.38 30.76ZM139.4 28.82C139.96 28.82 140.44 28.68 140.84 28.4C141.24 28.12 141.547 27.74 141.76 27.26C141.987 26.78 142.1 26.24 142.1 25.64C142.1 25.0267 141.993 24.48 141.78 24C141.567 23.52 141.26 23.1467 140.86 22.88C140.46 22.6 139.98 22.46 139.42 22.46C138.887 22.46 138.413 22.6 138 22.88C137.587 23.16 137.267 23.54 137.04 24.02C136.827 24.5 136.713 25.04 136.7 25.64C136.7 26.2533 136.807 26.8 137.02 27.28C137.233 27.76 137.547 28.14 137.96 28.42C138.373 28.6867 138.853 28.82 139.4 28.82ZM148.353 30.5V23.72C148.633 23.5067 148.926 23.2933 149.233 23.08C149.54 22.8667 149.86 22.6933 150.193 22.56C150.54 22.4267 150.873 22.36 151.193 22.36C151.726 22.36 152.106 22.54 152.333 22.9C152.573 23.26 152.693 23.76 152.693 24.4V30.5H154.953V24.26C154.953 23.54 154.846 22.9 154.633 22.34C154.433 21.7667 154.1 21.3133 153.633 20.98C153.166 20.6467 152.533 20.48 151.733 20.48C151.346 20.48 150.933 20.54 150.493 20.66C150.053 20.78 149.62 20.9533 149.193 21.18C148.78 21.3933 148.386 21.6533 148.013 21.96L147.613 20.8H146.113V30.5H148.353ZM158.887 27.64C158.887 27.2533 159.027 26.9 159.307 26.58C159.587 26.26 159.981 26.1 160.487 26.1H162.667V27.84C162.321 28.1867 161.947 28.46 161.547 28.66C161.147 28.86 160.734 28.96 160.307 28.96C160.014 28.96 159.761 28.9 159.547 28.78C159.334 28.6467 159.167 28.48 159.047 28.28C158.941 28.08 158.887 27.8667 158.887 27.64ZM158.067 23.24C158.441 23.08 158.874 22.9333 159.367 22.8C159.874 22.6533 160.381 22.58 160.887 22.58C161.514 22.58 161.961 22.7667 162.227 23.14C162.494 23.5 162.634 23.9667 162.647 24.54V24.6H160.527C159.461 24.6133 158.594 24.88 157.927 25.4C157.261 25.92 156.927 26.6667 156.927 27.64C156.927 28.56 157.207 29.3067 157.767 29.88C158.327 30.4533 159.187 30.74 160.347 30.74C160.854 30.74 161.347 30.62 161.827 30.38C162.307 30.14 162.721 29.8533 163.067 29.52L163.407 30.5H164.927V24.02C164.927 23.3667 164.741 22.7733 164.367 22.24C164.007 21.7067 163.521 21.2933 162.907 21C162.294 20.6933 161.607 20.54 160.847 20.54C160.581 20.54 160.227 20.58 159.787 20.66C159.347 20.7267 158.914 20.8267 158.487 20.96C158.061 21.08 157.721 21.2267 157.467 21.4L158.067 23.24ZM169.568 30.5V16.38L167.348 16.6V30.5H169.568ZM193.46 16.9L189.46 30.5H187.48L184.56 20.1L181.7 30.5H179.74L175.68 17.04L177.92 16.72L180.76 27.44L183.48 16.9H185.72L188.5 27.44L191.22 16.9H193.46ZM197.064 30.5V24.32C197.411 24 197.784 23.7133 198.184 23.46C198.597 23.2067 199.004 23 199.404 22.84C199.817 22.68 200.184 22.6 200.504 22.6L200.024 20.8C199.677 20.8 199.297 20.8867 198.884 21.06C198.484 21.2333 198.097 21.4467 197.724 21.7C197.351 21.94 197.031 22.1733 196.764 22.4L196.024 20.8H194.824V30.5H197.064ZM204.115 30.5V20.8H201.855V30.5H204.115ZM202.955 19.24C203.329 19.24 203.642 19.1133 203.895 18.86C204.162 18.5933 204.295 18.2733 204.295 17.9C204.295 17.5267 204.162 17.2133 203.895 16.96C203.629 16.7067 203.315 16.58 202.955 16.58C202.582 16.58 202.269 16.7067 202.015 16.96C201.775 17.2133 201.655 17.5267 201.655 17.9C201.655 18.2867 201.775 18.6067 202.015 18.86C202.269 19.1133 202.582 19.24 202.955 19.24ZM210.846 20.88H209.086V18.06L206.846 18.5V20.88H205.486L205.506 22.58H206.846V27.6C206.846 28.3067 206.986 28.9067 207.266 29.4C207.559 29.88 207.959 30.2467 208.466 30.5C208.973 30.7533 209.586 30.88 210.306 30.88C210.506 30.88 210.719 30.8533 210.946 30.8C211.186 30.7467 211.406 30.68 211.606 30.6C211.819 30.52 211.986 30.44 212.106 30.36L211.486 28.7C211.326 28.7667 211.159 28.82 210.986 28.86C210.813 28.9 210.639 28.92 210.466 28.92C209.999 28.92 209.653 28.7667 209.426 28.46C209.199 28.14 209.086 27.7333 209.086 27.24V22.58H211.526L210.846 20.88ZM222.113 26.24V25.76C222.113 24.8133 221.959 23.9467 221.653 23.16C221.359 22.3733 220.893 21.74 220.253 21.26C219.613 20.78 218.793 20.54 217.793 20.54C216.806 20.54 215.953 20.7533 215.233 21.18C214.526 21.6067 213.979 22.2067 213.593 22.98C213.219 23.74 213.033 24.6333 213.033 25.66C213.033 26.6733 213.233 27.5667 213.633 28.34C214.033 29.1 214.639 29.6933 215.453 30.12C216.266 30.5333 217.266 30.74 218.453 30.74C218.959 30.74 219.426 30.6933 219.853 30.6C220.279 30.5067 220.673 30.3733 221.033 30.2C221.393 30.0133 221.726 29.82 222.033 29.62L221.353 27.98C220.873 28.2333 220.413 28.44 219.973 28.6C219.546 28.76 219.053 28.84 218.493 28.84C217.799 28.84 217.233 28.7333 216.793 28.52C216.366 28.2933 216.039 27.9867 215.813 27.6C215.599 27.2133 215.459 26.76 215.393 26.24H222.113ZM215.433 24.72C215.499 24.24 215.626 23.8333 215.813 23.5C216.013 23.1667 216.273 22.9133 216.593 22.74C216.926 22.5533 217.299 22.46 217.713 22.46C218.139 22.46 218.499 22.5533 218.793 22.74C219.099 22.9133 219.346 23.1667 219.533 23.5C219.733 23.8333 219.873 24.24 219.953 24.72H215.433ZM226.048 30.5V24.32C226.395 24 226.768 23.7133 227.168 23.46C227.582 23.2067 227.988 23 228.388 22.84C228.802 22.68 229.168 22.6 229.488 22.6L229.008 20.8C228.662 20.8 228.282 20.8867 227.868 21.06C227.468 21.2333 227.082 21.4467 226.708 21.7C226.335 21.94 226.015 22.1733 225.748 22.4L225.008 20.8H223.808V30.5H226.048ZM230.3 29.82C230.593 30.02 230.94 30.1933 231.34 30.34C231.74 30.4867 232.146 30.5933 232.56 30.66C232.973 30.7267 233.313 30.76 233.58 30.76C234.873 30.76 235.86 30.5 236.54 29.98C237.22 29.4467 237.56 28.72 237.56 27.8C237.56 27.24 237.393 26.76 237.06 26.36C236.74 25.9467 236.326 25.5933 235.82 25.3C235.326 24.9933 234.813 24.7533 234.28 24.58C233.813 24.42 233.4 24.2467 233.04 24.06C232.693 23.8733 232.52 23.6533 232.52 23.4C232.52 23.1067 232.653 22.86 232.92 22.66C233.2 22.46 233.546 22.36 233.96 22.36C234.453 22.36 234.9 22.4267 235.3 22.56C235.7 22.68 236.106 22.84 236.52 23.04L237.22 21.5C236.926 21.2867 236.58 21.1133 236.18 20.98C235.78 20.8333 235.386 20.7267 235 20.66C234.613 20.58 234.28 20.54 234 20.54C232.84 20.54 231.926 20.8 231.26 21.32C230.593 21.8267 230.26 22.5333 230.26 23.44C230.26 23.96 230.42 24.4133 230.74 24.8C231.073 25.1733 231.486 25.4867 231.98 25.74C232.473 25.9933 232.973 26.2133 233.48 26.4C233.88 26.5067 234.22 26.64 234.5 26.8C234.78 26.9467 235 27.1133 235.16 27.3C235.32 27.4733 235.4 27.6667 235.4 27.88C235.4 28.0933 235.313 28.28 235.14 28.44C234.966 28.6 234.74 28.72 234.46 28.8C234.18 28.88 233.88 28.92 233.56 28.92C233.28 28.92 233 28.8933 232.72 28.84C232.44 28.7867 232.153 28.7133 231.86 28.62C231.566 28.5133 231.273 28.4 230.98 28.28L230.3 29.82Z" fill="#00466F"/>
</svg>
