<svg width="21" height="20" viewBox="0 0 21 20" fill="none" xmlns="http://www.w3.org/2000/svg">
<path d="M15.3069 16.647C15.3069 16.9756 15.0446 17.2367 14.7331 17.2367H3.59375C3.47899 17.2367 3.37244 17.2704 3.27408 17.3378L1.86424 18.3067V7.95278C1.86424 7.62422 2.12653 7.36305 2.43801 7.36305H10.8806V6.17518H2.43801C1.48719 6.17518 0.708496 6.97552 0.708496 7.95278V19.4103C0.708496 19.6293 0.823246 19.8315 1.01177 19.9326C1.09374 19.9832 1.1921 20 1.28226 20C1.39702 20 1.50358 19.9663 1.60194 19.8989L3.76587 18.4162H14.7331C15.6839 18.4162 16.4626 17.6158 16.4626 16.6386V10.438H15.3069V16.647Z" fill="#00466F"/>
<path d="M3.58552 10.9182H7.42978C7.74945 10.9182 8.00355 10.657 8.00355 10.3285C8.00355 9.99992 7.74945 9.73876 7.42978 9.73876H3.58552C3.26584 9.73876 3.01175 9.99992 3.01175 10.3285C3.01175 10.657 3.26584 10.9182 3.58552 10.9182Z" fill="#00466F"/>
<path d="M9.47896 12.0977H3.58552C3.26584 12.0977 3.01175 12.3588 3.01175 12.6874C3.01175 13.016 3.26584 13.2771 3.58552 13.2771H9.47896C9.79864 13.2771 10.0527 13.016 10.0527 12.6874C10.0527 12.3673 9.79864 12.0977 9.47896 12.0977Z" fill="#00466F"/>
<path d="M13.5773 14.4734H3.58552C3.26584 14.4734 3.01175 14.7346 3.01175 15.0632C3.01175 15.3917 3.26584 15.6529 3.58552 15.6529H13.5773C13.897 15.6529 14.1511 15.3917 14.1511 15.0632C14.1511 14.7346 13.897 14.4734 13.5773 14.4734Z" fill="#00466F"/>
<path d="M18.6102 10.6656L15.2414 8.84586L11.8725 10.6656L12.52 6.8071L9.79053 4.07752L13.561 3.51307L15.2496 0L16.9381 3.51307L20.7086 4.07752L17.9791 6.8071L18.6102 10.6656ZM15.2414 7.60744L17.2004 8.66052L16.8233 6.41957L18.4053 4.83574L16.2168 4.50718L15.2414 2.46842L14.2659 4.50718L12.0774 4.83574L13.6594 6.41957L13.2823 8.66052L15.2414 7.60744Z" fill="#00466F"/>
</svg>
