<svg width="27" height="27" viewBox="0 0 27 27" fill="none" xmlns="http://www.w3.org/2000/svg">
<path d="M0.687012 13.5257C0.687012 15.1989 1.01865 16.8556 1.66299 18.4015C2.30733 19.9473 3.25175 21.3518 4.44233 22.5349C5.63292 23.7181 7.04634 24.6565 8.60192 25.2968C10.1575 25.9371 11.8247 26.2667 13.5085 26.2667C15.1922 26.2667 16.8595 25.9371 18.415 25.2968C19.9706 24.6565 21.384 23.7181 22.5746 22.5349C23.7652 21.3518 24.7096 19.9473 25.354 18.4015C25.9983 16.8556 26.3299 15.1989 26.3299 13.5257C26.3299 10.1466 24.9791 6.90583 22.5746 4.51642C20.1701 2.12702 16.9089 0.784668 13.5085 0.784668C10.108 0.784668 6.84682 2.12702 4.44233 4.51642C2.03784 6.90583 0.687012 10.1466 0.687012 13.5257ZM9.60779 15.836C9.67765 15.6288 9.68033 15.4051 9.61545 15.1963C9.55057 14.9875 9.4214 14.8042 9.24614 14.6723L5.16462 11.6603C5.07011 11.5983 4.99872 11.5072 4.96143 11.4009C4.92414 11.2946 4.92303 11.1791 4.95825 11.0722C4.99348 10.9652 5.06309 10.8727 5.15639 10.8089C5.24969 10.7451 5.3615 10.7135 5.47461 10.7191H10.3483C10.7961 10.7191 11.2094 10.4281 11.3472 10.0003L13.0004 5.03738C13.0296 4.92788 13.0944 4.83105 13.1848 4.76197C13.2751 4.69288 13.3859 4.65542 13.4999 4.65542C13.6139 4.65542 13.7246 4.69288 13.815 4.76197C13.9053 4.83105 13.9701 4.92788 13.9993 5.03738L15.6698 10.0003C15.8076 10.4281 16.2209 10.7191 16.6686 10.7191H21.5424C21.657 10.7092 21.7717 10.7377 21.8683 10.8C21.9648 10.8623 22.0376 10.9548 22.0752 11.0629C22.1128 11.171 22.113 11.2885 22.0757 11.3967C22.0385 11.505 21.9659 11.5977 21.8696 11.6603L17.788 14.7065C17.4436 14.9632 17.2886 15.4253 17.4264 15.8531L19.028 20.8503C19.0764 20.9587 19.0856 21.0804 19.0539 21.1947C19.0223 21.309 18.9518 21.409 18.8544 21.4775C18.757 21.5461 18.6388 21.579 18.5197 21.5707C18.4007 21.5625 18.2882 21.5135 18.2014 21.4321L14.1371 18.3346C13.954 18.1958 13.7301 18.1206 13.4999 18.1206C13.2696 18.1206 13.0457 18.1958 12.8627 18.3346L8.83282 21.415C8.74554 21.483 8.63856 21.5213 8.5277 21.5242C8.41684 21.5271 8.30798 21.4944 8.21722 21.4311C8.12646 21.3678 8.05861 21.2771 8.02371 21.1725C7.98881 21.0679 7.9887 20.9549 8.02341 20.8503L9.60779 15.836Z" fill="black"/>
</svg>
