<svg width="20" height="16" viewBox="0 0 20 16" fill="none" xmlns="http://www.w3.org/2000/svg">
<path fill-rule="evenodd" clip-rule="evenodd" d="M12.7273 0.727295C16.7439 0.727295 20 3.98341 20 8.00002C20 12.0166 16.7439 15.2727 12.7273 15.2727C10.0371 15.2727 7.60566 13.7988 6.34004 11.4804C6.09946 11.0398 6.26168 10.4875 6.70237 10.2469C7.14305 10.0063 7.69533 10.1685 7.9359 10.6092C8.88592 12.3495 10.7089 13.4546 12.7273 13.4546C15.7397 13.4546 18.1818 11.0125 18.1818 8.00002C18.1818 4.98756 15.7397 2.54548 12.7273 2.54548C10.7509 2.54548 8.96026 3.60472 7.99347 5.28802C7.74341 5.7234 7.18776 5.87363 6.75238 5.62358C6.317 5.37352 6.16677 4.81787 6.41683 4.38249C7.70466 2.14022 10.0932 0.727295 12.7273 0.727295ZM11.5014 4.58302L11.5587 4.63673L14.0691 7.20032C14.3528 7.35416 14.5455 7.65459 14.5455 8.00002C14.5455 8.35221 14.3452 8.65762 14.0523 8.80858L11.5423 11.2448C11.1821 11.5945 10.6066 11.586 10.2568 11.2258C9.9255 10.8845 9.91571 10.35 10.2219 9.99731L10.2759 9.94028L11.3373 8.90911H0.909091C0.407014 8.90911 0 8.5021 0 8.00002C0 7.49795 0.407014 7.09093 0.909091 7.09093H11.4164L10.2595 5.90877C9.92676 5.56891 9.91468 5.03444 10.2194 4.68045L10.2731 4.62319C10.6129 4.29042 11.1474 4.27834 11.5014 4.58302Z" fill="#FDC420"/>
</svg>
