<svg width="31" height="27" viewBox="0 0 31 27" fill="none" xmlns="http://www.w3.org/2000/svg">
<path d="M24.1162 21.0495L30.39 26.25H13.5769C6.35462 26.25 0.5 20.5417 0.5 13.5C0.5 6.45825 6.35462 0.75 13.5769 0.75C20.7992 0.75 26.6539 6.45825 26.6539 13.5C26.6539 16.3252 25.7115 18.936 24.1162 21.0495V21.0495Z" fill="#F06A22"/>
<path d="M13.5768 17.5981L9.32531 19.7776C9.13762 19.8743 8.90454 19.8038 8.80608 19.6201C8.76685 19.5473 8.753 19.4633 8.76762 19.3823L9.57993 14.7668L6.1407 11.4976C5.98839 11.3528 5.98531 11.1158 6.13377 10.9673C6.193 10.9081 6.26993 10.8698 6.35377 10.8578L11.1068 10.1843L13.2322 5.98505C13.3261 5.79905 13.5568 5.7233 13.7476 5.8148C13.8238 5.85155 13.8845 5.9108 13.9222 5.98505L16.0476 10.1843L20.8007 10.8578C21.0107 10.8878 21.1568 11.0776 21.1261 11.2831C21.1138 11.3648 21.0745 11.4398 21.0138 11.4976L17.5745 14.7668L18.3868 19.3823C18.423 19.5863 18.2822 19.7806 18.073 19.8151C17.9899 19.8293 17.9038 19.8158 17.8292 19.7776L13.5776 17.5981H13.5768Z" fill="white"/>
</svg>
