<svg width="63" height="11" viewBox="0 0 63 11" fill="none" xmlns="http://www.w3.org/2000/svg">
<g clip-path="url(#clip0_1_5076)">
<path d="M5.50009 0.916687C5.65869 0.916687 5.80353 1.00672 5.87372 1.14893L7.06437 3.56105L9.72702 3.95023C9.88392 3.97317 10.0142 4.08317 10.0631 4.23401C10.112 4.38484 10.0711 4.55037 9.95748 4.661L8.03114 6.53726L8.48576 9.18792C8.51258 9.34425 8.44831 9.50224 8.31998 9.59546C8.19166 9.68868 8.02154 9.70096 7.88116 9.62713L5.50009 8.37496L3.11903 9.62713C2.97865 9.70096 2.80853 9.68868 2.6802 9.59546C2.55188 9.50224 2.48761 9.34425 2.51442 9.18792L2.96904 6.53726L1.0427 4.661C0.929114 4.55037 0.888167 4.38484 0.937074 4.23401C0.985982 4.08317 1.11627 3.97317 1.27317 3.95023L3.93582 3.56105L5.12647 1.14893C5.19666 1.00672 5.3415 0.916687 5.50009 0.916687Z" fill="#FDC420"/>
</g>
<g clip-path="url(#clip1_1_5076)">
<path d="M18.5001 0.916687C18.6587 0.916687 18.8035 1.00672 18.8737 1.14893L20.0644 3.56105L22.727 3.95023C22.8839 3.97317 23.0142 4.08317 23.0631 4.23401C23.112 4.38484 23.0711 4.55037 22.9575 4.661L21.0311 6.53726L21.4858 9.18792C21.5126 9.34425 21.4483 9.50224 21.32 9.59546C21.1917 9.68868 21.0215 9.70096 20.8812 9.62713L18.5001 8.37496L16.119 9.62713C15.9787 9.70096 15.8085 9.68868 15.6802 9.59546C15.5519 9.50224 15.4876 9.34425 15.5144 9.18792L15.969 6.53726L14.0427 4.661C13.9291 4.55037 13.8882 4.38484 13.9371 4.23401C13.986 4.08317 14.1163 3.97317 14.2732 3.95023L16.9358 3.56105L18.1265 1.14893C18.1967 1.00672 18.3415 0.916687 18.5001 0.916687Z" fill="#FDC420"/>
</g>
<g clip-path="url(#clip2_1_5076)">
<path d="M31.5001 0.916687C31.6587 0.916687 31.8035 1.00672 31.8737 1.14893L33.0644 3.56105L35.727 3.95023C35.8839 3.97317 36.0142 4.08317 36.0631 4.23401C36.112 4.38484 36.0711 4.55037 35.9575 4.661L34.0311 6.53726L34.4858 9.18792C34.5126 9.34425 34.4483 9.50224 34.32 9.59546C34.1917 9.68868 34.0215 9.70096 33.8812 9.62713L31.5001 8.37496L29.119 9.62713C28.9787 9.70096 28.8085 9.68868 28.6802 9.59546C28.5519 9.50224 28.4876 9.34425 28.5144 9.18792L28.969 6.53726L27.0427 4.661C26.9291 4.55037 26.8882 4.38484 26.9371 4.23401C26.986 4.08317 27.1163 3.97317 27.2732 3.95023L29.9358 3.56105L31.1265 1.14893C31.1967 1.00672 31.3415 0.916687 31.5001 0.916687Z" fill="#FDC420"/>
</g>
<g clip-path="url(#clip3_1_5076)">
<path fill-rule="evenodd" clip-rule="evenodd" d="M44.5001 0.916687C44.6587 0.916687 44.8035 1.00672 44.8737 1.14893L46.0644 3.56105L48.727 3.95023C48.8839 3.97317 49.0142 4.08317 49.0631 4.23401C49.112 4.38484 49.0711 4.55037 48.9575 4.661L47.0311 6.53726L47.4858 9.18792C47.5126 9.34425 47.4483 9.50224 47.32 9.59546C47.1917 9.68868 47.0215 9.70096 46.8812 9.62713L44.5001 8.37496L42.119 9.62713C41.9787 9.70096 41.8085 9.68868 41.6802 9.59546C41.5519 9.50224 41.4876 9.34425 41.5144 9.18792L41.969 6.53726L40.0427 4.661C39.9291 4.55037 39.8882 4.38484 39.9371 4.23401C39.986 4.08317 40.1163 3.97317 40.2732 3.95023L42.9358 3.56105L44.1265 1.14893C44.1967 1.00672 44.3415 0.916687 44.5001 0.916687ZM44.5054 7.48755C44.5703 7.48838 44.6349 7.50433 44.694 7.53541L46.5217 8.49655L46.1728 6.46212C46.1496 6.3269 46.1944 6.18893 46.2927 6.0932L47.7716 4.65277L45.7273 4.35397C45.5918 4.33416 45.4746 4.24897 45.414 4.12611L44.5054 2.2855V7.48755Z" fill="#FDC420"/>
</g>
<g clip-path="url(#clip4_1_5076)">
<path d="M57.5001 0.916687C57.6587 0.916687 57.8035 1.00672 57.8737 1.14893L59.0644 3.56105L61.727 3.95023C61.8839 3.97317 62.0142 4.08317 62.0631 4.23401C62.112 4.38484 62.0711 4.55037 61.9575 4.661L60.0311 6.53726L60.4858 9.18792C60.5126 9.34425 60.4483 9.50224 60.32 9.59546C60.1917 9.68868 60.0215 9.70096 59.8812 9.62713L57.5001 8.37496L55.119 9.62713C54.9787 9.70096 54.8085 9.68868 54.6802 9.59546C54.5519 9.50224 54.4876 9.34425 54.5144 9.18792L54.969 6.53726L53.0427 4.661C52.9291 4.55037 52.8882 4.38484 52.9371 4.23401C52.986 4.08317 53.1163 3.97317 53.2732 3.95023L55.9358 3.56105L57.1265 1.14893C57.1967 1.00672 57.3415 0.916687 57.5001 0.916687Z" fill="#ACB8BF"/>
</g>
<defs>
<clipPath id="clip0_1_5076">
<rect width="10" height="10" fill="white" transform="translate(0.5 0.5)"/>
</clipPath>
<clipPath id="clip1_1_5076">
<rect width="10" height="10" fill="white" transform="translate(13.5 0.5)"/>
</clipPath>
<clipPath id="clip2_1_5076">
<rect width="10" height="10" fill="white" transform="translate(26.5 0.5)"/>
</clipPath>
<clipPath id="clip3_1_5076">
<rect width="10" height="10" fill="white" transform="translate(39.5 0.5)"/>
</clipPath>
<clipPath id="clip4_1_5076">
<rect width="10" height="10" fill="white" transform="translate(52.5 0.5)"/>
</clipPath>
</defs>
</svg>
