<svg width="63" height="11" viewBox="0 0 63 11" fill="none" xmlns="http://www.w3.org/2000/svg">
<path fill-rule="evenodd" clip-rule="evenodd" d="M10.5 4.32H6.68084L5.49865 0.5L4.31916 4.31857H0.5L3.59042 6.68L2.40958 10.5L5.5 8.14L8.59042 10.5L7.40958 6.68143L10.5 4.32Z" fill="#FD7950"/>
<path fill-rule="evenodd" clip-rule="evenodd" d="M23.5 4.32H19.6808L18.4987 0.5L17.3192 4.31857H13.5L16.5904 6.68L15.4096 10.5L18.5 8.14L21.5904 10.5L20.4096 6.68143L23.5 4.32Z" fill="#FD7950"/>
<path fill-rule="evenodd" clip-rule="evenodd" d="M36.5 4.32H32.6808L31.4987 0.5L30.3192 4.31857H26.5L29.5904 6.68L28.4096 10.5L31.5 8.14L34.5904 10.5L33.4096 6.68143L36.5 4.32Z" fill="#FD7950"/>
<path fill-rule="evenodd" clip-rule="evenodd" d="M49.5 4.32H45.6808L44.4987 0.5L43.3192 4.31857H39.5L42.5904 6.68L41.4096 10.5L44.5 8.14L47.5904 10.5L46.4096 6.68143L49.5 4.32Z" fill="#FD7950"/>
<path fill-rule="evenodd" clip-rule="evenodd" d="M62.5 4.32H58.6808L57.4987 0.5L56.3192 4.31857H52.5L55.5904 6.68L54.4096 10.5L57.5 8.14L60.5904 10.5L59.4096 6.68143L62.5 4.32Z" fill="#FD7950"/>
</svg>
