<svg width="59" height="11" viewBox="0 0 59 11" fill="none" xmlns="http://www.w3.org/2000/svg">
<path fill-rule="evenodd" clip-rule="evenodd" d="M10.5 5.5C10.5 8.26142 8.26154 10.5 5.5 10.5C2.73846 10.5 0.5 8.26142 0.5 5.5C0.5 2.73858 2.73846 0.5 5.5 0.5C8.26154 0.5 10.5 2.73858 10.5 5.5ZM4.20849 8.05237L5.49964 7.31579L6.79079 8.05237C6.89656 8.11268 7.02079 8.13237 7.14002 8.10764C7.41041 8.05164 7.58426 7.78702 7.5281 7.51664L7.22657 6.06106L8.32618 5.06071C8.41618 4.97875 8.47349 4.86675 8.48657 4.74571C8.51695 4.47125 8.31887 4.22418 8.04464 4.19389L6.56695 4.03086L5.95541 2.67605C5.90541 2.56506 5.81657 2.47617 5.70541 2.42607C5.45387 2.31245 5.15772 2.42437 5.04387 2.67605L4.43233 4.03086L2.95503 4.19389C2.83387 4.20725 2.72195 4.26432 2.64003 4.35441C2.45387 4.55864 2.46887 4.87487 2.6731 5.06071L3.77271 6.06106L3.47118 7.51664C3.44656 7.63587 3.46618 7.76002 3.52656 7.86579C3.66349 8.10568 3.96849 8.18918 4.20849 8.05237Z" fill="#EF6A23"/>
<path fill-rule="evenodd" clip-rule="evenodd" d="M22.5 5.5C22.5 8.26142 20.2615 10.5 17.5 10.5C14.7385 10.5 12.5 8.26142 12.5 5.5C12.5 2.73858 14.7385 0.5 17.5 0.5C20.2615 0.5 22.5 2.73858 22.5 5.5ZM16.2085 8.05237L17.4996 7.31579L18.7908 8.05237C18.8966 8.11268 19.0208 8.13237 19.14 8.10764C19.4104 8.05164 19.5843 7.78702 19.5281 7.51664L19.2266 6.06106L20.3262 5.06071C20.4162 4.97875 20.4735 4.86675 20.4866 4.74571C20.517 4.47125 20.3189 4.22418 20.0446 4.19389L18.5669 4.03086L17.9554 2.67605C17.9054 2.56506 17.8166 2.47617 17.7054 2.42607C17.4539 2.31245 17.1577 2.42437 17.0439 2.67605L16.4323 4.03086L14.955 4.19389C14.8339 4.20725 14.7219 4.26432 14.64 4.35441C14.4539 4.55864 14.4689 4.87487 14.6731 5.06071L15.7727 6.06106L15.4712 7.51664C15.4466 7.63587 15.4662 7.76002 15.5266 7.86579C15.6635 8.10568 15.9685 8.18918 16.2085 8.05237Z" fill="#EF6A23"/>
<path fill-rule="evenodd" clip-rule="evenodd" d="M34.5 5.5C34.5 8.26142 32.2615 10.5 29.5 10.5C26.7385 10.5 24.5 8.26142 24.5 5.5C24.5 2.73858 26.7385 0.5 29.5 0.5C32.2615 0.5 34.5 2.73858 34.5 5.5ZM28.2085 8.05237L29.4996 7.31579L30.7908 8.05237C30.8966 8.11268 31.0208 8.13237 31.14 8.10764C31.4104 8.05164 31.5843 7.78702 31.5281 7.51664L31.2266 6.06106L32.3262 5.06071C32.4162 4.97875 32.4735 4.86675 32.4866 4.74571C32.517 4.47125 32.3189 4.22418 32.0446 4.19389L30.5669 4.03086L29.9554 2.67605C29.9054 2.56506 29.8166 2.47617 29.7054 2.42607C29.4539 2.31245 29.1577 2.42437 29.0439 2.67605L28.4323 4.03086L26.955 4.19389C26.8339 4.20725 26.7219 4.26432 26.64 4.35441C26.4539 4.55864 26.4689 4.87487 26.6731 5.06071L27.7727 6.06106L27.4712 7.51664C27.4466 7.63587 27.4662 7.76002 27.5266 7.86579C27.6635 8.10568 27.9685 8.18918 28.2085 8.05237Z" fill="#EF6A23"/>
<path fill-rule="evenodd" clip-rule="evenodd" d="M46.5 5.5C46.5 8.26142 44.2615 10.5 41.5 10.5C38.7385 10.5 36.5 8.26142 36.5 5.5C36.5 2.73858 38.7385 0.5 41.5 0.5C44.2615 0.5 46.5 2.73858 46.5 5.5ZM40.2085 8.05237L41.4996 7.31579L42.7908 8.05237C42.8966 8.11268 43.0208 8.13237 43.14 8.10764C43.4104 8.05164 43.5843 7.78702 43.5281 7.51664L43.2266 6.06106L44.3262 5.06071C44.4162 4.97875 44.4735 4.86675 44.4866 4.74571C44.517 4.47125 44.3189 4.22418 44.0446 4.19389L42.5669 4.03086L41.9554 2.67605C41.9054 2.56506 41.8166 2.47617 41.7054 2.42607C41.4539 2.31245 41.1577 2.42437 41.0439 2.67605L40.4323 4.03086L38.955 4.19389C38.8339 4.20725 38.7219 4.26432 38.64 4.35441C38.4539 4.55864 38.4689 4.87487 38.6731 5.06071L39.7727 6.06106L39.4712 7.51664C39.4466 7.63587 39.4662 7.76002 39.5266 7.86579C39.6635 8.10568 39.9685 8.18918 40.2085 8.05237Z" fill="#EF6A23"/>
<path fill-rule="evenodd" clip-rule="evenodd" d="M58.5 5.5C58.5 8.26142 56.2615 10.5 53.5 10.5C50.7385 10.5 48.5 8.26142 48.5 5.5C48.5 2.73858 50.7385 0.5 53.5 0.5C56.2615 0.5 58.5 2.73858 58.5 5.5ZM52.2085 8.05237L53.4996 7.31579L54.7908 8.05237C54.8966 8.11268 55.0208 8.13237 55.14 8.10764C55.4104 8.05164 55.5843 7.78702 55.5281 7.51664L55.2266 6.06106L56.3262 5.06071C56.4162 4.97875 56.4735 4.86675 56.4866 4.74571C56.517 4.47125 56.3189 4.22418 56.0446 4.19389L54.5669 4.03086L53.9554 2.67605C53.9054 2.56506 53.8166 2.47617 53.7054 2.42607C53.4539 2.31245 53.1577 2.42437 53.0439 2.67605L52.4323 4.03086L50.955 4.19389C50.8339 4.20725 50.7219 4.26432 50.64 4.35441C50.4539 4.55864 50.4689 4.87487 50.6731 5.06071L51.7727 6.06106L51.4712 7.51664C51.4466 7.63587 51.4662 7.76002 51.5266 7.86579C51.6635 8.10568 51.9685 8.18918 52.2085 8.05237Z" fill="#EF6A23"/>
</svg>
