<svg width="150" height="150" viewBox="0 0 150 150" fill="none" xmlns="http://www.w3.org/2000/svg">
<g id="4 Work done">
<circle id="Oval Copy 6" cx="75" cy="75" r="74.5" fill="#1B99E5" fill-opacity="0.1" stroke="#1B99E5"/>
<g id="Picture">
<path id="Path" d="M3.04306 120.541C3.04306 120.541 2.14984 122.428 8.49942 124H141.384C141.384 124 145.83 123.677 147 121.301V120L3.04306 120.541Z" fill="#CFD2D3"/>
<path id="Path_2" d="M3.09493 116H146.991V120.456C146.991 120.456 147.207 121.053 145.513 120.904H4.44813C4.44813 120.904 3.1232 121.353 3 120.308L3.09493 116Z" fill="#F3F4F4"/>
<path id="Path_3" d="M144.259 118.506C144.279 118.756 144.096 118.975 143.847 119H134.415C134.165 118.975 133.982 118.756 134.002 118.506C133.977 118.253 134.162 118.027 134.415 118H143.847C144.1 118.027 144.284 118.253 144.259 118.506Z" fill="#CFD2D3"/>
<path id="Path_4" d="M64.0838 116C64.0838 116 63.4895 117.813 65.4668 117.993H83.3301C83.3301 117.993 85.2297 118.219 84.9768 116.061L64.0838 116Z" fill="#CFD2D3"/>
<path id="Path_5" d="M85.594 120.718V120.672C85.5926 120.687 85.5926 120.703 85.594 120.718Z" fill="url(#paint0_linear_1_5132)"/>
<path id="Path_6" d="M133 116V51.3366C132.992 48.3933 130.568 46.0088 127.574 46.0001H22.4276C19.4337 46.0088 17.0089 48.3929 17 51.3366V116H133Z" fill="#1974AB"/>
<rect id="Rectangle" x="20" y="50.0001" width="110" height="62" fill="#A5CFE9"/>
</g>
<g id="Form">
<path id="Rectangle_2" d="M29 23C29 21.3431 30.3431 20 32 20H118C119.657 20 121 21.3431 121 23V112H29V23Z" fill="white"/>
<g id="Inputs">
<path id="Rectangle_3" d="M54 94C54 92.8954 54.8954 92 56 92H94C95.1046 92 96 92.8954 96 94V100C96 101.105 95.1046 102 94 102H56C54.8954 102 54 101.105 54 100V94Z" fill="#FF7800"/>
<g id="Group 20">
<path id="Subtract" fill-rule="evenodd" clip-rule="evenodd" d="M85.2753 72.9203C83.8546 72.9203 82.7029 74.072 82.7029 75.4928V82.2101C82.7029 83.6309 83.8546 84.7826 85.2753 84.7826H108.428C109.848 84.7826 111 83.6309 111 82.2101V75.4928C111 74.072 109.848 72.9203 108.428 72.9203H85.2753ZM103.797 78.3225L106.112 80.8949L108.428 78.3225H103.797Z" fill="#A5CFE9"/>
<g id="Subtract_2">
<path fill-rule="evenodd" clip-rule="evenodd" d="M49.2899 72.9203H41.5725C40.1517 72.9203 39 74.072 39 75.4928V82.2101C39 83.6309 40.1517 84.7826 41.5725 84.7826H49.2899V72.9203ZM42.087 78.8659H46.7174V77.837H42.087V78.8659Z" fill="#A5CFE9"/>
<path d="M49.8043 84.7826V72.9203H66.7826V84.7826H49.8043Z" fill="#A5CFE9"/>
<path fill-rule="evenodd" clip-rule="evenodd" d="M67.2971 84.7826V72.9203H75.0145C76.4352 72.9203 77.587 74.072 77.587 75.4928V82.2101C77.587 83.6309 76.4352 84.7826 75.0145 84.7826H67.2971ZM72.0637 76.2935H72.8203V78.2304H74.7572V78.987H72.8203V80.9239H72.0637V78.987H70.1268V78.2304H72.0637V76.2935Z" fill="#A5CFE9"/>
</g>
<g id="Vector">
<path fill-rule="evenodd" clip-rule="evenodd" d="M41.5689 59C40.1512 59 39 60.1506 39 61.5699V63.633C39 65.0536 40.1501 66.2029 41.5689 66.2029H108.431C109.849 66.2029 111 65.0523 111 63.633V61.5699C111 60.1493 109.85 59 108.431 59H41.5689ZM39.5145 63.633V61.5699C39.5145 60.4351 40.435 59.5145 41.5689 59.5145H108.431C109.566 59.5145 110.486 60.4339 110.486 61.5699V63.633C110.486 64.7678 109.565 65.6884 108.431 65.6884H41.5689C40.4338 65.6884 39.5145 64.769 39.5145 63.633Z" fill="#A5CFE9"/>
<path d="M86.8188 59.5145H87.3333V65.6884H86.8188V59.5145Z" fill="#A5CFE9"/>
<path d="M39 61.5725C39 60.1517 40.1517 59 41.5725 59H62.6667V66.2029H41.5725C40.1517 66.2029 39 65.0512 39 63.6304V61.5725Z" fill="#A5CFE9"/>
</g>
<path id="Union" fill-rule="evenodd" clip-rule="evenodd" d="M85.6478 42.772C84.419 47.5052 80.1176 51 75 51C69.8591 51 65.5419 47.4734 64.3357 42.7073C64.1165 41.8607 64 40.968 64 40.0314C64 40.0261 64 40.0209 64 40.0157C64 40.0104 64 40.0052 64 40C64 33.9249 68.9249 29 75 29C81.0751 29 86 33.9249 86 40C86 40.0052 86 40.0104 86 40.0157C86 40.0209 86 40.0261 86 40.0314C86 40.9908 85.8776 41.9057 85.6478 42.772ZM83.0733 46.258C81.2047 48.6652 78.2833 50.2143 75 50.2143C71.6013 50.2143 68.5904 48.5544 66.7336 46.001C67.3672 44.501 69.0866 43.3394 71.3522 42.6896C72.337 43.6099 73.6091 44.0333 75 44.0333C76.3581 44.0333 77.6053 43.638 78.5801 42.7563C80.8593 43.461 82.5497 44.6944 83.0733 46.258ZM73.0486 42.3332C73.6362 42.6683 74.2978 42.8618 75 42.8618C75.6762 42.8618 76.3141 42.6815 76.8857 42.3689C78.3369 41.575 79.3422 39.9012 79.3422 37.963C79.3422 35.2617 77.3945 33.064 75 33.064C72.6057 33.064 70.6579 35.2617 70.6579 37.963C70.6579 39.8719 71.6328 41.5252 73.0486 42.3332Z" fill="#A5CFE9"/>
</g>
</g>
</g>
</g>
<defs>
<linearGradient id="paint0_linear_1_5132" x1="85.615" y1="120.718" x2="85.615" y2="120.672" gradientUnits="userSpaceOnUse">
<stop offset="0.02" stop-color="#5F6767"/>
<stop offset="0.48" stop-color="#676B6C"/>
<stop offset="0.51" stop-color="#717576"/>
<stop offset="0.62" stop-color="#878A8B"/>
<stop offset="0.72" stop-color="#949899"/>
<stop offset="0.81" stop-color="#999C9D"/>
</linearGradient>
</defs>
</svg>
