<svg width="40" height="40" viewBox="0 0 40 40" fill="none" xmlns="http://www.w3.org/2000/svg">
<rect width="40" height="40" rx="20" fill="#BFDFFF"/>
<path d="M20.4424 10.0169C21.533 10 22.6174 10.01 23.7005 10C23.7662 11.2756 24.2249 12.575 25.1587 13.4769C26.0905 14.4012 27.4087 14.8244 28.6912 14.9675V18.3231C27.4893 18.2838 26.2818 18.0337 25.1912 17.5163C24.7162 17.3012 24.2737 17.0244 23.8405 16.7413C23.8349 19.1763 23.8505 21.6081 23.8249 24.0331C23.7599 25.1981 23.3755 26.3575 22.698 27.3175C21.608 28.9156 19.7162 29.9575 17.773 29.99C16.5812 30.0581 15.3905 29.7331 14.3749 29.1344C12.6918 28.1419 11.5074 26.325 11.3349 24.375C11.3132 23.962 11.3099 23.5483 11.3249 23.135C11.4749 21.5494 12.2593 20.0325 13.4768 19.0006C14.8568 17.7987 16.7899 17.2263 18.5999 17.565C18.6168 18.7994 18.5674 20.0325 18.5674 21.2669C17.7405 20.9994 16.7743 21.0744 16.0518 21.5763C15.5232 21.9245 15.1237 22.4368 14.9149 23.0344C14.7424 23.4569 14.7918 23.9263 14.8018 24.375C14.9999 25.7425 16.3149 26.8919 17.7187 26.7675C18.6493 26.7575 19.5412 26.2175 20.0262 25.4269C20.183 25.15 20.3587 24.8669 20.368 24.5413C20.4499 23.0506 20.4174 21.5662 20.4274 20.0756C20.4343 16.7163 20.4174 13.3662 20.443 10.0175L20.4424 10.0169Z" fill="#00466F"/>
</svg>
