<svg width="158" height="150" viewBox="0 0 158 150" fill="none" xmlns="http://www.w3.org/2000/svg">
<g id="3 Chatting">
<circle id="Oval" cx="79" cy="75.0001" r="74.5" fill="#1B99E5" fill-opacity="0.1" stroke="#1B99E5"/>
<g id="Picture">
<mask id="mask0_1_5215" style="mask-type:alpha" maskUnits="userSpaceOnUse" x="4" y="0" width="150" height="150">
<circle id="Oval_2" cx="79" cy="75" r="75" fill="white"/>
</mask>
<g mask="url(#mask0_1_5215)">
<g id="Group 32">
<path id="Rectangle" d="M37 40.0449C37 34.4973 41.4973 30 47.0449 30H110.955C116.503 30 121 34.4973 121 40.0449V164.679C121 170.227 116.503 174.724 110.955 174.724H47.0449C41.4973 174.724 37 170.227 37 164.679V40.0449Z" fill="#1974AB"/>
<path id="Path" fill-rule="evenodd" clip-rule="evenodd" d="M47.485 33.7062H63.644C64.1088 35.2636 63.9277 36.5734 65.0203 37.3279C65.6239 37.7203 66.3582 38 68.0001 38C75.1892 38 81.811 38 89.0001 38C90.7627 38 91.5152 37.6841 92.0947 37.2374C93.0605 36.501 92.9096 35.2273 93.3563 33.7304H110.491C114.227 33.7403 117.254 36.7667 117.264 40.503V164.245C117.25 167.979 114.225 171.002 110.491 171.012H47.485C43.7487 171.002 40.7224 167.976 40.7124 164.239V40.497C40.7124 36.7536 43.7417 33.7162 47.485 33.7062Z" fill="#A5CFE9"/>
<path id="Path_2" fill-rule="evenodd" clip-rule="evenodd" d="M47.485 33.7062H63.6439C64.1087 35.2636 63.9276 36.5734 65.0202 37.3279C65.6238 37.7203 66.3582 38 68.0001 38C75.1892 38 81.8109 38 89.0001 38C90.7626 38 91.5152 37.6841 92.0946 37.2374C93.0604 36.501 92.9095 35.2273 93.3562 33.7304H110.491C114.227 33.7403 117.254 36.7667 117.264 40.503V77.3903C101.268 106.286 73.5614 127.594 40.6822 134.68V40.5151C40.6773 38.7088 41.3923 36.9751 42.669 35.6973C43.9456 34.4195 45.6787 33.703 47.485 33.7062Z" fill="white" fill-opacity="0.15024"/>
<rect id="Rectangle_2" x="72" y="34" width="14" height="1" fill="#023757"/>
</g>
</g>
</g>
<g id="Group 2">
<path id="Path_3" fill-rule="evenodd" clip-rule="evenodd" d="M158 118.07V99.9302C158 96.6562 155.543 94 152.511 94H68.489C65.4567 94 63 96.6562 63 99.9302V118.07C63 121.344 65.4567 124 68.489 124H82.0034L90.0688 133V124H152.511C155.543 124.017 158 121.344 158 118.07Z" fill="white"/>
<path id="Rectangle_3" d="M94 104.5C94 103.672 94.6716 103 95.5 103H146.5C147.328 103 148 103.672 148 104.5C148 105.328 147.328 106 146.5 106H95.5C94.6716 106 94 105.328 94 104.5Z" fill="#A5CFE9"/>
<path id="Rectangle_4" d="M94 113.5C94 112.672 94.6716 112 95.5 112H136.5C137.328 112 138 112.672 138 113.5C138 114.328 137.328 115 136.5 115H95.5C94.6716 115 94 114.328 94 113.5Z" fill="#A5CFE9"/>
<g id="CheckCircle">
<path id="Vector (Stroke)" fill-rule="evenodd" clip-rule="evenodd" d="M78 102.5C74.4101 102.5 71.5 105.41 71.5 109C71.5 112.59 74.4101 115.5 78 115.5C81.5899 115.5 84.5 112.59 84.5 109C84.5 105.41 81.5899 102.5 78 102.5ZM69.5 109C69.5 104.306 73.3056 100.5 78 100.5C82.6944 100.5 86.5 104.306 86.5 109C86.5 113.694 82.6944 117.5 78 117.5C73.3056 117.5 69.5 113.694 69.5 109Z" fill="#E0E2E4"/>
<path id="Vector (Stroke)_2" fill-rule="evenodd" clip-rule="evenodd" d="M77 101.5C77 100.948 77.4477 100.5 78 100.5C82.6944 100.5 86.5 104.306 86.5 109C86.5 113.694 82.6944 117.5 78 117.5C75.7689 117.5 73.7366 116.639 72.2208 115.233C71.8159 114.858 71.7921 114.225 72.1677 113.82C72.5433 113.415 73.176 113.391 73.5809 113.767C74.7415 114.843 76.2929 115.5 78 115.5C81.5898 115.5 84.5 112.59 84.5 109C84.5 105.41 81.5898 102.5 78 102.5C77.4477 102.5 77 102.052 77 101.5Z" fill="#1799E5"/>
</g>
</g>
<g id="Group 1">
<path id="Path_4" fill-rule="evenodd" clip-rule="evenodd" d="M0 71.0698V52.9302C0 49.6562 2.45665 47 5.48899 47H89.511C92.5434 47 95 49.6562 95 52.9302V71.0698C95 74.3438 92.5434 77 89.511 77H75.9966L67.9313 86V77H5.48329C2.45665 77.0056 0 74.3438 0 71.0698Z" fill="white"/>
<rect id="Rectangle_5" x="31" y="56" width="33" height="3" rx="1.5" fill="#A5CFE9"/>
<rect id="Rectangle_6" x="31" y="65" width="54" height="3" rx="1.5" fill="#A5CFE9"/>
<g id="CheckCircle_2">
<path id="Vector (Stroke)_3" fill-rule="evenodd" clip-rule="evenodd" d="M21.1611 59.4347C21.5423 59.8343 21.5274 60.4673 21.1278 60.8486L16.5418 65.2236C16.1552 65.5924 15.547 65.5921 15.1607 65.223L12.8716 63.0355C12.4723 62.6539 12.458 62.0209 12.8395 61.6216C13.2211 61.2223 13.8541 61.208 14.2534 61.5895L15.8522 63.1174L19.7472 59.4015C20.1468 59.0202 20.7798 59.0351 21.1611 59.4347Z" fill="#3EA37D"/>
<path id="Vector (Stroke)_4" fill-rule="evenodd" clip-rule="evenodd" d="M17 55.5C13.4101 55.5 10.5 58.4101 10.5 62C10.5 65.5899 13.4101 68.5 17 68.5C20.5899 68.5 23.5 65.5899 23.5 62C23.5 58.4101 20.5899 55.5 17 55.5ZM8.5 62C8.5 57.3056 12.3056 53.5 17 53.5C21.6944 53.5 25.5 57.3056 25.5 62C25.5 66.6944 21.6944 70.5 17 70.5C12.3056 70.5 8.5 66.6944 8.5 62Z" fill="#3EA37D"/>
</g>
</g>
</g>
</svg>
