<svg width="121" height="50" viewBox="0 0 121 50" fill="none" xmlns="http://www.w3.org/2000/svg">
<g clip-path="url(#clip0_196_1835)">
<path d="M1.5 2C1.5 1.44771 1.94772 1 2.5 1H118.5C119.052 1 119.5 1.44772 119.5 2V48C119.5 48.5523 119.052 49 118.5 49H2.5C1.94772 49 1.5 48.5523 1.5 48V2Z" fill="white"/>
<path d="M118.5 0.5H2.5C1.67157 0.5 1 1.17157 1 2V48C1 48.8284 1.67157 49.5 2.5 49.5H118.5C119.328 49.5 120 48.8284 120 48V2C120 1.17157 119.328 0.5 118.5 0.5Z" stroke="black" stroke-opacity="0.1"/>
<path d="M1.5 31H119.5V48C119.5 48.5523 119.052 49 118.5 49H2.5C1.94772 49 1.5 48.5523 1.5 48V31Z" fill="#F5F5F5"/>
<path d="M7.85289 37.6366C7.24655 37.6366 6.77339 37.8463 6.43339 38.2656C6.09339 38.6793 5.92339 39.2488 5.92339 39.9741C5.92339 40.6938 6.08205 41.2604 6.39939 41.6741C6.71672 42.0878 7.19839 42.2946 7.84439 42.2946C8.10505 42.2946 8.35439 42.2719 8.59239 42.2266C8.83605 42.1756 9.08255 42.1104 9.33189 42.0311V42.8216C9.09389 42.9123 8.85022 42.9774 8.60089 43.0171C8.35722 43.0624 8.06822 43.0851 7.73389 43.0851C7.11055 43.0851 6.59489 42.9576 6.18689 42.7026C5.77889 42.4419 5.47288 42.0793 5.26889 41.6146C5.06489 41.1443 4.96289 40.5946 4.96289 39.9656C4.96289 39.3536 5.07339 38.8124 5.29439 38.3421C5.52105 37.8718 5.84972 37.5063 6.28039 37.2456C6.71105 36.9793 7.23805 36.8461 7.86139 36.8461C8.16739 36.8461 8.46489 36.8801 8.75389 36.9481C9.04855 37.0104 9.31772 37.1011 9.56139 37.2201L9.22139 37.9851C9.02305 37.8944 8.80772 37.8151 8.57539 37.7471C8.34872 37.6734 8.10789 37.6366 7.85289 37.6366ZM12.3393 38.3336C12.94 38.3336 13.4132 38.5206 13.7588 38.8946C14.1045 39.2629 14.2773 39.7673 14.2773 40.4076V40.9006H11.2003C11.2117 41.3709 11.3335 41.7308 11.5658 41.9801C11.8038 42.2294 12.1353 42.3541 12.5603 42.3541C12.855 42.3541 13.1157 42.3286 13.3423 42.2776C13.5747 42.2209 13.8127 42.1388 14.0563 42.0311V42.7791C13.824 42.8811 13.5917 42.9576 13.3593 43.0086C13.127 43.0596 12.8493 43.0851 12.5263 43.0851C12.0787 43.0851 11.6848 42.9973 11.3448 42.8216C11.0105 42.6459 10.747 42.3853 10.5543 42.0396C10.3673 41.6883 10.2738 41.2576 10.2738 40.7476C10.2738 40.2319 10.3588 39.7956 10.5288 39.4386C10.7045 39.0816 10.9453 38.8096 11.2513 38.6226C11.563 38.4299 11.9257 38.3336 12.3393 38.3336ZM12.3393 39.0306C12.0163 39.0306 11.7557 39.1354 11.5573 39.3451C11.3647 39.5548 11.2513 39.8523 11.2173 40.2376H13.3763C13.3707 39.8806 13.2828 39.5916 13.1128 39.3706C12.9485 39.1439 12.6907 39.0306 12.3393 39.0306ZM17.6881 38.3336C18.2378 38.3336 18.6798 38.5319 19.0141 38.9286C19.3541 39.3253 19.5241 39.9174 19.5241 40.7051C19.5241 41.4814 19.3541 42.0736 19.0141 42.4816C18.6741 42.8839 18.2293 43.0851 17.6796 43.0851C17.3283 43.0851 17.0421 43.0228 16.8211 42.8981C16.6058 42.7678 16.4329 42.6148 16.3026 42.4391H16.2431C16.2601 42.5411 16.2743 42.6629 16.2856 42.8046C16.2969 42.9406 16.3026 43.0624 16.3026 43.1701V45.0401H15.4016V38.4186H16.1326L16.2601 39.0306H16.3026C16.4329 38.8379 16.6058 38.6736 16.8211 38.5376C17.0421 38.4016 17.3311 38.3336 17.6881 38.3336ZM17.4756 39.0731C17.0506 39.0731 16.7503 39.1978 16.5746 39.4471C16.3989 39.6908 16.3083 40.0619 16.3026 40.5606V40.6966C16.3026 41.2236 16.3876 41.6316 16.5576 41.9206C16.7276 42.2039 17.0393 42.3456 17.4926 42.3456C17.8666 42.3456 18.1443 42.1926 18.3256 41.8866C18.5069 41.5806 18.5976 41.1811 18.5976 40.6881C18.5976 40.1894 18.5069 39.7956 18.3256 39.5066C18.1443 39.2176 17.8609 39.0731 17.4756 39.0731ZM23.9386 39.1411H22.4426V43.0001H21.5501V39.1411H20.0626V38.4186H23.9386V39.1411ZM25.6898 38.4186V40.9176C25.6898 41.0083 25.6841 41.1301 25.6728 41.2831C25.6671 41.4361 25.6586 41.5891 25.6473 41.7421C25.6416 41.8894 25.6331 41.9999 25.6218 42.0736L27.9763 38.4186H29.0728V43.0001H28.2228V40.5606C28.2228 40.4529 28.2256 40.3198 28.2313 40.1611C28.2369 40.0024 28.2426 39.8494 28.2483 39.7021C28.2596 39.5491 28.2681 39.4329 28.2738 39.3536L25.9363 43.0001H24.8313V38.4186H25.6898ZM33.4079 36.5401V38.3676C34.1219 38.4299 34.6857 38.6679 35.0994 39.0816C35.5187 39.4896 35.7284 40.0336 35.7284 40.7136C35.7284 41.3879 35.5272 41.9319 35.1249 42.3456C34.7226 42.7593 34.1502 42.9973 33.4079 43.0596V45.0401H32.5494V43.0596C32.0734 43.0199 31.6597 42.9009 31.3084 42.7026C30.9627 42.4986 30.6936 42.2294 30.5009 41.8951C30.3139 41.5551 30.2204 41.1613 30.2204 40.7136C30.2204 40.0279 30.4216 39.4783 30.8239 39.0646C31.2262 38.6509 31.8071 38.4186 32.5664 38.3676V36.5401H33.4079ZM32.5664 39.0816C32.0904 39.1326 31.7362 39.2998 31.5039 39.5831C31.2716 39.8608 31.1554 40.2376 31.1554 40.7136C31.1554 41.1839 31.2716 41.5608 31.5039 41.8441C31.7362 42.1274 32.0904 42.2946 32.5664 42.3456V39.0816ZM33.4079 39.0901V42.3456C33.8782 42.2889 34.2267 42.1218 34.4534 41.8441C34.6857 41.5608 34.8019 41.1839 34.8019 40.7136C34.8019 40.2433 34.6857 39.8693 34.4534 39.5916C34.2211 39.3139 33.8726 39.1468 33.4079 39.0901ZM37.7342 38.4186V40.9176C37.7342 41.0083 37.7285 41.1301 37.7172 41.2831C37.7115 41.4361 37.703 41.5891 37.6917 41.7421C37.686 41.8894 37.6775 41.9999 37.6662 42.0736L40.0207 38.4186H41.1172V43.0001H40.2672V40.5606C40.2672 40.4529 40.27 40.3198 40.2757 40.1611C40.2814 40.0024 40.287 39.8494 40.2927 39.7021C40.304 39.5491 40.3125 39.4329 40.3182 39.3536L37.9807 43.0001H36.8757V38.4186H37.7342ZM45.3333 38.4186H46.3193L44.4068 40.6201L46.4808 43.0001H45.4438L43.4378 40.6796V43.0001H42.5368V38.4186H43.4378V40.6456L45.3333 38.4186ZM49.0365 38.3336C49.6088 38.3336 50.0367 38.4611 50.32 38.7161C50.609 38.9654 50.7535 39.3593 50.7535 39.8976V43.0001H50.116L49.9375 42.3626H49.9035C49.7052 42.6119 49.4955 42.7961 49.2745 42.9151C49.0592 43.0284 48.7588 43.0851 48.3735 43.0851C47.9598 43.0851 47.617 42.9746 47.345 42.7536C47.073 42.5269 46.937 42.1756 46.937 41.6996C46.937 41.2349 47.1127 40.8808 47.464 40.6371C47.8153 40.3934 48.3565 40.2603 49.0875 40.2376L49.8695 40.2121V39.9571C49.8695 39.6228 49.793 39.3876 49.64 39.2516C49.487 39.1099 49.2717 39.0391 48.994 39.0391C48.7617 39.0391 48.5378 39.0731 48.3225 39.1411C48.1072 39.2091 47.9003 39.2913 47.702 39.3876L47.413 38.7331C47.6283 38.6198 47.8748 38.5263 48.1525 38.4526C48.4358 38.3733 48.7305 38.3336 49.0365 38.3336ZM49.861 40.7986L49.249 40.8156C48.7277 40.8383 48.365 40.9261 48.161 41.0791C47.9627 41.2264 47.8635 41.4361 47.8635 41.7081C47.8635 41.9461 47.9343 42.1189 48.076 42.2266C48.2177 42.3343 48.4018 42.3881 48.6285 42.3881C48.9798 42.3881 49.2717 42.2889 49.504 42.0906C49.742 41.8923 49.861 41.5948 49.861 41.1981V40.7986ZM55.4898 39.1411H53.9938V43.0001H53.1013V39.1411H51.6138V38.4186H55.4898V39.1411ZM58.3356 40.2546C58.3356 39.2459 58.4999 38.4611 58.8286 37.9001C59.1572 37.3391 59.6871 36.9849 60.4181 36.8376C60.7637 36.7696 61.1066 36.7101 61.4466 36.6591C61.7866 36.6024 62.1152 36.5486 62.4326 36.4976L62.5601 37.2881C62.3674 37.3164 62.1464 37.3504 61.8971 37.3901C61.6534 37.4241 61.4126 37.4609 61.1746 37.5006C60.9366 37.5403 60.7326 37.5771 60.5626 37.6111C60.3019 37.6621 60.0809 37.7556 59.8996 37.8916C59.7182 38.0219 59.5766 38.2146 59.4746 38.4696C59.3726 38.7189 59.3131 39.0504 59.2961 39.4641H59.3471C59.4264 39.3564 59.5312 39.2459 59.6616 39.1326C59.7976 39.0193 59.9591 38.9258 60.1461 38.8521C60.3387 38.7728 60.5597 38.7331 60.8091 38.7331C61.3871 38.7331 61.8291 38.9173 62.1351 39.2856C62.4411 39.6539 62.5941 40.1498 62.5941 40.7731C62.5941 41.2888 62.5034 41.7194 62.3221 42.0651C62.1464 42.4051 61.8971 42.6601 61.5741 42.8301C61.2511 43.0001 60.8799 43.0851 60.4606 43.0851C59.8146 43.0851 59.2989 42.8443 58.9136 42.3626C58.5282 41.8753 58.3356 41.1726 58.3356 40.2546ZM60.5286 42.3456C60.8629 42.3456 61.1349 42.2351 61.3446 42.0141C61.5542 41.7931 61.6591 41.4106 61.6591 40.8666C61.6591 40.4303 61.5797 40.0846 61.4211 39.8296C61.2624 39.5746 60.9989 39.4471 60.6306 39.4471C60.4039 39.4471 60.1942 39.4981 60.0016 39.6001C59.8146 39.7021 59.6559 39.8211 59.5256 39.9571C59.4009 40.0931 59.3131 40.2036 59.2621 40.2886C59.2621 40.5493 59.2791 40.8014 59.3131 41.0451C59.3527 41.2888 59.4179 41.5098 59.5086 41.7081C59.6049 41.9008 59.7352 42.0566 59.8996 42.1756C60.0639 42.2889 60.2736 42.3456 60.5286 42.3456ZM65.5473 38.3336C66.148 38.3336 66.6212 38.5206 66.9668 38.8946C67.3125 39.2629 67.4853 39.7673 67.4853 40.4076V40.9006H64.4083C64.4197 41.3709 64.5415 41.7308 64.7738 41.9801C65.0118 42.2294 65.3433 42.3541 65.7683 42.3541C66.063 42.3541 66.3237 42.3286 66.5503 42.2776C66.7827 42.2209 67.0207 42.1388 67.2643 42.0311V42.7791C67.032 42.8811 66.7997 42.9576 66.5673 43.0086C66.335 43.0596 66.0573 43.0851 65.7343 43.0851C65.2867 43.0851 64.8928 42.9973 64.5528 42.8216C64.2185 42.6459 63.955 42.3853 63.7623 42.0396C63.5753 41.6883 63.4818 41.2576 63.4818 40.7476C63.4818 40.2319 63.5668 39.7956 63.7368 39.4386C63.9125 39.0816 64.1533 38.8096 64.4593 38.6226C64.771 38.4299 65.1337 38.3336 65.5473 38.3336ZM65.5473 39.0306C65.2243 39.0306 64.9637 39.1354 64.7653 39.3451C64.5727 39.5548 64.4593 39.8523 64.4253 40.2376H66.5843C66.5787 39.8806 66.4908 39.5916 66.3208 39.3706C66.1565 39.1439 65.8987 39.0306 65.5473 39.0306ZM69.9526 38.3336C70.4683 38.3336 70.8904 38.4384 71.2191 38.6481C71.5534 38.8521 71.7206 39.1496 71.7206 39.5406C71.7206 39.8183 71.6413 40.0393 71.4826 40.2036C71.3239 40.3679 71.1114 40.4869 70.8451 40.5606V40.5946C71.0321 40.6456 71.2021 40.7136 71.3551 40.7986C71.5081 40.8836 71.6299 40.9998 71.7206 41.1471C71.8169 41.2944 71.8651 41.4843 71.8651 41.7166C71.8651 41.9659 71.7914 42.1954 71.6441 42.4051C71.5024 42.6148 71.2786 42.7819 70.9726 42.9066C70.6723 43.0256 70.2869 43.0851 69.8166 43.0851C69.1196 43.0851 68.5784 42.9859 68.1931 42.7876V42.0056C68.3858 42.0963 68.6153 42.1784 68.8816 42.2521C69.1536 42.3258 69.4483 42.3626 69.7656 42.3626C70.1056 42.3626 70.3918 42.3116 70.6241 42.2096C70.8621 42.1019 70.9811 41.9206 70.9811 41.6656C70.9811 41.1953 70.5476 40.9601 69.6806 40.9601H69.1026V40.2716H69.5871C69.9838 40.2716 70.2983 40.2263 70.5306 40.1356C70.7686 40.0393 70.8876 39.8721 70.8876 39.6341C70.8876 39.2431 70.5504 39.0476 69.8761 39.0476C69.6324 39.0476 69.4058 39.0731 69.1961 39.1241C68.9864 39.1751 68.7683 39.2459 68.5416 39.3366L68.2441 38.6566C68.4934 38.5546 68.7569 38.4753 69.0346 38.4186C69.3179 38.3619 69.6239 38.3336 69.9526 38.3336ZM76.9718 40.7051C76.9718 41.4644 76.7763 42.0509 76.3853 42.4646C75.9943 42.8783 75.4673 43.0851 74.8043 43.0851C74.3906 43.0851 74.0223 42.9916 73.6993 42.8046C73.382 42.6176 73.1298 42.3484 72.9428 41.9971C72.7615 41.6401 72.6708 41.2094 72.6708 40.7051C72.6708 39.9458 72.8635 39.3621 73.2488 38.9541C73.6341 38.5404 74.1611 38.3336 74.8298 38.3336C75.2491 38.3336 75.6175 38.4271 75.9348 38.6141C76.2578 38.7954 76.51 39.0618 76.6913 39.4131C76.8783 39.7644 76.9718 40.1951 76.9718 40.7051ZM73.5973 40.7051C73.5973 41.2208 73.6936 41.6231 73.8863 41.9121C74.0846 42.2011 74.3963 42.3456 74.8213 42.3456C75.2463 42.3456 75.5551 42.2011 75.7478 41.9121C75.9461 41.6231 76.0453 41.2208 76.0453 40.7051C76.0453 40.1838 75.9461 39.7843 75.7478 39.5066C75.5495 39.2233 75.2378 39.0816 74.8128 39.0816C74.3878 39.0816 74.079 39.2233 73.8863 39.5066C73.6936 39.7843 73.5973 40.1838 73.5973 40.7051ZM82.075 38.4186V43.0001H81.174V39.1496H79.015V43.0001H78.114V38.4186H82.075ZM85.2611 38.3336C85.8334 38.3336 86.2613 38.4611 86.5446 38.7161C86.8336 38.9654 86.9781 39.3593 86.9781 39.8976V43.0001H86.3406L86.1621 42.3626H86.1281C85.9298 42.6119 85.7201 42.7961 85.4991 42.9151C85.2838 43.0284 84.9834 43.0851 84.5981 43.0851C84.1844 43.0851 83.8416 42.9746 83.5696 42.7536C83.2976 42.5269 83.1616 42.1756 83.1616 41.6996C83.1616 41.2349 83.3373 40.8808 83.6886 40.6371C84.0399 40.3934 84.5811 40.2603 85.3121 40.2376L86.0941 40.2121V39.9571C86.0941 39.6228 86.0176 39.3876 85.8646 39.2516C85.7116 39.1099 85.4963 39.0391 85.2186 39.0391C84.9863 39.0391 84.7624 39.0731 84.5471 39.1411C84.3318 39.2091 84.1249 39.2913 83.9266 39.3876L83.6376 38.7331C83.8529 38.6198 84.0994 38.5263 84.3771 38.4526C84.6604 38.3733 84.9551 38.3336 85.2611 38.3336ZM86.0856 40.7986L85.4736 40.8156C84.9523 40.8383 84.5896 40.9261 84.3856 41.0791C84.1873 41.2264 84.0881 41.4361 84.0881 41.7081C84.0881 41.9461 84.1589 42.1189 84.3006 42.2266C84.4423 42.3343 84.6264 42.3881 84.8531 42.3881C85.2044 42.3881 85.4963 42.2889 85.7286 42.0906C85.9666 41.8923 86.0856 41.5948 86.0856 41.1981V40.7986ZM90.21 43.0851C89.5753 43.0851 89.0653 42.8981 88.68 42.5241C88.2946 42.1444 88.102 41.5494 88.102 40.7391C88.102 40.1724 88.1955 39.7134 88.3825 39.3621C88.5695 39.0108 88.8273 38.7529 89.156 38.5886C89.4846 38.4186 89.8586 38.3336 90.278 38.3336C90.533 38.3336 90.771 38.3619 90.992 38.4186C91.2186 38.4696 91.4056 38.5291 91.553 38.5971L91.281 39.3281C91.1223 39.2658 90.9523 39.2119 90.771 39.1666C90.5953 39.1213 90.4281 39.0986 90.2695 39.0986C89.4421 39.0986 89.0285 39.6426 89.0285 40.7306C89.0285 41.2519 89.1305 41.6486 89.3345 41.9206C89.5385 42.1926 89.8388 42.3286 90.2355 42.3286C90.4905 42.3286 90.7143 42.3003 90.907 42.2436C91.1053 42.1869 91.2866 42.1133 91.451 42.0226V42.8046C91.2866 42.9009 91.1081 42.9718 90.9155 43.0171C90.7228 43.0624 90.4876 43.0851 90.21 43.0851ZM93.4334 38.4186V40.2801H95.6944V38.4186H96.5954V43.0001H95.6944V41.0026H93.4334V43.0001H92.5324V38.4186H93.4334ZM102.04 40.7051C102.04 41.4644 101.845 42.0509 101.454 42.4646C101.063 42.8783 100.536 43.0851 99.8727 43.0851C99.459 43.0851 99.0907 42.9916 98.7677 42.8046C98.4503 42.6176 98.1982 42.3484 98.0112 41.9971C97.8298 41.6401 97.7392 41.2094 97.7392 40.7051C97.7392 39.9458 97.9318 39.3621 98.3172 38.9541C98.7025 38.5404 99.2295 38.3336 99.8982 38.3336C100.317 38.3336 100.686 38.4271 101.003 38.6141C101.326 38.7954 101.579 39.0618 101.76 39.4131C101.947 39.7644 102.04 40.1951 102.04 40.7051ZM98.6657 40.7051C98.6657 41.2208 98.762 41.6231 98.9547 41.9121C99.153 42.2011 99.4647 42.3456 99.8897 42.3456C100.315 42.3456 100.624 42.2011 100.816 41.9121C101.015 41.6231 101.114 41.2208 101.114 40.7051C101.114 40.1838 101.015 39.7843 100.816 39.5066C100.618 39.2233 100.306 39.0816 99.8812 39.0816C99.4562 39.0816 99.1473 39.2233 98.9547 39.5066C98.762 39.7843 98.6657 40.1838 98.6657 40.7051ZM105.027 43.0851C104.392 43.0851 103.882 42.8981 103.497 42.5241C103.112 42.1444 102.919 41.5494 102.919 40.7391C102.919 40.1724 103.013 39.7134 103.2 39.3621C103.387 39.0108 103.644 38.7529 103.973 38.5886C104.302 38.4186 104.676 38.3336 105.095 38.3336C105.35 38.3336 105.588 38.3619 105.809 38.4186C106.036 38.4696 106.223 38.5291 106.37 38.5971L106.098 39.3281C105.939 39.2658 105.769 39.2119 105.588 39.1666C105.412 39.1213 105.245 39.0986 105.087 39.0986C104.259 39.0986 103.846 39.6426 103.846 40.7306C103.846 41.2519 103.948 41.6486 104.152 41.9206C104.356 42.1926 104.656 42.3286 105.053 42.3286C105.308 42.3286 105.531 42.3003 105.724 42.2436C105.922 42.1869 106.104 42.1133 106.268 42.0226V42.8046C106.104 42.9009 105.925 42.9718 105.733 43.0171C105.54 43.0624 105.305 43.0851 105.027 43.0851ZM110.699 39.1411H109.203V43.0001H108.31V39.1411H106.823V38.4186H110.699V39.1411ZM112.45 38.4186V40.9176C112.45 41.0083 112.444 41.1301 112.433 41.2831C112.427 41.4361 112.419 41.5891 112.407 41.7421C112.402 41.8894 112.393 41.9999 112.382 42.0736L114.736 38.4186H115.833V43.0001H114.983V40.5606C114.983 40.4529 114.986 40.3198 114.991 40.1611C114.997 40.0024 115.003 39.8494 115.008 39.7021C115.02 39.5491 115.028 39.4329 115.034 39.3536L112.696 43.0001H111.591V38.4186H112.45Z" fill="#808482"/>
<path fill-rule="evenodd" clip-rule="evenodd" d="M112.299 14.4381V15.1267H111.895V13.4156C112.055 13.3843 112.278 13.3634 112.565 13.3634C112.895 13.3634 113.044 13.4156 113.172 13.4886C113.267 13.5617 113.342 13.6973 113.342 13.8642C113.342 14.052 113.193 14.1981 112.98 14.2607V14.2816C113.15 14.3442 113.246 14.4694 113.299 14.6989C113.352 14.9597 113.384 15.0641 113.427 15.1267H112.991C112.937 15.0641 112.906 14.9076 112.852 14.7093C112.82 14.5215 112.714 14.4381 112.491 14.4381H112.299ZM112.31 13.666V14.1564H112.501C112.725 14.1564 112.906 14.0833 112.906 13.906C112.906 13.7495 112.789 13.6451 112.533 13.6451C112.427 13.6451 112.352 13.6556 112.31 13.666ZM112.576 12.5183C113.586 12.5183 114.363 13.2799 114.363 14.2294C114.363 15.1997 113.586 15.9614 112.576 15.9614C111.576 15.9614 110.778 15.1997 110.778 14.2294C110.778 13.2799 111.576 12.5183 112.576 12.5183ZM112.576 12.8626C111.799 12.8626 111.225 13.4782 111.225 14.2294C111.225 14.991 111.799 15.5962 112.586 15.5962C113.352 15.5962 113.916 14.991 113.916 14.2398C113.916 13.4782 113.352 12.8626 112.576 12.8626Z" fill="#80C600"/>
<path fill-rule="evenodd" clip-rule="evenodd" d="M108.332 17.6995C108.332 17.0655 108.057 16.0034 106.852 16.0034C105.751 16.0034 105.303 16.9971 105.234 17.6995H108.332ZM105.252 19.4815C105.338 20.5606 106.405 21.0746 107.627 21.0746C108.521 21.0746 109.245 20.9547 109.95 20.7318L110.294 22.4966C109.434 22.8391 108.384 23.0105 107.248 23.0105C104.391 23.0105 102.756 21.366 102.756 18.7448C102.756 16.62 104.081 14.2729 107.007 14.2729C109.726 14.2729 110.759 16.3802 110.759 18.4532C110.759 18.899 110.708 19.2927 110.673 19.4815H105.252Z" fill="#80C600"/>
<path fill-rule="evenodd" clip-rule="evenodd" d="M100.484 12.063V14.4616H102.36V16.3806H100.484V19.4129C100.484 20.4238 100.725 20.8864 101.517 20.8864C101.844 20.8864 102.102 20.8521 102.291 20.8178L102.309 22.788C101.964 22.9251 101.345 23.0109 100.605 23.0109C99.7614 23.0109 99.0558 22.7194 98.6428 22.2913C98.161 21.7943 97.9199 20.9892 97.9199 19.8069V16.3806H96.8013V14.4616H97.9199V12.6456L100.484 12.063Z" fill="#80C600"/>
<path fill-rule="evenodd" clip-rule="evenodd" d="M93.0837 22.8395H95.6998V14.4615H93.0837V22.8395ZM95.7857 12.1316C95.7857 12.8512 95.2353 13.4335 94.3747 13.4335C93.5485 13.4335 92.9978 12.8512 93.015 12.1316C92.9978 11.3777 93.5485 10.8123 94.392 10.8123C95.2353 10.8123 95.7687 11.3777 95.7857 12.1316Z" fill="#80C600"/>
<path fill-rule="evenodd" clip-rule="evenodd" d="M84.3924 20.1496C85.0977 20.5092 86.1821 20.8691 87.3006 20.8691C88.5056 20.8691 89.1423 20.3724 89.1423 19.6185C89.1423 18.8989 88.5918 18.4875 87.1974 17.9908C85.2699 17.3227 84.0136 16.2603 84.0136 14.5816C84.0136 12.6113 85.6657 11.1035 88.4022 11.1035C89.7105 11.1035 90.674 11.3776 91.3626 11.6861L90.7772 13.7933C90.3126 13.5707 89.4866 13.2451 88.3507 13.2451C87.2146 13.2451 86.6639 13.759 86.6639 14.3587C86.6639 15.0955 87.318 15.4208 88.8152 15.9864C90.8634 16.7401 91.8271 17.8025 91.8271 19.43C91.8271 21.3659 90.3299 23.0108 87.1459 23.0108C85.8208 23.0108 84.5126 22.668 83.8589 22.3083L84.3924 20.1496Z" fill="#80C600"/>
<path fill-rule="evenodd" clip-rule="evenodd" d="M79.6073 18.0081C79.6073 17.871 79.5901 17.6825 79.5728 17.5457C79.4179 16.843 78.85 16.2605 78.0412 16.2605C76.8538 16.2605 76.2339 17.3228 76.2339 18.6421C76.2339 20.0641 76.9397 20.9549 78.0239 20.9549C78.7812 20.9549 79.3834 20.441 79.5383 19.7042C79.5901 19.5157 79.6073 19.3274 79.6073 19.1045V18.0081ZM82.2231 10.6753V20.3382C82.2231 21.2804 82.2576 22.2741 82.2921 22.8395H79.9686L79.8482 21.6058H79.8137C79.2802 22.5483 78.2648 23.0281 77.1804 23.0281C75.1842 23.0281 73.5836 21.3319 73.5836 18.7277C73.5666 15.9008 75.3391 14.2731 77.3528 14.2731C78.3855 14.2731 79.1943 14.633 79.5728 15.2155H79.6073V10.6753H82.2231Z" fill="#323835"/>
<path fill-rule="evenodd" clip-rule="evenodd" d="M67.5376 19.439C67.6236 20.5181 68.6905 21.0322 69.9126 21.0322C70.8076 21.0322 71.5304 20.9123 72.2361 20.6894L72.5801 22.4542C71.7196 22.7967 70.6699 22.9681 69.5338 22.9681C66.6771 22.9681 65.042 21.3235 65.042 18.7023C65.042 16.5776 66.3673 14.2305 69.2929 14.2305C72.0122 14.2305 73.0449 16.3378 73.0449 18.4108C73.0449 18.8565 72.9932 19.2503 72.9589 19.439H67.5376ZM70.6182 17.6571C70.6182 17.0231 70.3429 15.961 69.1382 15.961C68.0368 15.961 67.5891 16.9547 67.5202 17.6571H70.6182Z" fill="#323835"/>
<path fill-rule="evenodd" clip-rule="evenodd" d="M62.7057 12.063V14.4616H64.5818V16.3806H62.7057V19.4129C62.7057 20.4238 62.9468 20.8864 63.7384 20.8864C64.0655 20.8864 64.3237 20.8521 64.5128 20.8178L64.53 22.788C64.1857 22.9251 63.5662 23.0109 62.8262 23.0109C61.9829 23.0109 61.2773 22.7194 60.8643 22.2913C60.3826 21.7943 60.1417 20.9892 60.1417 19.8069V16.3806H59.0229V14.4616H60.1417V12.6456L62.7057 12.063Z" fill="#323835"/>
<path fill-rule="evenodd" clip-rule="evenodd" d="M52.5343 20.5608C53.0163 20.8521 54.0145 21.1948 54.7888 21.1948C55.5806 21.1948 55.9077 20.9205 55.9077 20.4924C55.9077 20.064 55.6496 19.8583 54.6686 19.533C52.9303 18.9505 52.2589 18.008 52.2762 17.0143C52.2762 15.4555 53.6187 14.2732 55.7011 14.2732C56.682 14.2732 57.5598 14.4958 58.076 14.753L57.6113 16.5519C57.2327 16.3462 56.5099 16.0721 55.787 16.0721C55.1504 16.0721 54.7888 16.329 54.7888 16.7574C54.7888 17.1516 55.1159 17.3571 56.1486 17.7167C57.7492 18.2652 58.4203 19.0703 58.4376 20.3038C58.4376 21.8629 57.1983 23.0108 54.7888 23.0108C53.6874 23.0108 52.7064 22.7708 52.0698 22.4283L52.5343 20.5608Z" fill="#323835"/>
<path fill-rule="evenodd" clip-rule="evenodd" d="M51.0885 20.1495C51.0885 21.246 51.1227 22.1372 51.1574 22.8394H48.8857L48.765 21.6574H48.7135C48.3865 22.1713 47.5947 23.0279 46.0802 23.0279C44.3764 23.0279 43.1201 21.9656 43.1201 19.3787V14.4614H45.7534V18.9675C45.7534 20.1836 46.1492 20.9204 47.0614 20.9204C47.784 20.9204 48.1971 20.4236 48.3692 20.0125C48.4382 19.8583 48.4552 19.6526 48.4552 19.4471V14.4614H51.0885V20.1495Z" fill="#323835"/>
<path fill-rule="evenodd" clip-rule="evenodd" d="M36.8378 17.2198C36.8378 15.9863 36.8035 15.181 36.769 14.4614H39.0236L39.1095 16.0034H39.1785C39.6088 14.787 40.6412 14.2729 41.45 14.2729C41.6911 14.2729 41.8116 14.2729 42.001 14.3072V16.7573C41.8116 16.723 41.5879 16.6886 41.2953 16.6886C40.3316 16.6886 39.6775 17.2028 39.5053 18.0079C39.4711 18.1791 39.4536 18.3848 39.4536 18.5905V22.8394H36.8378V17.2198Z" fill="#323835"/>
<path fill-rule="evenodd" clip-rule="evenodd" d="M31.1407 13.485H28.0254V11.2922H36.9406V13.485H33.7738V22.8395H31.1407V13.485Z" fill="#323835"/>
<path d="M15.5 25.8349C20.4706 25.8349 24.5 21.8424 24.5 16.9174C24.5 11.9925 20.4706 8 15.5 8C10.5294 8 6.5 11.9925 6.5 16.9174C6.5 21.8424 10.5294 25.8349 15.5 25.8349Z" fill="white"/>
<path fill-rule="evenodd" clip-rule="evenodd" d="M19.7518 25.8349H6.5V12.7048C6.5 10.1064 8.62591 8 11.2482 8H24.5V21.1301C24.5 23.7285 22.3741 25.8349 19.7518 25.8349ZM20.8274 11.7327C20.6814 11.586 20.4422 11.586 20.296 11.7327L13.6535 18.3955C13.5073 18.5422 13.2682 18.5422 13.1223 18.3955L10.7038 15.9699C10.5578 15.8232 10.3186 15.8232 10.1724 15.9699L8.57823 17.5689C8.43226 17.7155 8.43226 17.9553 8.57823 18.102L13.1223 22.6597C13.2682 22.8061 13.5073 22.8061 13.6535 22.6597L22.4218 13.8648C22.5677 13.7181 22.5677 13.4784 22.4218 13.3317L20.8274 11.7327Z" fill="#80C600"/>
</g>
<defs>
<clipPath id="clip0_196_1835">
<rect width="120" height="50" fill="white" transform="translate(0.5)"/>
</clipPath>
</defs>
</svg>
