<svg width="40" height="40" viewBox="0 0 40 40" fill="none" xmlns="http://www.w3.org/2000/svg">
<rect width="40" height="40" rx="20" fill="#BFDFFF"/>
<path fill-rule="evenodd" clip-rule="evenodd" d="M29.9238 13.8824C29.1905 14.2118 28.4 14.4282 27.581 14.5318C28.419 14.0329 29.0667 13.2424 29.3714 12.2918C28.581 12.7624 27.7048 13.0918 26.781 13.28C26.0286 12.4706 24.9714 12 23.7714 12C21.5333 12 19.7048 13.8071 19.7048 16.0376C19.7048 16.3576 19.7429 16.6682 19.8095 16.96C16.419 16.7906 13.4 15.1812 11.3905 12.7435C11.0381 13.3365 10.8381 14.0329 10.8381 14.7671C10.8381 16.1694 11.5524 17.4118 12.6571 18.1176C11.981 18.1176 11.3524 17.9294 10.8 17.6471C10.8 17.6471 10.8 17.6471 10.8 17.6753C10.8 19.6329 12.2095 21.2706 14.0762 21.6376C13.7333 21.7318 13.3714 21.7788 13 21.7788C12.7429 21.7788 12.4857 21.7506 12.2381 21.7035C12.7524 23.2941 14.2476 24.48 16.0476 24.5082C14.6571 25.6 12.8952 26.24 10.9714 26.24C10.6476 26.24 10.3238 26.2212 10 26.1835C11.8095 27.3318 13.9619 28 16.2667 28C23.7714 28 27.8952 21.8447 27.8952 16.5082C27.8952 16.3294 27.8952 16.16 27.8857 15.9812C28.6857 15.4165 29.3714 14.7012 29.9238 13.8824Z" fill="#00466F"/>
</svg>
