<svg width="50" height="30" viewBox="0 0 50 30" fill="none" xmlns="http://www.w3.org/2000/svg">
<g clip-path="url(#clip0_196_1827)">
<path d="M36.8484 11.6798C36.4803 11.563 36.0008 11.9745 35.7917 12.6048C35.5716 13.235 35.7061 13.8408 36.0783 13.9549C36.4491 14.073 36.9272 13.6588 37.1377 13.0299C37.3537 12.401 37.2219 11.7952 36.8484 11.6798ZM33.3536 9.25664C33.1838 9.14526 32.9121 9.09229 32.54 9.09229H31.4017L30.9915 11.0849H32.3335C32.6826 11.0849 32.9583 11.0034 33.1634 10.8417C33.3644 10.6801 33.4975 10.4315 33.5709 10.0947C33.5831 10.0336 33.5885 9.97652 33.5994 9.9249C33.6021 9.876 33.6103 9.82845 33.6103 9.78092C33.6103 9.5405 33.5261 9.36666 33.3536 9.25664ZM31.903 21.333L31.6354 22.2811H32.6826L32.9502 21.333H31.903ZM32.9448 17.6684L32.5876 18.9166C32.5876 18.9166 33.1975 18.6817 33.7258 18.6151C33.8426 18.1791 33.9934 17.6684 33.9934 17.6684H32.9448ZM32.4219 19.5034L32.0619 20.8087C32.0619 20.8087 32.741 20.4745 33.2029 20.446C33.34 19.9434 33.4731 19.5034 33.4731 19.5034H32.4219ZM22.6518 11.5602C22.5201 11.4176 22.334 11.3456 22.0922 11.3456C21.773 11.3456 21.5136 11.4584 21.3099 11.6825C21.1048 11.908 20.9594 12.2462 20.8671 12.6985C20.8549 12.7677 20.844 12.8384 20.8358 12.9049C20.8291 12.9742 20.8263 13.0394 20.8277 13.0992C20.8277 13.3559 20.8942 13.5542 21.0274 13.6941C21.1578 13.834 21.3438 13.9033 21.5883 13.9033C21.9089 13.9033 22.1683 13.7919 22.372 13.5705C22.5758 13.3504 22.7198 13.0163 22.8094 12.5735C22.823 12.5042 22.8339 12.4323 22.8406 12.3589C22.8461 12.2883 22.8502 12.2217 22.8502 12.1606C22.8502 11.9039 22.785 11.7029 22.6518 11.5602Z" fill="#BFDFFF"/>
<path d="M47.2134 0.006791L35.6478 0.004074H35.6451C35.6329 0.004074 35.6247 0.005434 35.6166 0.005434C34.0274 0.05433 32.0484 1.32838 31.6885 2.8999L30.6603 7.44601H29.7068L30.735 2.8999C31.0963 1.32838 33.0753 0.05433 34.6644 0.005433C34.6726 0.005433 34.6821 0.004074 34.6916 0.004074H30.0681L21.8451 0C21.8248 0 21.8044 0.001358 21.7827 0.002716C20.1894 0.035315 18.1846 1.31752 17.8247 2.90125L16.7965 7.44737H15.6854L16.7123 2.90125C17.0722 1.31888 19.0783 0.035315 20.6716 0.002716L10.0581 0C8.45536 0 6.40166 1.29714 6.03493 2.90125L0.563839 27.1028C0.529882 27.2495 0.510866 27.3948 0.5 27.5361V27.9843C0.608661 29.1389 1.49153 29.9823 2.76015 30H13.4388C11.8619 29.9756 10.8799 28.6852 11.2412 27.0987L12.5111 21.481H13.6249L12.3549 27.0987C11.9936 28.6866 12.9757 29.9756 14.5513 30H27.4684C25.89 29.9756 24.9107 28.6852 25.2707 27.0987L25.6958 25.2162H26.6493L26.2242 27.0987C25.8642 28.6866 26.8449 29.9756 28.4219 30H40.5715C42.1267 29.9226 43.6344 28.6635 43.9889 27.1096L49.4587 2.90805C49.8227 1.30665 48.8148 0.005433 47.2134 0.006791ZM10.706 14.217C10.1287 14.6435 9.3817 14.8581 8.46758 14.8581C7.60644 14.8581 6.97621 14.6394 6.57416 14.2007C6.29572 13.8896 6.15582 13.493 6.15582 13.0149C6.15582 12.8166 6.17891 12.6033 6.22645 12.3752L7.20032 7.67827H8.67132L7.70967 12.3208C7.67979 12.4512 7.66892 12.5707 7.67028 12.678C7.66892 12.9157 7.72733 13.11 7.84686 13.2621C8.02071 13.4889 8.30323 13.6017 8.69849 13.6017C9.15079 13.6017 9.52295 13.4916 9.81227 13.2675C10.1016 13.0461 10.2904 12.7324 10.3746 12.3222L11.339 7.67963H12.8018L11.8279 12.3765C11.6649 13.1738 11.2887 13.7837 10.706 14.217ZM16.5846 11.8658L16.0141 14.7222H14.9451L15.4626 12.1334C15.5156 11.8658 15.5007 11.6661 15.4178 11.5385C15.3377 11.4094 15.1828 11.3456 14.9587 11.3456C14.6844 11.3456 14.4535 11.4312 14.2647 11.6009C14.0759 11.7721 13.9509 12.0098 13.8898 12.3127L13.413 14.7209H12.3441L13.1821 10.5279H14.2212L14.103 11.1323L14.2511 10.9598C14.5893 10.5999 14.9981 10.4206 15.4803 10.4206C15.9177 10.4206 16.2328 10.5483 16.4311 10.8036C16.6253 11.0604 16.6783 11.4121 16.5846 11.8658ZM35.5337 10.9775C36.4302 10.5605 36.8961 10.8077 37.4054 11.2057L37.8917 10.8702L39.0448 10.7683L38.1756 14.7209L36.8472 14.6869L36.6516 14.4601C33.2872 15.8944 34.3099 11.5439 35.5337 10.9775ZM37.9121 17.3016L37.673 18.1247H36.7018C36.331 18.1451 36.1422 18.0065 36.1232 17.6996L36.0784 16.632H37.4013L37.457 17.1182C37.4475 17.2432 37.5236 17.3016 37.6798 17.3016H37.9121ZM30.2311 7.92819H33.2505C33.8291 7.92819 34.276 8.0613 34.587 8.31937C34.8953 8.58016 35.0488 8.95504 35.0488 9.44402V9.45896C35.0488 9.55132 35.042 9.65726 35.0325 9.77C35.0176 9.88138 35.0013 9.99547 34.9741 10.1136C34.841 10.7602 34.5327 11.279 34.0559 11.6743C33.5751 12.0668 33.0087 12.2651 32.3581 12.2651H30.7391L30.2392 14.7209H28.8388L30.2311 7.92819ZM25.0968 10.5293H26.1373L26.0191 11.1337L26.1644 10.9612C26.5013 10.6013 26.9128 10.422 27.3936 10.422C27.8283 10.422 28.1448 10.5496 28.3431 10.805C28.5346 11.0604 28.5903 11.4135 28.4966 11.8658L27.9261 14.7222H26.8571L27.3746 12.1334C27.4276 11.8658 27.4154 11.6661 27.3325 11.5385C27.247 11.4094 27.0962 11.3456 26.8734 11.3456C26.5991 11.3456 26.3682 11.4312 26.178 11.6009C25.9892 11.7721 25.8642 12.0098 25.8045 12.3127L25.3264 14.7209H24.2588L25.0968 10.5293ZM24.7654 17.1834L24.5522 17.9712H22.5582C22.3287 18.3162 22.0462 18.4778 21.7052 18.4575H20.6662L20.893 17.6344H21.094C21.2801 17.6344 21.4037 17.5732 21.4621 17.451L21.9837 16.6686H23.3813L23.0893 17.1834H24.7654ZM18.2539 14.7195H17.1048L18.0053 10.5293H19.1571L18.2539 14.7195ZM19.312 10.0199H18.1507L18.3666 9.00122H19.5293L19.312 10.0199ZM19.7357 12.9483C19.748 12.841 19.7629 12.7392 19.7819 12.6427C19.9205 11.9609 20.2098 11.4203 20.658 11.0223C21.1049 10.6216 21.6455 10.4206 22.2771 10.4206C22.7959 10.4206 23.2061 10.5659 23.5063 10.8553C23.8065 11.1459 23.9572 11.5398 23.9572 12.0383C23.9572 12.1239 23.9504 12.223 23.9396 12.329C23.9246 12.4376 23.9097 12.5409 23.8907 12.6427C23.7576 13.3124 23.4683 13.8475 23.0187 14.2387C22.5704 14.6339 22.0326 14.8295 21.4051 14.8295C20.8862 14.8295 20.4774 14.6869 20.1772 14.403C19.8743 14.1137 19.7222 13.7266 19.7208 13.2336C19.7208 13.1466 19.7262 13.0516 19.7357 12.9483ZM23.1138 23.5903H20.8658C20.438 23.5903 20.2926 23.3459 20.4257 22.8569L20.8522 21.3003H19.9341L20.1663 20.4419H21.0859L21.31 19.6188H20.4325L20.6634 18.7644H24.3362L24.1026 19.6188H22.6261L22.4007 20.4446H23.8377L23.6041 21.3003H22.1657L21.8316 22.5187C21.7501 22.7211 21.8587 22.8134 22.1575 22.793H23.3284L23.1138 23.5903ZM29.0358 21.1441C28.9231 21.5529 28.6242 21.7648 28.1407 21.7866H27.5023L27.4996 22.6722C27.4874 22.8107 27.6164 22.884 27.8813 22.884H28.4789L28.282 23.5876H26.8449C26.4442 23.6026 26.2446 23.4124 26.25 23.0063L26.3396 20.6266H27.539L27.5145 21.1441H27.8337C27.9954 21.1441 28.0755 21.0911 28.0755 20.9906L28.1706 20.6551H29.1648L29.0358 21.1441ZM28.2724 20.4093H25.6388L25.0221 22.6694C24.9868 22.789 25.0357 22.8528 25.1702 22.8528H25.689L25.4975 23.555H24.18C23.6734 23.555 23.4642 23.4056 23.547 23.0973L25.2911 16.6618H26.5203L26.4646 17.163C26.4646 17.163 27.1587 16.6428 27.7862 16.6428H30.1115L29.2232 19.8606C29.1499 20.23 28.8334 20.4106 28.2724 20.4093ZM33.9038 23.1951L33.7897 23.5917H32.4301L32.5442 23.1951H29.8589L30.1183 22.2796H30.3873L31.6993 17.667H31.4291L31.7061 16.6904H33.1106L33.0495 17.0503C33.0495 17.0503 33.7653 16.6904 34.2841 16.6904H36.02L35.7443 17.667H35.4726L34.1605 22.2796H34.4335L34.1768 23.1951H33.9038ZM39.7226 19.2819H38.3616L38.1267 20.105H39.4876L39.2323 20.9879H37.7178L37.3755 21.5054H38.1131L38.2856 22.5458C38.3059 22.6491 38.397 22.698 38.5532 22.698H38.7841L38.5409 23.5537H37.7246C37.3035 23.5754 37.0862 23.4355 37.0672 23.1272L36.8689 22.1818L36.1952 23.191C36.0376 23.4763 35.7891 23.6094 35.4604 23.5876H34.2135L34.4593 22.7319H34.8451C35.004 22.7319 35.1412 22.6599 35.2594 22.5187L36.3147 20.992H34.951L35.2064 20.1091H36.6828L36.9192 19.2874H35.44L35.694 18.4018H39.9725L39.7226 19.2819ZM41.3254 15.529C40.8853 16.4717 40.4629 17.0204 40.2143 17.2758C39.9644 17.5298 39.4741 18.1165 38.2883 18.0731L38.3915 17.3546C39.3871 17.0489 39.9264 15.6662 40.2347 15.0523L39.868 10.5401L40.6354 10.5293H41.2805L41.3498 13.3599L42.5641 10.5293H43.792L41.3254 15.529Z" fill="#BFDFFF"/>
<path d="M26.0409 18.945L25.8657 19.5847H27.7401C27.8936 19.6064 27.9805 19.5453 27.9914 19.4013L28.1191 18.945H26.0409ZM26.4212 17.5718L26.1726 18.4397C26.1726 18.4397 26.5176 18.1912 27.0936 18.1817C27.6708 18.1735 28.3282 18.1817 28.3282 18.1817L28.4953 17.5718H26.4212Z" fill="#BFDFFF"/>
</g>
<defs>
<clipPath id="clip0_196_1827">
<rect width="49" height="30" fill="white" transform="translate(0.5)"/>
</clipPath>
</defs>
</svg>
