<svg width="80" height="80" viewBox="0 0 80 80" fill="none" xmlns="http://www.w3.org/2000/svg">
<mask id="mask0_181_1653" style="mask-type:alpha" maskUnits="userSpaceOnUse" x="0" y="0" width="80" height="80">
<path d="M68.2843 68.2843C83.9053 52.6633 83.9053 27.3367 68.2843 11.7157C52.6633 -3.90524 27.3367 -3.90524 11.7157 11.7157C-3.90524 27.3367 -3.90524 52.6633 11.7157 68.2843C27.3367 83.9053 52.6633 83.9053 68.2843 68.2843Z" fill="#7AC4ED"/>
</mask>
<g mask="url(#mask0_181_1653)">
<path d="M68.2843 68.2843C83.9053 52.6633 83.9053 27.3367 68.2843 11.7157C52.6633 -3.90524 27.3367 -3.90524 11.7157 11.7157C-3.90524 27.3367 -3.90524 52.6633 11.7157 68.2843C27.3367 83.9053 52.6633 83.9053 68.2843 68.2843Z" fill="#7AC4ED"/>
<path d="M45.074 62.3095L45.1376 62.3387C44.8483 62.1667 44.532 62.0448 44.2021 61.9783C44.3802 62.5947 44.597 63.1992 44.8514 63.7882C45.0137 63.3126 45.0891 62.8118 45.074 62.3095Z" fill="#9BC9DD"/>
<path d="M34.4686 69.5599L39.6547 67.0769C37.7361 66.8861 36.525 66.2528 35.7618 65.5081C35.2743 65.0271 34.9106 64.4352 34.7018 63.783C34.5397 63.3111 34.4652 62.8136 34.4818 62.3149C33.8855 62.5694 33.3279 62.9066 32.8256 63.3166L32.7143 63.412C29.68 66.1441 34.4686 69.5599 34.4686 69.5599Z" fill="#A8CFE5"/>
<path d="M34.6886 63.7828C34.94 63.1996 35.1551 62.6013 35.3325 61.9915C35.0298 62.0547 34.7385 62.1637 34.4686 62.3147C34.4519 62.8134 34.5264 63.3109 34.6886 63.7828Z" fill="#9BC9DD"/>
<path d="M47.1702 63.7511C47.1384 63.714 47.1093 63.6769 47.0748 63.6425C46.5184 63.0868 45.8597 62.6441 45.135 62.3387L45.0714 62.3096C45.0868 62.8127 45.0114 63.3145 44.8488 63.7909C44.4301 65.0549 43.2588 66.7058 39.9568 67.0689H39.8853L45.0714 69.5519C45.0714 69.5519 49.4731 66.4223 47.1702 63.7511Z" fill="#A8CFE5"/>
<path d="M34.4687 69.5599C34.4687 69.5599 29.6721 66.1441 32.7011 63.4067L32.8124 63.3113C31.0449 64.6363 27.8754 66.8278 25.6573 69.4724C23.948 71.5023 23.6936 74.5259 23.744 76.6405C28.7594 78.8476 34.1764 79.996 39.656 80.0137C45.1356 80.0315 50.47 79.1745 55.4996 77C55.5579 74.88 55.4146 71.5341 53.6762 69.4724C51.6383 67.053 49.0201 65.0867 47.1863 63.7512C49.4865 66.4223 45.0874 69.5599 45.0874 69.5599L39.9013 67.0769H39.8722H39.6681L34.4687 69.5599Z" fill="#2579BF"/>
<path d="M55.1365 34.6841C55.11 34.4376 55.0782 34.1912 55.0411 33.9474C53.3186 32.4449 49.5396 30.3752 48.7658 29.6386C47.6475 28.5786 46.1767 27.455 45.3207 26.1777C44.963 26.4427 44.5973 26.6786 44.2263 26.9144C41.7326 28.4885 38.9845 29.6386 36.414 31.2418C33.2896 33.1921 29.9638 35.1452 27.4038 37.8348C26.554 38.7671 25.8069 39.7878 25.1751 40.8796C24.9278 41.2913 24.6866 41.7091 24.4517 42.1331L24.4729 42.3981C24.4729 42.4378 24.4729 42.4802 24.4861 42.52C25.2811 48.2279 32.1845 52.6348 36.4352 54.8343C36.3557 56.4057 36.1039 59.3577 35.3248 62.0024C35.1474 62.6122 34.9323 63.2105 34.6808 63.7937C34.9832 64.7188 35.5917 65.5132 36.406 66.0462L36.4325 66.0621C36.4829 66.0965 36.5359 66.131 36.5915 66.1628L36.6339 66.1866C36.6816 66.2184 36.7346 66.2476 36.7876 66.2767L36.838 66.3032L36.9996 66.3854L37.05 66.4119L37.2381 66.4967L37.2752 66.5126C37.4289 66.5788 37.5906 66.6424 37.7602 66.6981L37.8238 66.7193L38.0172 66.7802L38.1126 66.8067L38.2902 66.8544L38.3988 66.8809L38.5764 66.9207L38.6903 66.9445L38.8785 66.9816L38.9951 67.0002C39.0658 67.0143 39.1373 67.0249 39.2098 67.032L39.3158 67.0479L39.647 67.0876H39.8511H39.9518C43.2458 66.7378 44.425 65.0737 44.8437 63.8096C44.5912 63.2135 44.377 62.6019 44.2024 61.9785C43.426 59.3286 43.1742 56.3898 43.0921 54.8237C47.3136 52.6401 54.156 48.2809 55.0173 42.6339L55.0491 42.3875L55.0729 41.3275C55.8768 41.2273 56.617 40.8386 57.1557 40.2335C57.6944 39.6285 57.9949 38.8483 58.0014 38.0383C58.0079 37.2282 57.7198 36.4433 57.1909 35.8298C56.662 35.2162 55.9281 34.8156 55.1259 34.7026L55.1365 34.6841Z" fill="white"/>
<path d="M55.2476 7.88503C50.3954 5.94792 45.0105 8.01488 43.219 12.5012C43.042 12.9458 42.9046 13.4052 42.8083 13.8739C39.942 13.3726 36.996 13.5918 34.2355 14.5119C31.475 15.4319 28.9866 17.024 26.9943 19.1447C25.0021 21.2655 23.5684 23.8483 22.8225 26.6608C22.0765 29.4732 22.0416 32.427 22.721 35.2563C22.0601 37.564 21.6653 39.9396 21.5443 42.337C21.5196 43.7261 21.6565 45.1134 21.9525 46.4709C22.8323 45.1459 23.6246 43.6222 24.4594 42.1329C24.6944 41.7089 24.9355 41.2911 25.1829 40.8795C25.318 40.6569 25.4479 40.4396 25.5936 40.2223L25.7526 39.9732L25.9037 39.748C25.9726 39.6446 26.0441 39.5439 26.113 39.4432C26.1501 39.3902 26.1872 39.3346 26.227 39.2816C26.333 39.1332 26.4416 38.9901 26.5503 38.847L26.6589 38.7092C26.7437 38.6006 26.8312 38.4946 26.9239 38.3912L27.0352 38.2587C27.1571 38.1183 27.2817 37.9778 27.4062 37.8453C29.9688 35.1556 33.2946 33.2026 36.4164 31.2523C38.9869 29.6623 41.735 28.499 44.2287 26.9249C44.5997 26.6891 44.9654 26.4453 45.3232 26.1882C46.1791 27.4655 47.6499 28.5732 48.7682 29.649C49.542 30.3857 53.321 32.4553 55.0435 33.9579C55.1235 34.4724 55.1766 34.9907 55.2025 35.5107H55.2211L55.1204 39.6128C56.4065 37.2773 57.1442 34.6796 57.2773 32.0166C57.4105 29.3537 56.9357 26.6954 55.8889 24.2432C56.9893 23.8395 57.9933 23.2104 58.8366 22.3964C59.6799 21.5823 60.344 20.6011 60.7862 19.5156C62.5803 15.0319 60.0972 9.82214 55.2476 7.88503Z" fill="#0062B2"/>
</g>
</svg>
