<svg width="68" height="30" viewBox="0 0 68 30" fill="none" xmlns="http://www.w3.org/2000/svg">
<g clip-path="url(#clip0_196_1813)">
<path d="M28.4058 4.4227L23.8463 25.8586H29.3715L33.7926 4.4227H28.4058ZM20.3925 4.4227L14.7289 18.948L12.3808 6.53771C12.104 5.1267 10.9998 4.4227 9.89419 4.4227H0.638393L0.5 4.9868C2.4345 5.4095 4.50588 6.11501 5.88831 6.82051C6.71716 7.24321 6.85556 7.66742 7.13234 8.65422L11.415 25.7187H17.217L26.0591 4.2828H20.3955V4.42421L20.3925 4.4227ZM63.3576 4.4227H58.6612C57.5556 4.4227 56.7267 4.9868 56.3131 5.97361L48.1629 25.8586H53.8265L54.9321 22.6154H61.8398L62.5302 25.8586H67.5034L63.3591 4.4227H63.3576ZM56.7267 18.244L59.6285 10.2051L61.2862 18.244H56.7267ZM40.977 10.3465C40.977 9.64103 41.6675 8.79562 43.3252 8.51282C44.154 8.37142 46.2269 8.37142 48.7135 9.49962L49.6807 4.9868C48.4367 4.5641 46.6421 4 44.5692 4C39.1809 4 35.4518 6.96191 35.4518 11.052C35.4518 14.1554 38.2151 15.8477 40.1481 16.8345C42.221 17.8213 42.9115 18.5268 42.9115 19.5136C42.9115 20.9246 41.2538 21.6286 39.5961 21.6286C36.8327 21.6286 35.3134 20.9231 34.0709 20.2176L33.1036 24.8718C34.3477 25.4359 36.6958 26 39.1824 26C44.846 26 48.5766 23.1795 48.5766 18.6667C48.5766 13.3069 40.8401 12.8842 40.9785 10.3465H40.977Z" fill="#BFDFFF"/>
</g>
<defs>
<clipPath id="clip0_196_1813">
<rect width="67" height="30" fill="white" transform="translate(0.5)"/>
</clipPath>
</defs>
</svg>
